<!--
  - The MIT License (MIT)
  -
  - Copyright (c) 2015-2022 Elior "Mallowigi" Boukhobza
  -
  - Permission is hereby granted, free of charge, to any person obtaining a copy
  - of this software and associated documentation files (the "Software"), to deal
  - in the Software without restriction, including without limitation the rights
  - to use, copy, modify, merge, publish, distribute, sublicense, and/or sell
  - copies of the Software, and to permit persons to whom the Software is
  - furnished to do so, subject to the following conditions:
  -
  - The above copyright notice and this permission notice shall be included in all
  - copies or substantial portions of the Software.
  -
  - THE SOFTWARE IS PROVIDED "AS IS", WITHOUT WARRANTY OF ANY KIND, EXPRESS OR
  - IMPLIED, INCLUDING BUT NOT LIMITED TO THE WARRANTIES OF MERCHANTABILITY,
  - FITNESS FOR A PARTICULAR PURPOSE AND NONINFRINGEMENT. IN NO EVENT SHALL THE
  - AUTHORS OR COPYRIGHT HOLDERS BE LIABLE FOR ANY CLAIM, DAMAGES OR OTHER
  - LIABILITY, WHETHER IN AN ACTION OF CONTRACT, TORT OR OTHERWISE, ARISING FROM,
  - OUT OF OR IN CONNECTION WITH THE SOFTWARE OR THE USE OR OTHER DEALINGS IN THE
  - SOFTWARE.
  -
  -
  -->

<svg big="true" clip-rule="evenodd" fill-rule="evenodd" stroke-linejoin="round" stroke-miterlimit="1.4142" version="1.1"
     viewBox="0 0 24 24" width="16px" height="16px" xml:space="preserve" xmlns="http://www.w3.org/2000/svg">
    <path fill="#5C6BC0" folderColor="Acre"
          d="M20,18H4V8H20M20,6H12L10,4H4C2.89,4 2,4.89 2,6V18A2,2 0 0,0 4,20H20A2,2 0 0,0 22,18V8C22,6.89 21.1,6 20,6Z"/>
    <path fill-rule="evenodd" clip-rule="evenodd" fill="#C5CAE9" transform="scale(0.02) translate(680 512)"
          folderIconColor="Acre"
          d="M221.7024994,512L0,384V128L221.7024994,0L444,128v256L221.7024994,512z M360.2485962,306.2721558l18.8882446,3.5755005c4.8817749,52.4662476-11.7792358,86.5969543-43.9667664,90.9980164c-31.3322144,3.7034607-50.8291016-24.7927856-62.406311-63.546875c-57.1787872,90.1828308-154.3312378,79.9512939-194.0273132,5.9785461c-36.9153023-68.2136841-5.8848648-189.2323914,77.2734375-212.4511719c48.7754822-12.382019,97.1066437,2.3746796,115.4550781,56.5195312l16.3671875-42.3945312c3.8867188-10.1640625,11.8476562-11.7265625,16.3164062-11.7265625l47.7734375,0.078125l20.6464844,3.7128906l-72.960907,154.2207031C317.2202759,330.9666748,341.3535461,341.256073,360.2485962,306.2721558z M234.369278,277.7363281c30.1928253-58.4589386-33.1330261-124.9042206-74.4414062-73.8437347c-29.3343201,38.5480194-40.537468,97.9733429-20.4824219,143.5702667C162.9099121,380.6321411,199.3048401,344.1163635,234.369278,277.7363281z"/>
</svg>
