<!--
  - The MIT License (MIT)
  -
  -  Copyright (c) 2015-2022 Elior "Mallowigi" Boukhobza
  -
  -  Permission is hereby granted, free of charge, to any person obtaining a copy
  -  of this software and associated documentation files (the "Software"), to deal
  -  in the Software without restriction, including without limitation the rights
  -  to use, copy, modify, merge, publish, distribute, sublicense, and/or sell
  -  copies of the Software, and to permit persons to whom the Software is
  -  furnished to do so, subject to the following conditions:
  -
  -  The above copyright notice and this permission notice shall be included in all
  -  copies or substantial portions of the Software.
  -
  -  THE SOFTWARE IS PROVIDED "AS IS", WITHOUT WARRANTY OF ANY KIND, EXPRESS OR
  -  IMPLIED, INCLUDING BUT NOT LIMITED TO THE WARRANTIES OF MERCHANTABILITY,
  -  FITNESS FOR A PARTICULAR PURPOSE AND NONINFRINGEMENT. IN NO EVENT SHALL THE
  -  AUTHORS OR COPYRIGHT HOLDERS BE LIABLE FOR ANY CLAIM, DAMAGES OR OTHER
  -  LIABILITY, WHETHER IN AN ACTION OF CONTRACT, TORT OR OTHERWISE, ARISING FROM,
  -  OUT OF OR IN CONNECTION WITH THE SOFTWARE OR THE USE OR OTHER DEALINGS IN THE
  -  SOFTWARE.
  -->

<svg big="true" width="16px" height="16px" viewBox="0 0 24 24" fill="none" xmlns="http://www.w3.org/2000/svg">
    <path fill="#0277BD" folderColor="ADR"
          d="M20,18H4V8H20M20,6H12L10,4H4C2.89,4 2,4.89 2,6V18A2,2 0 0,0 4,20H20A2,2 0 0,0 22,18V8C22,6.89 21.1,6 20,6Z"/>
    <path d="M17.058 21.644v-3.16c0-.59-.09-1.028-.269-1.313a4.234 4.234 0 0 0-.711-.837l.9-.901c.127.116.248.24.364.371.116.132.232.272.348.42.147-.201.298-.378.45-.53.153-.153.309-.303.467-.45.4-.37.764-.796 1.09-1.281.327-.485.5-1.333.522-2.545l-.996.996-.9-.885L20.85 9l2.529 2.529-.885.885-1.012-.996c-.02 1.507-.253 2.58-.695 3.216-.443.638-.885 1.157-1.328 1.558a5.973 5.973 0 0 0-.822.892c-.21.29-.316.757-.316 1.4v3.16h-1.264Zm-3.035-8.74a5.257 5.257 0 0 1-.087-.695 33.984 33.984 0 0 1-.04-.79l-1.01.995-.886-.885L14.529 9l2.529 2.529-.901.885-.996-.98c0 .221.01.43.032.625.02.194.042.376.063.545l-1.233.3Zm1.36 2.782a5.552 5.552 0 0 1-.609-.775 4.773 4.773 0 0 1-.514-1.09l1.217-.3a3.345 3.345 0 0 0 .806 1.264l-.9.9Z"
          fill="#B3E5FC" folderIconColor="ADR"/>
</svg>
