<!--
  - The MIT License (MIT)
  -
  - Copyright (c) 2015-2022 Elior "Mallowigi" Boukhobza
  -
  - Permission is hereby granted, free of charge, to any person obtaining a copy
  - of this software and associated documentation files (the "Software"), to deal
  - in the Software without restriction, including without limitation the rights
  - to use, copy, modify, merge, publish, distribute, sublicense, and/or sell
  - copies of the Software, and to permit persons to whom the Software is
  - furnished to do so, subject to the following conditions:
  -
  - The above copyright notice and this permission notice shall be included in all
  - copies or substantial portions of the Software.
  -
  - THE SOFTWARE IS PROVIDED "AS IS", WITHOUT WARRANTY OF ANY KIND, EXPRESS OR
  - IMPLIED, INCLUDING BUT NOT LIMITED TO THE WARRANTIES OF MERCHANTABILITY,
  - FITNESS FOR A PARTICULAR PURPOSE AND NONINFRINGEMENT. IN NO EVENT SHALL THE
  - AUTHORS OR COPYRIGHT HOLDERS BE LIABLE FOR ANY CLAIM, DAMAGES OR OTHER
  - LIABILITY, WHETHER IN AN ACTION OF CONTRACT, TORT OR OTHERWISE, ARISING FROM,
  - OUT OF OR IN CONNECTION WITH THE SOFTWARE OR THE USE OR OTHER DEALINGS IN THE
  - SOFTWARE.
  -
  -
  -->

<svg big="true" version="1.1" xmlns="http://www.w3.org/2000/svg" x="0px" width="16px" height="16px"
     y="0px" viewBox="0 0 24 24" xml:space="preserve">
    <path d="M20,18H4V8H20M20,6H12L10,4H4C2.89,4 2,4.89 2,6V18A2,2 0 0,0 4,20H20A2,2 0 0,0 22,18V8C22,6.89 21.1,6 20,6Z"
          fill="#1dacd6" folderColor="Article"/>
    <path fill="#b3e5fc" folderIconColor="Article" d="M21.6,15.5c0,1.4,0,2.8,0,4.1c0,0.9-0.5,1.3-1.4,1.3c-2,0-3.9,0-5.9,0c-0.8,0-1.3-0.5-1.3-1.4
	c0-2.8,0-5.5,0-8.3c0-0.9,0.5-1.3,1.3-1.3c2,0,3.9,0,5.9,0c0.8,0,1.3,0.5,1.3,1.4C21.6,12.7,21.6,14.1,21.6,15.5z M17.9,11.8
	c0,1,0,2,0,3c0.8,0,1.6,0,2.4,0c0-1,0-2,0-3C19.5,11.8,18.7,11.8,17.9,11.8z M14.2,16c2.1,0,4.1,0,6.1,0c0-0.2,0-0.4,0-0.6
	c-2,0-4.1,0-6.1,0C14.2,15.6,14.2,15.8,14.2,16z M20.3,16.7c-2,0-4.1,0-6.1,0c0,0.2,0,0.4,0,0.6c2,0,4.1,0,6.1,0
	C20.3,17,20.3,16.9,20.3,16.7z M14.2,18.5c2,0,4.1,0,6.1,0c0-0.2,0-0.4,0-0.6c-2,0-4.1,0-6.1,0C14.2,18.1,14.2,18.3,14.2,18.5z
	 M14.2,11.8c0,0.2,0,0.4,0,0.6c1,0,2,0,3,0c0-0.2,0-0.4,0-0.6C16.2,11.8,15.2,11.8,14.2,11.8z M14.2,13c0,0.2,0,0.4,0,0.6
	c1,0,2,0,3,0c0-0.2,0-0.4,0-0.6C16.2,13,15.2,13,14.2,13z M17.2,14.8c0-0.2,0-0.4,0-0.6c-1,0-2,0-3,0c0,0.2,0,0.4,0,0.6
	C15.2,14.8,16.2,14.8,17.2,14.8z"/>
</svg>
