<!--
  - The MIT License (MIT)
  -
  -  Copyright (c) 2015-2022 Elior "Mallowigi" Boukhobza
  -
  -  Permission is hereby granted, free of charge, to any person obtaining a copy
  -  of this software and associated documentation files (the "Software"), to deal
  -  in the Software without restriction, including without limitation the rights
  -  to use, copy, modify, merge, publish, distribute, sublicense, and/or sell
  -  copies of the Software, and to permit persons to whom the Software is
  -  furnished to do so, subject to the following conditions:
  -
  -  The above copyright notice and this permission notice shall be included in all
  -  copies or substantial portions of the Software.
  -
  -  THE SOFTWARE IS PROVIDED "AS IS", WITHOUT WARRANTY OF ANY KIND, EXPRESS OR
  -  IMPLIED, INCLUDING BUT NOT LIMITED TO THE WARRANTIES OF MERCHANTABILITY,
  -  FITNESS FOR A PARTICULAR PURPOSE AND NONINFRINGEMENT. IN NO EVENT SHALL THE
  -  AUTHORS OR COPYRIGHT HOLDERS BE LIABLE FOR ANY CLAIM, DAMAGES OR OTHER
  -  LIABILITY, WHETHER IN AN ACTION OF CONTRACT, TORT OR OTHERWISE, ARISING FROM,
  -  OUT OF OR IN CONNECTION WITH THE SOFTWARE OR THE USE OR OTHER DEALINGS IN THE
  -  SOFTWARE.
  -->

<svg big="true" version="1.1" xmlns="http://www.w3.org/2000/svg" x="0px" y="0px"
     viewBox="0 0 24 24" width="16px" height="16px" xml:space="preserve">
    <path fill="#FFA000" folderColor="Cart"
          d="M20,18H4V8H20M20,6H12L10,4H4C2.89,4 2,4.89 2,6V18A2,2 0 0,0 4,20H20A2,2 0 0,0 22,18V8C22,6.89 21.1,6 20,6Z"/>

    <path d="M21.275 18.517c-.678 0-1.222.544-1.222 1.222a1.222 1.222 0 0 0 1.222 1.222 1.222 1.222 0 0 0 1.222-1.222c0-.678-.55-1.222-1.222-1.222M11.5 8.742v1.222h1.222l2.2 4.637-.832 1.497a1.245 1.245 0 0 0-.146.586 1.222 1.222 0 0 0 1.222 1.222h7.33v-1.222h-7.074a.153.153 0 0 1-.153-.153.13.13 0 0 1 .019-.073l.55-.996h4.551c.458 0 .862-.256 1.07-.629l2.186-3.953a.773.773 0 0 0 .074-.305.61.61 0 0 0-.611-.611h-9.036l-.574-1.222m1.668 9.775c-.679 0-1.222.544-1.222 1.222a1.222 1.222 0 0 0 1.222 1.222 1.222 1.222 0 0 0 1.222-1.222c0-.678-.55-1.222-1.222-1.222z"
          fill="#FFECB3" folderIconColor="Cart"/>
</svg>
