<!--
  - The MIT License (MIT)
  -
  -  Copyright (c) 2015-2022 Elior "Mallowigi" Boukhobza
  -
  -  Permission is hereby granted, free of charge, to any person obtaining a copy
  -  of this software and associated documentation files (the "Software"), to deal
  -  in the Software without restriction, including without limitation the rights
  -  to use, copy, modify, merge, publish, distribute, sublicense, and/or sell
  -  copies of the Software, and to permit persons to whom the Software is
  -  furnished to do so, subject to the following conditions:
  -
  -  The above copyright notice and this permission notice shall be included in all
  -  copies or substantial portions of the Software.
  -
  -  THE SOFTWARE IS PROVIDED "AS IS", WITHOUT WARRANTY OF ANY KIND, EXPRESS OR
  -  IMPLIED, INCLUDING BUT NOT LIMITED TO THE WARRANTIES OF MERCHANTABILITY,
  -  FITNESS FOR A PARTICULAR PURPOSE AND NONINFRINGEMENT. IN NO EVENT SHALL THE
  -  AUTHORS OR COPYRIGHT HOLDERS BE LIABLE FOR ANY CLAIM, DAMAGES OR OTHER
  -  LIABILITY, WHETHER IN AN ACTION OF CONTRACT, TORT OR OTHERWISE, ARISING FROM,
  -  OUT OF OR IN CONNECTION WITH THE SOFTWARE OR THE USE OR OTHER DEALINGS IN THE
  -  SOFTWARE.
  -->

<svg big="true" width="16px" height="16px" clip-rule="evenodd" fill-rule="evenodd" stroke-linejoin="round"
     stroke-miterlimit="1.414" viewBox="0 0 24 24" xml:space="preserve" xmlns="http://www.w3.org/2000/svg">
    <path fill="#0288d1" folderColor="Cobol"
          d="M20,18H4V8H20M20,6H12L10,4H4C2.89,4 2,4.89 2,6V18A2,2 0 0,0 4,20H20A2,2 0 0,0 22,18V8C22,6.89 21.1,6 20,6Z"/>

    <g fill="#b3e5fc" folderIconColor="Cobol">
        <path d="M13.593 1.116a10.973 10.973 0 0 0-3.186 0L9.71 2.935a9.345 9.345 0 0 0-2.501 1.036L5.43 3.178A10.975 10.975 0 0 0 3.178 5.43l.793 1.779A9.345 9.345 0 0 0 2.935 9.71l-1.819.697a10.973 10.973 0 0 0 0 3.186l1.819.697a9.345 9.345 0 0 0 1.036 2.501l-.793 1.779a10.975 10.975 0 0 0 2.252 2.252l1.779-.793a9.345 9.345 0 0 0 2.501 1.036l.697 1.819c1.056.155 2.13.155 3.186 0l.697-1.819a9.345 9.345 0 0 0 2.501-1.036l1.779.793a10.975 10.975 0 0 0 2.252-2.252l-.793-1.779a9.345 9.345 0 0 0 1.036-2.501l1.819-.697c.155-1.056.155-2.13 0-3.186l-1.819-.697a9.345 9.345 0 0 0-1.036-2.501l.793-1.779a10.975 10.975 0 0 0-2.252-2.252l-1.779.793a9.345 9.345 0 0 0-2.501-1.036zM12 4.951c3.89 0 7.049 3.159 7.049 7.049S15.89 19.049 12 19.049 4.951 15.89 4.951 12 8.11 4.951 12 4.951z"
              transform="matrix(.57906 0 0 .57906 10.409 8.48)"/>
        <path d="M14.83 14.825A3.985 3.985 0 0 1 12 16c-2.208 0-4-1.792-4-4s1.792-4 4-4c1.105 0 2.106.449 2.83 1.175l-1.414 1.413a2 2 0 1 0 0 2.824z"
              transform="matrix(.57906 0 0 .57906 10.409 8.48)"/>
    </g>
</svg>
