<!--
  - The MIT License (MIT)
  -
  - Copyright (c) 2015-2022 Elior "Mallowigi" Boukhobza
  -
  - Permission is hereby granted, free of charge, to any person obtaining a copy
  - of this software and associated documentation files (the "Software"), to deal
  - in the Software without restriction, including without limitation the rights
  - to use, copy, modify, merge, publish, distribute, sublicense, and/or sell
  - copies of the Software, and to permit persons to whom the Software is
  - furnished to do so, subject to the following conditions:
  -
  - The above copyright notice and this permission notice shall be included in all
  - copies or substantial portions of the Software.
  -
  - THE SOFTWARE IS PROVIDED "AS IS", WITHOUT WARRANTY OF ANY KIND, EXPRESS OR
  - IMPLIED, INCLUDING BUT NOT LIMITED TO THE WARRANTIES OF MERCHANTABILITY,
  - FITNESS FOR A PARTICULAR PURPOSE AND NONINFRINGEMENT. IN NO EVENT SHALL THE
  - AUTHORS OR COPYRIGHT HOLDERS BE LIABLE FOR ANY CLAIM, DAMAGES OR OTHER
  - LIABILITY, WHETHER IN AN ACTION OF CONTRACT, TORT OR OTHERWISE, ARISING FROM,
  - OUT OF OR IN CONNECTION WITH THE SOFTWARE OR THE USE OR OTHER DEALINGS IN THE
  - SOFTWARE.
  -
  -
  -->

<svg big="true" clip-rule="evenodd" fill-rule="evenodd" stroke-linejoin="round" stroke-miterlimit="1.4142" version="1.1"
     width="16px" height="16px" viewBox="0 0 24 24"
     xml:space="preserve" xmlns="http://www.w3.org/2000/svg">
    <path fill="#00acc1" folderColor="Connection"
          d="M20,18H4V8H20M20,6H12L10,4H4C2.89,4 2,4.89 2,6V18A2,2 0 0,0 4,20H20A2,2 0 0,0 22,18V8C22,6.89 21.1,6 20,6Z"/>
    <path fill="#b2ebf2" folderIconColor="Connection"
          d="m23.043 12.103c0.45795 0.45795 0.45795 1.2021 0 1.6028l-1.6028 1.6028-4.465-4.465 1.6028-1.6028c0.45795-0.45795 1.2021-0.45795 1.6028 0l1.0304 1.0304 1.7173-1.7173 0.80142 0.80142-1.7173 1.7173 1.0304 1.0304m-3.3202 3.3202-0.80142-0.80142-1.6028 1.6028-1.2021-1.2021 1.6028-1.6028-0.80142-0.80142-1.6028 1.6028-0.85866-0.80142-1.6028 1.6028c-0.45795 0.45795-0.45795 1.2021 0 1.6028l1.0304 1.0304-2.2898 2.2898 0.80142 0.80142 2.2898-2.2898 1.0304 1.0304c0.45795 0.45795 1.2021 0.45795 1.6028 0l1.6028-1.6028-0.80142-0.80142z"
    />
</svg>
