<!--
  - The MIT License (MIT)
  -
  - Copyright (c) 2015-2022 Elior "Mallowigi" Boukhobza
  -
  - Permission is hereby granted, free of charge, to any person obtaining a copy
  - of this software and associated documentation files (the "Software"), to deal
  - in the Software without restriction, including without limitation the rights
  - to use, copy, modify, merge, publish, distribute, sublicense, and/or sell
  - copies of the Software, and to permit persons to whom the Software is
  - furnished to do so, subject to the following conditions:
  -
  - The above copyright notice and this permission notice shall be included in all
  - copies or substantial portions of the Software.
  -
  - THE SOFTWARE IS PROVIDED "AS IS", WITHOUT WARRANTY OF ANY KIND, EXPRESS OR
  - IMPLIED, INCLUDING BUT NOT LIMITED TO THE WARRANTIES OF MERCHANTABILITY,
  - FITNESS FOR A PARTICULAR PURPOSE AND NONINFRINGEMENT. IN NO EVENT SHALL THE
  - AUTHORS OR COPYRIGHT HOLDERS BE LIABLE FOR ANY CLAIM, DAMAGES OR OTHER
  - LIABILITY, WHETHER IN AN ACTION OF CONTRACT, TORT OR OTHERWISE, ARISING FROM,
  - OUT OF OR IN CONNECTION WITH THE SOFTWARE OR THE USE OR OTHER DEALINGS IN THE
  - SOFTWARE.
  -
  -
  -->

<svg big="true" xmlns="http://www.w3.org/2000/svg" clip-rule="evenodd" fill-rule="evenodd" stroke-linejoin="round"
     stroke-miterlimit="1.414" viewBox="0 0 24 24" width="16px" height="16px">
    <path d="M20,18H4V8H20M20,6H12L10,4H4C2.89,4 2,4.89 2,6V18A2,2 0 0,0 4,20H20A2,2 0 0,0 22,18V8C22,6.89 21.1,6 20,6Z"
          fill="#01579b" fill-rule="nonzero" folderColor="Dapr"/>
    <g fill="#9FA8DA" transform="scale(0.8) translate(0 -2)" folderIconColor="Dapr">
        <path d="M30.53,28.808H27.073v-8.29a.253.253,0,0,0-.252-.253H14.35a.253.253,0,0,0-.252.253v8.29H10.47a.47.47,0,0,0-.47.47V30.53a.469.469,0,0,0,.47.47H30.53a.469.469,0,0,0,.47-.47V29.278A.47.47,0,0,0,30.53,28.808Z"/>
        <path d="M10.47,31H16.5V29.4h2.4V20.265H14.35a.253.253,0,0,0-.252.253v8.29H10.47a.47.47,0,0,0-.47.47V30.53A.469.469,0,0,0,10.47,31Z"/>
    </g>
</svg>
