<!--
  - The MIT License (MIT)
  -
  - Copyright (c) 2015-2022 Elior "Mallowigi" Boukhobza
  -
  - Permission is hereby granted, free of charge, to any person obtaining a copy
  - of this software and associated documentation files (the "Software"), to deal
  - in the Software without restriction, including without limitation the rights
  - to use, copy, modify, merge, publish, distribute, sublicense, and/or sell
  - copies of the Software, and to permit persons to whom the Software is
  - furnished to do so, subject to the following conditions:
  -
  - The above copyright notice and this permission notice shall be included in all
  - copies or substantial portions of the Software.
  -
  - THE SOFTWARE IS PROVIDED "AS IS", WITHOUT WARRANTY OF ANY KIND, EXPRESS OR
  - IMPLIED, INCLUDING BUT NOT LIMITED TO THE WARRANTIES OF MERCHANTABILITY,
  - FITNESS FOR A PARTICULAR PURPOSE AND NONINFRINGEMENT. IN NO EVENT SHALL THE
  - AUTHORS OR COPYRIGHT HOLDERS BE LIABLE FOR ANY CLAIM, DAMAGES OR OTHER
  - LIABILITY, WHETHER IN AN ACTION OF CONTRACT, TORT OR OTHERWISE, ARISING FROM,
  - OUT OF OR IN CONNECTION WITH THE SOFTWARE OR THE USE OR OTHER DEALINGS IN THE
  - SOFTWARE.
  -
  -
  -->

<svg big="true" clip-rule="evenodd" fill-rule="evenodd" stroke-linejoin="round" stroke-miterlimit="1.4142" version="1.1"
     viewBox="0 0 24 24" width="16px" height="16px" xml:space="preserve" xmlns="http://www.w3.org/2000/svg">
    <path fill="#039be5" folderColor="Docker"
          d="M20,18H4V8H20M20,6H12L10,4H4C2.89,4 2,4.89 2,6V18A2,2 0 0,0 4,20H20A2,2 0 0,0 22,18V8C22,6.89 21.1,6 20,6Z"/>

    <g fill="#b3e5fc" transform="matrix(.39491 0 0 .39491 8.3185 9.6261)" folderIconColor="Docker">
        <path id="SVGID_1_"
              d="m8.7 24c-1.1 0-2.1-.9-2.1-2s.9-2 2.1-2 2.1.9 2.1 2-1 2-2.1 2zm25.8-10.9c-.2-1.6-1.2-2.9-2.5-3.9l-.5-.4-.4.5c-.8.9-1.1 2.5-1 3.7.1.9.4 1.8.9 2.5-.4.2-.9.4-1.3.6-.9.3-1.8.4-2.7.4h-25.9l-.1.6c-.2 1.9.1 3.9.9 5.7l.4.7v.1c2.4 4 6.7 5.8 11.4 5.8 9 0 16.4-3.9 19.9-12.3 2.3.1 4.6-.5 5.7-2.7l.3-.5-.5-.3c-1.3-.8-3.1-.9-4.6-.5zm-12.9-1.6h-3.9v3.9h3.9zm0-4.9h-3.9v3.9h3.9zm0-5h-3.9v3.9h3.9zm4.8 9.9h-3.9v3.9h3.9zm-14.5 0h-3.9v3.9h3.9zm4.9 0h-3.9v3.9h3.9zm-9.7 0h-3.9v3.9h3.9zm9.7-4.9h-3.9v3.9h3.9zm-4.9 0h-3.9v3.9h3.9z"/>
    </g>
</svg>
