<!--
  - The MIT License (MIT)
  -
  - Copyright (c) 2015-2022 Elior "Mallowigi" Boukhobza
  -
  - Permission is hereby granted, free of charge, to any person obtaining a copy
  - of this software and associated documentation files (the "Software"), to deal
  - in the Software without restriction, including without limitation the rights
  - to use, copy, modify, merge, publish, distribute, sublicense, and/or sell
  - copies of the Software, and to permit persons to whom the Software is
  - furnished to do so, subject to the following conditions:
  -
  - The above copyright notice and this permission notice shall be included in all
  - copies or substantial portions of the Software.
  -
  - THE SOFTWARE IS PROVIDED "AS IS", WITHOUT WARRANTY OF ANY KIND, EXPRESS OR
  - IMPLIED, INCLUDING BUT NOT LIMITED TO THE WARRANTIES OF MERCHANTABILITY,
  - FITNESS FOR A PARTICULAR PURPOSE AND NONINFRINGEMENT. IN NO EVENT SHALL THE
  - AUTHORS OR COPYRIGHT HOLDERS BE LIABLE FOR ANY CLAIM, DAMAGES OR OTHER
  - LIABILITY, WHETHER IN AN ACTION OF CONTRACT, TORT OR OTHERWISE, ARISING FROM,
  - OUT OF OR IN CONNECTION WITH THE SOFTWARE OR THE USE OR OTHER DEALINGS IN THE
  - SOFTWARE.
  -
  -
  -->

<svg big="true" clip-rule="evenodd" fill-rule="evenodd" stroke-linejoin="round" stroke-miterlimit="1.4142" version="1.1"
     viewBox="0 0 24 24" width="16px" height="16px" xml:space="preserve" xmlns="http://www.w3.org/2000/svg">
    <path fill="#0277bd" folderColor="Dropbox"
          d="M20,18H4V8H20M20,6H12L10,4H4C2.89,4 2,4.89 2,6V18A2,2 0 0,0 4,20H20A2,2 0 0,0 22,18V8C22,6.89 21.1,6 20,6Z"/>
    <path transform="scale(0.03) translate(300 300)" fill="#b3e5fc" folderIconColor="Dropbox"
          d="M0,282.9701843l150.6083984,98.2893982l105.4144287-87.8986511L104.158432,199.6389008L0,282.9701843z M150.6083984,18.018177L0.0000109,116.2390671l104.1355972,83.3769913L256,105.87117L150.6083984,18.018177z M512,116.2390671L361.3916321,18.0181885L256,105.8940201l151.8415833,93.7448807L512,116.2390671z M256,293.3609314l105.3916321,87.8986511L512,282.9701843l-104.1355896-83.3541412L256,293.3609314z M256.3197327,312.2697449l-105.7113342,87.6703186l-45.2396088-29.5507812v33.1361389l150.9281158,90.4563904l150.9281311-90.4563904v-33.1361389l-45.2395935,29.5507812L256.3197327,312.2697449z"/>

</svg>
