<!--
  - The MIT License (MIT)
  -
  - Copyright (c) 2015-2022 Elior "Mallowigi" Boukhobza
  -
  - Permission is hereby granted, free of charge, to any person obtaining a copy
  - of this software and associated documentation files (the "Software"), to deal
  - in the Software without restriction, including without limitation the rights
  - to use, copy, modify, merge, publish, distribute, sublicense, and/or sell
  - copies of the Software, and to permit persons to whom the Software is
  - furnished to do so, subject to the following conditions:
  -
  - The above copyright notice and this permission notice shall be included in all
  - copies or substantial portions of the Software.
  -
  - THE SOFTWARE IS PROVIDED "AS IS", WITHOUT WARRANTY OF ANY KIND, EXPRESS OR
  - IMPLIED, INCLUDING BUT NOT LIMITED TO THE WARRANTIES OF MERCHANTABILITY,
  - FITNESS FOR A PARTICULAR PURPOSE AND NONINFRINGEMENT. IN NO EVENT SHALL THE
  - AUTHORS OR COPYRIGHT HOLDERS BE LIABLE FOR ANY CLAIM, DAMAGES OR OTHER
  - LIABILITY, WHETHER IN AN ACTION OF CONTRACT, TORT OR OTHERWISE, ARISING FROM,
  - OUT OF OR IN CONNECTION WITH THE SOFTWARE OR THE USE OR OTHER DEALINGS IN THE
  - SOFTWARE.
  -
  -
  -->

<svg big="true" clip-rule="evenodd" fill-rule="evenodd" stroke-linejoin="round" stroke-miterlimit="1.4142" version="1.1"
     viewBox="0 0 24 24" xml:space="preserve" xmlns="http://www.w3.org/2000/svg" width="16px" height="16px">
    <path fill="#fbc02d" folderColor="Elastic"
          d="M20,18H4V8H20M20,6H12L10,4H4C2.89,4 2,4.89 2,6V18A2,2 0 0,0 4,20H20A2,2 0 0,0 22,18V8C22,6.89 21.1,6 20,6Z"/>
    <g fill="#fff9c4" folderIconColor="Elastic" transform="scale(0.5) translate(16 16)">
        <path d="M12.761,13.89l6.644,3.027,6.7-5.874a7.017,7.017,0,0,0,.141-1.475,7.484,7.484,0,0,0-13.66-4.233L11.466,11.12Z"/>
        <path d="M5.886,20.919a7.262,7.262,0,0,0-.141,1.5,7.514,7.514,0,0,0,13.724,4.22l1.1-5.759L19.1,18.059l-6.67-3.04Z"/>
        <path d="M5.848,9.426,10.4,10.5l1-5.169A3.594,3.594,0,0,0,5.848,9.426"/>
        <path d="M5.45,10.517a5.016,5.016,0,0,0-.218,9.453L11.62,14.2l-1.167-2.5Z"/>
        <path d="M20.624,26.639a3.589,3.589,0,0,0,5.541-4.092l-4.541-1.065Z"/>
        <path d="M21.547,20.29l5,1.167A5.016,5.016,0,0,0,26.768,12l-6.541,5.733Z"/>
    </g>
</svg>
