<!--
  - The MIT License (MIT)
  -
  - Copyright (c) 2015-2022 Elior "Mallowigi" Boukhobza
  -
  - Permission is hereby granted, free of charge, to any person obtaining a copy
  - of this software and associated documentation files (the "Software"), to deal
  - in the Software without restriction, including without limitation the rights
  - to use, copy, modify, merge, publish, distribute, sublicense, and/or sell
  - copies of the Software, and to permit persons to whom the Software is
  - furnished to do so, subject to the following conditions:
  -
  - The above copyright notice and this permission notice shall be included in all
  - copies or substantial portions of the Software.
  -
  - THE SOFTWARE IS PROVIDED "AS IS", WITHOUT WARRANTY OF ANY KIND, EXPRESS OR
  - IMPLIED, INCLUDING BUT NOT LIMITED TO THE WARRANTIES OF MERCHANTABILITY,
  - FITNESS FOR A PARTICULAR PURPOSE AND NONINFRINGEMENT. IN NO EVENT SHALL THE
  - AUTHORS OR COPYRIGHT HOLDERS BE LIABLE FOR ANY CLAIM, DAMAGES OR OTHER
  - LIABILITY, WHETHER IN AN ACTION OF CONTRACT, TORT OR OTHERWISE, ARISING FROM,
  - OUT OF OR IN CONNECTION WITH THE SOFTWARE OR THE USE OR OTHER DEALINGS IN THE
  - SOFTWARE.
  -
  -
  -->

<svg big="true" clip-rule="evenodd" fill-rule="evenodd" width="16px" height="16px" stroke-linejoin="round"
     stroke-miterlimit="1.414" version="1.1" viewBox="0 0 24 24" xmlns="http://www.w3.org/2000/svg">
    <path fill="#ef5350" folderColor="Google Cloud"
          d="M20,18H4V8H20M20,6H12L10,4H4C2.89,4 2,4.89 2,6V18A2,2 0 0,0 4,20H20A2,2 0 0,0 22,18V8C22,6.89 21.1,6 20,6Z"/>
    <g fill="#ffcdd2" transform="scale(0.65) translate(6 6)" folderIconColor="Google Cloud">
        <path d="M22.229,17.061h.732l2.086-2.086.1-.886A9.377,9.377,0,0,0,9.9,18.664a1.135,1.135,0,0,1,.732-.043l4.172-.689s.213-.351.322-.329a5.206,5.206,0,0,1,7.123-.542Z"/>
        <path d="M28.019,18.664A9.394,9.394,0,0,0,25.186,14.1l-2.928,2.928a5.2,5.2,0,0,1,1.911,4.128v.52a2.606,2.606,0,0,1,0,5.212H18.957l-.52.527v3.126l.52.519h5.212a6.778,6.778,0,0,0,3.85-12.393Z"/>
        <path d="M13.738,31.028H18.95V26.856H13.738a2.6,2.6,0,0,1-1.076-.235l-.732.227-2.1,2.086-.183.732A6.743,6.743,0,0,0,13.738,31.028Z"/>
        <path d="M13.738,17.493A6.778,6.778,0,0,0,9.646,29.644l3.023-3.023a2.606,2.606,0,1,1,3.448-3.447L19.14,20.15A6.774,6.774,0,0,0,13.738,17.493Z"/>
        <path d="M13.738,17.493A6.778,6.778,0,0,0,9.646,29.644l3.023-3.023a2.606,2.606,0,1,1,3.448-3.447L19.14,20.15A6.774,6.774,0,0,0,13.738,17.493Z"/>
    </g>
</svg>
