<!--
  - The MIT License (MIT)
  -
  -  Copyright (c) 2015-2022 Elior "Mallowigi" Boukhobza
  -
  -  Permission is hereby granted, free of charge, to any person obtaining a copy
  -  of this software and associated documentation files (the "Software"), to deal
  -  in the Software without restriction, including without limitation the rights
  -  to use, copy, modify, merge, publish, distribute, sublicense, and/or sell
  -  copies of the Software, and to permit persons to whom the Software is
  -  furnished to do so, subject to the following conditions:
  -
  -  The above copyright notice and this permission notice shall be included in all
  -  copies or substantial portions of the Software.
  -
  -  THE SOFTWARE IS PROVIDED "AS IS", WITHOUT WARRANTY OF ANY KIND, EXPRESS OR
  -  IMPLIED, INCLUDING BUT NOT LIMITED TO THE WARRANTIES OF MERCHANTABILITY,
  -  FITNESS FOR A PARTICULAR PURPOSE AND NONINFRINGEMENT. IN NO EVENT SHALL THE
  -  AUTHORS OR COPYRIGHT HOLDERS BE LIABLE FOR ANY CLAIM, DAMAGES OR OTHER
  -  LIABILITY, WHETHER IN AN ACTION OF CONTRACT, TORT OR OTHERWISE, ARISING FROM,
  -  OUT OF OR IN CONNECTION WITH THE SOFTWARE OR THE USE OR OTHER DEALINGS IN THE
  -  SOFTWARE.
  -->

<svg big="true" viewBox="0 0 24 24" fill="none" xmlns="http://www.w3.org/2000/svg" width="16px" height="16px">
    <path fill="#D63AFF" folderColor="JWT"
          d="M20,18H4V8H20M20,6H12L10,4H4C2.89,4 2,4.89 2,6V18A2,2 0 0,0 4,20H20A2,2 0 0,0 22,18V8C22,6.89 21.1,6 20,6Z"/>
    <g fill="#E1BEE7" folderIconColor="JWT">
        <path fill-rule="evenodd" clip-rule="evenodd"
              d="M18.448 15.022 18.437 12h-1.685l.011 3.022.843 1.157.842-1.157ZM16.763 20.2v3.034h1.685V20.2l-.842-1.157-.843 1.157Z"
        />
        <path fill-rule="evenodd" clip-rule="evenodd"
              d="m18.448 20.2 1.775 2.45 1.36-.989-1.776-2.449-1.359-.438V20.2ZM16.763 15.022l-1.786-2.45-1.36.99 1.776 2.448 1.37.439v-1.427Z"
        />
        <path fill-rule="evenodd" clip-rule="evenodd"
              d="m15.393 16.01-2.876-.932L12 16.673l2.876.944 1.36-.45-.843-1.157ZM18.965 18.055l.842 1.157 2.876.933.517-1.596-2.876-.932-1.36.438Z"
        />
        <path fill-rule="evenodd" clip-rule="evenodd"
              d="m20.324 17.617 2.876-.944-.517-1.595-2.876.932-.842 1.157 1.36.45ZM14.876 17.617 12 18.549l.517 1.596 2.876-.933.842-1.157-1.36-.438Z"
        />
        <path fill-rule="evenodd" clip-rule="evenodd"
              d="m15.393 19.212-1.775 2.449 1.359.989 1.786-2.45v-1.426l-1.37.438ZM19.807 16.01l1.775-2.449-1.359-.988-1.775 2.449v1.427l1.36-.439Z"
        />
    </g>
</svg>
