<!--
  - The MIT License (MIT)
  -
  - Copyright (c) 2015-2022 Elior "Mallowigi" Boukhobza
  -
  - Permission is hereby granted, free of charge, to any person obtaining a copy
  - of this software and associated documentation files (the "Software"), to deal
  - in the Software without restriction, including without limitation the rights
  - to use, copy, modify, merge, publish, distribute, sublicense, and/or sell
  - copies of the Software, and to permit persons to whom the Software is
  - furnished to do so, subject to the following conditions:
  -
  - The above copyright notice and this permission notice shall be included in all
  - copies or substantial portions of the Software.
  -
  - THE SOFTWARE IS PROVIDED "AS IS", WITHOUT WARRANTY OF ANY KIND, EXPRESS OR
  - IMPLIED, INCLUDING BUT NOT LIMITED TO THE WARRANTIES OF MERCHANTABILITY,
  - FITNESS FOR A PARTICULAR PURPOSE AND NONINFRINGEMENT. IN NO EVENT SHALL THE
  - AUTHORS OR COPYRIGHT HOLDERS BE LIABLE FOR ANY CLAIM, DAMAGES OR OTHER
  - LIABILITY, WHETHER IN AN ACTION OF CONTRACT, TORT OR OTHERWISE, ARISING FROM,
  - OUT OF OR IN CONNECTION WITH THE SOFTWARE OR THE USE OR OTHER DEALINGS IN THE
  - SOFTWARE.
  -
  -
  -->

<svg big="true" clip-rule="evenodd" fill-rule="evenodd" stroke-linejoin="round" stroke-miterlimit="1.4142" version="1.1"
     viewBox="0 0 24 24" height="16px" width="16px" xml:space="preserve" xmlns="http://www.w3.org/2000/svg">
    <path fill="#6CAC23" folderColor="Vendors"
          d="M20,18H4V8H20M20,6H12L10,4H4C2.89,4 2,4.89 2,6V18A2,2 0 0,0 4,20H20A2,2 0 0,0 22,18V8C22,6.89 21.1,6 20,6Z"/>
    <path d="m17.39 12.544a2.0508 2.0508 0 0 0 2.0508 -2.0508 2.0508 2.0508 0 0 0 -2.0508 -2.0508 2.0508 2.0508 0 0 0 -2.0508 2.0508 2.0508 2.0508 0 0 0 2.0508 2.0508m0 2.42c-1.6133-1.4971-3.7599-2.42-6.1525-2.42v7.5198c2.3927 0 4.5392 0.92288 6.1525 2.42 1.6133-1.4971 3.7599-2.42 6.1525-2.42v-7.5198c-2.3927 0-4.5392 0.92288-6.1525 2.42z"
          fill="#A5D6A7" folderIconColor="Vendors"/>
</svg>
