<!--
  - The MIT License (MIT)
  -
  - Copyright (c) 2015-2023 Elior "Mallowigi" Boukhobza
  -
  - Permission is hereby granted, free of charge, to any person obtaining a copy
  - of this software and associated documentation files (the "Software"), to deal
  - in the Software without restriction, including without limitation the rights
  - to use, copy, modify, merge, publish, distribute, sublicense, and/or sell
  - copies of the Software, and to permit persons to whom the Software is
  - furnished to do so, subject to the following conditions:
  -
  - The above copyright notice and this permission notice shall be included in all
  - copies or substantial portions of the Software.
  -
  - THE SOFTWARE IS PROVIDED "AS IS", WITHOUT WARRANTY OF ANY KIND, EXPRESS OR
  - IMPLIED, INCLUDING BUT NOT LIMITED TO THE WARRANTIES OF MERCHANTABILITY,
  - FITNESS FOR A PARTICULAR PURPOSE AND NONINFRINGEMENT. IN NO EVENT SHALL THE
  - AUTHORS OR COPYRIGHT HOLDERS BE LIABLE FOR ANY CLAIM, DAMAGES OR OTHER
  - LIABILITY, WHETHER IN AN ACTION OF CONTRACT, TORT OR OTHERWISE, ARISING FROM,
  - OUT OF OR IN CONNECTION WITH THE SOFTWARE OR THE USE OR OTHER DEALINGS IN THE
  - SOFTWARE.
  -->

<svg big="true" clip-rule="evenodd" fill-rule="evenodd" stroke-linejoin="round" stroke-miterlimit="1.414"
     viewBox="0 0 24 24" version="1.1" width="16px" height="16px" xmlns="http://www.w3.org/2000/svg">
  <path fill="#009688" folderColor="Lottie"
        d="M20,18H4V8H20M20,6H12L10,4H4C2.89,4 2,4.89 2,6V18A2,2 0 0,0 4,20H20A2,2 0 0,0 22,18V8C22,6.89 21.1,6 20,6Z"/>

  <path fill="#b2dfdb" folderIconColor="Lottie"
        d="m 22.681383,10.200413 c -3.563813,0 -4.878278,2.540649 -5.937828,4.582429 l -0.697135,1.304954 c -1.12364,2.16562 -1.961978,3.481117 -4.123462,3.481117 A 1.0219242,1.0219242 0 0 0 10.9,20.590837 a 1.0219242,1.0219242 0 0 0 1.022751,1.021718 c 3.563814,0 4.87807,-2.540855 5.937828,-4.582638 l 0.692792,-1.304953 c 1.123642,-2.165412 1.962185,-3.480909 4.123671,-3.480909 A 1.0219242,1.0219242 0 0 0 23.7,11.22213 1.022131,1.022131 0 0 0 22.677042,10.2 h 0.0041 z"
  />
</svg>
