<!--
  - The MIT License (MIT)
  -
  - Copyright (c) 2015-2022 Elior "Mallowigi" Boukhobza
  -
  - Permission is hereby granted, free of charge, to any person obtaining a copy
  - of this software and associated documentation files (the "Software"), to deal
  - in the Software without restriction, including without limitation the rights
  - to use, copy, modify, merge, publish, distribute, sublicense, and/or sell
  - copies of the Software, and to permit persons to whom the Software is
  - furnished to do so, subject to the following conditions:
  -
  - The above copyright notice and this permission notice shall be included in all
  - copies or substantial portions of the Software.
  -
  - THE SOFTWARE IS PROVIDED "AS IS", WITHOUT WARRANTY OF ANY KIND, EXPRESS OR
  - IMPLIED, INCLUDING BUT NOT LIMITED TO THE WARRANTIES OF MERCHANTABILITY,
  - FITNESS FOR A PARTICULAR PURPOSE AND NONINFRINGEMENT. IN NO EVENT SHALL THE
  - AUTHORS OR COPYRIGHT HOLDERS BE LIABLE FOR ANY CLAIM, DAMAGES OR OTHER
  - LIABILITY, WHETHER IN AN ACTION OF CONTRACT, TORT OR OTHERWISE, ARISING FROM,
  - OUT OF OR IN CONNECTION WITH THE SOFTWARE OR THE USE OR OTHER DEALINGS IN THE
  - SOFTWARE.
  -
  -
  -->

<svg big="true" version="1.1" xmlns="http://www.w3.org/2000/svg" viewBox="0 0 24 24" width="16px" height="16px"
     xml:space="preserve">
    <path fill="#F26B00" folderColor="MJML"
          d="M20,18H4V8H20M20,6H12L10,4H4C2.89,4 2,4.89 2,6V18A2,2 0 0,0 4,20H20A2,2 0 0,0 22,18V8C22,6.89 21.1,6 20,6Z"/>

    <g transform="matrix(.78524 0 0 .78524 11.024 15.241)" fill="#FFE0B2" folderIconColor="MJML">
        <g transform="matrix(1.0221 0 0 1.0221 -1.3771 -1.2585) scale(0.13) translate(0 -30)">
            <path class="st0"
                  d="m14.5 0h57.3c8 0 14.5 6.5 14.5 14.5s-6.5 14.5-14.5 14.5h-57.3c-8 0-14.5-6.5-14.5-14.5s6.5-14.5 14.5-14.5z"/>
            <ellipse class="st0" cx="109.2" cy="14.5" rx="14.8" ry="14.5"/>
            <path class="st0"
                  d="m52.6 43.3h56.6c8-.6 14.9 5.5 15.5 13.5s-5.5 14.9-13.5 15.5h-1.4-57.2c-8 .6-14.9-5.5-15.5-13.5s5.5-14.9 13.5-15.5h1.4z"/>
            <path class="st1"
                  d="m14.8 43c8.2 0 14.8 6.6 14.8 14.8s-6.6 14.8-14.8 14.8c-8.2-.1-14.8-6.7-14.8-14.8 0-8.2 6.6-14.8 14.8-14.8z"/>
            <path class="st0"
                  d="m14.5 85h57.3c8 0 14.5 6.5 14.5 14.5s-6.5 14.5-14.5 14.5h-57.3c-8 0-14.5-6.5-14.5-14.5s6.5-14.5 14.5-14.5z"/>
            <ellipse class="st0" cx="109.2" cy="99.5" rx="14.8" ry="14.5"/>
        </g>
    </g>
</svg>
