<!--
  - The MIT License (MIT)
  -
  -  Copyright (c) 2015-2022 Elior "Mallowigi" Boukhobza
  -
  -  Permission is hereby granted, free of charge, to any person obtaining a copy
  -  of this software and associated documentation files (the "Software"), to deal
  -  in the Software without restriction, including without limitation the rights
  -  to use, copy, modify, merge, publish, distribute, sublicense, and/or sell
  -  copies of the Software, and to permit persons to whom the Software is
  -  furnished to do so, subject to the following conditions:
  -
  -  The above copyright notice and this permission notice shall be included in all
  -  copies or substantial portions of the Software.
  -
  -  THE SOFTWARE IS PROVIDED "AS IS", WITHOUT WARRANTY OF ANY KIND, EXPRESS OR
  -  IMPLIED, INCLUDING BUT NOT LIMITED TO THE WARRANTIES OF MERCHANTABILITY,
  -  FITNESS FOR A PARTICULAR PURPOSE AND NONINFRINGEMENT. IN NO EVENT SHALL THE
  -  AUTHORS OR COPYRIGHT HOLDERS BE LIABLE FOR ANY CLAIM, DAMAGES OR OTHER
  -  LIABILITY, WHETHER IN AN ACTION OF CONTRACT, TORT OR OTHERWISE, ARISING FROM,
  -  OUT OF OR IN CONNECTION WITH THE SOFTWARE OR THE USE OR OTHER DEALINGS IN THE
  -  SOFTWARE.
  -->

<svg big="true" xmlns="http://www.w3.org/2000/svg" xml:space="preserve" fill-rule="evenodd" stroke-linejoin="round"
     width="16px" height="16px" stroke-miterlimit="1.414" clip-rule="evenodd" viewBox="0 0 24 24">
     <path fill="#6e58d1" folderColor="Moon"
           d="M20,18H4V8H20M20,6H12L10,4H4C2.89,4 2,4.89 2,6V18A2,2 0 0,0 4,20H20A2,2 0 0,0 22,18V8C22,6.89 21.1,6 20,6Z"/>

    <g fill="#A596F6" folderIconColor="Moon">
        <path d="M21.49919 13.28413c.09734.25662.15338.53388.15338.82442 0 1.28309-1.03974 2.32283-2.32283 2.32283s-2.32283-1.03974-2.32283-2.32283 1.03827-2.32431 2.32136-2.32431c.34068 0 .66219.07522.9542.20647-.90849-.69464-2.04409-1.10759-3.27704-1.10759-2.98502 0-5.40519 2.42017-5.40519 5.40519s2.42017 5.40519 5.40519 5.40519 5.40519-2.42017 5.40519-5.40519c0-1.11201-.33626-2.14438-.91144-3.0042z"/>
        <circle cx="21.45199" cy="11.92582" r="2.32283"/>
    </g>
</svg>
