<!--
  - The MIT License (MIT)
  -
  - Copyright (c) 2015-2022 Elior "Mallowigi" Boukhobza
  -
  - Permission is hereby granted, free of charge, to any person obtaining a copy
  - of this software and associated documentation files (the "Software"), to deal
  - in the Software without restriction, including without limitation the rights
  - to use, copy, modify, merge, publish, distribute, sublicense, and/or sell
  - copies of the Software, and to permit persons to whom the Software is
  - furnished to do so, subject to the following conditions:
  -
  - The above copyright notice and this permission notice shall be included in all
  - copies or substantial portions of the Software.
  -
  - THE SOFTWARE IS PROVIDED "AS IS", WITHOUT WARRANTY OF ANY KIND, EXPRESS OR
  - IMPLIED, INCLUDING BUT NOT LIMITED TO THE WARRANTIES OF MERCHANTABILITY,
  - FITNESS FOR A PARTICULAR PURPOSE AND NONINFRINGEMENT. IN NO EVENT SHALL THE
  - AUTHORS OR COPYRIGHT HOLDERS BE LIABLE FOR ANY CLAIM, DAMAGES OR OTHER
  - LIABILITY, WHETHER IN AN ACTION OF CONTRACT, TORT OR OTHERWISE, ARISING FROM,
  - OUT OF OR IN CONNECTION WITH THE SOFTWARE OR THE USE OR OTHER DEALINGS IN THE
  - SOFTWARE.
  -
  -
  -->

<svg big="true" clip-rule="evenodd" fill-rule="evenodd" stroke-linejoin="round" stroke-miterlimit="1.414" version="1.1"
     viewBox="0 0 24 24" xmlns="http://www.w3.org/2000/svg" width="16px" height="16px">
    <path fill="#ffc63a" folderColor="Pinia"
          d="M20,18H4V8H20M20,6H12L10,4H4C2.89,4 2,4.89 2,6V18A2,2 0 0,0 4,20H20A2,2 0 0,0 22,18V8C22,6.89 21.1,6 20,6Z"/>

    <g fill="none" fill-rule="evenodd" transform="scale(0.03) translate(400 240)">
        <g transform="matrix(.99254615 .12186934 -.12186934 .99254615 33.922073 .976691)" fill="#52ce63">
            <path d="m103.950535 258.274149c44.361599-4.360825 60.014503-40.391282 65.353094-94.699444s-30.93219-103.451001-46.020347-101.9678079c-15.088156 1.4831932-63.0385313 58.9051239-68.3771222 113.2132869-5.3385908 54.308162 4.6827754 87.814791 49.0443752 83.453965z"
                  transform="matrix(.70710678 -.70710678 .70710678 .70710678 -80.496332 125.892944)"/>
            <path d="m275.876752 258.273992c44.3616 4.360826 53.167133-29.265322 47.828542-83.573485-5.338591-54.308162-52.073133-111.6105744-67.16129-113.0937675-15.088156-1.4831931-52.57477 47.5401275-47.236179 101.8482895s22.207328 90.458137 66.568927 94.818963z"
                  transform="matrix(.70710678 .70710678 -.70710678 .70710678 191.403399 -141.861963)"/>
            <path d="m188.370027 216.876305c39.941834 0 50.95265-38.251987 50.95265-97.89874 0-59.6467532-37.367733-118.10125956-50.95265-118.10125956s-52.04735 58.45450636-52.04735 118.10125956c0 59.646753 12.105516 97.89874 52.04735 97.89874z"
            />
        </g>
        <path d="m184.473473 501c83.118854 0 150.526527-24.145148 150.526527-133.645148s-67.407673-199.354852-150.526527-199.354852c-83.118855 0-150.473473 89.854852-150.473473 199.354852s67.354618 133.645148 150.473473 133.645148z"
              fill="#fff9c4" folderIconColor="Pinia"/>
    </g>
</svg>
