<!--
  - The MIT License (MIT)
  -
  - Copyright (c) 2015-2022 Elior "Mallowigi" Boukhobza
  -
  - Permission is hereby granted, free of charge, to any person obtaining a copy
  - of this software and associated documentation files (the "Software"), to deal
  - in the Software without restriction, including without limitation the rights
  - to use, copy, modify, merge, publish, distribute, sublicense, and/or sell
  - copies of the Software, and to permit persons to whom the Software is
  - furnished to do so, subject to the following conditions:
  -
  - The above copyright notice and this permission notice shall be included in all
  - copies or substantial portions of the Software.
  -
  - THE SOFTWARE IS PROVIDED "AS IS", WITHOUT WARRANTY OF ANY KIND, EXPRESS OR
  - IMPLIED, INCLUDING BUT NOT LIMITED TO THE WARRANTIES OF MERCHANTABILITY,
  - FITNESS FOR A PARTICULAR PURPOSE AND NONINFRINGEMENT. IN NO EVENT SHALL THE
  - AUTHORS OR COPYRIGHT HOLDERS BE LIABLE FOR ANY CLAIM, DAMAGES OR OTHER
  - LIABILITY, WHETHER IN AN ACTION OF CONTRACT, TORT OR OTHERWISE, ARISING FROM,
  - OUT OF OR IN CONNECTION WITH THE SOFTWARE OR THE USE OR OTHER DEALINGS IN THE
  - SOFTWARE.
  -
  -
  -->

<svg big="true" clip-rule="evenodd" fill-rule="evenodd" stroke-linejoin="round" stroke-miterlimit="1.4142" version="1.1"
     viewBox="0 0 24 24" width="16px" height="16px" xml:space="preserve" xmlns="http://www.w3.org/2000/svg">
    <path fill="#64B5F6" folderColor="Redux Epics"
          d="M20,18H4V8H20M20,6H12L10,4H4C2.89,4 2,4.89 2,6V18A2,2 0 0,0 4,20H20A2,2 0 0,0 22,18V8C22,6.89 21.1,6 20,6Z"/>
    <g transform="matrix(.17228 0 0 .17228 8.3783 6.4361)" fill="#BBDEFB" stroke="#BBDEFB" stroke-miterlimit="4"
       stroke-width="1.7019" folderIconColor="Redux Epics">
        <path d="m65.6 65.4c2.9-.3 5.1-2.8 5-5.8s-2.6-5.4-5.6-5.4h-.2c-3.1.1-5.5 2.7-5.4 5.8.1 1.5.7 2.8 1.6 3.7-3.4 6.7-8.6 11.6-16.4 15.7-5.3 2.8-10.8 3.8-16.3 3.1-4.5-.6-8-2.6-10.2-5.9-3.2-4.9-3.5-10.2-.8-15.5 1.9-3.8 4.9-6.6 6.8-8-.4-1.3-1-3.5-1.3-5.1-14.5 10.5-13 24.7-8.6 31.4 3.3 5 10 8.1 17.4 8.1 2 0 4-.2 6-.7 12.8-2.5 22.5-10.1 28-21.4z"/>
        <path d="m83.2 53c-7.6-8.9-18.8-13.8-31.6-13.8h-1.6c-.9-1.8-2.8-3-4.9-3h-.2c-3.1.1-5.5 2.7-5.4 5.8.1 3 2.6 5.4 5.6 5.4h.2c2.2-.1 4.1-1.5 4.9-3.4h1.8c7.6 0 14.8 2.2 21.3 6.5 5 3.3 8.6 7.6 10.6 12.8 1.7 4.2 1.6 8.3-.2 11.8-2.8 5.3-7.5 8.2-13.7 8.2-4 0-7.8-1.2-9.8-2.1-1.1 1-3.1 2.6-4.5 3.6 4.3 2 8.7 3.1 12.9 3.1 9.6 0 16.7-5.3 19.4-10.6 2.9-5.8 2.7-15.8-4.8-24.3z"/>
        <path d="m32.4 67.1c.1 3 2.6 5.4 5.6 5.4h.2c3.1-.1 5.5-2.7 5.4-5.8-.1-3-2.6-5.4-5.6-5.4h-.2c-.2 0-.5 0-.7.1-4.1-6.8-5.8-14.2-5.2-22.2.4-6 2.4-11.2 5.9-15.5 2.9-3.7 8.5-5.5 12.3-5.6 10.6-.2 15.1 13 15.4 18.3 1.3.3 3.5 1 5 1.5-1.2-16.2-11.2-24.6-20.8-24.6-9 0-17.3 6.5-20.6 16.1-4.6 12.8-1.6 25.1 4 34.8-.5.7-.8 1.8-.7 2.9z"/>
    </g>
</svg>
