<!--
  - The MIT License (MIT)
  -
  - Copyright (c) 2015-2022 Elior "Mallowigi" Boukhobza
  -
  - Permission is hereby granted, free of charge, to any person obtaining a copy
  - of this software and associated documentation files (the "Software"), to deal
  - in the Software without restriction, including without limitation the rights
  - to use, copy, modify, merge, publish, distribute, sublicense, and/or sell
  - copies of the Software, and to permit persons to whom the Software is
  - furnished to do so, subject to the following conditions:
  -
  - The above copyright notice and this permission notice shall be included in all
  - copies or substantial portions of the Software.
  -
  - THE SOFTWARE IS PROVIDED "AS IS", WITHOUT WARRANTY OF ANY KIND, EXPRESS OR
  - IMPLIED, INCLUDING BUT NOT LIMITED TO THE WARRANTIES OF MERCHANTABILITY,
  - FITNESS FOR A PARTICULAR PURPOSE AND NONINFRINGEMENT. IN NO EVENT SHALL THE
  - AUTHORS OR COPYRIGHT HOLDERS BE LIABLE FOR ANY CLAIM, DAMAGES OR OTHER
  - LIABILITY, WHETHER IN AN ACTION OF CONTRACT, TORT OR OTHERWISE, ARISING FROM,
  - OUT OF OR IN CONNECTION WITH THE SOFTWARE OR THE USE OR OTHER DEALINGS IN THE
  - SOFTWARE.
  -
  -
  -->

<svg big="true" clip-rule="evenodd" fill-rule="evenodd" stroke-linejoin="round" stroke-miterlimit="1.4142" version="1.1"
     viewBox="0 0 24 24" width="16px" height="16px" xml:space="preserve" xmlns="http://www.w3.org/2000/svg">
    <path fill="#9C27B0" folderColor="Stencil"
          d="M20,18H4V8H20M20,6H12L10,4H4C2.89,4 2,4.89 2,6V18A2,2 0 0,0 4,20H20A2,2 0 0,0 22,18V8C22,6.89 21.1,6 20,6Z"/>
    <g fill="#C792EA" stroke="#C792EA" transform="scale(0.5) translate(24 24)" stroke-width="1.5"
       folderIconColor="Stencil">
        <path d="m16.75 15.3c0 1.1-1.6 2-2.7 2h-4.3c-1.1 0-2.7-.9-2.7-2v-.1h9.7zm0-2.3h-7c-1.1 0-2.7-.9-2.7-2h7c1.1 0 2.7.9 2.7 2zm0-4.2h-9.6v-.1c0-1.1 1.6-2 2.7-2h4.4c1.1 0 2.7.9 2.7 2v.1z"/>
        <path d="m15.15 2.65c3.3 0 6.1 2.7 6.1 6.1v6.5c0 3.3-2.7 6.1-6.1 6.1h-6.4c-3.3 0-6.1-2.7-6.1-6.1v-6.5c0-3.3 2.7-6.1 6.1-6.1h6.4m0-1h-6.4c-3.9 0-7.1 3.2-7.1 7.1v6.5c0 3.9 3.2 7.1 7.1 7.1h6.5c3.9 0 7.1-3.2 7.1-7.1v-6.5c-.1-3.9-3.3-7.1-7.2-7.1z"/>
    </g>
</svg>
