<!--
  - The MIT License (MIT)
  -
  - Copyright (c) 2015-2022 Elior "Mallowigi" Boukhobza
  -
  - Permission is hereby granted, free of charge, to any person obtaining a copy
  - of this software and associated documentation files (the "Software"), to deal
  - in the Software without restriction, including without limitation the rights
  - to use, copy, modify, merge, publish, distribute, sublicense, and/or sell
  - copies of the Software, and to permit persons to whom the Software is
  - furnished to do so, subject to the following conditions:
  -
  - The above copyright notice and this permission notice shall be included in all
  - copies or substantial portions of the Software.
  -
  - THE SOFTWARE IS PROVIDED "AS IS", WITHOUT WARRANTY OF ANY KIND, EXPRESS OR
  - IMPLIED, INCLUDING BUT NOT LIMITED TO THE WARRANTIES OF MERCHANTABILITY,
  - FITNESS FOR A PARTICULAR PURPOSE AND NONINFRINGEMENT. IN NO EVENT SHALL THE
  - AUTHORS OR COPYRIGHT HOLDERS BE LIABLE FOR ANY CLAIM, DAMAGES OR OTHER
  - LIABILITY, WHETHER IN AN ACTION OF CONTRACT, TORT OR OTHERWISE, ARISING FROM,
  - OUT OF OR IN CONNECTION WITH THE SOFTWARE OR THE USE OR OTHER DEALINGS IN THE
  - SOFTWARE.
  -
  -
  -->

<svg big="true" viewBox="0 0 24 24" xmlns="http://www.w3.org/2000/svg" clip-rule="evenodd" fill-rule="evenodd"
     stroke-linejoin="round" stroke-miterlimit="1.414" width="16px" height="16px">
    <path fill="#AD1457" folderColor="Storybook"
          d="M20,18H4V8H20M20,6H12L10,4H4C2.89,4 2,4.89 2,6V18A2,2 0 0,0 4,20H20A2,2 0 0,0 22,18V8C22,6.89 21.1,6 20,6Z"/>
    <g fill-rule="nonzero" fill="#F48FB1" transform="scale(1.2) translate(-3 -3)" folderIconColor="Storybook">
        <path d="M22.3 10.39l-.746.056v1.462l-.665-.285-.664.285v-1.364l-5.15.38.443 9.36 6.783.325zm-3.488 1.926c1.267 0 1.995.691 1.959 2.093l-1.446.036c.026-.755-.297-.827-.477-.827-.17 0-.458.054-.458.458 0 .997 2.461.943 2.461 2.955 0 1.132-.88 1.653-2.003 1.653-1.158 0-2.173-.395-2.057-2.129h1.518c-.018.7.135.953.521.953.297 0 .432-.171.432-.459 0-1.024-2.426-1.06-2.426-2.937 0-1.078.71-1.796 1.976-1.796z"/>
        <path d="M14.49 10.924H13.7l.332 9.36h.902z"/>
    </g>
</svg>
