<!--
  - The MIT License (MIT)
  -
  - Copyright (c) 2015-2023 Elior "Mallowigi" Boukhobza
  -
  - Permission is hereby granted, free of charge, to any person obtaining a copy
  - of this software and associated documentation files (the "Software"), to deal
  - in the Software without restriction, including without limitation the rights
  - to use, copy, modify, merge, publish, distribute, sublicense, and/or sell
  - copies of the Software, and to permit persons to whom the Software is
  - furnished to do so, subject to the following conditions:
  -
  - The above copyright notice and this permission notice shall be included in all
  - copies or substantial portions of the Software.
  -
  - THE SOFTWARE IS PROVIDED "AS IS", WITHOUT WARRANTY OF ANY KIND, EXPRESS OR
  - IMPLIED, INCLUDING BUT NOT LIMITED TO THE WARRANTIES OF MERCHANTABILITY,
  - FITNESS FOR A PARTICULAR PURPOSE AND NONINFRINGEMENT. IN NO EVENT SHALL THE
  - AUTHORS OR COPYRIGHT HOLDERS BE LIABLE FOR ANY CLAIM, DAMAGES OR OTHER
  - LIABILITY, WHETHER IN AN ACTION OF CONTRACT, TORT OR OTHERWISE, ARISING FROM,
  - OUT OF OR IN CONNECTION WITH THE SOFTWARE OR THE USE OR OTHER DEALINGS IN THE
  - SOFTWARE.
  -
  -->

<svg big="true" xmlns="http://www.w3.org/2000/svg" style="isolation:isolate"
     viewBox="0 0 20 18" width="16px" height="16px">
    <path fill="#1976d2" transform="scale(0.8)" folderColor="Strategy"
          d="M20,18H4V8H20M20,6H12L10,4H4C2.89,4 2,4.89 2,6V18A2,2 0 0,0 4,20H20A2,2 0 0,0 22,18V8C22,6.89 21.1,6 20,6Z"/>
    <path transform="translate(-2)"
          d=" M 13.783 9.92 L 14.826 10.959 L 14.182 11.603 L 13.143 10.559 L 12.105 11.603 L 11.461 10.959 L 12.504 9.92 L 11.461 8.881 L 12.105 8.237 L 13.143 9.28 L 14.182 8.237 L 14.826 8.881 M 20.724 14.778 L 20.08 14.134 L 19.041 15.177 L 18.002 14.134 L 17.358 14.778 L 18.401 15.817 L 17.358 16.856 L 18.002 17.5 L 19.041 16.457 L 20.08 17.5 L 20.724 16.856 L 19.68 15.817 M 19.903 10.523 L 18.442 12.415 L 17.725 11.839 L 18.256 11.158 C 16.88 11.438 15.742 12.399 15.235 13.708 C 16.051 14.296 16.316 15.391 15.861 16.288 C 15.406 17.184 14.365 17.616 13.409 17.304 C 12.452 16.993 11.865 16.031 12.025 15.038 C 12.186 14.045 13.045 13.317 14.051 13.322 C 14.17 13.323 14.288 13.335 14.405 13.358 C 15.043 11.774 16.43 10.614 18.102 10.265 L 17.453 9.775 L 18.029 9.058 M 15.185 15.363 C 15.185 14.737 14.677 14.229 14.051 14.229 C 13.424 14.229 12.917 14.737 12.917 15.363 C 12.917 15.99 13.424 16.497 14.051 16.497 C 14.677 16.497 15.185 15.99 15.185 15.363 Z "
          fill="#4fc3f7" folderIconColor="Strategy"/>
</svg>
