<!--
  - The MIT License (MIT)
  -
  - Copyright (c) 2015-2022 Elior "Mallowigi" Boukhobza
  -
  - Permission is hereby granted, free of charge, to any person obtaining a copy
  - of this software and associated documentation files (the "Software"), to deal
  - in the Software without restriction, including without limitation the rights
  - to use, copy, modify, merge, publish, distribute, sublicense, and/or sell
  - copies of the Software, and to permit persons to whom the Software is
  - furnished to do so, subject to the following conditions:
  -
  - The above copyright notice and this permission notice shall be included in all
  - copies or substantial portions of the Software.
  -
  - THE SOFTWARE IS PROVIDED "AS IS", WITHOUT WARRANTY OF ANY KIND, EXPRESS OR
  - IMPLIED, INCLUDING BUT NOT LIMITED TO THE WARRANTIES OF MERCHANTABILITY,
  - FITNESS FOR A PARTICULAR PURPOSE AND NONINFRINGEMENT. IN NO EVENT SHALL THE
  - AUTHORS OR COPYRIGHT HOLDERS BE LIABLE FOR ANY CLAIM, DAMAGES OR OTHER
  - LIABILITY, WHETHER IN AN ACTION OF CONTRACT, TORT OR OTHERWISE, ARISING FROM,
  - OUT OF OR IN CONNECTION WITH THE SOFTWARE OR THE USE OR OTHER DEALINGS IN THE
  - SOFTWARE.
  -
  -
  -->

<svg big="true" clip-rule="evenodd" fill-rule="evenodd" stroke-linejoin="round" stroke-miterlimit="1.4142" version="1.1"
     viewBox="0 0 24 24" xml:space="preserve" xmlns="http://www.w3.org/2000/svg" width="16px" height="16px"
>
    <path fill="#ffb300" folderColor="SVG"
          d="M20,18H4V8H20M20,6H12L10,4H4C2.89,4 2,4.89 2,6V18A2,2 0 0,0 4,20H20A2,2 0 0,0 22,18V8C22,6.89 21.1,6 20,6Z"/>
    <path d="m12.91 14.24h2.402l-1.702-1.702c-.64868 0-1.1753-.52665-1.1753-1.1817a1.1753 1.1753 0 0 1 1.1753-1.1753c.6551 0 1.1817.52665 1.1817 1.1753l1.702 1.702v-2.402c-.456-.46242-.456-1.2074 0-1.6634.456-.46242 1.201-.46242 1.657 0 .456.456.456 1.201 0 1.6634v2.402l1.7084-1.702c0-.64868.52022-1.1753 1.1753-1.1753.64868 0 1.1753.52665 1.1753 1.1753 0 .6551-.52665 1.1817-1.1753 1.1817l-1.702 1.702h2.402c.46242-.456 1.2074-.456 1.6634 0 .46242.456.46242 1.201 0 1.657-.456.456-1.201.456-1.6634 0h-2.402l1.702 1.7084c.64868 0 1.1753.52022 1.1753 1.1753a1.1753 1.1753 0 0 1-1.1753 1.1753c-.6551 0-1.1753-.52665-1.1753-1.1753l-1.7084-1.702v2.402c.456.46242.456 1.2074 0 1.6634-.456.46242-1.201.46242-1.657 0-.456-.456-.456-1.201 0-1.6634v-2.402l-1.702 1.702c0 .64868-.52665 1.1753-1.1817 1.1753-.64868 0-1.1753-.52665-1.1753-1.1753 0-.6551.52665-1.1753 1.1753-1.1753l1.702-1.7084h-2.402c-.46242.456-1.2074.456-1.6634 0-.46242-.456-.46242-1.201 0-1.657.456-.456 1.201-.456 1.6634 0z"
          fill="#fff9c4" folderIconColor="SVG"/>
</svg>
