<!--
  - The MIT License (MIT)
  -
  -  Copyright (c) 2015-2022 Elior "Mallowigi" Boukhobza
  -
  -  Permission is hereby granted, free of charge, to any person obtaining a copy
  -  of this software and associated documentation files (the "Software"), to deal
  -  in the Software without restriction, including without limitation the rights
  -  to use, copy, modify, merge, publish, distribute, sublicense, and/or sell
  -  copies of the Software, and to permit persons to whom the Software is
  -  furnished to do so, subject to the following conditions:
  -
  -  The above copyright notice and this permission notice shall be included in all
  -  copies or substantial portions of the Software.
  -
  -  THE SOFTWARE IS PROVIDED "AS IS", WITHOUT WARRANTY OF ANY KIND, EXPRESS OR
  -  IMPLIED, INCLUDING BUT NOT LIMITED TO THE WARRANTIES OF MERCHANTABILITY,
  -  FITNESS FOR A PARTICULAR PURPOSE AND NONINFRINGEMENT. IN NO EVENT SHALL THE
  -  AUTHORS OR COPYRIGHT HOLDERS BE LIABLE FOR ANY CLAIM, DAMAGES OR OTHER
  -  LIABILITY, WHETHER IN AN ACTION OF CONTRACT, TORT OR OTHERWISE, ARISING FROM,
  -  OUT OF OR IN CONNECTION WITH THE SOFTWARE OR THE USE OR OTHER DEALINGS IN THE
  -  SOFTWARE.
  -->

<svg big="true" viewBox="0 0 24 24" xmlns="http://www.w3.org/2000/svg" width="16px" height="16px">
    <path fill="#26C6DA" folderColor="Tauri"
          d="M20,18H4V8H20M20,6H12L10,4H4C2.89,4 2,4.89 2,6V18A2,2 0 0,0 4,20H20A2,2 0 0,0 22,18V8C22,6.89 21.1,6 20,6Z"/>

    <g fill="#FFECB3" folderIconColor="Tauri">
        <path d="M19.81 13.59a1.2 1.2 0 1 1-2.4.001 1.2 1.2 0 0 1 2.4 0Z"/>
        <path d="M16.59 15.828a1.2 1.2 0 1 0 0 2.401 1.2 1.2 0 0 0 0-2.4Z"/>
        <path fill-rule="evenodd" clip-rule="evenodd"
              d="M21.097 17.438c-.482.312-1.02.53-1.582.644.163-.465.217-.962.158-1.451a3.22 3.22 0 1 0-3.678-4.917 5.347 5.347 0 0 0-1.757.513 4.583 4.583 0 1 1 6.86 5.211Zm-6.805-4.376 1.125.136c.025-.217.073-.43.142-.638a4.587 4.587 0 0 0-1.266.502Z"
        />
        <path fill-rule="evenodd" clip-rule="evenodd"
              d="M14.096 13.182a4.583 4.583 0 0 1 1.594-.65 3.213 3.213 0 0 0-.18 1.457 3.22 3.22 0 1 0 3.694 4.912 5.345 5.345 0 0 0 1.757-.508 4.583 4.583 0 1 1-6.865-5.211Zm6.805 4.376-.022.011.022-.01Z"
        />
    </g>
</svg>
