<!--
  - The MIT License (MIT)
  -
  - Copyright (c) 2015-2022 Elior "Mallowigi" Boukhobza
  -
  - Permission is hereby granted, free of charge, to any person obtaining a copy
  - of this software and associated documentation files (the "Software"), to deal
  - in the Software without restriction, including without limitation the rights
  - to use, copy, modify, merge, publish, distribute, sublicense, and/or sell
  - copies of the Software, and to permit persons to whom the Software is
  - furnished to do so, subject to the following conditions:
  -
  - The above copyright notice and this permission notice shall be included in all
  - copies or substantial portions of the Software.
  -
  - THE SOFTWARE IS PROVIDED "AS IS", WITHOUT WARRANTY OF ANY KIND, EXPRESS OR
  - IMPLIED, INCLUDING BUT NOT LIMITED TO THE WARRANTIES OF MERCHANTABILITY,
  - FITNESS FOR A PARTICULAR PURPOSE AND NONINFRINGEMENT. IN NO EVENT SHALL THE
  - AUTHORS OR COPYRIGHT HOLDERS BE LIABLE FOR ANY CLAIM, DAMAGES OR OTHER
  - LIABILITY, WHETHER IN AN ACTION OF CONTRACT, TORT OR OTHERWISE, ARISING FROM,
  - OUT OF OR IN CONNECTION WITH THE SOFTWARE OR THE USE OR OTHER DEALINGS IN THE
  - SOFTWARE.
  -
  -
  -->

<svg big="true" version="1.1" xmlns="http://www.w3.org/2000/svg" x="0px"
     y="0px" viewBox="0 0 24 24" width="16px" height="16px" xml:space="preserve">
    <path fill="#8a2be2" folderColor="Tech"
          d="M20,18H4V8H20M20,6H12L10,4H4C2.89,4 2,4.89 2,6V18A2,2 0 0,0 4,20H20A2,2 0 0,0 22,18V8C22,6.89 21.1,6 20,6Z"/>

    <g fill="#c695f9" folderIconColor="Tech">
        <path d="M17.3,9.3c-3.4,0-6.2,2.8-6.2,6.2s2.8,6.2,6.2,6.2c3.4,0,6.2-2.8,6.2-6.2S20.7,9.3,17.3,9.3z M21.1,13.4
		c-0.1,0.1-0.2,0.1-0.3,0L20.4,13c0-0.1-0.1-0.1-0.2,0l-1,1l0.4,0.4l0.6-0.6c0.1-0.1,0.2-0.1,0.3,0c0.1,0.1,0.1,0.2,0,0.3l-0.6,0.6
		l0.6,0.6c0.1,0.1,0.1,0.2,0,0.3l-0.6,0.6l0.6,0.6c0.1,0.1,0.1,0.2,0,0.3c-0.1,0.1-0.2,0.1-0.3,0l-0.6-0.6l-0.4,0.4l1,1
		c0.2,0.2,0.2,0.6,0,0.8l-0.4,0.4c-0.1,0.1-0.2,0.1-0.3,0c-0.1-0.1-0.1-0.2,0-0.3l0.4-0.4c0.1,0,0.1-0.1,0-0.2l-1-1l-0.4,0.4
		l0.6,0.6c0.1,0.1,0.1,0.2,0,0.3c-0.1,0.1-0.2,0.1-0.3,0l-0.6-0.6l-0.6,0.6c-0.1,0.1-0.2,0.1-0.3,0l-0.6-0.6l-0.6,0.6
		c-0.1,0.1-0.2,0.1-0.3,0c-0.1-0.1-0.1-0.2,0-0.3l0.6-0.6L16,17.2l-1.1,1.1c-0.2,0.2-0.6,0.2-0.8,0l-0.4-0.4c-0.1-0.1-0.1-0.2,0-0.3
		c0.1-0.1,0.2-0.1,0.3,0l0.4,0.4c0,0.1,0.1,0.1,0.2,0l1-1l-0.4-0.4l-0.6,0.6c-0.1,0.1-0.2,0.1-0.3,0c-0.1-0.1-0.1-0.2,0-0.3l0.6-0.6
		l-0.6-0.6c-0.1-0.1-0.1-0.2,0-0.3l0.6-0.6l-0.6-0.6c-0.1-0.1-0.1-0.2,0-0.3c0.1-0.1,0.2-0.1,0.3,0l0.6,0.6l0.4-0.4L14.5,13
		c-0.2-0.2-0.2-0.6,0-0.8l0.4-0.4c0.1-0.1,0.2-0.1,0.3,0c0.1,0.1,0.1,0.2,0,0.3l-0.4,0.4c-0.1,0-0.1,0.1,0,0.2l1.1,1.1l0.4-0.4
		l-0.6-0.6c-0.1-0.1-0.1-0.2,0-0.3c0.1-0.1,0.2-0.1,0.3,0l0.5,0.6l0.6-0.6c0.1-0.1,0.2-0.1,0.3,0l0.6,0.6l0.7-0.6
		c0.1-0.1,0.2-0.1,0.3,0s0.1,0.2,0,0.3l-0.6,0.6l0.4,0.4l1-1c0.2-0.2,0.6-0.2,0.8,0l0.4,0.4C21.1,13.3,21.2,13.3,21.1,13.4z"/>
        <rect x="16.5" y="14.6" width="1.7" height="1.7"/>
        <path d="M14.8,15.5l2.5,2.5l2.6-2.5L17.3,13L14.8,15.5z M18.6,14.4v2.1c0,0.1-0.1,0.2-0.2,0.2h-2.1
		c-0.1,0-0.2-0.1-0.2-0.2v-2.1c0-0.1,0.1-0.2,0.2-0.2h2.1C18.5,14.2,18.6,14.3,18.6,14.4z"/>
    </g>
</svg>
