<!--
  - The MIT License (MIT)
  -
  -  Copyright (c) 2015-2022 Elior "Mallowigi" Boukhobza
  -
  -  Permission is hereby granted, free of charge, to any person obtaining a copy
  -  of this software and associated documentation files (the "Software"), to deal
  -  in the Software without restriction, including without limitation the rights
  -  to use, copy, modify, merge, publish, distribute, sublicense, and/or sell
  -  copies of the Software, and to permit persons to whom the Software is
  -  furnished to do so, subject to the following conditions:
  -
  -  The above copyright notice and this permission notice shall be included in all
  -  copies or substantial portions of the Software.
  -
  -  THE SOFTWARE IS PROVIDED "AS IS", WITHOUT WARRANTY OF ANY KIND, EXPRESS OR
  -  IMPLIED, INCLUDING BUT NOT LIMITED TO THE WARRANTIES OF MERCHANTABILITY,
  -  FITNESS FOR A PARTICULAR PURPOSE AND NONINFRINGEMENT. IN NO EVENT SHALL THE
  -  AUTHORS OR COPYRIGHT HOLDERS BE LIABLE FOR ANY CLAIM, DAMAGES OR OTHER
  -  LIABILITY, WHETHER IN AN ACTION OF CONTRACT, TORT OR OTHERWISE, ARISING FROM,
  -  OUT OF OR IN CONNECTION WITH THE SOFTWARE OR THE USE OR OTHER DEALINGS IN THE
  -  SOFTWARE.
  -->

<svg big="true" width="16px" height="16px" xmlns="http://www.w3.org/2000/svg" clip-rule="evenodd" fill-rule="evenodd"
     stroke-linejoin="round" stroke-miterlimit="1.41" viewBox="0 0 24 24">
  <path fill="#d81b60" folderColor="Turborepo"
        d="M20,18H4V8H20M20,6H12L10,4H4C2.89,4 2,4.89 2,6V18A2,2 0 0,0 4,20H20A2,2 0 0,0 22,18V8C22,6.89 21.1,6 20,6Z"/>

  <g fill="#F8BBD0" folderIconColor="Turborepo" transform="scale(0.5) translate(20 20)">
    <path
        d="M13.94 6.42a7.53 7.53 0 1 0 .02 15.05 7.53 7.53 0 0 0-.02-15.05Zm0 11.41a3.89 3.89 0 1 1 0-7.78 3.89 3.89 0 0 1 0 7.78Z"/>
    <path fill-rule="evenodd"
          d="M14.57 5.19V2.38a11.58 11.58 0 0 1 0 23.12v-2.8a8.79 8.79 0 0 0 0-17.51ZM7.31 19.68a8.74 8.74 0 0 1-2.12-5.11H2.38c.15 2.72 1.23 5.2 2.94 7.1l1.99-1.99Zm6 5.82v-2.8a8.73 8.73 0 0 1-5.11-2.13l-2 1.99c1.9 1.7 4.38 2.8 7.1 2.94Z"/>
  </g>
</svg>
