<?xml version="1.0" encoding="UTF-8" standalone="no"?>
<!--
  - The MIT License (MIT)
  -
  - Copyright (c) 2015-2023 Elior "Mallowigi" Boukhobza
  -
  - Permission is hereby granted, free of charge, to any person obtaining a copy
  - of this software and associated documentation files (the "Software"), to deal
  - in the Software without restriction, including without limitation the rights
  - to use, copy, modify, merge, publish, distribute, sublicense, and/or sell
  - copies of the Software, and to permit persons to whom the Software is
  - furnished to do so, subject to the following conditions:
  -
  - The above copyright notice and this permission notice shall be included in all
  - copies or substantial portions of the Software.
  -
  - THE SOFTWARE IS PROVIDED "AS IS", WITHOUT WARRANTY OF ANY KIND, EXPRESS OR
  - IMPLIED, INCLUDING BUT NOT LIMITED TO THE WARRANTIES OF MERCHANTABILITY,
  - FITNESS FOR A PARTICULAR PURPOSE AND NONINFRINGEMENT. IN NO EVENT SHALL THE
  - AUTHORS OR COPYRIGHT HOLDERS BE LIABLE FOR ANY CLAIM, DAMAGES OR OTHER
  - LIABILITY, WHETHER IN AN ACTION OF CONTRACT, TORT OR OTHERWISE, ARISING FROM,
  - OUT OF OR IN CONNECTION WITH THE SOFTWARE OR THE USE OR OTHER DEALINGS IN THE
  - SOFTWARE.
  -->

<svg big="true"
     clip-rule="evenodd" fill-rule="evenodd" stroke-linejoin="round" stroke-miterlimit="1.414" viewBox="0 0 24 24"
     width="16px" height="16px"
     version="1.1" xmlns="http://www.w3.org/2000/svg">
  <path fill="#FF8A65" folderColor="UI"
        d="M20,18H4V8H20M20,6H12L10,4H4C2.89,4 2,4.89 2,6V18A2,2 0 0,0 4,20H20A2,2 0 0,0 22,18V8C22,6.89 21.1,6 20,6Z"/>

  <path fill="#FBE9E7" transform="translate(0 2)" folderIconColor="UI"
        d="m 11.475,19.4 q -0.39,0 -0.6825,-0.2925 Q 10.5,18.814999 10.5,18.424999 v -5.85 q 0,-0.39 0.2925,-0.682499 Q 11.085,11.6 11.475,11.6 H 22.525001 Q 22.915,11.6 23.2075,11.8925 23.5,12.185 23.5,12.574999 v 5.85 q 0,0.39 -0.2925,0.682501 Q 22.915,19.4 22.525001,19.4 Z m 2.38875,-1.95 h 0.796249 V 15.906248 H 16.20375 V 15.09375 H 14.659999 V 13.55 H 13.86375 v 1.54375 h -1.543749 v 0.812498 h 1.543749 z"
  />
</svg>
