<!--
  - The MIT License (MIT)
  -
  - Copyright (c) 2015-2022 Elior "Mallowigi" Boukhobza
  -
  - Permission is hereby granted, free of charge, to any person obtaining a copy
  - of this software and associated documentation files (the "Software"), to deal
  - in the Software without restriction, including without limitation the rights
  - to use, copy, modify, merge, publish, distribute, sublicense, and/or sell
  - copies of the Software, and to permit persons to whom the Software is
  - furnished to do so, subject to the following conditions:
  -
  - The above copyright notice and this permission notice shall be included in all
  - copies or substantial portions of the Software.
  -
  - THE SOFTWARE IS PROVIDED "AS IS", WITHOUT WARRANTY OF ANY KIND, EXPRESS OR
  - IMPLIED, INCLUDING BUT NOT LIMITED TO THE WARRANTIES OF MERCHANTABILITY,
  - FITNESS FOR A PARTICULAR PURPOSE AND NONINFRINGEMENT. IN NO EVENT SHALL THE
  - AUTHORS OR COPYRIGHT HOLDERS BE LIABLE FOR ANY CLAIM, DAMAGES OR OTHER
  - LIABILITY, WHETHER IN AN ACTION OF CONTRACT, TORT OR OTHERWISE, ARISING FROM,
  - OUT OF OR IN CONNECTION WITH THE SOFTWARE OR THE USE OR OTHER DEALINGS IN THE
  - SOFTWARE.
  -
  -
  -->

<svg big="true" clip-rule="evenodd" fill-rule="evenodd" stroke-linejoin="round" stroke-miterlimit="1.4142" version="1.1"
     width="16px" height="16px" viewBox="0 0 24 24" xml:space="preserve" xmlns="http://www.w3.org/2000/svg">
    <path fill="#ec407a" folderColor="Users"
          d="M20,18H4V8H20M20,6H12L10,4H4C2.89,4 2,4.89 2,6V18A2,2 0 0,0 4,20H20A2,2 0 0,0 22,18V8C22,6.89 21.1,6 20,6Z"/>
    <path transform="scale(0.7) translate(10 10)"
          d="m15.787 13.71c-.27458 0-.58704 0-.91844.04734 1.0983.79535 1.8653 1.8463 1.8653 3.2666v2.3671h5.681v-2.3671c0-2.2061-4.4217-3.3139-6.6279-3.3139m-7.5747 0c-2.2061 0-6.6279 1.1078-6.6279 3.3139v2.3671h13.256v-2.3671c0-2.2061-4.4217-3.3139-6.6279-3.3139m0-1.8937a2.8405 2.8405 0 0 0 2.8405 -2.8405 2.8405 2.8405 0 0 0 -2.8405 -2.8405 2.8405 2.8405 0 0 0 -2.8405 2.8405 2.8405 2.8405 0 0 0 2.8405 2.8405m7.5747 0a2.8405 2.8405 0 0 0 2.8405 -2.8405 2.8405 2.8405 0 0 0 -2.8405 -2.8405 2.8405 2.8405 0 0 0 -2.8405 2.8405 2.8405 2.8405 0 0 0 2.8405 2.8405z"
          stroke-width=".94684" fill="#f8bbd0" folderIconColor="Users"/>
</svg>
