<!--
  - The MIT License (MIT)
  -
  - Copyright (c) 2015-2022 Elior "Mallowigi" Boukhobza
  -
  - Permission is hereby granted, free of charge, to any person obtaining a copy
  - of this software and associated documentation files (the "Software"), to deal
  - in the Software without restriction, including without limitation the rights
  - to use, copy, modify, merge, publish, distribute, sublicense, and/or sell
  - copies of the Software, and to permit persons to whom the Software is
  - furnished to do so, subject to the following conditions:
  -
  - The above copyright notice and this permission notice shall be included in all
  - copies or substantial portions of the Software.
  -
  - THE SOFTWARE IS PROVIDED "AS IS", WITHOUT WARRANTY OF ANY KIND, EXPRESS OR
  - IMPLIED, INCLUDING BUT NOT LIMITED TO THE WARRANTIES OF MERCHANTABILITY,
  - FITNESS FOR A PARTICULAR PURPOSE AND NONINFRINGEMENT. IN NO EVENT SHALL THE
  - AUTHORS OR COPYRIGHT HOLDERS BE LIABLE FOR ANY CLAIM, DAMAGES OR OTHER
  - LIABILITY, WHETHER IN AN ACTION OF CONTRACT, TORT OR OTHERWISE, ARISING FROM,
  - OUT OF OR IN CONNECTION WITH THE SOFTWARE OR THE USE OR OTHER DEALINGS IN THE
  - SOFTWARE.
  -
  -
  -->

<svg big="true" clip-rule="evenodd" fill-rule="evenodd" stroke-linejoin="round" stroke-miterlimit="1.4142" version="1.1"
     viewBox="0 0 24 24" width="16px" height="16px" xml:space="preserve" xmlns="http://www.w3.org/2000/svg">
    <path fill="#93254A" folderColor="Wine"
          d="M20,18H4V8H20M20,6H12L10,4H4C2.89,4 2,4.89 2,6V18A2,2 0 0,0 4,20H20A2,2 0 0,0 22,18V8C22,6.89 21.1,6 20,6Z"/>

    <path fill="#F13C6F" transform="scale(0.03) translate(440 300)" folderIconColor="Wine"
          d="M0,48.7390518C13.7058411,5.5656528,150.7642517-14.9931087,170.6377106,12.4185734c0,0,94.4404755,200.1340027,15.9539642,313.5033875c-7.9616089,31.1829834,13.3554535,123.0445557,34.7576599,121.657074c21.4022064-1.3875122,55.122345-7.2013245,76.6334534,6.7518311c14.6850586,9.5254517-15.9358826,35.9494934-88.2834167,49.4421082c-96.9077606,18.0730286-129.6398315,3.3526611-112.8745804-15.1405945c9.0988464-10.0366821,55.4126663-22.5272827,62.1629715-29.7597351c19.1881714-20.5587769,1.4600983-108.5446472-23.2104187-124.306366C35.7797356,295.0323486,0,48.7390518,0,48.7390518z M159.9624786,321.8763733c82.08992-52.8880005,17.727417-251.8735962,17.727417-251.8735962c-56.6847-35.7549629-35.7798157,113.9188919-147.4050598,51.1296844C30.284832,121.1324539,64.2431107,296.1905212,159.9624786,321.8763733z"/>

</svg>
