<!--
  - The MIT License (MIT)
  -
  - Copyright (c) 2015-2022 Elior "Mallowigi" Boukhobza
  -
  - Permission is hereby granted, free of charge, to any person obtaining a copy
  - of this software and associated documentation files (the "Software"), to deal
  - in the Software without restriction, including without limitation the rights
  - to use, copy, modify, merge, publish, distribute, sublicense, and/or sell
  - copies of the Software, and to permit persons to whom the Software is
  - furnished to do so, subject to the following conditions:
  -
  - The above copyright notice and this permission notice shall be included in all
  - copies or substantial portions of the Software.
  -
  - THE SOFTWARE IS PROVIDED "AS IS", WITHOUT WARRANTY OF ANY KIND, EXPRESS OR
  - IMPLIED, INCLUDING BUT NOT LIMITED TO THE WARRANTIES OF MERCHANTABILITY,
  - FITNESS FOR A PARTICULAR PURPOSE AND NONINFRINGEMENT. IN NO EVENT SHALL THE
  - AUTHORS OR COPYRIGHT HOLDERS BE LIABLE FOR ANY CLAIM, DAMAGES OR OTHER
  - LIABILITY, WHETHER IN AN ACTION OF CONTRACT, TORT OR OTHERWISE, ARISING FROM,
  - OUT OF OR IN CONNECTION WITH THE SOFTWARE OR THE USE OR OTHER DEALINGS IN THE
  - SOFTWARE.
  -
  -
  -->

<svg big="true" xmlns="http://www.w3.org/2000/svg" version="1.1" width="16px" height="16px" viewBox="0 0 512 512">
    <path fill="#7986CB" iconColor="3D Model"
          d="M131.7819214,119.9517822L9.0038452,73.9100952l123.8162231-43.9348145l122.3912354,44.7772827L131.7819214,119.9517822z M139.7824097,226.8565674c26.2363281-8.3126221,52.7878418-7.2813721,77.3302612,1.1528931l47.4563599-91.7877197V88.4359741l-124.7866211,45.6967773V226.8565674z M355.0655518,31.3909912l0.2228394,369.1680298L512,334.2352905L355.0655518,31.3909912z M231.9163818,234.3604736c31.6419678,17.5446167,55.333313,43.1380615,58.9142456,81.6102295c-2.4766846,29.2305908-14.5319824,56.1254272-34.5835571,76.6679688c-21.4633789,21.9882812-50.4438477,34.5996094-79.5107422,34.5996094c-29.2763672,0-58.4116211-10.6972656-79.9355469-29.3496094c-22.1449585-19.1901245-34.4203491-44.9130249-34.6334839-72.5001221c0.9888306-39.2595215,18.6270142-71.2250366,61.5481567-92.1143188v-99.1877441L0,87.6930542v164.0061035l67.1557007,30.6694946c-13.0006104,20.1992798-20.5452271,44.2427368-20.5452271,70.0493774c0,71.579834,58.0268555,129.6066895,129.6066895,129.6066895c60.5725708,0,111.4349976-41.5547485,125.6469116-97.710083l35.2151489,16.2443848l-0.2228394-369.1680298L231.9163818,234.3604736z"/>
</svg>
