<!--
  - The MIT License (MIT)
  -
  - Copyright (c) 2015-2022 Elior "Mallowigi" Boukhobza
  -
  - Permission is hereby granted, free of charge, to any person obtaining a copy
  - of this software and associated documentation files (the "Software"), to deal
  - in the Software without restriction, including without limitation the rights
  - to use, copy, modify, merge, publish, distribute, sublicense, and/or sell
  - copies of the Software, and to permit persons to whom the Software is
  - furnished to do so, subject to the following conditions:
  -
  - The above copyright notice and this permission notice shall be included in all
  - copies or substantial portions of the Software.
  -
  - THE SOFTWARE IS PROVIDED "AS IS", WITHOUT WARRANTY OF ANY KIND, EXPRESS OR
  - IMPLIED, INCLUDING BUT NOT LIMITED TO THE WARRANTIES OF MERCHANTABILITY,
  - FITNESS FOR A PARTICULAR PURPOSE AND NONINFRINGEMENT. IN NO EVENT SHALL THE
  - AUTHORS OR COPYRIGHT HOLDERS BE LIABLE FOR ANY CLAIM, DAMAGES OR OTHER
  - LIABILITY, WHETHER IN AN ACTION OF CONTRACT, TORT OR OTHERWISE, ARISING FROM,
  - OUT OF OR IN CONNECTION WITH THE SOFTWARE OR THE USE OR OTHER DEALINGS IN THE
  - SOFTWARE.
  -
  -
  -->

<svg big="true" xmlns="http://www.w3.org/2000/svg" version="1.1" viewBox="0 0 512 512" width="16px" height="16px">
    <path fill-rule="evenodd" clip-rule="evenodd" fill="#BA68C8" iconColor="Anime Studio"
          d="M368.2557678,214.5733185L265.6288147,401.9238892c40.5541992,71.8433533,73.6471558,97.0682983,138.6643677,94.5018005c63.6698608-2.5133362,136.9735413-89.1266785,95.6938171-163.2424316l-102.782074-182.2437592C393.5289307,163.2050781,372.0454712,206.6868439,368.2557678,214.5733185z M216.3929291,440.6246338C104.0771179,583.6759644-57.957058,425.7925415,20.8495884,302.891571c0,0,83.8956604-147.023407,116.5215836-204.3021851c25.3006744-44.4180565,53.6435394-72.3709183,90.4965973-81.3305893c44.9396973-10.9257898,97.5647888,12.8342228,125.6207581,56.1669464c19.4969482,30.1131897,36.7513123,57.6765366,6.3420715,109.7378922C356.2180176,189.3484955,223.5054321,431.5657959,216.3929291,440.6246338z M224.4067993,176.029892c-30.695343-17.6962128-30.6953583-62.1769409-0.0000153-79.8731537s69.2728729,4.5441513,69.2728729,39.9365692S255.1021423,193.7261047,224.4067993,176.029892z"/>
</svg>
