<!--
  - The MIT License (MIT)
  -
  -  Copyright (c) 2015-2022 Elior "Mallowigi" Boukhobza
  -
  -  Permission is hereby granted, free of charge, to any person obtaining a copy
  -  of this software and associated documentation files (the "Software"), to deal
  -  in the Software without restriction, including without limitation the rights
  -  to use, copy, modify, merge, publish, distribute, sublicense, and/or sell
  -  copies of the Software, and to permit persons to whom the Software is
  -  furnished to do so, subject to the following conditions:
  -
  -  The above copyright notice and this permission notice shall be included in all
  -  copies or substantial portions of the Software.
  -
  -  THE SOFTWARE IS PROVIDED "AS IS", WITHOUT WARRANTY OF ANY KIND, EXPRESS OR
  -  IMPLIED, INCLUDING BUT NOT LIMITED TO THE WARRANTIES OF MERCHANTABILITY,
  -  FITNESS FOR A PARTICULAR PURPOSE AND NONINFRINGEMENT. IN NO EVENT SHALL THE
  -  AUTHORS OR COPYRIGHT HOLDERS BE LIABLE FOR ANY CLAIM, DAMAGES OR OTHER
  -  LIABILITY, WHETHER IN AN ACTION OF CONTRACT, TORT OR OTHERWISE, ARISING FROM,
  -  OUT OF OR IN CONNECTION WITH THE SOFTWARE OR THE USE OR OTHER DEALINGS IN THE
  -  SOFTWARE.
  -->

<svg big="true" width="16px" height="16px" xmlns="http://www.w3.org/2000/svg" xmlns:xlink="http://www.w3.org/1999/xlink"
     viewBox="0 0 149.15 119.7">
    <path fill="#da2fb6" iconColor="Antlers"
          d="M122.92,119.7c10.91,0,14.91-4.7,14.91-16.2V81.1c0-10.7,5.2-16.8,10.2-19.7a2.34,2.34,0,0,0,0-4A23,23,0,0,1,137.83,38V16c0-12.4-3.41-16-14.3-16H25.62C14.73,0,11.33,3.6,11.33,16V38A23,23,0,0,1,1.12,57.4a2.34,2.34,0,0,0,0,4c5,2.8,10.21,8.9,10.21,19.7v22.4c0,11.5,4,16.2,14.9,16.2ZM74.33,99.2c-11.7,0-20.2-3.5-28.11-10.4a5.54,5.54,0,0,1-1.8-4.2,5.11,5.11,0,0,1,1.21-3.5L48,78a5,5,0,0,1,4-2.2,9.29,9.29,0,0,1,5,1.8,33.08,33.08,0,0,0,18.6,5.5c5.5,0,9.9-2.3,9.9-7,0-12.2-40.61-5.5-40.61-32.9,0-14.7,12-22.9,27.61-22.9a45.66,45.66,0,0,1,25.1,7,6.15,6.15,0,0,1,2.5,5,5.58,5.58,0,0,1-1,3.3l-1.8,2.7a5.6,5.6,0,0,1-4.7,2.7,10.4,10.4,0,0,1-4.21-1.2,31.5,31.5,0,0,0-14.89-3.5c-5.9,0-9.4,3.2-9.4,6.5,0,12.5,40.59,5.7,40.59,32.3C104.72,90,92.72,99.2,74.33,99.2Z"/>
</svg>
