<!--
  - The MIT License (MIT)
  -
  -  Copyright (c) 2015-2022 Elior "Mallowigi" Boukhobza
  -
  -  Permission is hereby granted, free of charge, to any person obtaining a copy
  -  of this software and associated documentation files (the "Software"), to deal
  -  in the Software without restriction, including without limitation the rights
  -  to use, copy, modify, merge, publish, distribute, sublicense, and/or sell
  -  copies of the Software, and to permit persons to whom the Software is
  -  furnished to do so, subject to the following conditions:
  -
  -  The above copyright notice and this permission notice shall be included in all
  -  copies or substantial portions of the Software.
  -
  -  THE SOFTWARE IS PROVIDED "AS IS", WITHOUT WARRANTY OF ANY KIND, EXPRESS OR
  -  IMPLIED, INCLUDING BUT NOT LIMITED TO THE WARRANTIES OF MERCHANTABILITY,
  -  FITNESS FOR A PARTICULAR PURPOSE AND NONINFRINGEMENT. IN NO EVENT SHALL THE
  -  AUTHORS OR COPYRIGHT HOLDERS BE LIABLE FOR ANY CLAIM, DAMAGES OR OTHER
  -  LIABILITY, WHETHER IN AN ACTION OF CONTRACT, TORT OR OTHERWISE, ARISING FROM,
  -  OUT OF OR IN CONNECTION WITH THE SOFTWARE OR THE USE OR OTHER DEALINGS IN THE
  -  SOFTWARE.
  -->

<svg big="true" version="1.1" xmlns="http://www.w3.org/2000/svg" xmlns:xlink="http://www.w3.org/1999/xlink"
     x="0px" y="0px" width="16px" height="16px" viewBox="120 60 233 262" xml:space="preserve">
    <g fill="#DCDF72" iconColor="ArangoDB Dark">
        <path d="M358.957,188.607c-4.676-15.588-15.121-27.591-24.473-40.373c-17.771-24.005-40.842-37.254-62.041-37.411   c-40.685-0.78-69.366,17.77-81.681,46.919c-1.558,3.741-3.585,5.301-7.327,6.081c-13.562,3.117-27.122,6.235-39.75,12.626   c-8.573,4.365-17.302,8.417-22.758,16.835c-6.859,10.6-6.079,21.823-3.43,33.516c6.859,28.992,24.474,46.92,53.623,53.465   c17.927,3.898,35.384,3.431,51.753-5.923c10.289-5.768,18.549-14.027,26.656-22.448c2.026-2.181,3.585-2.648,6.235-1.401   c4.987,2.496,9.977,4.832,14.964,7.327c15.9,7.95,32.112,14.495,50.35,13.405c28.994-1.715,46.297-21.2,44.427-49.571   C364.881,210.432,362.231,199.52,358.957,188.607z M251.556,228.045c-17.459,11.69-35.541,21.824-56.429,26.031   c-6.703,1.404-13.406,1.872-17.927,1.56c-16.835,0-31.019-1.712-43.491-10.287c-14.652-10.29-20.887-32.736-12.47-48.479   c2.65-5.145,7.171-8.886,12.159-11.848c17.303-10.756,36.632-15.744,56.274-19.796c20.419-4.365,41.151-9.041,62.508-8.885   c10.288,0,19.484,4.053,26.031,12.314c5.768,7.482,4.054,15.899,1.248,23.85C274.002,207.47,264.649,219.315,251.556,228.045z    M357.71,240.83c-6.547,16.366-20.421,21.822-36.164,24.158c-16.835,2.495-30.708-5.455-45.049-12.158   c-4.677-2.181-9.198-4.987-14.029-6.856c-4.209-1.56-4.833-3.119-1.403-6.079c5.301-6.703,10.6-13.406,14.809-20.891l0,0l0,0   c5.145-11.066,8.262-22.757,8.262-35.071c0-19.018-10.133-27.435-29.306-29.618c-3.741-0.467-7.639-0.156-11.536-0.156   c-12.938,0.936-25.876,2.963-38.658,5.301l0,0l0,0c-2.65-0.156-5.923,2.962-7.639,0.156c-1.246-2.026,1.871-4.521,3.273-6.703   c9.354-16.211,23.382-26.188,40.997-31.8c15.432-4.832,30.709-5.923,46.607-1.714c13.095,3.429,22.447,11.379,31.021,20.888   c10.6,11.69,20.264,23.85,28.058,37.412c7.639,13.25,11.536,27.434,12.628,42.554C359.893,227.265,360.516,234.126,357.71,240.83z"/>
        <path d="M299.412,256.728c11.533,4.987,23.069,4.052,34.448-0.155c13.874-5.145,20.421-15.743,21.356-29.931   c1.247-19.952-4.989-37.722-16.367-53.778c-7.172-10.132-14.498-20.42-22.915-29.617c-11.536-12.47-25.253-20.265-42.712-20.732   c-18.082-0.468-34.917,3.742-50.037,13.562c-8.418,5.455-15.433,12.938-18.55,23.07l0,0c12.782-2.338,25.72-4.365,38.658-5.3   c0.78-0.312,1.56-0.936,2.339-0.78c6.704,0.468,12.938-0.936,19.329-3.117c7.482-2.65,14.498,0.312,20.421,4.675   c12.782,9.51,21.667,21.512,21.667,38.191c0,12.002-10.444,25.875-25.252,24.939c-2.026-0.153-4.209-0.309-6.08,1.094l0,0   c-4.053,7.639-9.508,14.183-14.809,20.886c4.988,5.144,12.004,5.926,18.082,8.73C285.538,251.894,292.709,253.924,299.412,256.728z   "/>
        <path d="M346.954,177.697c-7.949-13.562-17.614-25.877-28.058-37.412c-8.574-9.509-17.927-17.459-31.021-20.888   c-15.898-4.209-31.176-3.118-46.607,1.714c-17.615,5.457-31.643,15.589-40.997,31.8c-1.246,2.182-4.52,4.677-3.273,6.703   c1.715,2.649,4.989-0.312,7.639-0.156l0,0c3.117-10.132,9.976-17.615,18.549-23.07c15.121-9.82,31.956-13.874,50.038-13.562   c17.459,0.468,31.176,8.106,42.712,20.732c8.417,9.197,15.743,19.485,22.915,29.617c11.378,16.056,17.614,33.826,16.367,53.778   c-0.936,14.185-7.482,24.787-21.356,29.93c-11.379,4.208-22.915,5.144-34.448,0.156c-6.703-2.808-13.719-4.835-20.266-8.107   c-6.078-2.96-13.094-3.742-18.082-8.728c-3.586,2.96-2.806,4.52,1.403,6.079c4.831,1.869,9.353,4.676,14.029,6.856   c14.341,6.703,28.37,14.654,45.049,12.159c15.743-2.337,29.617-7.948,36.164-24.161c2.649-6.703,2.183-13.562,1.716-20.418   C358.49,205.131,354.593,190.946,346.954,177.697z"/>
        <path d="M279.303,192.505c2.806-7.951,4.52-16.368-1.248-23.85c-6.547-8.417-15.587-12.314-26.031-12.314   c-21.2-0.156-41.933,4.52-62.664,8.885c-19.641,4.209-38.971,9.041-56.273,19.796c-4.989,3.118-9.51,6.859-12.159,11.848   c-8.261,15.744-2.182,38.19,12.47,48.479c12.471,8.727,26.655,10.287,43.491,10.287c4.521,0.312,11.379-0.312,17.926-1.56   c20.889-4.207,38.97-14.341,56.429-26.031C264.649,219.315,274.002,207.47,279.303,192.505z M243.293,229.137   c-14.808,8.886-29.773,17.46-47.075,20.576c-14.03,2.492-28.371,3.275-42.4-0.312c-16.368-3.898-28.994-18.706-29.617-35.541   c-0.312-9.198,4.209-16.679,11.224-22.604c10.912-9.197,23.85-14.028,37.568-16.991c0.311,0,0.778,0.468,1.246,0.78   c11.536-8.885,24.629-10.6,38.659-9.509c1.246-2.961,4.208-2.026,6.391-2.649c12.002-2.962,24.16-4.209,36.164-1.715   c22.602,4.521,25.408,17.147,18.081,35.542C267.768,211.521,256.389,221.186,243.293,229.137z"/>
        <path d="M281.797,217.914c14.808,0.936,25.252-12.939,25.252-24.941c0-16.679-8.885-28.682-21.667-38.191   c-6.079-4.364-12.938-7.325-20.421-4.676c-6.391,2.182-12.625,3.585-19.329,3.118c-0.779,0-1.559,0.624-2.339,0.78   c3.897,0,7.638-0.312,11.536,0.154c19.173,2.184,29.306,10.6,29.306,29.619c0,12.314-3.117,24.004-8.262,35.074l0,0   C277.588,217.755,279.615,217.755,281.797,217.914z"/>
        <path d="M255.453,161.328c-12.004-2.494-24.318-1.09-36.164,1.715c-2.184,0.468-5.145-0.312-6.391,2.65   c13.716,2.649,24.316,10.132,31.487,22.134c5.923,9.822,4.365,19.33-4.675,26.967c-9.51,8.263-20.889,12.159-33.358,13.562   c-16.679,1.871-31.645-3.116-45.674-11.69c-3.897-2.339-4.988-5.457-4.52-9.665c1.558-13.25,8.261-23.538,18.082-31.956l0,0   c-0.468-0.312-0.936-0.78-1.246-0.78c-13.718,2.963-26.656,7.794-37.568,16.991c-7.015,5.924-11.536,13.406-11.224,22.604   c0.624,16.679,13.406,31.488,29.617,35.541c14.186,3.428,28.371,2.804,42.4,0.312c17.146-3.116,32.267-11.69,46.92-20.576   c13.094-7.951,24.473-17.615,30.24-32.111C280.861,178.475,278.055,165.849,255.453,161.328z"/>
        <path fill="#5E3108"
              d="M156.157,207.002c-0.468,4.053,0.623,7.325,4.52,9.665c14.029,8.574,28.995,13.562,45.674,11.69   c12.314-1.403,23.849-5.299,33.358-13.562c8.885-7.637,10.599-17.146,4.675-26.967c-7.326-12.002-17.771-19.485-31.487-22.134   c-13.874-1.092-27.124,0.624-38.659,9.508l0,0C164.262,183.62,157.56,193.908,156.157,207.002z"/>
    </g>
</svg>
