<!--
  - The MIT License (MIT)
  -
  - Copyright (c) 2015-2022 Elior "Mallowigi" Boukhobza
  -
  - Permission is hereby granted, free of charge, to any person obtaining a copy
  - of this software and associated documentation files (the "Software"), to deal
  - in the Software without restriction, including without limitation the rights
  - to use, copy, modify, merge, publish, distribute, sublicense, and/or sell
  - copies of the Software, and to permit persons to whom the Software is
  - furnished to do so, subject to the following conditions:
  -
  - The above copyright notice and this permission notice shall be included in all
  - copies or substantial portions of the Software.
  -
  - THE SOFTWARE IS PROVIDED "AS IS", WITHOUT WARRANTY OF ANY KIND, EXPRESS OR
  - IMPLIED, INCLUDING BUT NOT LIMITED TO THE WARRANTIES OF MERCHANTABILITY,
  - FITNESS FOR A PARTICULAR PURPOSE AND NONINFRINGEMENT. IN NO EVENT SHALL THE
  - AUTHORS OR COPYRIGHT HOLDERS BE LIABLE FOR ANY CLAIM, DAMAGES OR OTHER
  - LIABILITY, WHETHER IN AN ACTION OF CONTRACT, TORT OR OTHERWISE, ARISING FROM,
  - OUT OF OR IN CONNECTION WITH THE SOFTWARE OR THE USE OR OTHER DEALINGS IN THE
  - SOFTWARE.
  -
  -
  -->

<svg big="true" xmlns="http://www.w3.org/2000/svg" version="1.1" viewBox="0 0 372 512" width="16px" height="16px">
    <path fill="#FF8A65" iconColor="Augeas"
          d="M164.9959717,0l-28.8896179,16.6802864v85.7083435l28.8896179,16.695755V0z M206.2261047,0.0107474v119.0695267l28.8728333-16.6697388V16.6804905L206.2261047,0.0107474z M103.1224899,35.7465324L70.1064835,54.7748375v76.1972198l33.0160065,19.0703125v38.0986176l32.9838638,19.0505676V130.994339l-32.9838638-19.0505753V35.7465324z M263.9717712,33.350235l-0.0121155,80.9878159l-28.8574829,16.6340103v71.4506531l32.9942932-19.0450745v-33.339447l28.8792419-16.6718445l-0.0067139-80.965004L263.9717712,33.350235z M41.2489929,71.4506531L0,95.26754v71.4506454l74.2229843,42.8451843v-42.8451843l-32.9739914-19.0703125V71.4506531z M325.8420715,69.0708847l-0.0080872,80.9712906l-28.8574829,16.6760101v42.8451843l74.2229614-42.8451843l0.0147705-71.4520035L325.8420715,69.0708847z M0,195.2816467v95.2675476l103.1224899,59.5212097v-95.2675476L0,195.2816467z M371.1989441,195.2816467l-103.1224976,59.5212097v90.5209656l103.1224976-59.5632324V195.2816467z M235.1024475,202.4225159l-49.4819641,28.5634613v71.4506378l49.4819641-28.563446V202.4225159z M185.6204834,302.436615l-82.4979935,47.6337891v95.2675171l82.4979935-47.6337585V302.436615z M185.6204834,397.7041626V512l82.4559631-47.6337585V345.323822L185.6204834,397.7041626z"/>
</svg>
