<!--
  - The MIT License (MIT)
  -
  - Copyright (c) 2015-2022 Elior "Mallowigi" Boukhobza
  -
  - Permission is hereby granted, free of charge, to any person obtaining a copy
  - of this software and associated documentation files (the "Software"), to deal
  - in the Software without restriction, including without limitation the rights
  - to use, copy, modify, merge, publish, distribute, sublicense, and/or sell
  - copies of the Software, and to permit persons to whom the Software is
  - furnished to do so, subject to the following conditions:
  -
  - The above copyright notice and this permission notice shall be included in all
  - copies or substantial portions of the Software.
  -
  - THE SOFTWARE IS PROVIDED "AS IS", WITHOUT WARRANTY OF ANY KIND, EXPRESS OR
  - IMPLIED, INCLUDING BUT NOT LIMITED TO THE WARRANTIES OF MERCHANTABILITY,
  - FITNESS FOR A PARTICULAR PURPOSE AND NONINFRINGEMENT. IN NO EVENT SHALL THE
  - AUTHORS OR COPYRIGHT HOLDERS BE LIABLE FOR ANY CLAIM, DAMAGES OR OTHER
  - LIABILITY, WHETHER IN AN ACTION OF CONTRACT, TORT OR OTHERWISE, ARISING FROM,
  - OUT OF OR IN CONNECTION WITH THE SOFTWARE OR THE USE OR OTHER DEALINGS IN THE
  - SOFTWARE.
  -
  -
  -->

<svg big="true" xmlns="http://www.w3.org/2000/svg" viewBox="0 0 32 32" width="16px" height="16px">
    <g fill="#d2d2d2" iconColor="Bats Dark">
        <path d="M18.59,26.976A6.491,6.491,0,0,1,22.847,25.4h0a6.508,6.508,0,0,1,4.635,1.92l2.135,2.134A18.712,18.712,0,0,0,27.4,18.231l-.034-.062-.241.242a6.567,6.567,0,0,1-9.265,0,.5.5,0,0,1,0-.712h0l2.187-2.186h-.01a4.525,4.525,0,0,1-3.553-3.553v-.011L14.3,14.135a.5.5,0,0,1-.713,0,6.568,6.568,0,0,1,0-9.263l.244-.241L13.768,4.6A18.73,18.73,0,0,0,2.547,2.378L4.682,4.513A6.507,6.507,0,0,1,6.6,9.148a6.5,6.5,0,0,1-1.576,4.257A9.544,9.544,0,0,1,7.091,23.849L6.328,25.67l1.817-.756A9.543,9.543,0,0,1,18.59,26.976Z"/>
    </g>
</svg>
