<!--
  - The MIT License (MIT)
  -
  - Copyright (c) 2015-2022 Elior "Mallowigi" Boukhobza
  -
  - Permission is hereby granted, free of charge, to any person obtaining a copy
  - of this software and associated documentation files (the "Software"), to deal
  - in the Software without restriction, including without limitation the rights
  - to use, copy, modify, merge, publish, distribute, sublicense, and/or sell
  - copies of the Software, and to permit persons to whom the Software is
  - furnished to do so, subject to the following conditions:
  -
  - The above copyright notice and this permission notice shall be included in all
  - copies or substantial portions of the Software.
  -
  - THE SOFTWARE IS PROVIDED "AS IS", WITHOUT WARRANTY OF ANY KIND, EXPRESS OR
  - IMPLIED, INCLUDING BUT NOT LIMITED TO THE WARRANTIES OF MERCHANTABILITY,
  - FITNESS FOR A PARTICULAR PURPOSE AND NONINFRINGEMENT. IN NO EVENT SHALL THE
  - AUTHORS OR COPYRIGHT HOLDERS BE LIABLE FOR ANY CLAIM, DAMAGES OR OTHER
  - LIABILITY, WHETHER IN AN ACTION OF CONTRACT, TORT OR OTHERWISE, ARISING FROM,
  - OUT OF OR IN CONNECTION WITH THE SOFTWARE OR THE USE OR OTHER DEALINGS IN THE
  - SOFTWARE.
  -
  -
  -->

<svg big="true" xmlns="http://www.w3.org/2000/svg" viewBox="0 0 32 32" width="16px" height="16px">
    <path fill="#32b0e7" iconColor="Bicep"
          d="M24.556,19.111H11.333l3.111-7.778h5.134L20.667,9H16L14.444,6.667,16,4.333h4.667L19.578,2H14.444L11.022,6.667,12.422,9,3.089,20.667A5.375,5.375,0,0,0,2,23.778a4.7,4.7,0,0,0,3.889,4.666S22.222,30,24.556,30a5.445,5.445,0,0,0,0-10.889Zm-17.889,7a2.334,2.334,0,1,1,0-4.667,2.334,2.334,0,0,1,0,4.667Zm17.889,1.556a3.112,3.112,0,1,1,3.111-3.111A3.12,3.12,0,0,1,24.556,27.667Z"
    />
</svg>
