<!--
  - The MIT License (MIT)
  -
  -  Copyright (c) 2015-2022 Elior "Mallowigi" Boukhobza
  -
  -  Permission is hereby granted, free of charge, to any person obtaining a copy
  -  of this software and associated documentation files (the "Software"), to deal
  -  in the Software without restriction, including without limitation the rights
  -  to use, copy, modify, merge, publish, distribute, sublicense, and/or sell
  -  copies of the Software, and to permit persons to whom the Software is
  -  furnished to do so, subject to the following conditions:
  -
  -  The above copyright notice and this permission notice shall be included in all
  -  copies or substantial portions of the Software.
  -
  -  THE SOFTWARE IS PROVIDED "AS IS", WITHOUT WARRANTY OF ANY KIND, EXPRESS OR
  -  IMPLIED, INCLUDING BUT NOT LIMITED TO THE WARRANTIES OF MERCHANTABILITY,
  -  FITNESS FOR A PARTICULAR PURPOSE AND NONINFRINGEMENT. IN NO EVENT SHALL THE
  -  AUTHORS OR COPYRIGHT HOLDERS BE LIABLE FOR ANY CLAIM, DAMAGES OR OTHER
  -  LIABILITY, WHETHER IN AN ACTION OF CONTRACT, TORT OR OTHERWISE, ARISING FROM,
  -  OUT OF OR IN CONNECTION WITH THE SOFTWARE OR THE USE OR OTHER DEALINGS IN THE
  -  SOFTWARE.
  -->

<svg big="true" width="16px" height="16px" version="1.1" viewBox="0 0 24 24"
     xmlns="http://www.w3.org/2000/svg">
    <path d="m8.613 11.997c1.333 0 2.588 0.621 3.389 1.677l3.454 4.552a0.279 0.279 0 0 1 0.025 0.297l-1.991 3.825a0.284 0.284 0 0 1-0.477 0.04l-7.901-10.39h3.501zm2.375-10.385 7.9 10.39h-3.5a4.253 4.253 0 0 1-3.39-1.676l-3.452-4.552a0.278 0.278 0 0 1-0.025-0.297l1.99-3.825a0.284 0.284 0 0 1 0.478-0.04z"
          fill="#7c4dff" iconColor="Blitz"/>
</svg>
