<!--
  - The MIT License (MIT)
  -
  - Copyright (c) 2015-2022 Elior "Mallowigi" Boukhobza
  -
  - Permission is hereby granted, free of charge, to any person obtaining a copy
  - of this software and associated documentation files (the "Software"), to deal
  - in the Software without restriction, including without limitation the rights
  - to use, copy, modify, merge, publish, distribute, sublicense, and/or sell
  - copies of the Software, and to permit persons to whom the Software is
  - furnished to do so, subject to the following conditions:
  -
  - The above copyright notice and this permission notice shall be included in all
  - copies or substantial portions of the Software.
  -
  - THE SOFTWARE IS PROVIDED "AS IS", WITHOUT WARRANTY OF ANY KIND, EXPRESS OR
  - IMPLIED, INCLUDING BUT NOT LIMITED TO THE WARRANTIES OF MERCHANTABILITY,
  - FITNESS FOR A PARTICULAR PURPOSE AND NONINFRINGEMENT. IN NO EVENT SHALL THE
  - AUTHORS OR COPYRIGHT HOLDERS BE LIABLE FOR ANY CLAIM, DAMAGES OR OTHER
  - LIABILITY, WHETHER IN AN ACTION OF CONTRACT, TORT OR OTHERWISE, ARISING FROM,
  - OUT OF OR IN CONNECTION WITH THE SOFTWARE OR THE USE OR OTHER DEALINGS IN THE
  - SOFTWARE.
  -
  -
  -->

<svg big="true" xmlns="http://www.w3.org/2000/svg" version="1.1" viewBox="0 0 360 512" width="16px" height="16px">
    <path fill="#EF5350" iconColor="Browsersync"
          d="M159.2691345,0.7931548L4.2638984,78.2957764C1.7557229,79.5498657,0,82.0580368,0,85.0678558v341.8643188c0,2.7590027,1.5049053,5.5179749,4.2638984,6.7720642l155.0052338,77.502594c5.0163574,2.5081787,10.7851715-1.2540894,10.7851715-6.7720642V7.5652285C170.054306,2.0472424,164.2854919-1.7150207,159.2691345,0.7931548z M200.7308655,511.2068481l155.005249-77.502594C358.2442932,432.4501648,360,429.9419861,360,426.9321899V260.6401367c0-2.7589722-1.5049133-5.5179596-4.2638855-6.772049l-155.005249-77.5026398c-5.0163574-2.5081787-10.7851715,1.2540741-10.7851715,6.7720642v321.2972717C189.945694,509.9527588,195.7145081,513.7150269,200.7308655,511.2068481z"/>
</svg>
