<!--
  - The MIT License (MIT)
  -
  - Copyright (c) 2015-2023 Elior "Mallowigi" Boukhobza
  -
  - Permission is hereby granted, free of charge, to any person obtaining a copy
  - of this software and associated documentation files (the "Software"), to deal
  - in the Software without restriction, including without limitation the rights
  - to use, copy, modify, merge, publish, distribute, sublicense, and/or sell
  - copies of the Software, and to permit persons to whom the Software is
  - furnished to do so, subject to the following conditions:
  -
  - The above copyright notice and this permission notice shall be included in all
  - copies or substantial portions of the Software.
  -
  - THE SOFTWARE IS PROVIDED "AS IS", WITHOUT WARRANTY OF ANY KIND, EXPRESS OR
  - IMPLIED, INCLUDING BUT NOT LIMITED TO THE WARRANTIES OF MERCHANTABILITY,
  - FITNESS FOR A PARTICULAR PURPOSE AND NONINFRINGEMENT. IN NO EVENT SHALL THE
  - AUTHORS OR COPYRIGHT HOLDERS BE LIABLE FOR ANY CLAIM, DAMAGES OR OTHER
  - LIABILITY, WHETHER IN AN ACTION OF CONTRACT, TORT OR OTHERWISE, ARISING FROM,
  - OUT OF OR IN CONNECTION WITH THE SOFTWARE OR THE USE OR OTHER DEALINGS IN THE
  - SOFTWARE.
  -
  -->

<svg big="true" xmlns="http://www.w3.org/2000/svg" x="0px" y="0px"
     width="16px" height="16px" viewBox="0 0 100 100"
     xml:space="preserve">
    <defs>
        <mask id="Mask">
            <g>
                <circle cx="50" cy="50" r="50" fill="white"/>
                <rect x="57.8" y="42.2" width="14.1" height="14.1" fill="black"/>
                <path fill="black" d="M43.7,61.6c0,2.9-2.4,5.3-5.3,5.3s-5.3-2.4-5.3-5.3c0-2.9,2.4-5.3,5.3-5.3c0,0,0,0,0,0h5.3V42.2
                				h-5.3C27.7,42.2,19,50.9,19,61.6S27.7,81,38.4,81s19.4-8.7,19.4-19.4l0,0v-5.3H43.7V61.6z"/>
                <path fill="black"
                      d="M63.1,35.1H79V21H63.1c-10.7,0-19.4,8.7-19.4,19.4v1.8h14.1v-1.8C57.8,37.5,60.2,35.1,63.1,35.1z"/>
                <polygon points="57.8,42.2 57.8,42.2 43.7,42.2 43.7,56.3 57.8,56.3"/>
            </g>
        </mask>
    </defs>
    <g mask="url(#Mask)" fill="#00ef8b" iconColor="Cadence">
        <circle cx="50" cy="50" r="50"/>
        <rect x="57.8" y="42.2" width="14.1" height="14.1" fill="white"/>
        <path fill="white" d="M43.7,61.6c0,2.9-2.4,5.3-5.3,5.3s-5.3-2.4-5.3-5.3c0-2.9,2.4-5.3,5.3-5.3c0,0,0,0,0,0h5.3V42.2
				h-5.3C27.7,42.2,19,50.9,19,61.6S27.7,81,38.4,81s19.4-8.7,19.4-19.4l0,0v-5.3H43.7V61.6z"/>
        <path fill="white"
              d="M63.1,35.1H79V21H63.1c-10.7,0-19.4,8.7-19.4,19.4v1.8h14.1v-1.8C57.8,37.5,60.2,35.1,63.1,35.1z"/>
        <polygon points="57.8,42.2 57.8,42.2 43.7,42.2 43.7,56.3 57.8,56.3"/>
    </g>
</svg>
