<!--
  - The MIT License (MIT)
  -
  - Copyright (c) 2015-2022 Elior "Mallowigi" Boukhobza
  -
  - Permission is hereby granted, free of charge, to any person obtaining a copy
  - of this software and associated documentation files (the "Software"), to deal
  - in the Software without restriction, including without limitation the rights
  - to use, copy, modify, merge, publish, distribute, sublicense, and/or sell
  - copies of the Software, and to permit persons to whom the Software is
  - furnished to do so, subject to the following conditions:
  -
  - The above copyright notice and this permission notice shall be included in all
  - copies or substantial portions of the Software.
  -
  - THE SOFTWARE IS PROVIDED "AS IS", WITHOUT WARRANTY OF ANY KIND, EXPRESS OR
  - IMPLIED, INCLUDING BUT NOT LIMITED TO THE WARRANTIES OF MERCHANTABILITY,
  - FITNESS FOR A PARTICULAR PURPOSE AND NONINFRINGEMENT. IN NO EVENT SHALL THE
  - AUTHORS OR COPYRIGHT HOLDERS BE LIABLE FOR ANY CLAIM, DAMAGES OR OTHER
  - LIABILITY, WHETHER IN AN ACTION OF CONTRACT, TORT OR OTHERWISE, ARISING FROM,
  - OUT OF OR IN CONNECTION WITH THE SOFTWARE OR THE USE OR OTHER DEALINGS IN THE
  - SOFTWARE.
  -
  -
  -->

<svg big="true" version="1.1" xmlns="http://www.w3.org/2000/svg" viewBox="0 0 512 512" width="16px" height="16px">
    <path fill="#dc9550" iconColor="Calva"
          d="M58.7593994,448.4751587c-76.0285034-84.1237793-80.6294632-293.6431885,0-385.044342C71.013649,51.0975189,89.5866928,69.5515137,77.3324509,81.884819c-67.846077,80.4132309-68.9039993,266.9776611,0,348.1363525C89.7604752,442.5293884,71.1874237,460.9833679,58.7593994,448.4751587z M452.6929932,448.4751587c-12.2567749,12.335907-30.8298035-6.1180725-18.5730591-18.4539795c70.5288391-86.8456421,66.6257324-266.9460449,0-348.1363525c-12.2098083-12.288559,6.3632507-30.7425461,18.5730591-18.4539909C529.8722534,152.0623169,533.6432495,350.9817505,452.6929932,448.4751587z M405.4851074,148.8834534c-50.8534851,55.6095886-62.5159607-17.9608459-110.853302-14.9999542c-38.5722656,2.3627472-39.6957397,38.2158813-75.9298706,39.6357574c-40.4696503,1.5858765-46.5927124-51.3526306-106.0462799-34.4562073c-29.997757,67.2488556-34.7462769,140.9193726-8.1156235,215.1361694c16.4255066,45.7761536,62.9548874,72.9859924,149.5666199,72.9859924c87.3551941,0,135.3076172-21.1882935,155.6854553-75.6045227C435.1480408,277.0105896,429.6720581,208.2301483,405.4851074,148.8834534z"/>
</svg>
