<!--
  - The MIT License (MIT)
  -
  - Copyright (c) 2015-2022 Elior "Mallowigi" Boukhobza
  -
  - Permission is hereby granted, free of charge, to any person obtaining a copy
  - of this software and associated documentation files (the "Software"), to deal
  - in the Software without restriction, including without limitation the rights
  - to use, copy, modify, merge, publish, distribute, sublicense, and/or sell
  - copies of the Software, and to permit persons to whom the Software is
  - furnished to do so, subject to the following conditions:
  -
  - The above copyright notice and this permission notice shall be included in all
  - copies or substantial portions of the Software.
  -
  - THE SOFTWARE IS PROVIDED "AS IS", WITHOUT WARRANTY OF ANY KIND, EXPRESS OR
  - IMPLIED, INCLUDING BUT NOT LIMITED TO THE WARRANTIES OF MERCHANTABILITY,
  - FITNESS FOR A PARTICULAR PURPOSE AND NONINFRINGEMENT. IN NO EVENT SHALL THE
  - AUTHORS OR COPYRIGHT HOLDERS BE LIABLE FOR ANY CLAIM, DAMAGES OR OTHER
  - LIABILITY, WHETHER IN AN ACTION OF CONTRACT, TORT OR OTHERWISE, ARISING FROM,
  - OUT OF OR IN CONNECTION WITH THE SOFTWARE OR THE USE OR OTHER DEALINGS IN THE
  - SOFTWARE.
  -
  -
  -->

<svg big="true" xmlns="http://www.w3.org/2000/svg" viewBox="0 0 56 56" width="16px" height="16px">
    <g fill="#0092d1" iconColor="CAP">
        <path d="M45.84,21.462a8.489,8.489,0,0,0-12.783-5.713A10.747,10.747,0,0,0,22.41,8.5C10,8.5,11.09,21.488,11.09,21.488A10.3,10.3,0,0,0,13,41.5v-3a7.477,7.477,0,0,1-5.639-5,7.247,7.247,0,0,1,4.666-9.164l2.279-.768-.286-1.5A7.521,7.521,0,0,1,13.9,20a10.535,10.535,0,0,1,2.188-5.828,7.375,7.375,0,0,1,6.4-2.824c3.264,0,7.286,2.9,8.221,5.636l.934,2.732,2.424-1.318a7.6,7.6,0,0,1,3.39-.894,5.546,5.546,0,0,1,5.443,4.518l.288,1.528,1.125.514A7.809,7.809,0,0,1,48.891,29.7,7.809,7.809,0,0,1,43,38.5V41.52A10.793,10.793,0,0,0,52,31,10.483,10.483,0,0,0,45.84,21.462Z"/>
        <g transform="scale(1.05,1.2) translate(-2,-7)">
            <path d="M24.561,38.939l-6-6a1.5,1.5,0,0,0-2.122,2.122L21.379,40l-4.94,4.939a1.5,1.5,0,0,0,2.122,2.122l6-6A1.5,1.5,0,0,0,24.561,38.939Z"/>
            <path d="M26.5,35.5h12a1.5,1.5,0,0,0,0-3h-12a1.5,1.5,0,0,0,0,3Z"/>
            <path d="M38.5,38.5h-9a1.5,1.5,0,0,0,0,3h9a1.5,1.5,0,0,0,0-3Z"/>
            <path d="M38.5,44.5h-12a1.5,1.5,0,0,0,0,3h12a1.5,1.5,0,0,0,0-3Z"/>
        </g>
    </g>
</svg>
