<!--
  - The MIT License (MIT)
  -
  - Copyright (c) 2015-2022 Elior "Mallowigi" Boukhobza
  -
  - Permission is hereby granted, free of charge, to any person obtaining a copy
  - of this software and associated documentation files (the "Software"), to deal
  - in the Software without restriction, including without limitation the rights
  - to use, copy, modify, merge, publish, distribute, sublicense, and/or sell
  - copies of the Software, and to permit persons to whom the Software is
  - furnished to do so, subject to the following conditions:
  -
  - The above copyright notice and this permission notice shall be included in all
  - copies or substantial portions of the Software.
  -
  - THE SOFTWARE IS PROVIDED "AS IS", WITHOUT WARRANTY OF ANY KIND, EXPRESS OR
  - IMPLIED, INCLUDING BUT NOT LIMITED TO THE WARRANTIES OF MERCHANTABILITY,
  - FITNESS FOR A PARTICULAR PURPOSE AND NONINFRINGEMENT. IN NO EVENT SHALL THE
  - AUTHORS OR COPYRIGHT HOLDERS BE LIABLE FOR ANY CLAIM, DAMAGES OR OTHER
  - LIABILITY, WHETHER IN AN ACTION OF CONTRACT, TORT OR OTHERWISE, ARISING FROM,
  - OUT OF OR IN CONNECTION WITH THE SOFTWARE OR THE USE OR OTHER DEALINGS IN THE
  - SOFTWARE.
  -
  -
  -->

<svg big="true" xmlns="http://www.w3.org/2000/svg" width="16px" height="16px" viewBox="0 0 16 16">
    <path fill="#7A8387" iconColor="CircleCI"
          d="M4.513,6.44a3.7,3.7,0,1,1,3.367,5.2A3.723,3.723,0,0,1,4.513,9.52a0.315,0.315,0,0,0-.3-0.22H1.348a0.322,0.322,0,0,0-.325.42A7.108,7.108,0,0,0,15,8,7.058,7.058,0,0,0,7.9,1,7.15,7.15,0,0,0,1.014,6.28a0.314,0.314,0,0,0,.335.38h2.86A0.328,0.328,0,0,0,4.513,6.44Zm2.544,3a1.649,1.649,0,0,1,0-2.873A1.672,1.672,0,1,1,7.057,9.437Z"
    />
</svg>
