<!--
  - The MIT License (MIT)
  -
  - Copyright (c) 2015-2022 Elior "Mallowigi" Boukhobza
  -
  - Permission is hereby granted, free of charge, to any person obtaining a copy
  - of this software and associated documentation files (the "Software"), to deal
  - in the Software without restriction, including without limitation the rights
  - to use, copy, modify, merge, publish, distribute, sublicense, and/or sell
  - copies of the Software, and to permit persons to whom the Software is
  - furnished to do so, subject to the following conditions:
  -
  - The above copyright notice and this permission notice shall be included in all
  - copies or substantial portions of the Software.
  -
  - THE SOFTWARE IS PROVIDED "AS IS", WITHOUT WARRANTY OF ANY KIND, EXPRESS OR
  - IMPLIED, INCLUDING BUT NOT LIMITED TO THE WARRANTIES OF MERCHANTABILITY,
  - FITNESS FOR A PARTICULAR PURPOSE AND NONINFRINGEMENT. IN NO EVENT SHALL THE
  - AUTHORS OR COPYRIGHT HOLDERS BE LIABLE FOR ANY CLAIM, DAMAGES OR OTHER
  - LIABILITY, WHETHER IN AN ACTION OF CONTRACT, TORT OR OTHERWISE, ARISING FROM,
  - OUT OF OR IN CONNECTION WITH THE SOFTWARE OR THE USE OR OTHER DEALINGS IN THE
  - SOFTWARE.
  -
  -
  -->

<svg big="true" width="16px" height="16px" viewBox="0 0 512 512" xmlns="http://www.w3.org/2000/svg">
    <g transform="translate(-128,640) scale(0.150000,-0.150000)" fill="#cb2a41" iconColor="Clio" stroke="none">
        <path d="M3145 2998 c-38 -34 -70 -65 -70 -69 0 -9 328 -371 422 -466 l63 -63
 -440 0 -440 0 0 -13 c0 -7 13 -51 28 -97 l29 -85 411 -3 410 -2 -115 -118
c-94 -96 -305 -326 -361 -393 l-13 -17 76 -66 c42 -36 80 -66 85 -66 13 0 675
747 675 761 0 19 -658 758 -675 758 -8 0 -46 -27 -85 -61z"/>
        <path d="M1522 2303 l3 -98 186 -3 186 -2 32 83 c17 46 31 91 31 100 l0 17
 -220 0 -221 0 3 -97z"/>
        <path d="M2131 2314 c-17 -47 -31 -92 -31 -100 l0 -14 210 0 210 0 0 13 c0 7
 -13 51 -28 97 l-29 85 -150 3 -150 3 -32 -87z"/>
        <path d="M1875 3586 c-19 -83 -25 -114 -25 -132 l0 -21 61 -13 c77 -16 165
 -58 214 -101 49 -43 100 -122 130 -204 l24 -64 -40 -3 -41 -3 -119 -320 c-66
 -176 -130 -349 -143 -385 -13 -36 -54 -146 -91 -245 -37 -99 -82 -221 -100
 -272 l-34 -91 72 -16 c39 -9 88 -19 107 -22 l35 -6 89 254 c49 139 106 300
126 358 21 58 74 205 117 328 l78 223 7 -18 c3 -10 25 -99 48 -198 37 -159
124 -455 150 -510 5 -11 29 -65 53 -121 40 -93 122 -237 165 -292 l17 -23 105
39 c57 21 105 43 107 49 2 5 -15 32 -37 59 -22 27 -61 83 -85 124 -45 77 -119
240 -108 240 3 0 1 6 -4 13 -19 23 -82 231 -158 522 -42 160 -86 319 -97 355
 -11 36 -41 108 -66 160 l-46 94 -65 66 c-37 37 -91 80 -121 97 -66 38 -161 70
 -253 88 l-67 13 -5 -22z"/>
        <path d="M2322 3531 c-6 -39 -12 -77 -12 -85 l0 -13 58 -12 c73 -14 167 -59
217 -102 49 -43 100 -122 131 -205 13 -35 24 -67 24 -69 0 -3 -19 -5 -42 -5
l-43 0 -39 -108 c-21 -59 -42 -111 -46 -117 -9 -12 72 -317 85 -322 6 -1 39
81 75 184 l65 187 7 -30 c53 -211 103 -422 102 -431 l-2 -13 119 0 c66 0 119
3 119 6 0 3 -14 53 -31 111 -16 58 -59 216 -94 352 -35 137 -77 282 -95 324
 -63 151 -144 250 -262 320 -71 42 -192 84 -271 93 l-53 6 -12 -71z"/>
        <path d="M2426 2424 c-10 -26 -7 -34 14 -34 11 0 20 4 20 9 0 17 -12 41 -20
41 -4 0 -11 -7 -14 -16z"/>
        <path d="M2260 1978 c-47 -127 -86 -234 -88 -238 -1 -4 43 -17 99 -29 l101
 -23 8 9 c4 4 40 103 80 218 41 116 77 211 81 213 4 2 2 20 -5 40 l-13 37 -89
3 -89 2 -85 -232z"/>
        <path d="M2995 2141 c35 -96 88 -211 136 -293 l41 -70 20 19 c11 10 47 48 79
85 l60 66 -29 45 c-15 24 -43 83 -62 131 l-35 86 -117 0 -118 0 25 -69z"/>
    </g>
</svg>
