<!--
  - The MIT License (MIT)
  -
  - Copyright (c) 2015-2022 Elior "Mallowigi" Boukhobza
  -
  - Permission is hereby granted, free of charge, to any person obtaining a copy
  - of this software and associated documentation files (the "Software"), to deal
  - in the Software without restriction, including without limitation the rights
  - to use, copy, modify, merge, publish, distribute, sublicense, and/or sell
  - copies of the Software, and to permit persons to whom the Software is
  - furnished to do so, subject to the following conditions:
  -
  - The above copyright notice and this permission notice shall be included in all
  - copies or substantial portions of the Software.
  -
  - THE SOFTWARE IS PROVIDED "AS IS", WITHOUT WARRANTY OF ANY KIND, EXPRESS OR
  - IMPLIED, INCLUDING BUT NOT LIMITED TO THE WARRANTIES OF MERCHANTABILITY,
  - FITNESS FOR A PARTICULAR PURPOSE AND NONINFRINGEMENT. IN NO EVENT SHALL THE
  - AUTHORS OR COPYRIGHT HOLDERS BE LIABLE FOR ANY CLAIM, DAMAGES OR OTHER
  - LIABILITY, WHETHER IN AN ACTION OF CONTRACT, TORT OR OTHERWISE, ARISING FROM,
  - OUT OF OR IN CONNECTION WITH THE SOFTWARE OR THE USE OR OTHER DEALINGS IN THE
  - SOFTWARE.
  -
  -
  -->

<svg big="true" xmlns="http://www.w3.org/2000/svg" viewBox="0 0 24 24" width="16px" height="16px">
    <g fill="#90a4ae" iconColor="Coala">
        <path xmlns="http://www.w3.org/2000/svg"
              d="M22 8.95c0-2.59-1.74-3.63-3.89-3.63-.9 0-1.83.2-2.6.57-1-.69-2.17-1.09-3.51-1.09-1.34 0-2.51.41-3.51 1.09-.78-.38-1.7-.57-2.6-.57C3.74 5.32 2 6.35 2 8.95c0 2.14 1.18 3.56 2.8 4-.02.3-.04.6-.04.89 0 3.18 2.51 4.26 4.77 4.63.61.45 1.49.73 2.47.73.98 0 1.86-.28 2.47-.73 2.26-.36 4.77-1.44 4.77-4.63 0-.3-.01-.6-.04-.89 1.62-.44 2.8-1.87 2.8-4"
        />
        <path xmlns="http://www.w3.org/2000/svg"
              d="M14.07 15.21c0 1.86-.96 2.33-2.07 2.33-1.11 0-2.07-.47-2.07-2.33s.96-3.36 2.07-3.36c1.11 0 2.07 1.51 2.07 3.36M9.5 11.75a1.25 1.25 0 1 1-2.5 0 1.25 1.25 0 0 1 2.5 0M17 11.75a1.25 1.25 0 1 1-2.5 0 1.25 1.25 0 0 1 2.5 0"
              fill="#263238"/>
    </g>
</svg>
