<!--
  - The MIT License (MIT)
  -
  - Copyright (c) 2015-2023 Elior "Mallowigi" Boukhobza
  -
  - Permission is hereby granted, free of charge, to any person obtaining a copy
  - of this software and associated documentation files (the "Software"), to deal
  - in the Software without restriction, including without limitation the rights
  - to use, copy, modify, merge, publish, distribute, sublicense, and/or sell
  - copies of the Software, and to permit persons to whom the Software is
  - furnished to do so, subject to the following conditions:
  -
  - The above copyright notice and this permission notice shall be included in all
  - copies or substantial portions of the Software.
  -
  - THE SOFTWARE IS PROVIDED "AS IS", WITHOUT WARRANTY OF ANY KIND, EXPRESS OR
  - IMPLIED, INCLUDING BUT NOT LIMITED TO THE WARRANTIES OF MERCHANTABILITY,
  - FITNESS FOR A PARTICULAR PURPOSE AND NONINFRINGEMENT. IN NO EVENT SHALL THE
  - AUTHORS OR COPYRIGHT HOLDERS BE LIABLE FOR ANY CLAIM, DAMAGES OR OTHER
  - LIABILITY, WHETHER IN AN ACTION OF CONTRACT, TORT OR OTHERWISE, ARISING FROM,
  - OUT OF OR IN CONNECTION WITH THE SOFTWARE OR THE USE OR OTHER DEALINGS IN THE
  - SOFTWARE.
  -
  -->

<svg big="true" version="1.2" baseProfile="tiny" id="Layer_1" xmlns="http://www.w3.org/2000/svg"
     width="16px" height="16px"
     x="0px" y="0px" viewBox="0 0 24 24" xml:space="preserve">
    <g fill="#29B6F6" iconColor="Cue">
        <path d="M12,5c3.9,0,7,3.1,7,7s-3.1,7-7,7s-7-3.1-7-7S8.1,5,12,5 M12,3c-5,0-9,4-9,9s4,9,9,9s9-4,9-9S17,3,12,3L12,3z"/>
        <path d="M12,7.3c2.6,0,4.7,2.1,4.7,4.7s-2.1,4.7-4.7,4.7S7.3,14.6,7.3,12S9.4,7.3,12,7.3 M12,6.3
	c-3.2,0-5.7,2.6-5.7,5.7s2.6,5.7,5.7,5.7s5.7-2.6,5.7-5.7S15.2,6.3,12,6.3L12,6.3z"/>
    </g>
</svg>
