<!--
  - The MIT License (MIT)
  -
  - Copyright (c) 2015-2022 Elior "Mallowigi" Boukhobza
  -
  - Permission is hereby granted, free of charge, to any person obtaining a copy
  - of this software and associated documentation files (the "Software"), to deal
  - in the Software without restriction, including without limitation the rights
  - to use, copy, modify, merge, publish, distribute, sublicense, and/or sell
  - copies of the Software, and to permit persons to whom the Software is
  - furnished to do so, subject to the following conditions:
  -
  - The above copyright notice and this permission notice shall be included in all
  - copies or substantial portions of the Software.
  -
  - THE SOFTWARE IS PROVIDED "AS IS", WITHOUT WARRANTY OF ANY KIND, EXPRESS OR
  - IMPLIED, INCLUDING BUT NOT LIMITED TO THE WARRANTIES OF MERCHANTABILITY,
  - FITNESS FOR A PARTICULAR PURPOSE AND NONINFRINGEMENT. IN NO EVENT SHALL THE
  - AUTHORS OR COPYRIGHT HOLDERS BE LIABLE FOR ANY CLAIM, DAMAGES OR OTHER
  - LIABILITY, WHETHER IN AN ACTION OF CONTRACT, TORT OR OTHERWISE, ARISING FROM,
  - OUT OF OR IN CONNECTION WITH THE SOFTWARE OR THE USE OR OTHER DEALINGS IN THE
  - SOFTWARE.
  -
  -
  -->

<svg big="true" xmlns="http://www.w3.org/2000/svg" viewBox="0 0 32 32" width="16px" height="16px">
    <g fill="#828282" iconColor="Dal">
        <path d="M23.425,2.937,30,2.94l0,6.573-1.951-.029L28.07,5.77,18.827,15,11.4,8.656,3.382,16.077,2,14.727l9.379-8.614,7.439,6.116,7.344-7.362-2.73.005-.008-1.935Z"/>
        <path d="M24.365,11.708l1.911-1.884,0,19.227H24.352l.013-17.342Z"/>
        <path d="M9.468,12.7l1.922-1.783-.016,18.148-1.906-.016V12.7Z"/>
        <path d="M13.2,12.5l1.908,1.619L15.1,29.058l-1.911-.008L13.2,12.5Z"/>
        <path d="M20.645,15.583l1.908-2.039.005,15.5-1.927,0,.013-13.467Z"/>
        <path d="M5.742,16.191l1.924-1.826.027,14.682H5.748L5.742,16.191Z"/>
        <path d="M16.918,15.66l1.914,1.64.005,11.748-1.927,0,.008-13.39Z"/>
    </g>
</svg>
