<!--
  - The MIT License (MIT)
  -
  - Copyright (c) 2015-2022 Elior "Mallowigi" Boukhobza
  -
  - Permission is hereby granted, free of charge, to any person obtaining a copy
  - of this software and associated documentation files (the "Software"), to deal
  - in the Software without restriction, including without limitation the rights
  - to use, copy, modify, merge, publish, distribute, sublicense, and/or sell
  - copies of the Software, and to permit persons to whom the Software is
  - furnished to do so, subject to the following conditions:
  -
  - The above copyright notice and this permission notice shall be included in all
  - copies or substantial portions of the Software.
  -
  - THE SOFTWARE IS PROVIDED "AS IS", WITHOUT WARRANTY OF ANY KIND, EXPRESS OR
  - IMPLIED, INCLUDING BUT NOT LIMITED TO THE WARRANTIES OF MERCHANTABILITY,
  - FITNESS FOR A PARTICULAR PURPOSE AND NONINFRINGEMENT. IN NO EVENT SHALL THE
  - AUTHORS OR COPYRIGHT HOLDERS BE LIABLE FOR ANY CLAIM, DAMAGES OR OTHER
  - LIABILITY, WHETHER IN AN ACTION OF CONTRACT, TORT OR OTHERWISE, ARISING FROM,
  - OUT OF OR IN CONNECTION WITH THE SOFTWARE OR THE USE OR OTHER DEALINGS IN THE
  - SOFTWARE.
  -
  -
  -->

<svg big="true" xmlns="http://www.w3.org/2000/svg" viewBox="0 0 2000 2000" width="16px" height="16px">
    <g fill="#c2a633" iconColor="DogeScript">
        <path d="M1024 659H881.12v281.69h224.79v117.94H881.12v281.67H1031c38.51 0 316.16 4.35 315.73-327.72S1077.44 659 1024 659z"/>
        <path d="M1000 0C447.71 0 0 447.71 0 1000s447.71 1000 1000 1000 1000-447.71 1000-1000S1552.29 0 1000 0zm39.29 1540.1H677.14v-481.46H549.48V940.7h127.65V459.21h310.82c73.53 0 560.56-15.27 560.56 549.48 0 574.09-509.21 531.41-509.21 531.41z"/>
    </g>
</svg>
