<!--
  - The MIT License (MIT)
  -
  - Copyright (c) 2015-2022 Elior "Mallowigi" Boukhobza
  -
  - Permission is hereby granted, free of charge, to any person obtaining a copy
  - of this software and associated documentation files (the "Software"), to deal
  - in the Software without restriction, including without limitation the rights
  - to use, copy, modify, merge, publish, distribute, sublicense, and/or sell
  - copies of the Software, and to permit persons to whom the Software is
  - furnished to do so, subject to the following conditions:
  -
  - The above copyright notice and this permission notice shall be included in all
  - copies or substantial portions of the Software.
  -
  - THE SOFTWARE IS PROVIDED "AS IS", WITHOUT WARRANTY OF ANY KIND, EXPRESS OR
  - IMPLIED, INCLUDING BUT NOT LIMITED TO THE WARRANTIES OF MERCHANTABILITY,
  - FITNESS FOR A PARTICULAR PURPOSE AND NONINFRINGEMENT. IN NO EVENT SHALL THE
  - AUTHORS OR COPYRIGHT HOLDERS BE LIABLE FOR ANY CLAIM, DAMAGES OR OTHER
  - LIABILITY, WHETHER IN AN ACTION OF CONTRACT, TORT OR OTHERWISE, ARISING FROM,
  - OUT OF OR IN CONNECTION WITH THE SOFTWARE OR THE USE OR OTHER DEALINGS IN THE
  - SOFTWARE.
  -
  -
  -->

<svg big="true" xmlns="http://www.w3.org/2000/svg" viewBox="0 0 32 32" width="16px" height="16px">
    <defs>
        <mask id="Mask">
            <g fill="#000">
                <rect x="9" y="23" width="7" height="7"/>
                <rect x="2" y="16" width="7" height="7"/>
                <rect x="23" y="9" width="7" height="7"/>
                <rect x="16" y="2" width="7" height="7"/>
                <rect x="23" y="23" width="7" height="7"/>
                <rect x="16" y="16" width="7" height="7"/>
                <rect x="9" y="9" width="7" height="7"/>
                <rect x="2" y="2" width="7" height="7"/>
            </g>
        </mask>
    </defs>
    <g fill="#f24b08" iconColor="Dylan">
        <rect x="16" y="9" width="7" height="7"/>
        <rect x="23" y="2" width="7" height="7"/>
        <rect x="2" y="23" width="7" height="7"/>
        <rect x="9" y="16" width="7" height="7"/>
        <rect x="16" y="23" width="7" height="7"/>
        <rect x="23" y="16" width="7" height="7"/>
        <rect x="2" y="9" width="7" height="7"/>
        <rect x="9" y="2" width="7" height="7"/>
    </g>
    <g mask="url(#Mask)">
        <rect x="9" y="23" width="7" height="7"/>
        <rect x="2" y="16" width="7" height="7"/>
        <rect x="23" y="9" width="7" height="7"/>
        <rect x="16" y="2" width="7" height="7"/>
        <rect x="23" y="23" width="7" height="7"/>
        <rect x="16" y="16" width="7" height="7"/>
        <rect x="9" y="9" width="7" height="7"/>
        <rect x="2" y="2" width="7" height="7"/>
    </g>
</svg>
