<!--
  - The MIT License (MIT)
  -
  - Copyright (c) 2015-2022 Elior "Mallowigi" Boukhobza
  -
  - Permission is hereby granted, free of charge, to any person obtaining a copy
  - of this software and associated documentation files (the "Software"), to deal
  - in the Software without restriction, including without limitation the rights
  - to use, copy, modify, merge, publish, distribute, sublicense, and/or sell
  - copies of the Software, and to permit persons to whom the Software is
  - furnished to do so, subject to the following conditions:
  -
  - The above copyright notice and this permission notice shall be included in all
  - copies or substantial portions of the Software.
  -
  - THE SOFTWARE IS PROVIDED "AS IS", WITHOUT WARRANTY OF ANY KIND, EXPRESS OR
  - IMPLIED, INCLUDING BUT NOT LIMITED TO THE WARRANTIES OF MERCHANTABILITY,
  - FITNESS FOR A PARTICULAR PURPOSE AND NONINFRINGEMENT. IN NO EVENT SHALL THE
  - AUTHORS OR COPYRIGHT HOLDERS BE LIABLE FOR ANY CLAIM, DAMAGES OR OTHER
  - LIABILITY, WHETHER IN AN ACTION OF CONTRACT, TORT OR OTHERWISE, ARISING FROM,
  - OUT OF OR IN CONNECTION WITH THE SOFTWARE OR THE USE OR OTHER DEALINGS IN THE
  - SOFTWARE.
  -
  -
  -->
<svg big="true" width="16px" height="16px" xmlns="http://www.w3.org/2000/svg" viewBox="0 0 32 32">
    <g fill="#00d6ff" iconColor="Earthly">
        <path d="M17.45,10.29l-3.19,5.48h0l-3.11-5.39Z" />
        <path d="M17.45,10.29h0l-6.21.09H4.86v-.09L8,4.82h6.3Z" />
        <path d="M14.26,15.77h0l-3.11,5.47H4.86L1.75,15.77l3.11-5.48L8,15.58l6.3.19Z" />
        <path d="M14.26,15.77H8l-3.1-5.48,6.29.09Z" />
        <path d="M17.45,21.15,15,21.24H11.15l3.11-5.47,6.2.09Z" />
        <path d="M20.64,26.53l-.09.19H14.16l-3.1-5.48h0l3.1-5.38h0l-3,5.38H15l2.37-.09.09.09,3.19,5.29Z" />
        <path d="M23.65,21.24h-6.2l-.09-.09,3.1-5.47.09.09Z" />
        <path d="M23.65,21.24l-3,5.29-.09-.18-3.1-5.2,6.11-.09Z" />
        <path d="M26.76,15.68l-3.11,5.47h0l-3.1-5.38h-6.2v-.09h0l3.1-5.39h6.3l3,5.39Z" />
        <path d="M30,21.15l-3.19,5.57H20.55l3-5.39v-.09h0l3.11-5.47v-.09h.09Z" />
    </g>
</svg>
