<!--
  - The MIT License (MIT)
  -
  - Copyright (c) 2015-2022 Elior "Mallowigi" Boukhobza
  -
  - Permission is hereby granted, free of charge, to any person obtaining a copy
  - of this software and associated documentation files (the "Software"), to deal
  - in the Software without restriction, including without limitation the rights
  - to use, copy, modify, merge, publish, distribute, sublicense, and/or sell
  - copies of the Software, and to permit persons to whom the Software is
  - furnished to do so, subject to the following conditions:
  -
  - The above copyright notice and this permission notice shall be included in all
  - copies or substantial portions of the Software.
  -
  - THE SOFTWARE IS PROVIDED "AS IS", WITHOUT WARRANTY OF ANY KIND, EXPRESS OR
  - IMPLIED, INCLUDING BUT NOT LIMITED TO THE WARRANTIES OF MERCHANTABILITY,
  - FITNESS FOR A PARTICULAR PURPOSE AND NONINFRINGEMENT. IN NO EVENT SHALL THE
  - AUTHORS OR COPYRIGHT HOLDERS BE LIABLE FOR ANY CLAIM, DAMAGES OR OTHER
  - LIABILITY, WHETHER IN AN ACTION OF CONTRACT, TORT OR OTHERWISE, ARISING FROM,
  - OUT OF OR IN CONNECTION WITH THE SOFTWARE OR THE USE OR OTHER DEALINGS IN THE
  - SOFTWARE.
  -
  -
  -->

<svg big="true" xmlns="http://www.w3.org/2000/svg" width="16px" height="16px" viewBox="0 0 16 16">
    <path fill="#D52A29" iconColor="Erlang"
          d="M2.516,11.99a6.286,6.286,0,0,1-1.964-4.7A6.145,6.145,0,0,1,2.187,3.011H0.011V11.99H2.516Zm11.454,0A9.384,9.384,0,0,0,15.418,10.2L13.01,9.131a4.741,4.741,0,0,1-3.791,2.352c-2.488-.008-3.466-1.9-3.461-4.329h9.3a3.69,3.69,0,0,0,0-.534A5.17,5.17,0,0,0,13.9,3.009l0,0h2.094v8.979H13.971ZM5.909,5.069A2.125,2.125,0,0,1,8.135,3.225a1.878,1.878,0,0,1,2.016,1.844H5.909Z"
    />
</svg>
