<!--
  - The MIT License (MIT)
  -
  - Copyright (c) 2015-2022 Elior "Mallowigi" Boukhobza
  -
  - Permission is hereby granted, free of charge, to any person obtaining a copy
  - of this software and associated documentation files (the "Software"), to deal
  - in the Software without restriction, including without limitation the rights
  - to use, copy, modify, merge, publish, distribute, sublicense, and/or sell
  - copies of the Software, and to permit persons to whom the Software is
  - furnished to do so, subject to the following conditions:
  -
  - The above copyright notice and this permission notice shall be included in all
  - copies or substantial portions of the Software.
  -
  - THE SOFTWARE IS PROVIDED "AS IS", WITHOUT WARRANTY OF ANY KIND, EXPRESS OR
  - IMPLIED, INCLUDING BUT NOT LIMITED TO THE WARRANTIES OF MERCHANTABILITY,
  - FITNESS FOR A PARTICULAR PURPOSE AND NONINFRINGEMENT. IN NO EVENT SHALL THE
  - AUTHORS OR COPYRIGHT HOLDERS BE LIABLE FOR ANY CLAIM, DAMAGES OR OTHER
  - LIABILITY, WHETHER IN AN ACTION OF CONTRACT, TORT OR OTHERWISE, ARISING FROM,
  - OUT OF OR IN CONNECTION WITH THE SOFTWARE OR THE USE OR OTHER DEALINGS IN THE
  - SOFTWARE.
  -
  -
  -->

<svg big="true" width="16px" height="16px" version="1.1" viewBox="0 0 67.733 67.733" xmlns="http://www.w3.org/2000/svg">
    <path d="m10.321 12.006c-0.21038 0-0.37976 0.1735-0.37976 0.3892v12.63c0 0.2157 0.16938 0.38961 0.37976 0.38961h16.925c0.21038 0 0.37976-0.17391 0.37976-0.38961v-12.63c0-0.2157-0.16938-0.3892-0.37976-0.3892zm30.167 0c-0.21038 0-0.37976 0.1735-0.37976 0.3892v12.63c0 0.2157 0.16938 0.38961 0.37976 0.38961h16.925c0.21038 0 0.37976-0.17391 0.37976-0.38961v-12.63c0-0.2157-0.16938-0.3892-0.37976-0.3892zm-30.167 22.322c-0.21038 0-0.37976 0.1735-0.37976 0.3892v12.63c0 0.2157 0.16938 0.38961 0.37976 0.38961h16.925c0.21038 0 0.37976-0.17391 0.37976-0.38961v-12.63c0-0.2157-0.16938-0.3892-0.37976-0.3892zm30.167 0c-0.21038 0-0.37976 0.1735-0.37976 0.3892v12.63c0 0.2157 0.16938 0.38961 0.37976 0.38961h4.0525v4.3514h-4.0308c-0.20757 0-0.37483 0.16726-0.37483 0.37483v2.8898c0 0.20757 0.16726 0.37442 0.37483 0.37442h8.3029c0.20758 0 0.37442-0.16685 0.37442-0.37442v-4.135h3.7976c0.20757 0 0.37442-0.16726 0.37442-0.37483v-3.1062h4.0542c0.21038 0 0.37976-0.17391 0.37976-0.38961v-12.63c0-0.2157-0.16938-0.3892-0.37976-0.3892z"
          fill="#ef5350" iconColor="Forth"/>
</svg>
