<!--
  - The MIT License (MIT)
  -
  - Copyright (c) 2015-2022 Elior "Mallowigi" Boukhobza
  -
  - Permission is hereby granted, free of charge, to any person obtaining a copy
  - of this software and associated documentation files (the "Software"), to deal
  - in the Software without restriction, including without limitation the rights
  - to use, copy, modify, merge, publish, distribute, sublicense, and/or sell
  - copies of the Software, and to permit persons to whom the Software is
  - furnished to do so, subject to the following conditions:
  -
  - The above copyright notice and this permission notice shall be included in all
  - copies or substantial portions of the Software.
  -
  - THE SOFTWARE IS PROVIDED "AS IS", WITHOUT WARRANTY OF ANY KIND, EXPRESS OR
  - IMPLIED, INCLUDING BUT NOT LIMITED TO THE WARRANTIES OF MERCHANTABILITY,
  - FITNESS FOR A PARTICULAR PURPOSE AND NONINFRINGEMENT. IN NO EVENT SHALL THE
  - AUTHORS OR COPYRIGHT HOLDERS BE LIABLE FOR ANY CLAIM, DAMAGES OR OTHER
  - LIABILITY, WHETHER IN AN ACTION OF CONTRACT, TORT OR OTHERWISE, ARISING FROM,
  - OUT OF OR IN CONNECTION WITH THE SOFTWARE OR THE USE OR OTHER DEALINGS IN THE
  - SOFTWARE.
  -
  -
  -->

<svg big="true" version="1.1" xmlns="http://www.w3.org/2000/svg" viewBox="0 0 473 512" width="16px" height="16px">
    <path transform="scale(0.9) translate(30 30)" fill="#A1887F" iconColor="Fortran"
          d="M0 453.581h41.795c23.169 0 45.952-13.099 45.952-45.627v-306.399c0-41.212-13.744-45.627-56.427-45.627h-28.701v-55.929h469.685v203.274h-54.762c0-48.571-5.553-84.056-19.437-110.549-15.273-29.436-46.591-36.795-101.433-36.795h-111.709v162.073h21.677c63.289 0 80.061-15.843 78.742-100.257h49.382v262.98h-49.382c-4.416-84.629-9.158-114.839-88.482-113.914h-13.246v141.143c0 41.211 17.099 45.627 59.782 45.627h30.66v55.93h-274.096v-55.93z"></path>
</svg>
