<!--
  - The MIT License (MIT)
  -
  - Copyright (c) 2015-2022 Elior "Mallowigi" Boukhobza
  -
  - Permission is hereby granted, free of charge, to any person obtaining a copy
  - of this software and associated documentation files (the "Software"), to deal
  - in the Software without restriction, including without limitation the rights
  - to use, copy, modify, merge, publish, distribute, sublicense, and/or sell
  - copies of the Software, and to permit persons to whom the Software is
  - furnished to do so, subject to the following conditions:
  -
  - The above copyright notice and this permission notice shall be included in all
  - copies or substantial portions of the Software.
  -
  - THE SOFTWARE IS PROVIDED "AS IS", WITHOUT WARRANTY OF ANY KIND, EXPRESS OR
  - IMPLIED, INCLUDING BUT NOT LIMITED TO THE WARRANTIES OF MERCHANTABILITY,
  - FITNESS FOR A PARTICULAR PURPOSE AND NONINFRINGEMENT. IN NO EVENT SHALL THE
  - AUTHORS OR COPYRIGHT HOLDERS BE LIABLE FOR ANY CLAIM, DAMAGES OR OTHER
  - LIABILITY, WHETHER IN AN ACTION OF CONTRACT, TORT OR OTHERWISE, ARISING FROM,
  - OUT OF OR IN CONNECTION WITH THE SOFTWARE OR THE USE OR OTHER DEALINGS IN THE
  - SOFTWARE.
  -
  -
  -->

<svg big="true" version="1.1" xmlns="http://www.w3.org/2000/svg" viewBox="0 0 512 512" width="16px" height="16px">
    <path fill="#4FC3F7" iconColor="Fountain"
          d="m64.526962 5.5343171c-32.070681-0.27353-64.771248 33.08083-64.511372 69.28071v260.88973c-0.82235259 47.58533 30.986553 78.70076 72.404559 77.90987h80.625561l84.3986 84.87103c13.89861 12.7229 29.35901 8.33658 37.36729 0.0931l83.22877-84.96417h88.51553c39.52959-1.21272 66.94801-38.66689 65.3759-67.05351 8e-3 -94.4916-1.49346-113.12504 0.0192-271.04869 1.38025-36.90884-26.56979-70.64053-66.17611-69.97811zm1.780466 22.55793h378.22375l-0.19283 3e-3c26.12629-0.1912 44.86318 19.76343 44.88768 47.80263l0.67169 267.39455c-0.48484 28.4474-15.66069 45.85831-45.35689 46.99275h-95.2421l-93.24951 93.62552-91.69724-93.62552-94.126884-7e-3c-26.702191-1.4236-47.532497-16.71664-48.056522-45.27256l-0.06428-269.69245c-0.07432-22.30793 18.683949-47.24358 44.203129-47.22092zm378.4198 16.45163-378.46801 3e-3c-14.985689 0.29157-26.644851 15.68376-27.703285 30.42212v268.22372c2.483299 17.74795 11.324912 29.40067 32.29586 30.63753h100.41636l84.88068 86.66757 86.31405-86.66757h102.0715c17.22566-0.21082 27.8361-9.58744 28.90848-30.68573l-0.66527-266.60717c-0.79375-14.70284-9.46033-31.69556-28.05037-31.99376zm-264.18715 49.554172h140.94288v35.377931l-106.38769 0.82274v55.94651h68.41619v36.20067h-68.41619v99.25618h-34.55519z"/>
</svg>
