<!--
  - The MIT License (MIT)
  -
  - Copyright (c) 2015-2022 Elior "Mallowigi" Boukhobza
  -
  - Permission is hereby granted, free of charge, to any person obtaining a copy
  - of this software and associated documentation files (the "Software"), to deal
  - in the Software without restriction, including without limitation the rights
  - to use, copy, modify, merge, publish, distribute, sublicense, and/or sell
  - copies of the Software, and to permit persons to whom the Software is
  - furnished to do so, subject to the following conditions:
  -
  - The above copyright notice and this permission notice shall be included in all
  - copies or substantial portions of the Software.
  -
  - THE SOFTWARE IS PROVIDED "AS IS", WITHOUT WARRANTY OF ANY KIND, EXPRESS OR
  - IMPLIED, INCLUDING BUT NOT LIMITED TO THE WARRANTIES OF MERCHANTABILITY,
  - FITNESS FOR A PARTICULAR PURPOSE AND NONINFRINGEMENT. IN NO EVENT SHALL THE
  - AUTHORS OR COPYRIGHT HOLDERS BE LIABLE FOR ANY CLAIM, DAMAGES OR OTHER
  - LIABILITY, WHETHER IN AN ACTION OF CONTRACT, TORT OR OTHERWISE, ARISING FROM,
  - OUT OF OR IN CONNECTION WITH THE SOFTWARE OR THE USE OR OTHER DEALINGS IN THE
  - SOFTWARE.
  -
  -
  -->

<svg big="true" xmlns="http://www.w3.org/2000/svg" viewBox="0 0 16 16" width="16px" height="16px">
    <path fill="#F06292" fill-rule="evenodd" iconColor="FUNDING"
          d="M7.655 14.916L8 14.25l.345.666a.752.752 0 01-.69 0zm0 0L8 14.25l.345.666.002-.001.006-.003.018-.01a7.643 7.643 0 00.31-.17 22.08 22.08 0 003.433-2.414C13.956 10.731 16 8.35 16 5.5 16 2.836 13.914 1 11.75 1 10.203 1 8.847 1.802 8 3.02 7.153 1.802 5.797 1 4.25 1 2.086 1 0 2.836 0 5.5c0 2.85 2.045 5.231 3.885 6.818a22.075 22.075 0 003.744 2.584l.018.01.006.003h.002z"></path>
</svg>
