<!--
  - The MIT License (MIT)
  -
  - Copyright (c) 2015-2022 Elior "Mallowigi" Boukhobza
  -
  - Permission is hereby granted, free of charge, to any person obtaining a copy
  - of this software and associated documentation files (the "Software"), to deal
  - in the Software without restriction, including without limitation the rights
  - to use, copy, modify, merge, publish, distribute, sublicense, and/or sell
  - copies of the Software, and to permit persons to whom the Software is
  - furnished to do so, subject to the following conditions:
  -
  - The above copyright notice and this permission notice shall be included in all
  - copies or substantial portions of the Software.
  -
  - THE SOFTWARE IS PROVIDED "AS IS", WITHOUT WARRANTY OF ANY KIND, EXPRESS OR
  - IMPLIED, INCLUDING BUT NOT LIMITED TO THE WARRANTIES OF MERCHANTABILITY,
  - FITNESS FOR A PARTICULAR PURPOSE AND NONINFRINGEMENT. IN NO EVENT SHALL THE
  - AUTHORS OR COPYRIGHT HOLDERS BE LIABLE FOR ANY CLAIM, DAMAGES OR OTHER
  - LIABILITY, WHETHER IN AN ACTION OF CONTRACT, TORT OR OTHERWISE, ARISING FROM,
  - OUT OF OR IN CONNECTION WITH THE SOFTWARE OR THE USE OR OTHER DEALINGS IN THE
  - SOFTWARE.
  -
  -
  -->

<svg big="true" version="1.1" xmlns="http://www.w3.org/2000/svg" viewBox="0 0 512 512" width="16px" height="16px">
    <path fill="#8ccb4b" iconColor="Glade"
          d="M396.5218811,381.8900146H174.0741272l222.4477539-135.0803223V381.8900146z M64.7104187,94.3350143C82.6800461,75.7494507,124.7225266,45.238945,169.6464386,45.238945c-34.2792053,7.5792351-54.2272415,23.959404-54.2272415,101.0472183c0,2.1835327-1.7125244,4.1199951-3.8114319,3.9419556c-36.2279129-3.0738831-83.505249,11.3762665-97.6975937,56.0864716C15.0349798,158.0806885,46.7409401,112.920723,64.7104187,94.3350143z M0,456.3410034v27.9555969h512V27.7031994l-348.2717896,0.0002003c-37.320015,0-84.2485123,17.0151062-115.7546844,50.5877304C11.2383575,117.4356766,0,163.3368073,0,201.936264c0,0,0,188.142746,0,188.1430206l475.7816772-288.8664856v355.1280823L0,456.3410034z"/>
</svg>
