<!--
  - The MIT License (MIT)
  -
  - Copyright (c) 2015-2022 Elior "Mallowigi" Boukhobza
  -
  - Permission is hereby granted, free of charge, to any person obtaining a copy
  - of this software and associated documentation files (the "Software"), to deal
  - in the Software without restriction, including without limitation the rights
  - to use, copy, modify, merge, publish, distribute, sublicense, and/or sell
  - copies of the Software, and to permit persons to whom the Software is
  - furnished to do so, subject to the following conditions:
  -
  - The above copyright notice and this permission notice shall be included in all
  - copies or substantial portions of the Software.
  -
  - THE SOFTWARE IS PROVIDED "AS IS", WITHOUT WARRANTY OF ANY KIND, EXPRESS OR
  - IMPLIED, INCLUDING BUT NOT LIMITED TO THE WARRANTIES OF MERCHANTABILITY,
  - FITNESS FOR A PARTICULAR PURPOSE AND NONINFRINGEMENT. IN NO EVENT SHALL THE
  - AUTHORS OR COPYRIGHT HOLDERS BE LIABLE FOR ANY CLAIM, DAMAGES OR OTHER
  - LIABILITY, WHETHER IN AN ACTION OF CONTRACT, TORT OR OTHERWISE, ARISING FROM,
  - OUT OF OR IN CONNECTION WITH THE SOFTWARE OR THE USE OR OTHER DEALINGS IN THE
  - SOFTWARE.
  -
  -
  -->

<svg big="true" version="1.1" xmlns="http://www.w3.org/2000/svg" x="0px" y="0px" width="16px" height="16px"
     viewBox="43 43 200 200">
    <g fill="#ffaff3" iconColor="Gleam">
        <path d="M165.72,144.06c-1.36,0.52-2.1,0.93-2.9,1.08c-2.25,0.43-4.52,0.72-6.77,1.15c-0.78,0.15-1.5,0.69-2.28,0.76
		c-0.8,0.07-1.63-0.21-2.78-0.39c-0.51-0.41-1.29-1.04-2.18-1.75c0.32-1.34,0.97-2.67,0.41-3.97c0.77-1.49,1.47-2.86,2.24-4.35
		c1.28-0.21,2.55-0.38,3.79-0.62c0.97-0.19,1.91-0.34,2.8-0.94c1.09-0.74,2.37-0.88,3.43-0.35c0.94-0.31,1.85-0.95,2.47-0.74
		c1.3,0.44,2.52,0.29,3.78,0.14c1.54-0.18,3.06-0.71,4.6,0.08c0.33,0.17,0.84-0.02,1.27-0.07c1.42-0.17,2.89-0.67,4.24-0.44
		c1.29,0.22,2.51,0.17,3.78,0.17c0.68,0,1.36,0.23,2.1,0.37c0.81-0.36,1.69-0.74,2.63-1.16c0.79,0.45,1.53,0.86,2.27,1.28
		c0.79-1.03,2.12-1.39,3.06-1.03c1.33,0.51,2.51,0.17,3.76,0.18c0.55,0,1.1,0.18,1.83,0.3c0.16-0.11,0.5-0.33,0.99-0.66
		c1.22,0.38,2.6,0.47,4.01,0.17c1.26-0.27,2.54-0.4,3.83-0.52c1.4-0.13,2.8-0.59,4.19,0.15c0.38,0.2,1.1-0.21,2.26-0.96
		c1.67,1,3.36-0.1,5.26,0.12c0.95,1.41,2.5-0.12,3.88,0.45c1.26,0.53,2.72,0.58,4.1,0.84c0.51,0.68,1.02,1.34,1.63,2.14
		c-0.12,0.42-0.26,0.96-0.43,1.55c0.18,0.23,0.41,0.54,0.65,0.86c-0.11,0.1-0.22,0.28-0.32,0.27c-0.82-0.08-1.63-0.23-2.45-0.3
		c-0.27-0.03-0.6,0.01-0.84,0.14c-1.11,0.58-2.2,1.19-3.36,1.83c-1.23-0.31-2.55-0.65-3.96-1c-0.78,0.75-1.48,1.43-2.21,2.12
		c-0.68,0.1-1.39,0.21-2.14,0.32c-1.03-0.34-2.1-0.69-3.3-1.09c-0.25,0.15-0.59,0.39-0.96,0.54c-0.64,0.26-1.29,0.57-1.96,0.68
		c-2.68,0.44-5.37,0.82-8.07,1.22c-0.55-0.19-1.08-0.38-1.56-0.55c-3.69,0.32-7.29,1.38-11.33,1.09c0,0-0.34,0.26-0.77,0.6
		c-0.49-0.15-1.02-0.31-1.85-0.57c-0.83,0.12-1.95,0.3-3.08,0.46c-1.28,0.18-2.57,0.26-3.82,0.54c-1.03,0.23-2.13-0.77-3.08,0.23
		c-1.24-0.76-2.51-0.1-3.76-0.06C167.71,144.39,166.55,144.95,165.72,144.06z"/>
        <path d="M64.04,208.52c-0.55-0.26-0.92-0.44-1.28-0.61c-0.48,0.58-0.93,1.13-1.38,1.68c-0.4-0.18-0.77-0.35-1.29-0.59
		c-0.96,0.65-1.99,1.35-3.02,2.05c-0.39-0.54-0.79-1.1-1.27-1.76c0.27-0.79,0.59-1.69,0.78-2.26c0.31-0.4,0.38-0.54,0.49-0.62
		c2.27-1.65,4.58-3.21,6.42-5.43c1.14-1.38,2.8-2.32,4.25-3.43c1.23-0.94,2.57-1.74,3.48-3.06c0.31-0.45,0.77-0.81,1.21-1.14
		c2.35-1.79,4.57-3.71,6.81-5.63c2.13-1.82,4.3-3.61,6.44-5.43c2.77-2.37,5.71-4.56,8.44-6.98c3.89-3.45,8.11-6.51,11.84-10.16
		c1.5-1.47,2.94-3.02,4.53-4.41c1.59-1.39,2.96-3.04,4.33-4.67c1.03-1.22,2.15-2.21,3.77-2.59c1.55,1.27,2.85,2.68,3.95,4.41
		c-0.13,1.23-0.27,2.6-0.48,4.6c-0.87,1.36-2.07,3.28-4.02,4.58c-0.48,1.21-2.26,1.33-2.39,2.83c-1,0.77-2.03,1.5-2.98,2.32
		c-0.96,0.83-1.83,1.74-2.74,2.62c-0.31,0.3-0.55,0.68-0.91,0.88c-3.09,1.73-5.48,4.38-8.35,6.39c-1.49,1.05-2.89,2.19-4.11,3.57
		c-1.15,1.31-2.69,2-4.4,2.15c-0.39,0.79-0.64,1.62-1.15,2.23c-0.53,0.63-1.33,1.03-2.03,1.54c-0.23-0.1-0.49-0.22-0.77-0.34
		c-0.56,0.37-1.13,0.74-1.81,1.2c0.01,1.98-1.68,2.73-3.1,3.54c-0.94,0.53-2.21,0.33-3.08,1.28c-0.75,0.82-1.69,1.47-2.57,2.23
		c-1.44,0.28-2.91,0.61-3.84,1.99c0.18,0.23,0.36,0.45,0.56,0.71c-0.88,0.87-2.1,0.52-3.08,0.94
		C68.42,204.38,66.62,207.09,64.04,208.52z"/>
        <path d="M77.33,109.08c-0.24-0.57-0.4-0.97-0.58-1.4c-0.34-0.21-0.69-0.6-1.07-0.64c-2.78-0.32-4.24-2.02-4.97-4.55
		c-0.03-0.12-0.18-0.21-0.28-0.31c-1.45-0.67-1.45-0.67-3.19-0.55c-1.3-0.96-1.75-2.5-2.61-3.73c-0.85-1.23-1.63-2.55-2.7-3.6
		c0.22-0.31,0.34-0.65,0.55-0.72c1.21-0.42,2.44-0.78,3.53-1.11c0.71,0.43,1.27,0.82,1.88,1.11c0.5,0.24,1.28,0.18,1.54,0.54
		c0.72,0.99,1.92,1.06,2.78,1.72c0.3,0.23,0.39,0.74,0.58,1.14c3.23,0.79,5.85,2.72,8.48,4.86c0.16,0.39,0.38,0.91,0.6,1.42
		c2.36,0.21,4.17,1.62,6.07,2.8c0.83,0.52,1.52,1.3,2.4,1.71c3.61,1.72,6.5,4.49,9.83,6.62c1.44,1.82,3.78,2.47,5.32,4.13
		c1.49,1.6,3.48,2.43,5.28,3.55c0.24,0.15,0.52,0.26,0.73,0.45c2.98,2.61,6.21,4.88,9.47,7.12c1.14,0.78,2.01,1.97,3.09,3.05
		c0.01,0.99,0.02,2.1,0.04,3.57c-0.51,1.94-1.92,3.65-3.99,5.17c-0.8-0.05-1.77-0.12-2.96-0.2c-0.2-0.38-0.34-1.01-0.73-1.32
		c-1.78-1.37-3.15-3.21-5.05-4.44c-0.71-0.46-1.51-0.87-2.05-1.5c-1.32-1.52-2.84-2.73-4.48-3.34c-0.41-0.77-0.67-1.27-0.75-1.44
		c-1.5-1.18-2.73-2.13-3.93-3.1c-2.4-1.94-5.25-3.32-7.2-5.82c-2.12-0.88-3.45-2.93-5.62-3.73c-2.74-2.42-6.14-3.98-8.74-6.61
		C78.2,109.54,77.67,109.3,77.33,109.08z"/>
        <path d="M167.29,218.63c-0.37,0.87-0.69,1.64-1,2.36c-1.11,0.52-1.98,0.22-3-0.95c-0.19-0.86-0.45-2.09-0.74-3.42
		c-0.86-0.44-1.7-0.88-2.6-1.34c0.16-0.65,0.32-1.31,0.48-1.96c-0.21-0.97-1.21-1.16-1.87-2c-0.22-1.47-0.47-3.16-0.74-5.02
		c0.14-0.45,0.35-1.09,0.55-1.72c-0.96-0.38-1.72-0.67-2.57-1.01c-0.33-1.41-0.66-2.78-1.05-4.44c-0.54-0.81-1.24-1.85-2.04-3.04
		c-0.17-1.37-0.81-2.76-1.37-4.21c-2.05-5.35-3.8-10.82-6.65-15.83c-0.34-3.11-2.96-5.05-4.09-7.78c-0.44-1.08-1.78-1.79-2.63-2.6
		c-0.4-1.12-0.77-2.17-1.22-3.43c1.13-2.94,4.04-4.14,6.84-5.46c0.67,0.21,1.34,0.43,2.19,0.7c1.13,1.57,2.37,3.28,3.59,5
		c1.23,1.73,2.11,3.72,2.52,5.7c0.36,1.72,1.61,3.01,1.74,4.73c1.82,2.21,1.93,5.24,3.59,7.54c0.23,0.32,0.29,0.82,0.3,1.24
		c0.05,2.9,2.11,5.27,2.17,8.17c1.62,1.31,0.79,3.57,1.97,5.04c1.1,1.37,0.37,3.46,1.89,4.64c0.32,1.83,0.62,3.67,0.96,5.49
		c0.23,1.24,0.14,2.57,1.15,3.59c0.25,0.26,0.25,0.8,0.31,1.21C166.41,212.68,166.83,215.51,167.29,218.63z"/>
        <path d="M154.99,62.22c1,0.38,1.65,0.63,2.3,0.88c0.64,0.91,0.4,1.84,0.06,2.78c0.18,0.22,0.37,0.44,0.55,0.66
		c-0.3,0.93-0.6,1.87-0.91,2.83c0.14,0.17,0.52,0.44,0.48,0.6c-0.59,2.28,0.05,4.74-1.01,6.92c-0.43,0.89,0.02,1.67,0.02,2.49
		c0,0.84-0.69,1.55-0.42,2.48c0.15,0.52,0.1,1.13-0.01,1.67c-0.2,0.93-0.53,1.83-0.8,2.75c1.02,0.89-0.19,1.77-0.07,2.73
		c0.1,0.83-0.68,1.78-1.12,2.79c0.74,1.32-0.25,2.63-0.36,4.02c-0.16,2.09-0.49,4.18-1.32,6.13c-0.85,1.97-0.49,4.13-1.05,6.16
		c-0.81,2.95-1.26,5.99-1.96,8.97c-0.99,4.21-3.05,7.89-6.1,11.1c-1.63,0.24-3.31,0.49-5.32,0.79c-0.67-0.48-1.47-1.05-2.17-1.55
		c0.48-2.26,0.78-4.1,1.72-5.92c1.27-2.44,2.41-4.99,2.65-7.9c0.16-1.91,1.1-3.77,1.78-5.62c0.54-1.46,0.98-2.89,0.92-4.51
		c-0.04-0.94,0.35-1.92,0.65-2.84c0.55-1.74,1.17-3.46,1.83-5.42c0.23-0.19,0.66-0.53,1.23-0.99c-0.19-0.44-0.39-0.93-0.68-1.61
		c0-0.01,0.02-0.27,0.09-0.51c0.21-0.66,0.55-1.3,0.66-1.97c0.19-1.16,0.95-2.03,1.36-3.06c0.34-0.85,0.27-1.87,0.48-3.6
		c-0.03-0.31-1.84-0.78-0.58-2.67c-0.06,0.05,0.36-0.3,0.79-0.66c-0.18-0.22-0.36-0.45-0.56-0.7c0.37-0.99,0.58-2.02,1.12-3.03
		c1.11-2.08,2.25-4.27,1.55-6.87c0.42-0.68,0.87-1.4,1.33-2.16c-0.11-1.11-0.23-2.23-0.34-3.32c0.28-0.42,0.52-0.78,0.9-1.35
		C153.29,62.59,154.11,62.41,154.99,62.22z"/>
    </g>
</svg>
