<!--
  - The MIT License (MIT)
  -
  - Copyright (c) 2015-2022 Elior "Mallowigi" Boukhobza
  -
  - Permission is hereby granted, free of charge, to any person obtaining a copy
  - of this software and associated documentation files (the "Software"), to deal
  - in the Software without restriction, including without limitation the rights
  - to use, copy, modify, merge, publish, distribute, sublicense, and/or sell
  - copies of the Software, and to permit persons to whom the Software is
  - furnished to do so, subject to the following conditions:
  -
  - The above copyright notice and this permission notice shall be included in all
  - copies or substantial portions of the Software.
  -
  - THE SOFTWARE IS PROVIDED "AS IS", WITHOUT WARRANTY OF ANY KIND, EXPRESS OR
  - IMPLIED, INCLUDING BUT NOT LIMITED TO THE WARRANTIES OF MERCHANTABILITY,
  - FITNESS FOR A PARTICULAR PURPOSE AND NONINFRINGEMENT. IN NO EVENT SHALL THE
  - AUTHORS OR COPYRIGHT HOLDERS BE LIABLE FOR ANY CLAIM, DAMAGES OR OTHER
  - LIABILITY, WHETHER IN AN ACTION OF CONTRACT, TORT OR OTHERWISE, ARISING FROM,
  - OUT OF OR IN CONNECTION WITH THE SOFTWARE OR THE USE OR OTHER DEALINGS IN THE
  - SOFTWARE.
  -
  -
  -->

<svg big="true" version="1.1" xmlns="http://www.w3.org/2000/svg" viewBox="0 0 512 512" width="16px" height="16px">
    <path fill="#D28445" iconColor="HaxeDevelop"
          d="M493.0899963,457.9100037L255.9387054,62.6352654L18.9112701,457.7635803L493.0899963,457.9100037z M94.2563858,219.5873718l-67.4727325,203.229126L230.361908,83.4818954L94.2563858,219.5873718z M485.09375,422.7376709l-67.9345093-203.9611816L281.4929504,83.4255676L485.09375,422.7376709z M99.2118301,371.7529907H274.870697v11.2623596H99.2118301V371.7529907z M304.8961487,371.7529907h108.7041931v11.2623596H304.8961487V371.7529907z M77.4079208,416.8023987h91.4052353v11.2623596H77.4079208V416.8023987z M200.1788025,416.8023987h148.3476868v11.2623596H200.1788025V416.8023987z M377.2004089,416.8023987h61.0869751v11.2623596h-61.0869751V416.8023987z M258.0109863,44.086174l168.7437744,168.7550659L512,469.1130371L0,468.9939575l84.6383438-255.3418732L254.4070282,43.5568466C255.9024353,42.4222527,257.0550842,42.81567,258.0109863,44.086174z"/>
</svg>
