<!--
  - The MIT License (MIT)
  -
  - Copyright (c) 2015-2022 Elior "Mallowigi" Boukhobza
  -
  - Permission is hereby granted, free of charge, to any person obtaining a copy
  - of this software and associated documentation files (the "Software"), to deal
  - in the Software without restriction, including without limitation the rights
  - to use, copy, modify, merge, publish, distribute, sublicense, and/or sell
  - copies of the Software, and to permit persons to whom the Software is
  - furnished to do so, subject to the following conditions:
  -
  - The above copyright notice and this permission notice shall be included in all
  - copies or substantial portions of the Software.
  -
  - THE SOFTWARE IS PROVIDED "AS IS", WITHOUT WARRANTY OF ANY KIND, EXPRESS OR
  - IMPLIED, INCLUDING BUT NOT LIMITED TO THE WARRANTIES OF MERCHANTABILITY,
  - FITNESS FOR A PARTICULAR PURPOSE AND NONINFRINGEMENT. IN NO EVENT SHALL THE
  - AUTHORS OR COPYRIGHT HOLDERS BE LIABLE FOR ANY CLAIM, DAMAGES OR OTHER
  - LIABILITY, WHETHER IN AN ACTION OF CONTRACT, TORT OR OTHERWISE, ARISING FROM,
  - OUT OF OR IN CONNECTION WITH THE SOFTWARE OR THE USE OR OTHER DEALINGS IN THE
  - SOFTWARE.
  -
  -
  -->

<svg big="true" width="16px" height="16px" viewBox="0 0 24 24" version="1.1" xmlns="http://www.w3.org/2000/svg"
     xml:space="preserve">
    <g id="Logo" transform="matrix(0.188962,0,0,0.188962,1.9,1.31422)" fill="#AB76A0" iconColor="Hashicorp">
        <path
                d="M44.5,0L0,25.7L0,87.4L16.7,97.1L16.7,35.3L44.5,19.3L44.5,0Z"/>
        <path d="M62.3,0L62.3,49.2L44.5,49.2L44.5,30.8L27.8,40.5L27.8,103.4L44.5,113.1L44.5,64.1L62.3,64.1L62.3,82.3L79.1,72.7L79.1,9.7L62.3,0Z"/>
        <path d="M62.3,113.1L106.9,87.4L106.9,25.7L90.1,16.1L90.1,77.8L62.3,93.8L62.3,113.1Z"/>
    </g>
</svg>
