<!--
  - The MIT License (MIT)
  -
  - Copyright (c) 2015-2022 Elior "Mallowigi" Boukhobza
  -
  - Permission is hereby granted, free of charge, to any person obtaining a copy
  - of this software and associated documentation files (the "Software"), to deal
  - in the Software without restriction, including without limitation the rights
  - to use, copy, modify, merge, publish, distribute, sublicense, and/or sell
  - copies of the Software, and to permit persons to whom the Software is
  - furnished to do so, subject to the following conditions:
  -
  - The above copyright notice and this permission notice shall be included in all
  - copies or substantial portions of the Software.
  -
  - THE SOFTWARE IS PROVIDED "AS IS", WITHOUT WARRANTY OF ANY KIND, EXPRESS OR
  - IMPLIED, INCLUDING BUT NOT LIMITED TO THE WARRANTIES OF MERCHANTABILITY,
  - FITNESS FOR A PARTICULAR PURPOSE AND NONINFRINGEMENT. IN NO EVENT SHALL THE
  - AUTHORS OR COPYRIGHT HOLDERS BE LIABLE FOR ANY CLAIM, DAMAGES OR OTHER
  - LIABILITY, WHETHER IN AN ACTION OF CONTRACT, TORT OR OTHERWISE, ARISING FROM,
  - OUT OF OR IN CONNECTION WITH THE SOFTWARE OR THE USE OR OTHER DEALINGS IN THE
  - SOFTWARE.
  -
  -
  -->

<svg big="true" xmlns="http://www.w3.org/2000/svg" viewBox="0 0 32 32" width="16px" height="16px">
    <g fill="#00aeef" iconColor="Perforce Helix">
        <path d="M19.5,17.479h-7a1.479,1.479,0,1,1,0-2.958h7a1.479,1.479,0,0,1,0,2.958Z"/>
        <path d="M26.106,16.3c0-.789.592-5.028-6.507-8.972A14.823,14.823,0,0,1,17.43,9.493c.1.1,1.282.789,1.38.887,4.437,2.268,4.338,5.423,4.338,5.718v.3c0,.3-.2,2.662-4.338,5.028-5.324,3.155-6.31,5.817-6.408,6.31l2.958.789v.1a4.826,4.826,0,0,1,1.183-1.577L21.374,29.8a1.857,1.857,0,0,0,.789.2,1.421,1.421,0,0,0,1.282-.789,1.5,1.5,0,0,0-.592-2.07l-3.845-2.169a5.59,5.59,0,0,1,1.282-.789C25.811,20.831,26.106,17.183,26.106,16.3Z"/>
        <path d="M5.9,15.7c0,.789-.592,5.028,6.507,8.972a14.823,14.823,0,0,1,2.169-2.169c-.1-.1-1.282-.789-1.38-.887C8.754,19.352,8.853,16.2,8.853,15.9v-.3c0-.3.2-2.662,4.338-5.028,5.324-3.155,6.31-5.817,6.408-6.31l-2.958-.789v-.1a4.826,4.826,0,0,1-1.183,1.577L10.628,2.2A1.857,1.857,0,0,0,9.839,2a1.421,1.421,0,0,0-1.282.789,1.5,1.5,0,0,0,.592,2.07l3.845,2.169a5.59,5.59,0,0,1-1.282.789C6.092,11.169,5.8,14.817,5.9,15.7Z"/>
    </g>
</svg>
