<!--
  - The MIT License (MIT)
  -
  - Copyright (c) 2015-2022 Elior "Mallowigi" Boukhobza
  -
  - Permission is hereby granted, free of charge, to any person obtaining a copy
  - of this software and associated documentation files (the "Software"), to deal
  - in the Software without restriction, including without limitation the rights
  - to use, copy, modify, merge, publish, distribute, sublicense, and/or sell
  - copies of the Software, and to permit persons to whom the Software is
  - furnished to do so, subject to the following conditions:
  -
  - The above copyright notice and this permission notice shall be included in all
  - copies or substantial portions of the Software.
  -
  - THE SOFTWARE IS PROVIDED "AS IS", WITHOUT WARRANTY OF ANY KIND, EXPRESS OR
  - IMPLIED, INCLUDING BUT NOT LIMITED TO THE WARRANTIES OF MERCHANTABILITY,
  - FITNESS FOR A PARTICULAR PURPOSE AND NONINFRINGEMENT. IN NO EVENT SHALL THE
  - AUTHORS OR COPYRIGHT HOLDERS BE LIABLE FOR ANY CLAIM, DAMAGES OR OTHER
  - LIABILITY, WHETHER IN AN ACTION OF CONTRACT, TORT OR OTHERWISE, ARISING FROM,
  - OUT OF OR IN CONNECTION WITH THE SOFTWARE OR THE USE OR OTHER DEALINGS IN THE
  - SOFTWARE.
  -
  -
  -->

<svg big="true" version="1.1" xmlns="http://www.w3.org/2000/svg" width="16px" height="16px" viewBox="0 0 512 512">
    <path fill="#7986CB" iconColor="HP"
          d="M249.2702026,511.9648438l52.2069397-143.4865112h72.1177368c12.6569519,0,26.5518188-9.7312927,30.8813171-21.627655l56.8478699-156.1607056c9.3022461-25.5572662-5.3337708-46.4826965-32.5389099-46.4826965H328.730896L197.2765503,505.3395081C-47.7753601,448.8968811-79.6285629,93.4835281,187.4709015,9.2141361l-130.7612,359.2641907H111.05159l69.4263916-190.5720062h40.8465881l-69.4263916,190.5720062l54.3221283,0.0097351l64.6976318-177.7984161c9.3022461-25.5569458-5.3437805-46.4823761-32.5194397-46.4823761H192.715271L245.1706238,0.03515C599.4024658,2.8821478,601.1053467,506.0979919,249.2702026,511.9648438z M371.0205383,177.7702026L313.841156,334.6525879h40.8271179l57.1793823-156.8823853H371.0205383z"/>
</svg>
