<!--
  - The MIT License (MIT)
  -
  - Copyright (c) 2015-2022 Elior "Mallowigi" Boukhobza
  -
  - Permission is hereby granted, free of charge, to any person obtaining a copy
  - of this software and associated documentation files (the "Software"), to deal
  - in the Software without restriction, including without limitation the rights
  - to use, copy, modify, merge, publish, distribute, sublicense, and/or sell
  - copies of the Software, and to permit persons to whom the Software is
  - furnished to do so, subject to the following conditions:
  -
  - The above copyright notice and this permission notice shall be included in all
  - copies or substantial portions of the Software.
  -
  - THE SOFTWARE IS PROVIDED "AS IS", WITHOUT WARRANTY OF ANY KIND, EXPRESS OR
  - IMPLIED, INCLUDING BUT NOT LIMITED TO THE WARRANTIES OF MERCHANTABILITY,
  - FITNESS FOR A PARTICULAR PURPOSE AND NONINFRINGEMENT. IN NO EVENT SHALL THE
  - AUTHORS OR COPYRIGHT HOLDERS BE LIABLE FOR ANY CLAIM, DAMAGES OR OTHER
  - LIABILITY, WHETHER IN AN ACTION OF CONTRACT, TORT OR OTHERWISE, ARISING FROM,
  - OUT OF OR IN CONNECTION WITH THE SOFTWARE OR THE USE OR OTHER DEALINGS IN THE
  - SOFTWARE.
  -
  -
  -->

<svg big="true" version="1.1" xmlns="http://www.w3.org/2000/svg" viewBox="0 0 279 512" width="16px" height="16px">
    <path fill="#E57373" iconColor="Idris"
          d="M90.9045486,76.1595078c65.5904465,19.8498535,82.3692856,36.2028046,105.4295578,95.4681473C191.8613586,99.3631668,162.9399109,69.2378616,90.9045486,76.1595078z M0,189.8201141c42.5803757,13.1125641,92.0234756,23.5907288,110.2935867,104.9417267C117.8361893,193.272995,69.7851028,188.1026154,0,189.8201141z M28.7707138,125.1052475c63.9822083,13.2225723,104.7684097,30.5947342,128.6062927,113.1624985C162.8459473,131.7509003,104.3822861,121.055481,28.7707138,125.1052475z M112.67202,0c349.1522217,227.6651764-77.556366,231.6875305,15.2575836,496.0000916L182.8717041,512C31.5120621,306.8072205,519.7553711,201.3293915,112.67202,0z"/>
</svg>
