<!--
  - The MIT License (MIT)
  -
  -  Copyright (c) 2015-2022 Elior "Mallowigi" Boukhobza
  -
  -  Permission is hereby granted, free of charge, to any person obtaining a copy
  -  of this software and associated documentation files (the "Software"), to deal
  -  in the Software without restriction, including without limitation the rights
  -  to use, copy, modify, merge, publish, distribute, sublicense, and/or sell
  -  copies of the Software, and to permit persons to whom the Software is
  -  furnished to do so, subject to the following conditions:
  -
  -  The above copyright notice and this permission notice shall be included in all
  -  copies or substantial portions of the Software.
  -
  -  THE SOFTWARE IS PROVIDED "AS IS", WITHOUT WARRANTY OF ANY KIND, EXPRESS OR
  -  IMPLIED, INCLUDING BUT NOT LIMITED TO THE WARRANTIES OF MERCHANTABILITY,
  -  FITNESS FOR A PARTICULAR PURPOSE AND NONINFRINGEMENT. IN NO EVENT SHALL THE
  -  AUTHORS OR COPYRIGHT HOLDERS BE LIABLE FOR ANY CLAIM, DAMAGES OR OTHER
  -  LIABILITY, WHETHER IN AN ACTION OF CONTRACT, TORT OR OTHERWISE, ARISING FROM,
  -  OUT OF OR IN CONNECTION WITH THE SOFTWARE OR THE USE OR OTHER DEALINGS IN THE
  -  SOFTWARE.
  -->

<!-- Created with Inkscape (http://www.inkscape.org/) -->

<svg big="true" width="16px" height="16px" viewBox="0 0 128 128" version="1.1"
     xmlns:xlink="http://www.w3.org/1999/xlink" xmlns="http://www.w3.org/2000/svg">
    <defs>
        <mask id="Mask">
            <circle fill="white" cx="64" cy="64" r="64" />
        </mask>
        <mask id="Main">
            <ellipse fill="black" cx="64" cy="64" rx="64" ry="64" />
            <path fill="white"
                  d="M -28 -44 L -28 128 L 64 128 A 32 32 0 0 0 96 96 A 32 32 0 0 0 64 64 C 46.326906 64 32 49.673094 32 32 C 32 14.326906 46.326906 0 64 0 L 64 -44 L -28 -44 z "
            />
            <ellipse fill="black" cx="64" cy="96" rx="16" ry="16" />
            <ellipse fill="black" cx="29.270277" cy="76.154419" rx="8" ry="8" />
            <ellipse fill="black" cx="17.835646" cy="51.673347" rx="4" ry="4" />
        </mask>
    </defs>
    <g mask="url(#Main)" fill="#eb4040" iconColor="Jakt">
        <ellipse fill="black" cx="64" cy="64" rx="64" ry="64" />
        <path d="M -28 -44 L -28 128 L 64 128 A 32 32 0 0 0 96 96 A 32 32 0 0 0 64 64 C 46.326906 64 32 49.673094 32 32 C 32 14.326906 46.326906 0 64 0 L 64 -44 L -28 -44 z "
              mask="url(#Mask)" />
        <ellipse fill="black" cx="64" cy="96" rx="16" ry="16" />
        <ellipse fill="black" cx="29.270277" cy="76.154419" rx="8" ry="8" />
        <ellipse fill="black" cx="17.835646" cy="51.673347" rx="4" ry="4" />
    </g>
</svg>
