<!--
  - The MIT License (MIT)
  -
  - Copyright (c) 2015-2023 Elior "Mallowigi" Boukhobza
  -
  - Permission is hereby granted, free of charge, to any person obtaining a copy
  - of this software and associated documentation files (the "Software"), to deal
  - in the Software without restriction, including without limitation the rights
  - to use, copy, modify, merge, publish, distribute, sublicense, and/or sell
  - copies of the Software, and to permit persons to whom the Software is
  - furnished to do so, subject to the following conditions:
  -
  - The above copyright notice and this permission notice shall be included in all
  - copies or substantial portions of the Software.
  -
  - THE SOFTWARE IS PROVIDED "AS IS", WITHOUT WARRANTY OF ANY KIND, EXPRESS OR
  - IMPLIED, INCLUDING BUT NOT LIMITED TO THE WARRANTIES OF MERCHANTABILITY,
  - FITNESS FOR A PARTICULAR PURPOSE AND NONINFRINGEMENT. IN NO EVENT SHALL THE
  - AUTHORS OR COPYRIGHT HOLDERS BE LIABLE FOR ANY CLAIM, DAMAGES OR OTHER
  - LIABILITY, WHETHER IN AN ACTION OF CONTRACT, TORT OR OTHERWISE, ARISING FROM,
  - OUT OF OR IN CONNECTION WITH THE SOFTWARE OR THE USE OR OTHER DEALINGS IN THE
  - SOFTWARE.
  -
  -->

<svg big="true" xmlns="http://www.w3.org/2000/svg" width="16px" height="16px"
     viewBox="0 0 342.607 643.517">
    <g fill="#682ef1" iconColor="Jellycut" id="Jellyfish" transform="translate(3)">
        <g transform="matrix(1, 0, 0, 1, -3, 0)">
            <path d="M-5804.363,350.517a8.8,8.8,0,0,1-6.052-2.53,11.624,11.624,0,0,1-2.066-2.53c-.049-.087-5.152-9.289-10.729-21.674-3.3-7.329-6.144-14.365-8.45-20.914a144.373,144.373,0,0,1-6.1-22.139,294.172,294.172,0,0,1-3.892-31.3c-.713-9.4-1.158-19.566-1.321-30.229-.294-19.142.408-32.513.416-32.613.09-1.19.6-7.569,1.938-16.278a199.1,199.1,0,0,1,5.688-26.26c1.791-6.032,5.617-17.237,13.678-36.365,4.813-11.421,8.927-20.409,8.967-20.5-3.07-6.652-6.734-21.675-9.268-33.107-2.961-13.362-5.369-26.3-6.064-30.834-.84-5.488-2.087-17.565-3.257-43.939-.7-15.824-1.044-29.365-1.047-29.5-1.733.015-3.918.07-6.449.135h-.016c-4.189.107-9.4.24-15.907.283-1.442.01-2.947.015-4.473.015-8.271,0-15.074-.147-15.359-.154h-.006v.052c.006,1.867.011,11.845-.448,25.014-.462,13.256-1.5,32.518-3.838,49a392.128,392.128,0,0,1-9.159,44.593c-2.979,11.265-5.411,18.553-5.513,18.858,1.474,3.968,3.257,8.379,5.144,13.048l0,0a448.27,448.27,0,0,1,15.61,43.394,237.5,237.5,0,0,1,6.84,30.554c1.145,7.5,1.391,11.941,1.393,11.984.464,6.006,4.275,59.733-4.779,96.287a247.489,247.489,0,0,1-8.039,26.158c-2.514,6.8-5.31,13.43-8.31,19.694a148.963,148.963,0,0,1-9.135,16.733,11.364,11.364,0,0,1-7.6,3.368,9.868,9.868,0,0,1-4.616-1.2,9.148,9.148,0,0,1-3.907-3.7,9.17,9.17,0,0,1-1.064-4.176,13.175,13.175,0,0,1,.822-4.829c.095-.2,2.333-5,6.6-13.095a216.322,216.322,0,0,0,17.892-52.037c2.622-12.3,2.867-28.7,3.083-43.169v-.1c.063-4.2.123-8.17.239-11.8a205.049,205.049,0,0,0-2.539-38.674,231.08,231.08,0,0,0-7.3-31.372,191.035,191.035,0,0,0-11.161-28.73l-13.417,30.263c-.021.045-2.347,4.807-6.507,12.07a300.281,300.281,0,0,1-17.73,27.415c-4.267,5.833-11.517,15.207-21.828,26.739-6.143,6.87-10.563,11.351-10.6,11.393a12.89,12.89,0,0,1-5.632,1.344,10.555,10.555,0,0,1-7.213-2.8,8.148,8.148,0,0,1-2.608-4.222,9.082,9.082,0,0,1,.043-4.124,13.614,13.614,0,0,1,1.882-4.374,194.615,194.615,0,0,0,27.476-31.964l0-.006c.369-.532.613-.883.709-1a207.476,207.476,0,0,0,21.863-34.48c3.309-6.451,8.782-17.9,16.063-35.81,4.17-10.257,7.043-17.986,7.357-18.833l0-.009c-.174-.435-.56-1.384-1.175-2.9l-.02-.048c-3.768-9.263-15.234-37.452-20.956-53.787a162.16,162.16,0,0,1-7.061-26.963,169.473,169.473,0,0,1-2.181-23.374c-.475-14.806.982-32.679,1.044-33.433h-.011a160.111,160.111,0,0,1-22.506-3.488,119.743,119.743,0,0,1-19.517-6.094,59.814,59.814,0,0,1-17.352-10.537,46.473,46.473,0,0,1-10.754-15.2,70.316,70.316,0,0,1-5-16.358,85.383,85.383,0,0,1-1.4-18.417,193.435,193.435,0,0,1,5.064-35.276,213.817,213.817,0,0,1,7.984-26.585,184.58,184.58,0,0,1,13.484-28.538c12.644-21.585,29.154-38.712,49.071-50.906a141.185,141.185,0,0,1,17.893-9.247,153.462,153.462,0,0,1,20.493-7.1,176.165,176.165,0,0,1,23.268-4.584,212.012,212.012,0,0,1,26.218-1.688c1.01-.016,2.035-.024,3.045-.024a174.7,174.7,0,0,1,36.158,3.676,154.505,154.505,0,0,1,31.148,10.123,153.1,153.1,0,0,1,26.42,15.211,165.235,165.235,0,0,1,21.975,18.94c22.234,22.8,35.347,48.734,42.431,66.476a197.014,197.014,0,0,1,9.265,29.516c1.821,8.159,2.752,15.5,2.622,20.667-.619,12.263-2.61,22.7-5.919,31.017-3.083,7.751-7.332,13.728-12.627,17.766a67.322,67.322,0,0,1-16.966,8.958,134.793,134.793,0,0,1-18.546,5.387,175.292,175.292,0,0,1-21.065,3.329c-.008.071.042.466.124,1.12l.006.049v.011c.253,2.012.847,6.724,1.178,12.921a154.718,154.718,0,0,1-.35,22.26,232.481,232.481,0,0,1-3.522,25.928,182.8,182.8,0,0,1-7.488,26.109c-7.147,19.835-22.052,55.029-22.2,55.379,4.12,14.382,22.409,54.309,22.593,54.711,3.351,6.77,9.645,18.122,20.6,33.764.3.434.493.7.537.774,1.983,3.208,6.359,9.348,15.947,20.385,5.732,6.6,10.816,12.043,10.984,12.178l.006,0c1.255.967,5.385,4.487,5.846,9.173A9.74,9.74,0,0,1-5718,226.3a8.35,8.35,0,0,1-6.368,3.218,10,10,0,0,1-4.341-1.1,18.362,18.362,0,0,1-3.667-2.416,25.378,25.378,0,0,1-3.482-3.514,200.5,200.5,0,0,1-13.771-15.218c-5.053-6.183-10.477-13.478-17.068-22.958a268.967,268.967,0,0,1-15.8-25.918c-1.8-3.347-4.491-8.5-7.067-14.026l-.018-.039c-.075-.161-.121-.258-.133-.283-2.612-4.993-6.365-14.215-9.105-20.949-2.066-5.076-3.558-8.744-3.785-8.744-.009,0-.015.005-.02.016a264.912,264.912,0,0,0-12.373,32.727,206.4,206.4,0,0,0-6.262,27.3,218.9,218.9,0,0,0-2.214,40.332c.086,4.242.118,7.934.147,11.192.12,13.674.192,21.928,3.682,43.876a172.294,172.294,0,0,0,4.375,19.606c1.534,5.434,3.352,10.99,5.4,16.515,3.621,9.752,6.653,15.869,6.678,15.915,2.169,3.961,8.1,14.946,8.315,15.406.368.77,3.367,7.645-4.453,11.875A10.627,10.627,0,0,1-5804.363,350.517Zm-121.054-402.5c-.028.413-.688,10.216-.711,22.263-.014,7.162.2,13.681.631,19.378a94.987,94.987,0,0,0,2.639,17.363c5.193,18.882,17.646,50.4,18.173,51.728.009-.037,1.524-5.986,3.327-15.212,1.672-8.56,3.96-21.844,5.363-36.516,2.687-28.111,2.816-57.038,2.817-57.327l-32.24-1.676Zm145.528-1-32.24,1.678c0,.278.122,29.117,2.818,57.326.774,8.1,2.333,21.008,5.362,36.517,1.827,9.351,3.312,15.157,3.326,15.213.123-.311,12.913-32.595,18.175-51.73a95.049,95.049,0,0,0,2.64-17.363c.432-5.7.645-12.216.631-19.378-.024-12.15-.7-22.159-.711-22.263Z"
                  transform="translate(6024 287)"/>
        </g>
    </g>
</svg>
