<!--
  - The MIT License (MIT)
  -
  - Copyright (c) 2015-2022 Elior "Mallowigi" Boukhobza
  -
  - Permission is hereby granted, free of charge, to any person obtaining a copy
  - of this software and associated documentation files (the "Software"), to deal
  - in the Software without restriction, including without limitation the rights
  - to use, copy, modify, merge, publish, distribute, sublicense, and/or sell
  - copies of the Software, and to permit persons to whom the Software is
  - furnished to do so, subject to the following conditions:
  -
  - The above copyright notice and this permission notice shall be included in all
  - copies or substantial portions of the Software.
  -
  - THE SOFTWARE IS PROVIDED "AS IS", WITHOUT WARRANTY OF ANY KIND, EXPRESS OR
  - IMPLIED, INCLUDING BUT NOT LIMITED TO THE WARRANTIES OF MERCHANTABILITY,
  - FITNESS FOR A PARTICULAR PURPOSE AND NONINFRINGEMENT. IN NO EVENT SHALL THE
  - AUTHORS OR COPYRIGHT HOLDERS BE LIABLE FOR ANY CLAIM, DAMAGES OR OTHER
  - LIABILITY, WHETHER IN AN ACTION OF CONTRACT, TORT OR OTHERWISE, ARISING FROM,
  - OUT OF OR IN CONNECTION WITH THE SOFTWARE OR THE USE OR OTHER DEALINGS IN THE
  - SOFTWARE.
  -
  -
  -->

<svg big="true" xmlns="http://www.w3.org/2000/svg" viewBox="0 0 16 16" width="16px" height="16px">
    <g fill="#D24A39" iconColor="Jenkins">
        <path d=" M 8.129 6.775 C 8.072 7.393 8.218 7.593 8.341 8.3 C 10.37 8.937 10.015 5.52 8.129 6.775 L 8.129 6.775 L 8.129 6.775 L 8.129 6.775 L 8.129 6.775 L 8.129 6.775 Z  M 5.882 6.04 C 5.007 5.561 3.694 5.045 2.569 4.829 C 1.171 4.563 1.301 6.737 1.361 8.034 C 1.409 9.061 1.942 10.148 2.173 10.829 C 2.281 11.15 2.306 11.486 2.579 11.549 C 3.06 11.66 4.649 11.026 5.102 10.779 C 6.059 10.256 6.801 9.428 7.615 8.87 C 7.625 8.601 7.638 8.328 7.647 8.059 C 7.159 7.815 6.595 7.644 5.875 7.612 C 6.363 7.368 7.08 7.371 7.52 7.08 C 7.523 6.972 7.53 6.864 7.533 6.756 C 6.725 6.69 6.417 6.332 5.882 6.04 L 5.882 6.04 L 5.882 6.04 L 5.882 6.04 L 5.882 6.04 L 5.882 6.04 Z  M 14.665 7.355 C 14.627 6.538 14.411 4.858 13.904 4.563 C 12.842 3.945 10.956 5.812 10.158 6.097 C 10.243 6.347 10.389 6.544 10.398 6.864 C 10.871 6.747 11.448 6.826 11.857 7.029 C 11.384 7.083 10.858 7.08 10.544 7.305 C 10.43 7.637 10.573 8.088 10.497 8.55 C 11.622 8.867 12.906 9.035 14.326 9.077 C 14.605 8.718 14.7 8.034 14.665 7.355 L 14.665 7.355 L 14.665 7.355 L 14.665 7.355 L 14.665 7.355 L 14.665 7.355 Z "
              stroke-width="0.3" stroke-miterlimit="4" />
    </g>
</svg>
