<!--
  - The MIT License (MIT)
  -
  - Copyright (c) 2015-2022 Elior "Mallowigi" Boukhobza
  -
  - Permission is hereby granted, free of charge, to any person obtaining a copy
  - of this software and associated documentation files (the "Software"), to deal
  - in the Software without restriction, including without limitation the rights
  - to use, copy, modify, merge, publish, distribute, sublicense, and/or sell
  - copies of the Software, and to permit persons to whom the Software is
  - furnished to do so, subject to the following conditions:
  -
  - The above copyright notice and this permission notice shall be included in all
  - copies or substantial portions of the Software.
  -
  - THE SOFTWARE IS PROVIDED "AS IS", WITHOUT WARRANTY OF ANY KIND, EXPRESS OR
  - IMPLIED, INCLUDING BUT NOT LIMITED TO THE WARRANTIES OF MERCHANTABILITY,
  - FITNESS FOR A PARTICULAR PURPOSE AND NONINFRINGEMENT. IN NO EVENT SHALL THE
  - AUTHORS OR COPYRIGHT HOLDERS BE LIABLE FOR ANY CLAIM, DAMAGES OR OTHER
  - LIABILITY, WHETHER IN AN ACTION OF CONTRACT, TORT OR OTHERWISE, ARISING FROM,
  - OUT OF OR IN CONNECTION WITH THE SOFTWARE OR THE USE OR OTHER DEALINGS IN THE
  - SOFTWARE.
  -
  -
  -->

<svg big="true" width="16px" height="16px" viewBox="60 40 256 214" xmlns="http://www.w3.org/2000/svg">
    <path fill="#EBD851" transform="scale(1.5)" iconColor="JSCS"
          d="M53.077 99.328l6.912-4.181c1.323 2.346 2.56 4.352 5.462 4.352 2.816 0 4.565-1.067 4.565-5.334V65.237h8.49v29.056c0 8.79-5.162 12.8-12.671 12.8-6.827 0-10.752-3.498-12.758-7.509v-.256zm34.432-.81l6.827-3.969c1.835 2.944 4.139 5.078 8.277 5.078 3.499 0 5.718-1.707 5.718-4.096 0-2.902-2.304-3.926-6.144-5.59l-2.091-.896c-6.059-2.56-10.07-5.802-10.07-12.629 0-6.315 4.822-11.093 12.289-11.093 5.333 0 9.173 1.877 11.946 6.698l-6.528 4.224c-1.45-2.602-3.029-3.626-5.418-3.626-2.432 0-4.011 1.578-4.011 3.626 0 2.475 1.579 3.499 5.163 5.078l2.09.896c7.126 3.072 11.136 6.186 11.136 13.184 0 7.552-5.93 11.69-13.909 11.69-7.765 0-12.8-3.712-15.275-8.576zm69.078-20.566l6.485-4.352c-6.955-9.216-20.096-11.008-29.27-4.01-9.173 6.997-11.007 20.095-4.01 29.269 6.997 9.173 20.096 11.008 29.27 4.01 1.535-1.152 2.858-2.517 4.01-4.01l-6.485-4.31c-4.566 5.504-12.758 6.272-18.262 1.664-5.504-4.608-6.272-12.757-1.664-18.261 4.566-5.504 12.758-6.272 18.262-1.664a15.319 15.319 0 0 1 1.664 1.664zm16.256 20.565l6.826-3.968c1.835 2.944 4.139 5.078 8.278 5.078 3.498 0 5.717-1.707 5.717-4.096 0-2.902-2.304-3.926-6.144-5.59l-2.09-.896c-6.06-2.56-10.07-5.802-10.07-12.629 0-6.315 4.821-11.093 12.288-11.093 5.333 0 9.173 1.877 11.947 6.698l-6.528 4.224c-1.451-2.602-3.03-3.626-5.419-3.626-2.432 0-4.01 1.578-4.01 3.626 0 2.475 1.578 3.499 5.162 5.078l2.09.896c7.126 3.072 11.137 6.186 11.137 13.184 0 7.552-5.931 11.69-13.91 11.69-7.765 0-12.8-3.712-15.274-8.576zm-118.23 43.99H76.8v7.253H54.613v-7.253zm37.974 0h22.186v7.253H92.587v-7.253zm35.413 0l18.347-18.347 18.346 18.347H153.6l-7.253-7.254-7.254 7.254H128z"
    />
</svg>
