<!--
  - The MIT License (MIT)
  -
  -  Copyright (c) 2015-2022 Elior "Mallowigi" Boukhobza
  -
  -  Permission is hereby granted, free of charge, to any person obtaining a copy
  -  of this software and associated documentation files (the "Software"), to deal
  -  in the Software without restriction, including without limitation the rights
  -  to use, copy, modify, merge, publish, distribute, sublicense, and/or sell
  -  copies of the Software, and to permit persons to whom the Software is
  -  furnished to do so, subject to the following conditions:
  -
  -  The above copyright notice and this permission notice shall be included in all
  -  copies or substantial portions of the Software.
  -
  -  THE SOFTWARE IS PROVIDED "AS IS", WITHOUT WARRANTY OF ANY KIND, EXPRESS OR
  -  IMPLIED, INCLUDING BUT NOT LIMITED TO THE WARRANTIES OF MERCHANTABILITY,
  -  FITNESS FOR A PARTICULAR PURPOSE AND NONINFRINGEMENT. IN NO EVENT SHALL THE
  -  AUTHORS OR COPYRIGHT HOLDERS BE LIABLE FOR ANY CLAIM, DAMAGES OR OTHER
  -  LIABILITY, WHETHER IN AN ACTION OF CONTRACT, TORT OR OTHERWISE, ARISING FROM,
  -  OUT OF OR IN CONNECTION WITH THE SOFTWARE OR THE USE OR OTHER DEALINGS IN THE
  -  SOFTWARE.
  -->

<svg big="true" xmlns="http://www.w3.org/2000/svg" width="16px" height="16px" viewBox="0 0 2048 2048">
    <g fill="#00cdac" iconColor="JTE" transform="scale(1.5) translate(-300 -300)">
        <path d="M1545.5,888.558q-58.26-73.63-148.48-73.639-87.615,0-146.95,71.723-59.355,71.731-59.35,171.918,0,110.04,63.29,187.52t157.9,77.47q56.5,0,110.16-23.82t74.68-51.19q7.005-8.745,7.01-18.07a25.8,25.8,0,0,0-5.26-16.15c-3.5-4.56-7.6-6.84-12.26-6.84q-6.15,0-14.46,8.21-28.47,27.93-73.58,44.9t-86.29,16.97q-74.025,0-124.17-54.48-50.16-54.465-59.79-143.72h374.93Q1603.75,962.21,1545.5,888.558ZM1228.39,1032.83q11.385-77.2,57.81-124.288t110.82-47.085q64.38,0,111.03,47.633t57.6,123.74H1228.39Z"/>
        <path d="M915.252,695.564q0-16.425-5.256-23.543T896.418,664.9q-7.884,0-13.14,7.118t-5.256,23.543v135.78H810.131q-13.14,0-18.834,6.57T785.6,854.34q0,10.405,5.694,16.972t18.834,6.57h67.891V1183.94q0,64.05,38.106,101.83t102.492,37.78q49.485,0,103.59-21.08,54.09-21.075,68.11-39.15a24.066,24.066,0,0,0,5.69-15.33,25.791,25.791,0,0,0-5.25-16.15q-5.265-6.84-12.27-6.84-5.7,0-14.45,7.12-24.09,17.52-67.46,31.48-43.35,13.965-80.59,13.96-49.5,0-75.115-26.83t-25.623-66.79V877.882H1114.98q13.14,0,18.84-6.57,5.685-6.57,5.69-16.425,0-10.393-5.69-16.973t-18.84-6.57H915.252V695.564Z"/>
        <path d="M679.929,1337.78q0,56.385-28.908,94.72t-75.774,38.33l-116.071-.55q-13.14,0-18.834,6.57t-5.694,16.97q0,10.4,5.694,16.7,5.687,6.285,18.834,6.3H576.123q36.792,0,63.51-16.97,38.538-24.645,57.816-64.06t19.273-98.01V831.344H461.366q-13.581,0-19.053,6.57t-5.475,16.426q0,10.405,5.694,16.972t18.834,6.57H679.929v459.9Z"/>
        <path d="M587,441h34c3.746,0.964,9.749.684,14,2,36.461,11.289,65.045,23.041,89,47l10,9v2l3,2v2c0.852,1.258,3.15,2.741,4,4v2l3,2c12.759,19.491,19.377,60.542,8,87-15.434,35.889-45.846,59.851-82,75-14.976,6.275-34.19,7.749-51,12H607c-13.643,3.357-29.3-1.319-43-1-10.189.237-23.246,4.981-35,2-6.91-1.753-15.939-.836-23-3-19.7-6.039-38.318-10.116-54-20-21.814-13.749-50.544-47.116-37-86l10-19c1.672-2.35,6.588-5.4,8-8q1-6,2-12l9-23a154.927,154.927,0,0,1,70-60c15.3-6.6,32.721-9.328,50-14C570.029,441.37,582.356,444.5,587,441Zm-11,36c-3.413,2.43-21.535,3.23-27,5-18.045,5.843-34.983,12.974-49,23l-4,5c-3.913,2.886-8.465,4.809-10,10h4c3.847-3.428,10.191-2.351,16-4,19.053-5.41,53.058-4.409,71,1l9,1c30.039,11.4,51.378,21.038,68,46l3,2c4.149,6.328,12.437,29.854,9,43-1.285,4.914-4.187,18.206-8,24-2.223,3.378-5.544,5.03-7,10h5c3.992-4.073,10.875-3.927,16-7,16.187-9.705,28.49-19.462,39-35,1.256-1.858,4.025-3.869,5-6,2.928-6.4,5.134-15.118,7-22,4.026-14.853-6.351-35.939-11-43-20.491-31.119-48.039-41.4-89-52C611.384,474.993,589.735,477.008,576,477Zm-45,55c-2.578,1.84-7.167,0-11,1l-26,5c-29.178,10.006-53.789,24.8-62,56-5.553,21.1,15.171,41.984,25,49,13.631,9.729,25.7,15.583,44,21,5.477,1.621,12.116,1.746,17,3h12c8.553,2.081,22.075,1.077,30-1h7c5.479-1.472,12.256-2.032,18-4a155.739,155.739,0,0,0,41-21c3.683-2.689,6.291-7.2,9-11,2.807-3.933,6.988-8.253,9-13,6.478-15.287.137-35.909-7-46C618.755,545.205,575.884,531.975,531,532Z"/>
    </g>
</svg>
