<!--
  - The MIT License (MIT)
  -
  -  Copyright (c) 2015-2022 Elior "Mallowigi" Boukhobza
  -
  -  Permission is hereby granted, free of charge, to any person obtaining a copy
  -  of this software and associated documentation files (the "Software"), to deal
  -  in the Software without restriction, including without limitation the rights
  -  to use, copy, modify, merge, publish, distribute, sublicense, and/or sell
  -  copies of the Software, and to permit persons to whom the Software is
  -  furnished to do so, subject to the following conditions:
  -
  -  The above copyright notice and this permission notice shall be included in all
  -  copies or substantial portions of the Software.
  -
  -  THE SOFTWARE IS PROVIDED "AS IS", WITHOUT WARRANTY OF ANY KIND, EXPRESS OR
  -  IMPLIED, INCLUDING BUT NOT LIMITED TO THE WARRANTIES OF MERCHANTABILITY,
  -  FITNESS FOR A PARTICULAR PURPOSE AND NONINFRINGEMENT. IN NO EVENT SHALL THE
  -  AUTHORS OR COPYRIGHT HOLDERS BE LIABLE FOR ANY CLAIM, DAMAGES OR OTHER
  -  LIABILITY, WHETHER IN AN ACTION OF CONTRACT, TORT OR OTHERWISE, ARISING FROM,
  -  OUT OF OR IN CONNECTION WITH THE SOFTWARE OR THE USE OR OTHER DEALINGS IN THE
  -  SOFTWARE.
  -->

<svg big="true" width="16px" height="16px" viewBox="0 0 120 110" xmlns="http://www.w3.org/2000/svg">
    <g iconColor="Leo" fill="#01DFF2">
        <path d="M15.9117 110C24.6994 110 31.8233 102.883 31.8233 94.1039C31.8233 85.3246 24.6994 78.2075 15.9117 78.2075C7.12389 78.2075 0 85.3246 0 94.1039C0 102.883 7.12389 110 15.9117 110Z"
        />
        <path d="M15.9117 110C24.6994 110 31.8233 102.883 31.8233 94.1039C31.8233 85.3246 24.6994 78.2075 15.9117 78.2075C7.12389 78.2075 0 85.3246 0 94.1039C0 102.883 7.12389 110 15.9117 110Z"
        />
        <path d="M15.9117 110C24.6994 110 31.8233 102.883 31.8233 94.1039C31.8233 85.3246 24.6994 78.2075 15.9117 78.2075C7.12389 78.2075 0 85.3246 0 94.1039C0 102.883 7.12389 110 15.9117 110Z"
        />
        <path d="M15.9117 110C24.6994 110 31.8233 102.883 31.8233 94.1039C31.8233 85.3246 24.6994 78.2075 15.9117 78.2075C7.12389 78.2075 0 85.3246 0 94.1039C0 102.883 7.12389 110 15.9117 110Z"
        />
        <path d="M15.9117 110C24.6994 110 31.8233 102.883 31.8233 94.1039C31.8233 85.3246 24.6994 78.2075 15.9117 78.2075C7.12389 78.2075 0 85.3246 0 94.1039C0 102.883 7.12389 110 15.9117 110Z"
        />
        <path d="M15.9117 110C24.6994 110 31.8233 102.883 31.8233 94.1039C31.8233 85.3246 24.6994 78.2075 15.9117 78.2075C7.12389 78.2075 0 85.3246 0 94.1039C0 102.883 7.12389 110 15.9117 110Z"
        />
        <path d="M15.9117 110C24.6994 110 31.8233 102.883 31.8233 94.1039C31.8233 85.3246 24.6994 78.2075 15.9117 78.2075C7.12389 78.2075 0 85.3246 0 94.1039C0 102.883 7.12389 110 15.9117 110Z"
        />
        <path d="M15.9117 110C24.6994 110 31.8233 102.883 31.8233 94.1039C31.8233 85.3246 24.6994 78.2075 15.9117 78.2075C7.12389 78.2075 0 85.3246 0 94.1039C0 102.883 7.12389 110 15.9117 110Z"
        />
        <path d="M15.9117 110C24.6994 110 31.8233 102.883 31.8233 94.1039C31.8233 85.3246 24.6994 78.2075 15.9117 78.2075C7.12389 78.2075 0 85.3246 0 94.1039C0 102.883 7.12389 110 15.9117 110Z"
        />
        <path d="M15.9117 110C24.6994 110 31.8233 102.883 31.8233 94.1039C31.8233 85.3246 24.6994 78.2075 15.9117 78.2075C7.12389 78.2075 0 85.3246 0 94.1039C0 102.883 7.12389 110 15.9117 110Z"
        />
        <path d="M15.9117 110C24.6994 110 31.8233 102.883 31.8233 94.1039C31.8233 85.3246 24.6994 78.2075 15.9117 78.2075C7.12389 78.2075 0 85.3246 0 94.1039C0 102.883 7.12389 110 15.9117 110Z"
        />
        <path d="M15.9117 110C24.6994 110 31.8233 102.883 31.8233 94.1039C31.8233 85.3246 24.6994 78.2075 15.9117 78.2075C7.12389 78.2075 0 85.3246 0 94.1039C0 102.883 7.12389 110 15.9117 110Z"
        />
        <path d="M15.9117 110C24.6994 110 31.8233 102.883 31.8233 94.1039C31.8233 85.3246 24.6994 78.2075 15.9117 78.2075C7.12389 78.2075 0 85.3246 0 94.1039C0 102.883 7.12389 110 15.9117 110Z"
        />
        <path d="M15.9117 110C24.6994 110 31.8233 102.883 31.8233 94.1039C31.8233 85.3246 24.6994 78.2075 15.9117 78.2075C7.12389 78.2075 0 85.3246 0 94.1039C0 102.883 7.12389 110 15.9117 110Z"
        />
        <path d="M15.9117 110C24.6994 110 31.8233 102.883 31.8233 94.1039C31.8233 85.3246 24.6994 78.2075 15.9117 78.2075C7.12389 78.2075 0 85.3246 0 94.1039C0 102.883 7.12389 110 15.9117 110Z"
        />
        <path d="M15.9117 110C24.6994 110 31.8233 102.883 31.8233 94.1039C31.8233 85.3246 24.6994 78.2075 15.9117 78.2075C7.12389 78.2075 0 85.3246 0 94.1039C0 102.883 7.12389 110 15.9117 110Z"
        />
        <path d="M15.9117 110C24.6994 110 31.8233 102.883 31.8233 94.1039C31.8233 85.3246 24.6994 78.2075 15.9117 78.2075C7.12389 78.2075 0 85.3246 0 94.1039C0 102.883 7.12389 110 15.9117 110Z"
        />
        <path d="M15.9117 110C24.6994 110 31.8233 102.883 31.8233 94.1039C31.8233 85.3246 24.6994 78.2075 15.9117 78.2075C7.12389 78.2075 0 85.3246 0 94.1039C0 102.883 7.12389 110 15.9117 110Z"
        />
        <path d="M15.9117 110C24.6994 110 31.8233 102.883 31.8233 94.1039C31.8233 85.3246 24.6994 78.2075 15.9117 78.2075C7.12389 78.2075 0 85.3246 0 94.1039C0 102.883 7.12389 110 15.9117 110Z"
        />
        <path d="M15.9117 110C24.6994 110 31.8233 102.883 31.8233 94.1039C31.8233 85.3246 24.6994 78.2075 15.9117 78.2075C7.12389 78.2075 0 85.3246 0 94.1039C0 102.883 7.12389 110 15.9117 110Z"
        />
        <path d="M15.9117 110C24.6994 110 31.8233 102.883 31.8233 94.1039C31.8233 85.3246 24.6994 78.2075 15.9117 78.2075C7.12389 78.2075 0 85.3246 0 94.1039C0 102.883 7.12389 110 15.9117 110Z"
        />
        <path d="M15.9117 110C24.6994 110 31.8233 102.883 31.8233 94.1039C31.8233 85.3246 24.6994 78.2075 15.9117 78.2075C7.12389 78.2075 0 85.3246 0 94.1039C0 102.883 7.12389 110 15.9117 110Z"
        />
        <path d="M15.9117 110C24.6994 110 31.8233 102.883 31.8233 94.1039C31.8233 85.3246 24.6994 78.2075 15.9117 78.2075C7.12389 78.2075 0 85.3246 0 94.1039C0 102.883 7.12389 110 15.9117 110Z"
        />
        <path d="M15.9117 110C24.6994 110 31.8233 102.883 31.8233 94.1039C31.8233 85.3246 24.6994 78.2075 15.9117 78.2075C7.12389 78.2075 0 85.3246 0 94.1039C0 102.883 7.12389 110 15.9117 110Z"
        />
        <path d="M15.9117 110C24.6994 110 31.8233 102.883 31.8233 94.1039C31.8233 85.3246 24.6994 78.2075 15.9117 78.2075C7.12389 78.2075 0 85.3246 0 94.1039C0 102.883 7.12389 110 15.9117 110Z"
        />
        <path d="M15.9117 110C24.6994 110 31.8233 102.883 31.8233 94.1039C31.8233 85.3246 24.6994 78.2075 15.9117 78.2075C7.12389 78.2075 0 85.3246 0 94.1039C0 102.883 7.12389 110 15.9117 110Z"
        />
        <path d="M15.9117 110C24.6994 110 31.8233 102.883 31.8233 94.1039C31.8233 85.3246 24.6994 78.2075 15.9117 78.2075C7.12389 78.2075 0 85.3246 0 94.1039C0 102.883 7.12389 110 15.9117 110Z"
        />
        <path d="M15.9117 110C24.6994 110 31.8233 102.883 31.8233 94.1039C31.8233 85.3246 24.6994 78.2075 15.9117 78.2075C7.12389 78.2075 0 85.3246 0 94.1039C0 102.883 7.12389 110 15.9117 110Z"
        />
        <path d="M15.9117 110C24.6994 110 31.8233 102.883 31.8233 94.1039C31.8233 85.3246 24.6994 78.2075 15.9117 78.2075C7.12389 78.2075 0 85.3246 0 94.1039C0 102.883 7.12389 110 15.9117 110Z"
        />
        <path d="M15.9117 110C24.6994 110 31.8233 102.883 31.8233 94.1039C31.8233 85.3246 24.6994 78.2075 15.9117 78.2075C7.12389 78.2075 0 85.3246 0 94.1039C0 102.883 7.12389 110 15.9117 110Z"
        />
        <path d="M15.9117 110C24.6994 110 31.8233 102.883 31.8233 94.1039C31.8233 85.3246 24.6994 78.2075 15.9117 78.2075C7.12389 78.2075 0 85.3246 0 94.1039C0 102.883 7.12389 110 15.9117 110Z"
        />
        <path d="M15.9117 110C24.6994 110 31.8233 102.883 31.8233 94.1039C31.8233 85.3246 24.6994 78.2075 15.9117 78.2075C7.12389 78.2075 0 85.3246 0 94.1039C0 102.883 7.12389 110 15.9117 110Z"
        />
        <path d="M15.9117 110C24.6994 110 31.8233 102.883 31.8233 94.1039C31.8233 85.3246 24.6994 78.2075 15.9117 78.2075C7.12389 78.2075 0 85.3246 0 94.1039C0 102.883 7.12389 110 15.9117 110Z"
        />
        <path d="M15.9117 110C24.6994 110 31.8233 102.883 31.8233 94.1039C31.8233 85.3246 24.6994 78.2075 15.9117 78.2075C7.12389 78.2075 0 85.3246 0 94.1039C0 102.883 7.12389 110 15.9117 110Z"
        />
        <path d="M15.9117 110C24.6994 110 31.8233 102.883 31.8233 94.1039C31.8233 85.3246 24.6994 78.2075 15.9117 78.2075C7.12389 78.2075 0 85.3246 0 94.1039C0 102.883 7.12389 110 15.9117 110Z"
        />
        <path d="M15.9117 110C24.6994 110 31.8233 102.883 31.8233 94.1039C31.8233 85.3246 24.6994 78.2075 15.9117 78.2075C7.12389 78.2075 0 85.3246 0 94.1039C0 102.883 7.12389 110 15.9117 110Z"
        />
        <path d="M15.9117 110C24.6994 110 31.8233 102.883 31.8233 94.1039C31.8233 85.3246 24.6994 78.2075 15.9117 78.2075C7.12389 78.2075 0 85.3246 0 94.1039C0 102.883 7.12389 110 15.9117 110Z"
        />
        <path d="M15.9117 110C24.6994 110 31.8233 102.883 31.8233 94.1039C31.8233 85.3246 24.6994 78.2075 15.9117 78.2075C7.12389 78.2075 0 85.3246 0 94.1039C0 102.883 7.12389 110 15.9117 110Z"
        />
        <path d="M15.9117 110C24.6994 110 31.8233 102.883 31.8233 94.1039C31.8233 85.3246 24.6994 78.2075 15.9117 78.2075C7.12389 78.2075 0 85.3246 0 94.1039C0 102.883 7.12389 110 15.9117 110Z"
        />
        <path d="M15.9117 110C24.6994 110 31.8233 102.883 31.8233 94.1039C31.8233 85.3246 24.6994 78.2075 15.9117 78.2075C7.12389 78.2075 0 85.3246 0 94.1039C0 102.883 7.12389 110 15.9117 110Z"
        />
        <path d="M15.9117 110C24.6994 110 31.8233 102.883 31.8233 94.1039C31.8233 85.3246 24.6994 78.2075 15.9117 78.2075C7.12389 78.2075 0 85.3246 0 94.1039C0 102.883 7.12389 110 15.9117 110Z"
        />
        <path d="M15.9117 110C24.6994 110 31.8233 102.883 31.8233 94.1039C31.8233 85.3246 24.6994 78.2075 15.9117 78.2075C7.12389 78.2075 0 85.3246 0 94.1039C0 102.883 7.12389 110 15.9117 110Z"
        />
        <path d="M15.9117 110C24.6994 110 31.8233 102.883 31.8233 94.1039C31.8233 85.3246 24.6994 78.2075 15.9117 78.2075C7.12389 78.2075 0 85.3246 0 94.1039C0 102.883 7.12389 110 15.9117 110Z"
        />
        <path d="M15.9117 110C24.6994 110 31.8233 102.883 31.8233 94.1039C31.8233 85.3246 24.6994 78.2075 15.9117 78.2075C7.12389 78.2075 0 85.3246 0 94.1039C0 102.883 7.12389 110 15.9117 110Z"
        />
        <path d="M15.9117 110C24.6994 110 31.8233 102.883 31.8233 94.1039C31.8233 85.3246 24.6994 78.2075 15.9117 78.2075C7.12389 78.2075 0 85.3246 0 94.1039C0 102.883 7.12389 110 15.9117 110Z"
        />
        <path d="M15.9117 110C24.6994 110 31.8233 102.883 31.8233 94.1039C31.8233 85.3246 24.6994 78.2075 15.9117 78.2075C7.12389 78.2075 0 85.3246 0 94.1039C0 102.883 7.12389 110 15.9117 110Z"
        />
        <path d="M15.9117 110C24.6994 110 31.8233 102.883 31.8233 94.1039C31.8233 85.3246 24.6994 78.2075 15.9117 78.2075C7.12389 78.2075 0 85.3246 0 94.1039C0 102.883 7.12389 110 15.9117 110Z"
        />
        <path d="M15.9117 110C24.6994 110 31.8233 102.883 31.8233 94.1039C31.8233 85.3246 24.6994 78.2075 15.9117 78.2075C7.12389 78.2075 0 85.3246 0 94.1039C0 102.883 7.12389 110 15.9117 110Z"
        />
        <path d="M15.9117 110C24.6994 110 31.8233 102.883 31.8233 94.1039C31.8233 85.3246 24.6994 78.2075 15.9117 78.2075C7.12389 78.2075 0 85.3246 0 94.1039C0 102.883 7.12389 110 15.9117 110Z"
        />
        <path d="M15.9117 110C24.6994 110 31.8233 102.883 31.8233 94.1039C31.8233 85.3246 24.6994 78.2075 15.9117 78.2075C7.12389 78.2075 0 85.3246 0 94.1039C0 102.883 7.12389 110 15.9117 110Z"
        />
        <path d="M15.9117 110C24.6994 110 31.8233 102.883 31.8233 94.1039C31.8233 85.3246 24.6994 78.2075 15.9117 78.2075C7.12389 78.2075 0 85.3246 0 94.1039C0 102.883 7.12389 110 15.9117 110Z"
        />
        <path d="M15.9117 110C24.6994 110 31.8233 102.883 31.8233 94.1039C31.8233 85.3246 24.6994 78.2075 15.9117 78.2075C7.12389 78.2075 0 85.3246 0 94.1039C0 102.883 7.12389 110 15.9117 110Z"
        />
        <path d="M15.9117 110C24.6994 110 31.8233 102.883 31.8233 94.1039C31.8233 85.3246 24.6994 78.2075 15.9117 78.2075C7.12389 78.2075 0 85.3246 0 94.1039C0 102.883 7.12389 110 15.9117 110Z"
        />
        <path d="M15.9117 110C24.6994 110 31.8233 102.883 31.8233 94.1039C31.8233 85.3246 24.6994 78.2075 15.9117 78.2075C7.12389 78.2075 0 85.3246 0 94.1039C0 102.883 7.12389 110 15.9117 110Z"
        />
        <path d="M15.9117 110C24.6994 110 31.8233 102.883 31.8233 94.1039C31.8233 85.3246 24.6994 78.2075 15.9117 78.2075C7.12389 78.2075 0 85.3246 0 94.1039C0 102.883 7.12389 110 15.9117 110Z"
        />
        <path d="M15.9117 110C24.6994 110 31.8233 102.883 31.8233 94.1039C31.8233 85.3246 24.6994 78.2075 15.9117 78.2075C7.12389 78.2075 0 85.3246 0 94.1039C0 102.883 7.12389 110 15.9117 110Z"
        />
        <path d="M15.9117 110C24.6994 110 31.8233 102.883 31.8233 94.1039C31.8233 85.3246 24.6994 78.2075 15.9117 78.2075C7.12389 78.2075 0 85.3246 0 94.1039C0 102.883 7.12389 110 15.9117 110Z"
        />
        <path d="M15.9117 110C24.6994 110 31.8233 102.883 31.8233 94.1039C31.8233 85.3246 24.6994 78.2075 15.9117 78.2075C7.12389 78.2075 0 85.3246 0 94.1039C0 102.883 7.12389 110 15.9117 110Z"
        />
        <path d="M15.9117 110C24.6994 110 31.8233 102.883 31.8233 94.1039C31.8233 85.3246 24.6994 78.2075 15.9117 78.2075C7.12389 78.2075 0 85.3246 0 94.1039C0 102.883 7.12389 110 15.9117 110Z"
        />
        <path d="M15.9117 110C24.6994 110 31.8233 102.883 31.8233 94.1039C31.8233 85.3246 24.6994 78.2075 15.9117 78.2075C7.12389 78.2075 0 85.3246 0 94.1039C0 102.883 7.12389 110 15.9117 110Z"
        />
        <path d="M15.9117 110C24.6994 110 31.8233 102.883 31.8233 94.1039C31.8233 85.3246 24.6994 78.2075 15.9117 78.2075C7.12389 78.2075 0 85.3246 0 94.1039C0 102.883 7.12389 110 15.9117 110Z"
        />
        <path d="M15.9117 110C24.6994 110 31.8233 102.883 31.8233 94.1039C31.8233 85.3246 24.6994 78.2075 15.9117 78.2075C7.12389 78.2075 0 85.3246 0 94.1039C0 102.883 7.12389 110 15.9117 110Z"
        />
        <path d="M15.9117 110C24.6994 110 31.8233 102.883 31.8233 94.1039C31.8233 85.3246 24.6994 78.2075 15.9117 78.2075C7.12389 78.2075 0 85.3246 0 94.1039C0 102.883 7.12389 110 15.9117 110Z"
        />
        <path d="M15.9117 110C24.6994 110 31.8233 102.883 31.8233 94.1039C31.8233 85.3246 24.6994 78.2075 15.9117 78.2075C7.12389 78.2075 0 85.3246 0 94.1039C0 102.883 7.12389 110 15.9117 110Z"
        />
        <path d="M15.9117 110C24.6994 110 31.8233 102.883 31.8233 94.1039C31.8233 85.3246 24.6994 78.2075 15.9117 78.2075C7.12389 78.2075 0 85.3246 0 94.1039C0 102.883 7.12389 110 15.9117 110Z"
        />
        <path d="M15.9117 110C24.6994 110 31.8233 102.883 31.8233 94.1039C31.8233 85.3246 24.6994 78.2075 15.9117 78.2075C7.12389 78.2075 0 85.3246 0 94.1039C0 102.883 7.12389 110 15.9117 110Z"
        />
        <path d="M15.9117 110C24.6994 110 31.8233 102.883 31.8233 94.1039C31.8233 85.3246 24.6994 78.2075 15.9117 78.2075C7.12389 78.2075 0 85.3246 0 94.1039C0 102.883 7.12389 110 15.9117 110Z"
        />
        <path d="M15.9117 110C24.6994 110 31.8233 102.883 31.8233 94.1039C31.8233 85.3246 24.6994 78.2075 15.9117 78.2075C7.12389 78.2075 0 85.3246 0 94.1039C0 102.883 7.12389 110 15.9117 110Z"
        />
        <path d="M15.9117 110C24.6994 110 31.8233 102.883 31.8233 94.1039C31.8233 85.3246 24.6994 78.2075 15.9117 78.2075C7.12389 78.2075 0 85.3246 0 94.1039C0 102.883 7.12389 110 15.9117 110Z"
        />
        <path d="M15.9117 110C24.6994 110 31.8233 102.883 31.8233 94.1039C31.8233 85.3246 24.6994 78.2075 15.9117 78.2075C7.12389 78.2075 0 85.3246 0 94.1039C0 102.883 7.12389 110 15.9117 110Z"
        />
        <path d="M15.9117 110C24.6994 110 31.8233 102.883 31.8233 94.1039C31.8233 85.3246 24.6994 78.2075 15.9117 78.2075C7.12389 78.2075 0 85.3246 0 94.1039C0 102.883 7.12389 110 15.9117 110Z"
        />
        <path d="M15.9117 110C24.6994 110 31.8233 102.883 31.8233 94.1039C31.8233 85.3246 24.6994 78.2075 15.9117 78.2075C7.12389 78.2075 0 85.3246 0 94.1039C0 102.883 7.12389 110 15.9117 110Z"
        />
        <path d="M15.9117 110C24.6994 110 31.8233 102.883 31.8233 94.1039C31.8233 85.3246 24.6994 78.2075 15.9117 78.2075C7.12389 78.2075 0 85.3246 0 94.1039C0 102.883 7.12389 110 15.9117 110Z"
        />
        <path d="M15.9117 110C24.6994 110 31.8233 102.883 31.8233 94.1039C31.8233 85.3246 24.6994 78.2075 15.9117 78.2075C7.12389 78.2075 0 85.3246 0 94.1039C0 102.883 7.12389 110 15.9117 110Z"
        />
        <path d="M15.9117 110C24.6994 110 31.8233 102.883 31.8233 94.1039C31.8233 85.3246 24.6994 78.2075 15.9117 78.2075C7.12389 78.2075 0 85.3246 0 94.1039C0 102.883 7.12389 110 15.9117 110Z"
        />
        <path d="M15.9117 110C24.6994 110 31.8233 102.883 31.8233 94.1039C31.8233 85.3246 24.6994 78.2075 15.9117 78.2075C7.12389 78.2075 0 85.3246 0 94.1039C0 102.883 7.12389 110 15.9117 110Z"
        />
        <path d="M15.9117 110C24.6994 110 31.8233 102.883 31.8233 94.1039C31.8233 85.3246 24.6994 78.2075 15.9117 78.2075C7.12389 78.2075 0 85.3246 0 94.1039C0 102.883 7.12389 110 15.9117 110Z"
        />
        <path d="M15.9117 110C24.6994 110 31.8233 102.883 31.8233 94.1039C31.8233 85.3246 24.6994 78.2075 15.9117 78.2075C7.12389 78.2075 0 85.3246 0 94.1039C0 102.883 7.12389 110 15.9117 110Z"
        />
        <path d="M15.9117 110C24.6994 110 31.8233 102.883 31.8233 94.1039C31.8233 85.3246 24.6994 78.2075 15.9117 78.2075C7.12389 78.2075 0 85.3246 0 94.1039C0 102.883 7.12389 110 15.9117 110Z"
        />
        <path d="M15.9117 110C24.6994 110 31.8233 102.883 31.8233 94.1039C31.8233 85.3246 24.6994 78.2075 15.9117 78.2075C7.12389 78.2075 0 85.3246 0 94.1039C0 102.883 7.12389 110 15.9117 110Z"
        />
        <path d="M15.9117 110C24.6994 110 31.8233 102.883 31.8233 94.1039C31.8233 85.3246 24.6994 78.2075 15.9117 78.2075C7.12389 78.2075 0 85.3246 0 94.1039C0 102.883 7.12389 110 15.9117 110Z"
        />
        <path d="M15.9117 110C24.6994 110 31.8233 102.883 31.8233 94.1039C31.8233 85.3246 24.6994 78.2075 15.9117 78.2075C7.12389 78.2075 0 85.3246 0 94.1039C0 102.883 7.12389 110 15.9117 110Z"
        />
        <path d="M15.9117 110C24.6994 110 31.8233 102.883 31.8233 94.1039C31.8233 85.3246 24.6994 78.2075 15.9117 78.2075C7.12389 78.2075 0 85.3246 0 94.1039C0 102.883 7.12389 110 15.9117 110Z"
        />
        <path d="M15.9117 110C24.6994 110 31.8233 102.883 31.8233 94.1039C31.8233 85.3246 24.6994 78.2075 15.9117 78.2075C7.12389 78.2075 0 85.3246 0 94.1039C0 102.883 7.12389 110 15.9117 110Z"
        />
        <path d="M15.9117 110C24.6994 110 31.8233 102.883 31.8233 94.1039C31.8233 85.3246 24.6994 78.2075 15.9117 78.2075C7.12389 78.2075 0 85.3246 0 94.1039C0 102.883 7.12389 110 15.9117 110Z"
        />
        <path d="M15.9117 110C24.6994 110 31.8233 102.883 31.8233 94.1039C31.8233 85.3246 24.6994 78.2075 15.9117 78.2075C7.12389 78.2075 0 85.3246 0 94.1039C0 102.883 7.12389 110 15.9117 110Z"
        />
        <path d="M16.3101 109.283C25.0979 109.283 32.2218 102.166 32.2218 93.3866C32.2218 84.6073 25.0979 77.4902 16.3101 77.4902C7.52233 77.4902 0.398438 84.6073 0.398438 93.3866C0.398438 102.166 7.52233 109.283 16.3101 109.283Z"
        />
        <path d="M16.7085 108.606C25.4963 108.606 32.6202 101.489 32.6202 92.7094C32.6202 83.9301 25.4963 76.813 16.7085 76.813C7.92077 76.813 0.796875 83.9301 0.796875 92.7094C0.796875 101.489 7.92077 108.606 16.7085 108.606Z"
        />
        <path d="M17.105 107.889C25.8928 107.889 33.0167 100.771 33.0167 91.9921C33.0167 83.2128 25.8928 76.0957 17.105 76.0957C8.31725 76.0957 1.19336 83.2128 1.19336 91.9921C1.19336 100.771 8.31725 107.889 17.105 107.889Z"
        />
        <path d="M17.5074 107.171C26.2951 107.171 33.419 100.054 33.419 91.2748C33.419 82.4955 26.2951 75.3784 17.5074 75.3784C8.7196 75.3784 1.5957 82.4955 1.5957 91.2748C1.5957 100.054 8.7196 107.171 17.5074 107.171Z"
        />
        <path d="M17.9058 106.454C26.6936 106.454 33.8175 99.3374 33.8175 90.558C33.8175 81.7787 26.6936 74.6616 17.9058 74.6616C9.11803 74.6616 1.99414 81.7787 1.99414 90.558C1.99414 99.3374 9.11803 106.454 17.9058 106.454Z"
        />
        <path d="M18.3062 105.737C27.094 105.737 34.2178 98.6201 34.2178 89.8407C34.2178 81.0614 27.094 73.9443 18.3062 73.9443C9.51842 73.9443 2.39453 81.0614 2.39453 89.8407C2.39453 98.6201 9.51842 105.737 18.3062 105.737Z"
        />
        <path d="M18.7027 105.02C27.4904 105.02 34.6143 97.9028 34.6143 89.1235C34.6143 80.3441 27.4904 73.2271 18.7027 73.2271C9.91491 73.2271 2.79102 80.3441 2.79102 89.1235C2.79102 97.9028 9.91491 105.02 18.7027 105.02Z"
        />
        <path d="M19.1011 104.343C27.8889 104.343 35.0128 97.2256 35.0128 88.4462C35.0128 79.6669 27.8889 72.5498 19.1011 72.5498C10.3133 72.5498 3.18945 79.6669 3.18945 88.4462C3.18945 97.2256 10.3133 104.343 19.1011 104.343Z"
        />
        <path d="M19.5386 103.625C28.3264 103.625 35.4503 96.5083 35.4503 87.7289C35.4503 78.9496 28.3264 71.8325 19.5386 71.8325C10.7508 71.8325 3.62695 78.9496 3.62695 87.7289C3.62695 96.5083 10.7508 103.625 19.5386 103.625Z"
        />
        <path d="M19.941 102.909C28.7287 102.909 35.8526 95.7915 35.8526 87.0121C35.8526 78.2328 28.7287 71.1157 19.941 71.1157C11.1532 71.1157 4.0293 78.2328 4.0293 87.0121C4.0293 95.7915 11.1532 102.909 19.941 102.909Z"
        />
        <path d="M20.3374 102.191C29.1252 102.191 36.2491 95.0742 36.2491 86.2948C36.2491 77.5155 29.1252 70.3984 20.3374 70.3984C11.5497 70.3984 4.42578 77.5155 4.42578 86.2948C4.42578 95.0742 11.5497 102.191 20.3374 102.191Z"
        />
        <path d="M20.7378 101.473C29.5256 101.473 36.6495 94.3564 36.6495 85.5771C36.6495 76.7977 29.5256 69.6807 20.7378 69.6807C11.9501 69.6807 4.82617 76.7977 4.82617 85.5771C4.82617 94.3564 11.9501 101.473 20.7378 101.473Z"
        />
        <path d="M21.1343 100.757C29.9221 100.757 37.046 93.6401 37.046 84.8608C37.046 76.0814 29.9221 68.9644 21.1343 68.9644C12.3465 68.9644 5.22266 76.0814 5.22266 84.8608C5.22266 93.6401 12.3465 100.757 21.1343 100.757Z"
        />
        <path d="M21.5347 100.079C30.3225 100.079 37.4464 92.9624 37.4464 84.183C37.4464 75.4037 30.3225 68.2866 21.5347 68.2866C12.7469 68.2866 5.62305 75.4037 5.62305 84.183C5.62305 92.9624 12.7469 100.079 21.5347 100.079Z"
        />
        <path d="M21.9331 99.3631C30.7209 99.3631 37.8448 92.2461 37.8448 83.4667C37.8448 74.6874 30.7209 67.5703 21.9331 67.5703C13.1454 67.5703 6.02148 74.6874 6.02148 83.4667C6.02148 92.2461 13.1454 99.3631 21.9331 99.3631Z"
        />
        <path d="M22.3316 98.6458C31.1193 98.6458 38.2432 91.5288 38.2432 82.7494C38.2432 73.9701 31.1193 66.853 22.3316 66.853C13.5438 66.853 6.41992 73.9701 6.41992 82.7494C6.41992 91.5288 13.5438 98.6458 22.3316 98.6458Z"
        />
        <path d="M22.73 97.9276C31.5178 97.9276 38.6417 90.8105 38.6417 82.0312C38.6417 73.2518 31.5178 66.1348 22.73 66.1348C13.9423 66.1348 6.81836 73.2518 6.81836 82.0312C6.81836 90.8105 13.9423 97.9276 22.73 97.9276Z"
        />
        <path d="M23.1304 97.2108C31.9182 97.2108 39.0421 90.0937 39.0421 81.3144C39.0421 72.535 31.9182 65.418 23.1304 65.418C14.3426 65.418 7.21875 72.535 7.21875 81.3144C7.21875 90.0937 14.3426 97.2108 23.1304 97.2108Z"
        />
        <path d="M23.5288 96.4935C32.3166 96.4935 39.4405 89.3764 39.4405 80.5971C39.4405 71.8177 32.3166 64.7007 23.5288 64.7007C14.7411 64.7007 7.61719 71.8177 7.61719 80.5971C7.61719 89.3764 14.7411 96.4935 23.5288 96.4935Z"
        />
        <path d="M23.9292 95.7767C32.717 95.7767 39.8409 88.6596 39.8409 79.8803C39.8409 71.101 32.717 63.9839 23.9292 63.9839C15.1415 63.9839 8.01758 71.101 8.01758 79.8803C8.01758 88.6596 15.1415 95.7767 23.9292 95.7767Z"
        />
        <path d="M24.3257 95.0994C33.1135 95.0994 40.2374 87.9824 40.2374 79.203C40.2374 70.4237 33.1135 63.3066 24.3257 63.3066C15.538 63.3066 8.41406 70.4237 8.41406 79.203C8.41406 87.9824 15.538 95.0994 24.3257 95.0994Z"
        />
        <path d="M24.7261 94.3827C33.5139 94.3827 40.6378 87.2656 40.6378 78.4863C40.6378 69.7069 33.5139 62.5898 24.7261 62.5898C15.9383 62.5898 8.81445 69.7069 8.81445 78.4863C8.81445 87.2656 15.9383 94.3827 24.7261 94.3827Z"
        />
        <path d="M25.1226 93.6654C33.9104 93.6654 41.0343 86.5483 41.0343 77.769C41.0343 68.9896 33.9104 61.8726 25.1226 61.8726C16.3348 61.8726 9.21094 68.9896 9.21094 77.769C9.21094 86.5483 16.3348 93.6654 25.1226 93.6654Z"
        />
        <path d="M25.523 92.9481C34.3108 92.9481 41.4346 85.831 41.4346 77.0517C41.4346 68.2723 34.3108 61.1553 25.523 61.1553C16.7352 61.1553 9.61133 68.2723 9.61133 77.0517C9.61133 85.831 16.7352 92.9481 25.523 92.9481Z"
        />
        <path d="M25.9195 92.2308C34.7072 92.2308 41.8311 85.1137 41.8311 76.3344C41.8311 67.555 34.7072 60.438 25.9195 60.438C17.1317 60.438 10.0078 67.555 10.0078 76.3344C10.0078 85.1137 17.1317 92.2308 25.9195 92.2308Z"
        />
        <path d="M26.3218 91.514C35.1096 91.514 42.2335 84.3969 42.2335 75.6176C42.2335 66.8382 35.1096 59.7212 26.3218 59.7212C17.534 59.7212 10.4102 66.8382 10.4102 75.6176C10.4102 84.3969 17.534 91.514 26.3218 91.514Z"
        />
        <path d="M26.7203 90.8363C35.508 90.8363 42.6319 83.7192 42.6319 74.9398C42.6319 66.1605 35.508 59.0435 26.7203 59.0435C17.9325 59.0435 10.8086 66.1605 10.8086 74.9398C10.8086 83.7192 17.9325 90.8363 26.7203 90.8363Z"
        />
        <path d="M27.1206 90.1195C35.9084 90.1195 43.0323 83.0024 43.0323 74.223C43.0323 65.4437 35.9084 58.3267 27.1206 58.3267C18.3329 58.3267 11.209 65.4437 11.209 74.223C11.209 83.0024 18.3329 90.1195 27.1206 90.1195Z"
        />
        <path d="M27.5171 89.4022C36.3049 89.4022 43.4288 82.2851 43.4288 73.5058C43.4288 64.7264 36.3049 57.6094 27.5171 57.6094C18.7294 57.6094 11.6055 64.7264 11.6055 73.5058C11.6055 82.2851 18.7294 89.4022 27.5171 89.4022Z"
        />
        <path d="M27.9156 88.6849C36.7033 88.6849 43.8272 81.5678 43.8272 72.7885C43.8272 64.0092 36.7033 56.8921 27.9156 56.8921C19.1278 56.8921 12.0039 64.0092 12.0039 72.7885C12.0039 81.5678 19.1278 88.6849 27.9156 88.6849Z"
        />
        <path d="M28.314 87.9681C37.1018 87.9681 44.2257 80.851 44.2257 72.0717C44.2257 63.2924 37.1018 56.1753 28.314 56.1753C19.5262 56.1753 12.4023 63.2924 12.4023 72.0717C12.4023 80.851 19.5262 87.9681 28.314 87.9681Z"
        />
        <path d="M28.7105 87.2508C37.4983 87.2508 44.6221 80.1337 44.6221 71.3544C44.6221 62.5751 37.4983 55.458 28.7105 55.458C19.9227 55.458 12.7988 62.5751 12.7988 71.3544C12.7988 80.1337 19.9227 87.2508 28.7105 87.2508Z"
        />
        <path d="M29.1109 86.5335C37.8986 86.5335 45.0225 79.4164 45.0225 70.6371C45.0225 61.8578 37.8986 54.7407 29.1109 54.7407C20.3231 54.7407 13.1992 61.8578 13.1992 70.6371C13.1992 79.4164 20.3231 86.5335 29.1109 86.5335Z"
        />
        <path d="M29.5093 85.8563C38.2971 85.8563 45.421 78.7392 45.421 69.9599C45.421 61.1805 38.2971 54.0635 29.5093 54.0635C20.7215 54.0635 13.5977 61.1805 13.5977 69.9599C13.5977 78.7392 20.7215 85.8563 29.5093 85.8563Z"
        />
        <path d="M29.9488 85.1385C38.7365 85.1385 45.8604 78.0214 45.8604 69.2421C45.8604 60.4628 38.7365 53.3457 29.9488 53.3457C21.161 53.3457 14.0371 60.4628 14.0371 69.2421C14.0371 78.0214 21.161 85.1385 29.9488 85.1385Z"
        />
        <path d="M30.3472 84.4222C39.135 84.4222 46.2589 77.3051 46.2589 68.5258C46.2589 59.7465 39.135 52.6294 30.3472 52.6294C21.5594 52.6294 14.4355 59.7465 14.4355 68.5258C14.4355 77.3051 21.5594 84.4222 30.3472 84.4222Z"
        />
        <path d="M30.7476 83.7049C39.5354 83.7049 46.6593 76.5879 46.6593 67.8085C46.6593 59.0292 39.5354 51.9121 30.7476 51.9121C21.9598 51.9121 14.8359 59.0292 14.8359 67.8085C14.8359 76.5879 21.9598 83.7049 30.7476 83.7049Z"
        />
        <path d="M31.1441 82.9881C39.9318 82.9881 47.0557 75.8711 47.0557 67.0917C47.0557 58.3124 39.9318 51.1953 31.1441 51.1953C22.3563 51.1953 15.2324 58.3124 15.2324 67.0917C15.2324 75.8711 22.3563 82.9881 31.1441 82.9881Z"
        />
        <path d="M31.5445 82.2713C40.3322 82.2713 47.4561 75.1542 47.4561 66.3749C47.4561 57.5956 40.3322 50.4785 31.5445 50.4785C22.7567 50.4785 15.6328 57.5956 15.6328 66.3749C15.6328 75.1542 22.7567 82.2713 31.5445 82.2713Z"
        />
        <path d="M31.9429 81.5936C40.7307 81.5936 47.8546 74.4765 47.8546 65.6972C47.8546 56.9179 40.7307 49.8008 31.9429 49.8008C23.1551 49.8008 16.0312 56.9179 16.0312 65.6972C16.0312 74.4765 23.1551 81.5936 31.9429 81.5936Z"
        />
        <path d="M32.3433 80.8763C41.1311 80.8763 48.255 73.7592 48.255 64.9799C48.255 56.2005 41.1311 49.0835 32.3433 49.0835C23.5555 49.0835 16.4316 56.2005 16.4316 64.9799C16.4316 73.7592 23.5555 80.8763 32.3433 80.8763Z"
        />
        <path d="M32.7398 80.1595C41.5275 80.1595 48.6514 73.0424 48.6514 64.2631C48.6514 55.4837 41.5275 48.3667 32.7398 48.3667C23.952 48.3667 16.8281 55.4837 16.8281 64.2631C16.8281 73.0424 23.952 80.1595 32.7398 80.1595Z"
        />
        <path d="M33.1382 79.4427C41.926 79.4427 49.0499 72.3257 49.0499 63.5463C49.0499 54.767 41.926 47.6499 33.1382 47.6499C24.3505 47.6499 17.2266 54.767 17.2266 63.5463C17.2266 72.3257 24.3505 79.4427 33.1382 79.4427Z"
        />
        <path d="M33.5386 78.7254C42.3264 78.7254 49.4503 71.6084 49.4503 62.829C49.4503 54.0497 42.3264 46.9326 33.5386 46.9326C24.7508 46.9326 17.627 54.0497 17.627 62.829C17.627 71.6084 24.7508 78.7254 33.5386 78.7254Z"
        />
        <path d="M33.937 78.0081C42.7248 78.0081 49.8487 70.8911 49.8487 62.1117C49.8487 53.3324 42.7248 46.2153 33.937 46.2153C25.1493 46.2153 18.0254 53.3324 18.0254 62.1117C18.0254 70.8911 25.1493 78.0081 33.937 78.0081Z"
        />
        <path d="M34.3355 77.2904C43.1233 77.2904 50.2472 70.1733 50.2472 61.3939C50.2472 52.6146 43.1233 45.4976 34.3355 45.4976C25.5477 45.4976 18.4238 52.6146 18.4238 61.3939C18.4238 70.1733 25.5477 77.2904 34.3355 77.2904Z"
        />
        <path d="M34.7339 76.6136C43.5217 76.6136 50.6456 69.4966 50.6456 60.7172C50.6456 51.9379 43.5217 44.8208 34.7339 44.8208C25.9462 44.8208 18.8223 51.9379 18.8223 60.7172C18.8223 69.4966 25.9462 76.6136 34.7339 76.6136Z"
        />
        <path d="M35.1343 75.8963C43.9221 75.8963 51.046 68.7792 51.046 59.9999C51.046 51.2206 43.9221 44.1035 35.1343 44.1035C26.3465 44.1035 19.2227 51.2206 19.2227 59.9999C19.2227 68.7792 26.3465 75.8963 35.1343 75.8963Z"
        />
        <path d="M35.5328 75.1795C44.3205 75.1795 51.4444 68.0625 51.4444 59.2831C51.4444 50.5038 44.3205 43.3867 35.5328 43.3867C26.745 43.3867 19.6211 50.5038 19.6211 59.2831C19.6211 68.0625 26.745 75.1795 35.5328 75.1795Z"
        />
        <path d="M35.9312 74.4627C44.719 74.4627 51.8428 67.3457 51.8428 58.5663C51.8428 49.787 44.719 42.6699 35.9312 42.6699C27.1434 42.6699 20.0195 49.787 20.0195 58.5663C20.0195 67.3457 27.1434 74.4627 35.9312 74.4627Z"
        />
        <path d="M36.3316 73.7449C45.1193 73.7449 52.2432 66.6279 52.2432 57.8486C52.2432 49.0692 45.1193 41.9521 36.3316 41.9521C27.5438 41.9521 20.4199 49.0692 20.4199 57.8486C20.4199 66.6279 27.5438 73.7449 36.3316 73.7449Z"
        />
        <path d="M36.7281 73.0282C45.5158 73.0282 52.6397 65.9111 52.6397 57.1318C52.6397 48.3524 45.5158 41.2354 36.7281 41.2354C27.9403 41.2354 20.8164 48.3524 20.8164 57.1318C20.8164 65.9111 27.9403 73.0282 36.7281 73.0282Z"
        />
        <path d="M37.1285 72.3504C45.9162 72.3504 53.0401 65.2334 53.0401 56.454C53.0401 47.6747 45.9162 40.5576 37.1285 40.5576C28.3407 40.5576 21.2168 47.6747 21.2168 56.454C21.2168 65.2334 28.3407 72.3504 37.1285 72.3504Z"
        />
        <path d="M37.5249 71.6336C46.3127 71.6336 53.4366 64.5166 53.4366 55.7372C53.4366 46.9579 46.3127 39.8408 37.5249 39.8408C28.7372 39.8408 21.6133 46.9579 21.6133 55.7372C21.6133 64.5166 28.7372 71.6336 37.5249 71.6336Z"
        />
        <path d="M37.9253 70.9163C46.7131 70.9163 53.837 63.7993 53.837 55.0199C53.837 46.2406 46.7131 39.1235 37.9253 39.1235C29.1376 39.1235 22.0137 46.2406 22.0137 55.0199C22.0137 63.7993 29.1376 70.9163 37.9253 70.9163Z"
        />
        <path d="M38.2847 70.3187C47.0725 70.3187 54.1964 63.2016 54.1964 54.4223C54.1964 45.6429 47.0725 38.5259 38.2847 38.5259C29.4969 38.5259 22.373 45.6429 22.373 54.4223C22.373 63.2016 29.4969 70.3187 38.2847 70.3187Z"
        />
        <path d="M38.6441 69.682C47.4318 69.682 54.5557 62.5649 54.5557 53.7856C54.5557 45.0062 47.4318 37.8892 38.6441 37.8892C29.8563 37.8892 22.7324 45.0062 22.7324 53.7856C22.7324 62.5649 29.8563 69.682 38.6441 69.682Z"
        />
        <path d="M38.9605 69.0838C47.7483 69.0838 54.8721 61.9668 54.8721 53.1874C54.8721 44.4081 47.7483 37.291 38.9605 37.291C30.1727 37.291 23.0488 44.4081 23.0488 53.1874C23.0488 61.9668 30.1727 69.0838 38.9605 69.0838Z"
        />
        <path d="M39.3199 68.4867C48.1076 68.4867 55.2315 61.3696 55.2315 52.5903C55.2315 43.8109 48.1076 36.6938 39.3199 36.6938C30.5321 36.6938 23.4082 43.8109 23.4082 52.5903C23.4082 61.3696 30.5321 68.4867 39.3199 68.4867Z"
        />
        <path d="M39.6402 67.8485C48.4279 67.8485 55.5518 60.7314 55.5518 51.9521C55.5518 43.1727 48.4279 36.0557 39.6402 36.0557C30.8524 36.0557 23.7285 43.1727 23.7285 51.9521C23.7285 60.7314 30.8524 67.8485 39.6402 67.8485Z"
        />
        <path d="M39.9976 67.2508C48.7854 67.2508 55.9092 60.1338 55.9092 51.3544C55.9092 42.5751 48.7854 35.458 39.9976 35.458C31.2098 35.458 24.0859 42.5751 24.0859 51.3544C24.0859 60.1338 31.2098 67.2508 39.9976 67.2508Z"
        />
        <path d="M40.3589 66.6532C49.1467 66.6532 56.2706 59.5361 56.2706 50.7568C56.2706 41.9774 49.1467 34.8604 40.3589 34.8604C31.5712 34.8604 24.4473 41.9774 24.4473 50.7568C24.4473 59.5361 31.5712 66.6532 40.3589 66.6532Z"
        />
        <path d="M40.6773 66.0159C49.465 66.0159 56.5889 58.8989 56.5889 50.1195C56.5889 41.3402 49.465 34.2231 40.6773 34.2231C31.8895 34.2231 24.7656 41.3402 24.7656 50.1195C24.7656 58.8989 31.8895 66.0159 40.6773 66.0159Z"
        />
        <path d="M41.0347 65.4183C49.8225 65.4183 56.9464 58.3012 56.9464 49.5219C56.9464 40.7425 49.8225 33.6255 41.0347 33.6255C32.2469 33.6255 25.123 40.7425 25.123 49.5219C25.123 58.3012 32.2469 65.4183 41.0347 65.4183Z"
        />
        <path d="M41.3941 64.8206C50.1818 64.8206 57.3057 57.7036 57.3057 48.9242C57.3057 40.1449 50.1818 33.0278 41.3941 33.0278C32.6063 33.0278 25.4824 40.1449 25.4824 48.9242C25.4824 57.7036 32.6063 64.8206 41.3941 64.8206Z"
        />
        <path d="M41.7144 64.1839C50.5022 64.1839 57.6261 57.0669 57.6261 48.2875C57.6261 39.5082 50.5022 32.3911 41.7144 32.3911C32.9266 32.3911 25.8027 39.5082 25.8027 48.2875C25.8027 57.0669 32.9266 64.1839 41.7144 64.1839Z"
        />
        <path d="M42.0738 63.5858C50.8615 63.5858 57.9854 56.4687 57.9854 47.6894C57.9854 38.91 50.8615 31.793 42.0738 31.793C33.286 31.793 26.1621 38.91 26.1621 47.6894C26.1621 56.4687 33.286 63.5858 42.0738 63.5858Z"
        />
        <path d="M42.3902 62.9886C51.1779 62.9886 58.3018 55.8716 58.3018 47.0922C58.3018 38.3129 51.1779 31.1958 42.3902 31.1958C33.6024 31.1958 26.4785 38.3129 26.4785 47.0922C26.4785 55.8716 33.6024 62.9886 42.3902 62.9886Z"
        />
        <path d="M42.7515 62.3504C51.5393 62.3504 58.6632 55.2333 58.6632 46.454C58.6632 37.6747 51.5393 30.5576 42.7515 30.5576C33.9637 30.5576 26.8398 37.6747 26.8398 46.454C26.8398 55.2333 33.9637 62.3504 42.7515 62.3504Z"
        />
        <path d="M43.1089 61.7533C51.8967 61.7533 59.0206 54.6362 59.0206 45.8568C59.0206 37.0775 51.8967 29.9604 43.1089 29.9604C34.3212 29.9604 27.1973 37.0775 27.1973 45.8568C27.1973 54.6362 34.3212 61.7533 43.1089 61.7533Z"
        />
        <path d="M43.4273 61.1156C52.215 61.1156 59.3389 53.9985 59.3389 45.2192C59.3389 36.4398 52.215 29.3228 43.4273 29.3228C34.6395 29.3228 27.5156 36.4398 27.5156 45.2192C27.5156 53.9985 34.6395 61.1156 43.4273 61.1156Z"
        />
        <path d="M43.7867 60.5184C52.5744 60.5184 59.6983 53.4013 59.6983 44.622C59.6983 35.8426 52.5744 28.7256 43.7867 28.7256C34.9989 28.7256 27.875 35.8426 27.875 44.622C27.875 53.4013 34.9989 60.5184 43.7867 60.5184Z"
        />
        <path d="M44.148 59.9208C52.9358 59.9208 60.0596 52.8037 60.0596 44.0243C60.0596 35.245 52.9358 28.1279 44.148 28.1279C35.3602 28.1279 28.2363 35.245 28.2363 44.0243C28.2363 52.8037 35.3602 59.9208 44.148 59.9208Z"
        />
        <path d="M44.4644 59.2825C53.2522 59.2825 60.376 52.1655 60.376 43.3862C60.376 34.6068 53.2522 27.4897 44.4644 27.4897C35.6766 27.4897 28.5527 34.6068 28.5527 43.3862C28.5527 52.1655 35.6766 59.2825 44.4644 59.2825Z"
        />
        <path d="M44.8218 58.6849C53.6096 58.6849 60.7335 51.5678 60.7335 42.7885C60.7335 34.0092 53.6096 26.8921 44.8218 26.8921C36.034 26.8921 28.9102 34.0092 28.9102 42.7885C28.9102 51.5678 36.034 58.6849 44.8218 58.6849Z"
        />
        <path d="M45.1421 58.0877C53.9299 58.0877 61.0538 50.9707 61.0538 42.1913C61.0538 33.412 53.9299 26.2949 45.1421 26.2949C36.3544 26.2949 29.2305 33.412 29.2305 42.1913C29.2305 50.9707 36.3544 58.0877 45.1421 58.0877Z"
        />
        <path d="M45.5035 57.45C54.2912 57.45 61.4151 50.333 61.4151 41.5536C61.4151 32.7743 54.2912 25.6572 45.5035 25.6572C36.7157 25.6572 29.5918 32.7743 29.5918 41.5536C29.5918 50.333 36.7157 57.45 45.5035 57.45Z"
        />
        <path d="M45.8609 56.8524C54.6486 56.8524 61.7725 49.7353 61.7725 40.956C61.7725 32.1766 54.6486 25.0596 45.8609 25.0596C37.0731 25.0596 29.9492 32.1766 29.9492 40.956C29.9492 49.7353 37.0731 56.8524 45.8609 56.8524Z"
        />
        <path d="M46.1792 56.2547C54.967 56.2547 62.0909 49.1376 62.0909 40.3583C62.0909 31.579 54.967 24.4619 46.1792 24.4619C37.3915 24.4619 30.2676 31.579 30.2676 40.3583C30.2676 49.1376 37.3915 56.2547 46.1792 56.2547Z"
        />
        <path d="M46.5386 55.6175C55.3264 55.6175 62.4503 48.5005 62.4503 39.7211C62.4503 30.9418 55.3264 23.8247 46.5386 23.8247C37.7508 23.8247 30.627 30.9418 30.627 39.7211C30.627 48.5005 37.7508 55.6175 46.5386 55.6175Z"
        />
        <path d="M46.898 55.0199C55.6857 55.0199 62.8096 47.9028 62.8096 39.1235C62.8096 30.3441 55.6857 23.2271 46.898 23.2271C38.1102 23.2271 30.9863 30.3441 30.9863 39.1235C30.9863 47.9028 38.1102 55.0199 46.898 55.0199Z"
        />
        <path d="M47.2163 54.4222C56.0041 54.4222 63.128 47.3051 63.128 38.5258C63.128 29.7465 56.0041 22.6294 47.2163 22.6294C38.4286 22.6294 31.3047 29.7465 31.3047 38.5258C31.3047 47.3051 38.4286 54.4222 47.2163 54.4222Z"
        />
        <path d="M47.5757 53.7845C56.3635 53.7845 63.4874 46.6674 63.4874 37.8881C63.4874 29.1087 56.3635 21.9917 47.5757 21.9917C38.788 21.9917 31.6641 29.1087 31.6641 37.8881C31.6641 46.6674 38.788 53.7845 47.5757 53.7845Z"
        />
        <path d="M47.8941 53.1868C56.6818 53.1868 63.8057 46.0698 63.8057 37.2904C63.8057 28.5111 56.6818 21.394 47.8941 21.394C39.1063 21.394 31.9824 28.5111 31.9824 37.2904C31.9824 46.0698 39.1063 53.1868 47.8941 53.1868Z"
        />
        <path d="M48.2535 52.5892C57.0412 52.5892 64.1651 45.4721 64.1651 36.6928C64.1651 27.9134 57.0412 20.7964 48.2535 20.7964C39.4657 20.7964 32.3418 27.9134 32.3418 36.6928C32.3418 45.4721 39.4657 52.5892 48.2535 52.5892Z"
        />
        <path d="M48.6109 51.952C57.3986 51.952 64.5225 44.8349 64.5225 36.0556C64.5225 27.2762 57.3986 20.1592 48.6109 20.1592C39.8231 20.1592 32.6992 27.2762 32.6992 36.0556C32.6992 44.8349 39.8231 51.952 48.6109 51.952Z"
        />
        <path d="M48.9292 51.3543C57.717 51.3543 64.8409 44.2373 64.8409 35.4579C64.8409 26.6786 57.717 19.5615 48.9292 19.5615C40.1415 19.5615 33.0176 26.6786 33.0176 35.4579C33.0176 44.2373 40.1415 51.3543 48.9292 51.3543Z"
        />
        <path d="M49.2906 50.7572C58.0783 50.7572 65.2022 43.6401 65.2022 34.8608C65.2022 26.0814 58.0783 18.9644 49.2906 18.9644C40.5028 18.9644 33.3789 26.0814 33.3789 34.8608C33.3789 43.6401 40.5028 50.7572 49.2906 50.7572Z"
        />
        <path d="M49.6499 50.1195C58.4377 50.1195 65.5616 43.0024 65.5616 34.2231C65.5616 25.4437 58.4377 18.3267 49.6499 18.3267C40.8622 18.3267 33.7383 25.4437 33.7383 34.2231C33.7383 43.0024 40.8622 50.1195 49.6499 50.1195Z"
        />
        <path d="M49.9664 49.5218C58.7541 49.5218 65.878 42.4048 65.878 33.6254C65.878 24.8461 58.7541 17.729 49.9664 17.729C41.1786 17.729 34.0547 24.8461 34.0547 33.6254C34.0547 42.4048 41.1786 49.5218 49.9664 49.5218Z"
        />
        <path d="M50.3277 48.9241C59.1154 48.9241 66.2393 41.8071 66.2393 33.0278C66.2393 24.2484 59.1154 17.1313 50.3277 17.1313C41.5399 17.1313 34.416 24.2484 34.416 33.0278C34.416 41.8071 41.5399 48.9241 50.3277 48.9241Z"
        />
        <path d="M50.648 48.2865C59.4358 48.2865 66.5596 41.1694 66.5596 32.3901C66.5596 23.6107 59.4358 16.4937 50.648 16.4937C41.8602 16.4937 34.7363 23.6107 34.7363 32.3901C34.7363 41.1694 41.8602 48.2865 50.648 48.2865Z"
        />
        <path d="M51.0035 47.6888C59.7912 47.6888 66.9151 40.5717 66.9151 31.7924C66.9151 23.0131 59.7912 15.896 51.0035 15.896C42.2157 15.896 35.0918 23.0131 35.0918 31.7924C35.0918 40.5717 42.2157 47.6888 51.0035 47.6888Z"
        />
        <path d="M51.3628 47.0912C60.1506 47.0912 67.2745 39.9741 67.2745 31.1947C67.2745 22.4154 60.1506 15.2983 51.3628 15.2983C42.5751 15.2983 35.4512 22.4154 35.4512 31.1947C35.4512 39.9741 42.5751 47.0912 51.3628 47.0912Z"
        />
        <path d="M51.6831 46.4539C60.4709 46.4539 67.5948 39.3369 67.5948 30.5575C67.5948 21.7782 60.4709 14.6611 51.6831 14.6611C42.8954 14.6611 35.7715 21.7782 35.7715 30.5575C35.7715 39.3369 42.8954 46.4539 51.6831 46.4539Z"
        />
        <path d="M52.0425 45.8563C60.8303 45.8563 67.9542 38.7392 67.9542 29.9599C67.9542 21.1805 60.8303 14.0635 52.0425 14.0635C43.2548 14.0635 36.1309 21.1805 36.1309 29.9599C36.1309 38.7392 43.2548 45.8563 52.0425 45.8563Z"
        />
        <path d="M52.398 45.2591C61.1858 45.2591 68.3096 38.1421 68.3096 29.3627C68.3096 20.5834 61.1858 13.4663 52.398 13.4663C43.6102 13.4663 36.4863 20.5834 36.4863 29.3627C36.4863 38.1421 43.6102 45.2591 52.398 45.2591Z"
        />
        <path d="M52.7202 44.6214C61.508 44.6214 68.6319 37.5044 68.6319 28.725C68.6319 19.9457 61.508 12.8286 52.7202 12.8286C43.9325 12.8286 36.8086 19.9457 36.8086 28.725C36.8086 37.5044 43.9325 44.6214 52.7202 44.6214Z"
        />
        <path d="M53.0796 44.0238C61.8674 44.0238 68.9913 36.9067 68.9913 28.1274C68.9913 19.348 61.8674 12.231 53.0796 12.231C44.2919 12.231 37.168 19.348 37.168 28.1274C37.168 36.9067 44.2919 44.0238 53.0796 44.0238Z"
        />
        <path d="M53.398 43.4261C62.1857 43.4261 69.3096 36.309 69.3096 27.5297C69.3096 18.7504 62.1857 11.6333 53.398 11.6333C44.6102 11.6333 37.4863 18.7504 37.4863 27.5297C37.4863 36.309 44.6102 43.4261 53.398 43.4261Z"
        />
        <path d="M53.7574 42.7889C62.5451 42.7889 69.669 35.6718 69.669 26.8925C69.669 18.1132 62.5451 10.9961 53.7574 10.9961C44.9696 10.9961 37.8457 18.1132 37.8457 26.8925C37.8457 35.6718 44.9696 42.7889 53.7574 42.7889Z"
        />
        <path d="M54.1167 42.1912C62.9045 42.1912 70.0284 35.0742 70.0284 26.2948C70.0284 17.5155 62.9045 10.3984 54.1167 10.3984C45.329 10.3984 38.2051 17.5155 38.2051 26.2948C38.2051 35.0742 45.329 42.1912 54.1167 42.1912Z"
        />
        <path d="M54.4351 41.5936C63.2229 41.5936 70.3468 34.4765 70.3468 25.6972C70.3468 16.9178 63.2229 9.80078 54.4351 9.80078C45.6473 9.80078 38.5234 16.9178 38.5234 25.6972C38.5234 34.4765 45.6473 41.5936 54.4351 41.5936Z"
        />
        <path d="M54.7925 40.9559C63.5803 40.9559 70.7042 33.8388 70.7042 25.0595C70.7042 16.2801 63.5803 9.16309 54.7925 9.16309C46.0047 9.16309 38.8809 16.2801 38.8809 25.0595C38.8809 33.8388 46.0047 40.9559 54.7925 40.9559Z"
        />
        <path d="M55.1538 40.3587C63.9416 40.3587 71.0655 33.2417 71.0655 24.4623C71.0655 15.683 63.9416 8.56592 55.1538 8.56592C46.3661 8.56592 39.2422 15.683 39.2422 24.4623C39.2422 33.2417 46.3661 40.3587 55.1538 40.3587Z"
        />
        <path d="M55.4742 39.7611C64.2619 39.7611 71.3858 32.644 71.3858 23.8647C71.3858 15.0853 64.2619 7.96826 55.4742 7.96826C46.6864 7.96826 39.5625 15.0853 39.5625 23.8647C39.5625 32.644 46.6864 39.7611 55.4742 39.7611Z"
        />
        <path d="M55.8316 39.1234C64.6193 39.1234 71.7432 32.0063 71.7432 23.227C71.7432 14.4476 64.6193 7.33057 55.8316 7.33057C47.0438 7.33057 39.9199 14.4476 39.9199 23.227C39.9199 32.0063 47.0438 39.1234 55.8316 39.1234Z"
        />
        <path d="M56.1499 38.5257C64.9377 38.5257 72.0616 31.4086 72.0616 22.6293C72.0616 13.85 64.9377 6.73291 56.1499 6.73291C47.3622 6.73291 40.2383 13.85 40.2383 22.6293C40.2383 31.4086 47.3622 38.5257 56.1499 38.5257Z"
        />
        <path d="M56.5074 37.9281C65.2951 37.9281 72.419 30.811 72.419 22.0317C72.419 13.2523 65.2951 6.13525 56.5074 6.13525C47.7196 6.13525 40.5957 13.2523 40.5957 22.0317C40.5957 30.811 47.7196 37.9281 56.5074 37.9281Z"
        />
        <path d="M56.8687 37.2908C65.6565 37.2908 72.7803 30.1738 72.7803 21.3945C72.7803 12.6151 65.6565 5.49805 56.8687 5.49805C48.0809 5.49805 40.957 12.6151 40.957 21.3945C40.957 30.1738 48.0809 37.2908 56.8687 37.2908Z"
        />
        <path d="M57.187 36.6932C65.9748 36.6932 73.0987 29.5761 73.0987 20.7968C73.0987 12.0175 65.9748 4.90039 57.187 4.90039C48.3993 4.90039 41.2754 12.0175 41.2754 20.7968C41.2754 29.5761 48.3993 36.6932 57.187 36.6932Z"
        />
        <path d="M57.5464 36.0955C66.3342 36.0955 73.4581 28.9785 73.4581 20.1991C73.4581 11.4198 66.3342 4.30273 57.5464 4.30273C48.7587 4.30273 41.6348 11.4198 41.6348 20.1991C41.6348 28.9785 48.7587 36.0955 57.5464 36.0955Z"
        />
        <path d="M57.9038 35.4578C66.6916 35.4578 73.8155 28.3408 73.8155 19.5614C73.8155 10.7821 66.6916 3.66504 57.9038 3.66504C49.1161 3.66504 41.9922 10.7821 41.9922 19.5614C41.9922 28.3408 49.1161 35.4578 57.9038 35.4578Z"
        />
        <path d="M58.2222 34.8607C67.01 34.8607 74.1339 27.7436 74.1339 18.9643C74.1339 10.1849 67.01 3.06787 58.2222 3.06787C49.4344 3.06787 42.3105 10.1849 42.3105 18.9643C42.3105 27.7436 49.4344 34.8607 58.2222 34.8607Z"
        />
        <path d="M58.5816 34.263C67.3693 34.263 74.4932 27.146 74.4932 18.3666C74.4932 9.58728 67.3693 2.47021 58.5816 2.47021C49.7938 2.47021 42.6699 9.58728 42.6699 18.3666C42.6699 27.146 49.7938 34.263 58.5816 34.263Z"
        />
        <path d="M58.8999 33.6258C67.6877 33.6258 74.8116 26.5087 74.8116 17.7294C74.8116 8.95007 67.6877 1.83301 58.8999 1.83301C50.1122 1.83301 42.9883 8.95007 42.9883 17.7294C42.9883 26.5087 50.1122 33.6258 58.8999 33.6258Z"
        />
        <path d="M59.2613 33.0277C68.049 33.0277 75.1729 25.9106 75.1729 17.1313C75.1729 8.35192 68.049 1.23486 59.2613 1.23486C50.4735 1.23486 43.3496 8.35192 43.3496 17.1313C43.3496 25.9106 50.4735 33.0277 59.2613 33.0277Z"
        />
        <path d="M59.6187 32.4305C68.4065 32.4305 75.5303 25.3134 75.5303 16.5341C75.5303 7.75475 68.4065 0.637695 59.6187 0.637695C50.8309 0.637695 43.707 7.75475 43.707 16.5341C43.707 25.3134 50.8309 32.4305 59.6187 32.4305Z"
        />
        <path d="M59.9371 31.7928C68.7248 31.7928 75.8487 24.6757 75.8487 15.8964C75.8487 7.11706 68.7248 0 59.9371 0C51.1493 0 44.0254 7.11706 44.0254 15.8964C44.0254 24.6757 51.1493 31.7928 59.9371 31.7928Z"
        />
        <path d="M60.9742 33.6258C69.7619 33.6258 76.8858 26.5087 76.8858 17.7294C76.8858 8.95007 69.7619 1.83301 60.9742 1.83301C52.1864 1.83301 45.0625 8.95007 45.0625 17.7294C45.0625 26.5087 52.1864 33.6258 60.9742 33.6258Z"
        />
        <path d="M62.0113 35.4578C70.799 35.4578 77.9229 28.3408 77.9229 19.5614C77.9229 10.7821 70.799 3.66504 62.0113 3.66504C53.2235 3.66504 46.0996 10.7821 46.0996 19.5614C46.0996 28.3408 53.2235 35.4578 62.0113 35.4578Z"
        />
        <path d="M63.0074 37.2508C71.7951 37.2508 78.919 30.1338 78.919 21.3544C78.919 12.5751 71.7951 5.45801 63.0074 5.45801C54.2196 5.45801 47.0957 12.5751 47.0957 21.3544C47.0957 30.1338 54.2196 37.2508 63.0074 37.2508Z"
        />
        <path d="M64.0464 39.0838C72.8342 39.0838 79.9581 31.9668 79.9581 23.1874C79.9581 14.4081 72.8342 7.29102 64.0464 7.29102C55.2587 7.29102 48.1348 14.4081 48.1348 23.1874C48.1348 31.9668 55.2587 39.0838 64.0464 39.0838Z"
        />
        <path d="M65.0796 40.9159C73.8674 40.9159 80.9913 33.7988 80.9913 25.0194C80.9913 16.2401 73.8674 9.12305 65.0796 9.12305C56.2919 9.12305 49.168 16.2401 49.168 25.0194C49.168 33.7988 56.2919 40.9159 65.0796 40.9159Z"
        />
        <path d="M66.0777 42.7088C74.8654 42.7088 81.9893 35.5918 81.9893 26.8124C81.9893 18.0331 74.8654 10.916 66.0777 10.916C57.2899 10.916 50.166 18.0331 50.166 26.8124C50.166 35.5918 57.2899 42.7088 66.0777 42.7088Z"
        />
        <path d="M67.1148 44.5418C75.9025 44.5418 83.0264 37.4248 83.0264 28.6454C83.0264 19.8661 75.9025 12.749 67.1148 12.749C58.327 12.749 51.2031 19.8661 51.2031 28.6454C51.2031 37.4248 58.327 44.5418 67.1148 44.5418Z"
        />
        <path d="M68.1558 46.3748C76.9436 46.3748 84.0675 39.2578 84.0675 30.4784C84.0675 21.6991 76.9436 14.582 68.1558 14.582C59.368 14.582 52.2441 21.6991 52.2441 30.4784C52.2441 39.2578 59.368 46.3748 68.1558 46.3748Z"
        />
        <path d="M69.1499 48.1668C77.9377 48.1668 85.0616 41.0498 85.0616 32.2704C85.0616 23.4911 77.9377 16.374 69.1499 16.374C60.3622 16.374 53.2383 23.4911 53.2383 32.2704C53.2383 41.0498 60.3622 48.1668 69.1499 48.1668Z"
        />
        <path d="M70.187 49.9998C78.9748 49.9998 86.0987 42.8828 86.0987 34.1034C86.0987 25.3241 78.9748 18.207 70.187 18.207C61.3993 18.207 54.2754 25.3241 54.2754 34.1034C54.2754 42.8828 61.3993 49.9998 70.187 49.9998Z"
        />
        <path d="M71.2242 51.8328C80.0119 51.8328 87.1358 44.7158 87.1358 35.9365C87.1358 27.1571 80.0119 20.04 71.2242 20.04C62.4364 20.04 55.3125 27.1571 55.3125 35.9365C55.3125 44.7158 62.4364 51.8328 71.2242 51.8328Z"
        />
        <path d="M72.2222 53.6258C81.01 53.6258 88.1339 46.5088 88.1339 37.7294C88.1339 28.9501 81.01 21.833 72.2222 21.833C63.4344 21.833 56.3105 28.9501 56.3105 37.7294C56.3105 46.5088 63.4344 53.6258 72.2222 53.6258Z"
        />
        <path d="M73.2574 55.4574C82.0451 55.4574 89.169 48.3403 89.169 39.561C89.169 30.7816 82.0451 23.6646 73.2574 23.6646C64.4696 23.6646 57.3457 30.7816 57.3457 39.561C57.3457 48.3403 64.4696 55.4574 73.2574 55.4574Z"
        />
        <path d="M74.2945 57.2508C83.0822 57.2508 90.2061 50.1337 90.2061 41.3544C90.2061 32.5751 83.0822 25.458 74.2945 25.458C65.5067 25.458 58.3828 32.5751 58.3828 41.3544C58.3828 50.1337 65.5067 57.2508 74.2945 57.2508Z"
        />
        <path d="M75.3296 59.0833C84.1174 59.0833 91.2413 51.9663 91.2413 43.1869C91.2413 34.4076 84.1174 27.2905 75.3296 27.2905C66.5419 27.2905 59.418 34.4076 59.418 43.1869C59.418 51.9663 66.5419 59.0833 75.3296 59.0833Z"
        />
        <path d="M76.3277 60.9163C85.1154 60.9163 92.2393 53.7993 92.2393 45.0199C92.2393 36.2406 85.1154 29.1235 76.3277 29.1235C67.5399 29.1235 60.416 36.2406 60.416 45.0199C60.416 53.7993 67.5399 60.9163 76.3277 60.9163Z"
        />
        <path d="M77.3667 62.7093C86.1545 62.7093 93.2784 55.5923 93.2784 46.8129C93.2784 38.0336 86.1545 30.9165 77.3667 30.9165C68.579 30.9165 61.4551 38.0336 61.4551 46.8129C61.4551 55.5923 68.579 62.7093 77.3667 62.7093Z"
        />
        <path d="M78.4019 64.5418C87.1897 64.5418 94.3136 57.4248 94.3136 48.6454C94.3136 39.8661 87.1897 32.749 78.4019 32.749C69.6141 32.749 62.4902 39.8661 62.4902 48.6454C62.4902 57.4248 69.6141 64.5418 78.4019 64.5418Z"
        />
        <path d="M79.398 66.3739C88.1857 66.3739 95.3096 59.2568 95.3096 50.4775C95.3096 41.6981 88.1857 34.5811 79.398 34.5811C70.6102 34.5811 63.4863 41.6981 63.4863 50.4775C63.4863 59.2568 70.6102 66.3739 79.398 66.3739Z"
        />
        <path d="M80.4331 68.1673C89.2209 68.1673 96.3448 61.0503 96.3448 52.2709C96.3448 43.4916 89.2209 36.3745 80.4331 36.3745C71.6454 36.3745 64.5215 43.4916 64.5215 52.2709C64.5215 61.0503 71.6454 68.1673 80.4331 68.1673Z"
        />
        <path d="M81.4742 69.9993C90.2619 69.9993 97.3858 62.8823 97.3858 54.1029C97.3858 45.3236 90.2619 38.2065 81.4742 38.2065C72.6864 38.2065 65.5625 45.3236 65.5625 54.1029C65.5625 62.8823 72.6864 69.9993 81.4742 69.9993Z"
        />
        <path d="M82.4703 71.8328C91.258 71.8328 98.3819 64.7158 98.3819 55.9365C98.3819 47.1571 91.258 40.04 82.4703 40.04C73.6825 40.04 66.5586 47.1571 66.5586 55.9365C66.5586 64.7158 73.6825 71.8328 82.4703 71.8328Z"
        />
        <path d="M83.5074 73.6253C92.2951 73.6253 99.419 66.5083 99.419 57.7289C99.419 48.9496 92.2951 41.8325 83.5074 41.8325C74.7196 41.8325 67.5957 48.9496 67.5957 57.7289C67.5957 66.5083 74.7196 73.6253 83.5074 73.6253Z"
        />
        <path d="M84.5425 75.4583C93.3303 75.4583 100.454 68.3413 100.454 59.5619C100.454 50.7826 93.3303 43.6655 84.5425 43.6655C75.7547 43.6655 68.6309 50.7826 68.6309 59.5619C68.6309 68.3413 75.7547 75.4583 84.5425 75.4583Z"
        />
        <path d="M85.5406 77.2904C94.3283 77.2904 101.452 70.1733 101.452 61.3939C101.452 52.6146 94.3283 45.4976 85.5406 45.4976C76.7528 45.4976 69.6289 52.6146 69.6289 61.3939C69.6289 70.1733 76.7528 77.2904 85.5406 77.2904Z"
        />
        <path d="M86.5777 79.0833C95.3655 79.0833 102.489 71.9663 102.489 63.1869C102.489 54.4076 95.3655 47.2905 86.5777 47.2905C77.7899 47.2905 70.666 54.4076 70.666 63.1869C70.666 71.9663 77.7899 79.0833 86.5777 79.0833Z"
        />
        <path d="M87.6148 80.9158C96.4026 80.9158 103.526 73.7988 103.526 65.0195C103.526 56.2401 96.4026 49.123 87.6148 49.123C78.827 49.123 71.7031 56.2401 71.7031 65.0195C71.7031 73.7988 78.827 80.9158 87.6148 80.9158Z"
        />
        <path d="M88.6109 82.7489C97.3986 82.7489 104.523 75.6318 104.523 66.8524C104.523 58.0731 97.3986 50.9561 88.6109 50.9561C79.8231 50.9561 72.6992 58.0731 72.6992 66.8524C72.6992 75.6318 79.8231 82.7489 88.6109 82.7489Z"
        />
        <path d="M89.646 84.5418C98.4338 84.5418 105.558 77.4248 105.558 68.6454C105.558 59.8661 98.4338 52.749 89.646 52.749C80.8583 52.749 73.7344 59.8661 73.7344 68.6454C73.7344 77.4248 80.8583 84.5418 89.646 84.5418Z"
        />
        <path d="M90.6851 86.3743C99.4729 86.3743 106.597 79.2573 106.597 70.478C106.597 61.6986 99.4729 54.5815 90.6851 54.5815C81.8973 54.5815 74.7734 61.6986 74.7734 70.478C74.7734 79.2573 81.8973 86.3743 90.6851 86.3743Z"
        />
        <path d="M91.6831 88.2069C100.471 88.2069 107.595 81.0898 107.595 72.3105C107.595 63.5311 100.471 56.4141 91.6831 56.4141C82.8954 56.4141 75.7715 63.5311 75.7715 72.3105C75.7715 81.0898 82.8954 88.2069 91.6831 88.2069Z"
        />
        <path d="M92.7183 89.9999C101.506 89.9999 108.63 82.8828 108.63 74.1034C108.63 65.3241 101.506 58.207 92.7183 58.207C83.9305 58.207 76.8066 65.3241 76.8066 74.1034C76.8066 82.8828 83.9305 89.9999 92.7183 89.9999Z"
        />
        <path d="M93.7554 91.8324C102.543 91.8324 109.667 84.7153 109.667 75.9359C109.667 67.1566 102.543 60.0396 93.7554 60.0396C84.9676 60.0396 77.8438 67.1566 77.8438 75.9359C77.8438 84.7153 84.9676 91.8324 93.7554 91.8324Z"
        />
        <path d="M94.7515 93.6248C103.539 93.6248 110.663 86.5078 110.663 77.7284C110.663 68.9491 103.539 61.832 94.7515 61.832C85.9637 61.832 78.8398 68.9491 78.8398 77.7284C78.8398 86.5078 85.9637 93.6248 94.7515 93.6248Z"
        />
        <path d="M95.7886 95.4578C104.576 95.4578 111.7 88.3408 111.7 79.5614C111.7 70.7821 104.576 63.665 95.7886 63.665C87.0008 63.665 79.877 70.7821 79.877 79.5614C79.877 88.3408 87.0008 95.4578 95.7886 95.4578Z"
        />
        <path d="M96.8257 97.2908C105.613 97.2908 112.737 90.1738 112.737 81.3944C112.737 72.6151 105.613 65.498 96.8257 65.498C88.038 65.498 80.9141 72.6151 80.9141 81.3944C80.9141 90.1738 88.038 97.2908 96.8257 97.2908Z"
        />
        <path d="M97.8218 99.0838C106.61 99.0838 113.733 91.9667 113.733 83.1874C113.733 74.4081 106.61 67.291 97.8218 67.291C89.0341 67.291 81.9102 74.4081 81.9102 83.1874C81.9102 91.9667 89.0341 99.0838 97.8218 99.0838Z"
        />
        <path d="M98.8609 100.916C107.649 100.916 114.773 93.7988 114.773 85.0195C114.773 76.2401 107.649 69.123 98.8609 69.123C90.0731 69.123 82.9492 76.2401 82.9492 85.0195C82.9492 93.7988 90.0731 100.916 98.8609 100.916Z"
        />
        <path d="M99.896 102.749C108.684 102.749 115.808 95.6318 115.808 86.8525C115.808 78.0731 108.684 70.9561 99.896 70.9561C91.1083 70.9561 83.9844 78.0731 83.9844 86.8525C83.9844 95.6318 91.1083 102.749 99.896 102.749Z"
        />
        <path d="M100.894 104.542C109.682 104.542 116.806 97.4248 116.806 88.6454C116.806 79.8661 109.682 72.749 100.894 72.749C92.1063 72.749 84.9824 79.8661 84.9824 88.6454C84.9824 97.4248 92.1063 104.542 100.894 104.542Z"
        />
        <path d="M101.931 106.374C110.719 106.374 117.843 99.2568 117.843 90.4774C117.843 81.6981 110.719 74.5811 101.931 74.5811C93.1434 74.5811 86.0195 81.6981 86.0195 90.4774C86.0195 99.2568 93.1434 106.374 101.931 106.374Z"
        />
        <path d="M102.966 108.207C111.754 108.207 118.878 101.09 118.878 92.311C118.878 83.5316 111.754 76.4146 102.966 76.4146C94.1786 76.4146 87.0547 83.5316 87.0547 92.311C87.0547 101.09 94.1786 108.207 102.966 108.207Z"
        />
        <path d="M104.005 110C112.793 110 119.917 102.883 119.917 94.1039C119.917 85.3246 112.793 78.2075 104.005 78.2075C95.2176 78.2075 88.0938 85.3246 88.0938 94.1039C88.0938 102.883 95.2176 110 104.005 110Z"
        />
    </g>
</svg>
