<!--
  - The MIT License (MIT)
  -
  - Copyright (c) 2015-2022 Elior "Mallowigi" Boukhobza
  -
  - Permission is hereby granted, free of charge, to any person obtaining a copy
  - of this software and associated documentation files (the "Software"), to deal
  - in the Software without restriction, including without limitation the rights
  - to use, copy, modify, merge, publish, distribute, sublicense, and/or sell
  - copies of the Software, and to permit persons to whom the Software is
  - furnished to do so, subject to the following conditions:
  -
  - The above copyright notice and this permission notice shall be included in all
  - copies or substantial portions of the Software.
  -
  - THE SOFTWARE IS PROVIDED "AS IS", WITHOUT WARRANTY OF ANY KIND, EXPRESS OR
  - IMPLIED, INCLUDING BUT NOT LIMITED TO THE WARRANTIES OF MERCHANTABILITY,
  - FITNESS FOR A PARTICULAR PURPOSE AND NONINFRINGEMENT. IN NO EVENT SHALL THE
  - AUTHORS OR COPYRIGHT HOLDERS BE LIABLE FOR ANY CLAIM, DAMAGES OR OTHER
  - LIABILITY, WHETHER IN AN ACTION OF CONTRACT, TORT OR OTHERWISE, ARISING FROM,
  - OUT OF OR IN CONNECTION WITH THE SOFTWARE OR THE USE OR OTHER DEALINGS IN THE
  - SOFTWARE.
  -
  -
  -->

<svg big="true" xmlns="http://www.w3.org/2000/svg" viewBox="0 0 32 32" width="16px" height="16px">
    <g fill="#de9d2e" iconColor="LicenseBat">
        <path d="M22.652,3.474,18.658,7.822l0,0-.055.055-.6.656a7.2,7.2,0,1,1-4.006,0l-.6-.656-.055-.055,0,0L9.348,3.474a13.409,13.409,0,1,0,13.3,0Z"/>
        <path d="M24.1,23.839a5.287,5.287,0,0,1-5-7.011,2.1,2.1,0,0,1-1.6.688,2.153,2.153,0,0,1-1.417-.507c-.026.023-.054-.065-.082-.044-.028-.021-.056.067-.082.044a2.153,2.153,0,0,1-1.417.507,2.1,2.1,0,0,1-1.6-.688,5.287,5.287,0,0,1-7.595,6.329,13.334,13.334,0,0,0,10.664,5.315h.054a13.334,13.334,0,0,0,10.664-5.315A5.264,5.264,0,0,1,24.1,23.839Z"/>
    </g>
</svg>
