<!--
  - The MIT License (MIT)
  -
  - Copyright (c) 2015-2022 Elior "Mallowigi" Boukhobza
  -
  - Permission is hereby granted, free of charge, to any person obtaining a copy
  - of this software and associated documentation files (the "Software"), to deal
  - in the Software without restriction, including without limitation the rights
  - to use, copy, modify, merge, publish, distribute, sublicense, and/or sell
  - copies of the Software, and to permit persons to whom the Software is
  - furnished to do so, subject to the following conditions:
  -
  - The above copyright notice and this permission notice shall be included in all
  - copies or substantial portions of the Software.
  -
  - THE SOFTWARE IS PROVIDED "AS IS", WITHOUT WARRANTY OF ANY KIND, EXPRESS OR
  - IMPLIED, INCLUDING BUT NOT LIMITED TO THE WARRANTIES OF MERCHANTABILITY,
  - FITNESS FOR A PARTICULAR PURPOSE AND NONINFRINGEMENT. IN NO EVENT SHALL THE
  - AUTHORS OR COPYRIGHT HOLDERS BE LIABLE FOR ANY CLAIM, DAMAGES OR OTHER
  - LIABILITY, WHETHER IN AN ACTION OF CONTRACT, TORT OR OTHERWISE, ARISING FROM,
  - OUT OF OR IN CONNECTION WITH THE SOFTWARE OR THE USE OR OTHER DEALINGS IN THE
  - SOFTWARE.
  -
  -
  -->

<svg big="true" version="1.1" xmlns="http://www.w3.org/2000/svg" viewBox="-6 0 200 180" width="16px" height="16px">
    <g fill="#4161f3" iconColor="Mapbox">
        <path d="M93.9,1.1C44.8,1.1,5,40.9,5,90s39.8,88.9,88.9,88.9s88.9-39.8,88.9-88.9C182.8,40.9,143,1.1,93.9,1.1z M136.1,111.8
			c-30.4,30.4-84.7,20.7-84.7,20.7s-9.8-54.2,20.7-84.7C89,30.9,117,31.6,134.7,49.2S153,94.9,136.1,111.8L136.1,111.8z"/>
        <polygon
                points="104.1,53.2 95.4,71.1 77.5,79.8 95.4,88.5 104.1,106.4 112.8,88.5 130.7,79.8 112.8,71.1 		"/>
    </g>
</svg>
