<!--
  - The MIT License (MIT)
  -
  - Copyright (c) 2015-2023 Elior "Mallowigi" Boukhobza
  -
  - Permission is hereby granted, free of charge, to any person obtaining a copy
  - of this software and associated documentation files (the "Software"), to deal
  - in the Software without restriction, including without limitation the rights
  - to use, copy, modify, merge, publish, distribute, sublicense, and/or sell
  - copies of the Software, and to permit persons to whom the Software is
  - furnished to do so, subject to the following conditions:
  -
  - The above copyright notice and this permission notice shall be included in all
  - copies or substantial portions of the Software.
  -
  - THE SOFTWARE IS PROVIDED "AS IS", WITHOUT WARRANTY OF ANY KIND, EXPRESS OR
  - IMPLIED, INCLUDING BUT NOT LIMITED TO THE WARRANTIES OF MERCHANTABILITY,
  - FITNESS FOR A PARTICULAR PURPOSE AND NONINFRINGEMENT. IN NO EVENT SHALL THE
  - AUTHORS OR COPYRIGHT HOLDERS BE LIABLE FOR ANY CLAIM, DAMAGES OR OTHER
  - LIABILITY, WHETHER IN AN ACTION OF CONTRACT, TORT OR OTHERWISE, ARISING FROM,
  - OUT OF OR IN CONNECTION WITH THE SOFTWARE OR THE USE OR OTHER DEALINGS IN THE
  - SOFTWARE.
  -
  -->

<svg big="true" xmlns="http://www.w3.org/2000/svg" width="16px" height="16px"
     viewBox="0 0 264 140">
    <g fill="#e6a345" iconColor="Master UI">
        <path d="M627.515,186.018c-6.912-12.234-12.726-14.051-18.394-14.051-8.322,0-14.105,7.694-17.8,14.522L576.555,216.8l4.021,6.6a55.07,55.07,0,0,0,74.1,23.251l3.836-2Z"
              transform="translate(-394.275 -109.401)"/>
        <path d="M547.162,186.018c6.912-12.234,12.726-14.051,18.4-14.051,8.319,0,14.1,7.694,17.8,14.522L598.122,216.8l-4.02,6.6A55.07,55.07,0,0,1,520,246.649l-3.836-2Z"
              transform="translate(-516.166 -109.401)"/>
        <path d="M690.487,167.75c-10.764-21.712-43.073-22.2-54.024-.329L620.55,197.9l-15.916-30.477c-10.948-21.875-43.257-21.383-54.024.329l-20.7,40.058c9.828-11.156,23.61-4.582,29.6,6.77l22.33,41.1,11.422,21.841a30.272,30.272,0,0,0,13.006,13.233c4.38,2.285,11.355,3.411,14.28,3.411s9.9-1.126,14.28-3.411a30.28,30.28,0,0,0,13-13.233l11.422-21.841,22.33-41.1c6-11.352,19.777-17.926,29.6-6.77Z"
              transform="translate(-488.431 -151.239)"/>
    </g>
</svg>
