<!--
  - The MIT License (MIT)
  -
  - Copyright (c) 2015-2022 Elior "Mallowigi" Boukhobza
  -
  - Permission is hereby granted, free of charge, to any person obtaining a copy
  - of this software and associated documentation files (the "Software"), to deal
  - in the Software without restriction, including without limitation the rights
  - to use, copy, modify, merge, publish, distribute, sublicense, and/or sell
  - copies of the Software, and to permit persons to whom the Software is
  - furnished to do so, subject to the following conditions:
  -
  - The above copyright notice and this permission notice shall be included in all
  - copies or substantial portions of the Software.
  -
  - THE SOFTWARE IS PROVIDED "AS IS", WITHOUT WARRANTY OF ANY KIND, EXPRESS OR
  - IMPLIED, INCLUDING BUT NOT LIMITED TO THE WARRANTIES OF MERCHANTABILITY,
  - FITNESS FOR A PARTICULAR PURPOSE AND NONINFRINGEMENT. IN NO EVENT SHALL THE
  - AUTHORS OR COPYRIGHT HOLDERS BE LIABLE FOR ANY CLAIM, DAMAGES OR OTHER
  - LIABILITY, WHETHER IN AN ACTION OF CONTRACT, TORT OR OTHERWISE, ARISING FROM,
  - OUT OF OR IN CONNECTION WITH THE SOFTWARE OR THE USE OR OTHER DEALINGS IN THE
  - SOFTWARE.
  -
  -
  -->

<svg big="true" version="1.1" xmlns="http://www.w3.org/2000/svg" viewBox="0 0 512 512" width="16px" height="16px">
    <path fill="#40b9ae" iconColor="Max"
          d="M256,0C114.6151123,0,0,114.6151123,0,256s114.6151123,256,256,256s256-114.6151123,256-256S397.3848877,0,256,0z M342.8681641,156.7749023l-74.7978516,52.0126953l-21.6948242-31.1982422l74.7973633-52.0126953L342.8681641,156.7749023z M80.8198242,180.0927734l74.7973633-52.012207l21.6943359,31.1982422l-74.7973633,52.012207L80.8198242,180.0927734z M164.0673828,179.4667969l74.7973633-52.012207l21.6948242,31.1982422l-74.7978516,52.012207L164.0673828,179.4667969z M264.0703125,449.7880859l-21.6948242-31.1992188l74.7973633-52.0126953l21.6953125,31.1992188L264.0703125,449.7880859z M292.7373047,369.7880859l-21.6953125-31.1992188l74.796875-52.0126953l21.6953125,31.1992188L292.7373047,369.7880859z M321.7373047,289.4541016l-21.6953125-31.1992188l74.796875-52.0117188l21.6953125,31.1982422L321.7373047,289.4541016z M351.7373047,208.7875977l-21.6953125-31.1982422l74.796875-52.0126953l21.6953125,31.1982422L351.7373047,208.7875977z"/>
</svg>
