<!--
  - The MIT License (MIT)
  -
  - Copyright (c) 2015-2022 Elior "Mallowigi" Boukhobza
  -
  - Permission is hereby granted, free of charge, to any person obtaining a copy
  - of this software and associated documentation files (the "Software"), to deal
  - in the Software without restriction, including without limitation the rights
  - to use, copy, modify, merge, publish, distribute, sublicense, and/or sell
  - copies of the Software, and to permit persons to whom the Software is
  - furnished to do so, subject to the following conditions:
  -
  - The above copyright notice and this permission notice shall be included in all
  - copies or substantial portions of the Software.
  -
  - THE SOFTWARE IS PROVIDED "AS IS", WITHOUT WARRANTY OF ANY KIND, EXPRESS OR
  - IMPLIED, INCLUDING BUT NOT LIMITED TO THE WARRANTIES OF MERCHANTABILITY,
  - FITNESS FOR A PARTICULAR PURPOSE AND NONINFRINGEMENT. IN NO EVENT SHALL THE
  - AUTHORS OR COPYRIGHT HOLDERS BE LIABLE FOR ANY CLAIM, DAMAGES OR OTHER
  - LIABILITY, WHETHER IN AN ACTION OF CONTRACT, TORT OR OTHERWISE, ARISING FROM,
  - OUT OF OR IN CONNECTION WITH THE SOFTWARE OR THE USE OR OTHER DEALINGS IN THE
  - SOFTWARE.
  -
  -
  -->

<svg big="true" version="1.1" xmlns="http://www.w3.org/2000/svg" width="16px" height="16px" viewBox="0 0 512 512"
     preserveAspectRatio="xMidYMid meet">
    <g fill="#AC7B69" iconColor="Meteor">
        <path d="M0 4.991l438.476 464.452c0 0 14.938 10.536 26.361-1.756s2.636-24.584 2.636-24.584l-467.473-438.113z"></path>
        <path d="M138.836 48.89l333.909 359.972c0 0 14.938 10.536 26.361-1.756s2.636-24.584 2.636-24.584l-362.907-333.633z"></path>
        <path d="M41.3 142.834l333.909 359.972c0 0 14.938 10.536 26.361-1.756s2.636-24.584 2.636-24.584l-362.906-333.633z"></path>
        <path d="M256.204 86.644l233.282 251.491c0 0 10.437 7.361 18.417-1.227s1.841-17.175 1.841-17.175l-253.542-233.089z"></path>
        <path d="M73.433 251.703l233.283 251.491c0 0 10.437 7.361 18.417-1.227s1.841-17.175 1.841-17.175l-253.542-233.089z"></path>
        <path d="M376.087 141.078l105.731 114.331c0 0 5.163 3.449 9.111-0.575s0.911-8.048 0.911-8.048l-115.753-105.708z"></path>
        <path d="M131.806 367.597l105.732 114.331c0 0 5.162 3.449 9.111-0.575s0.911-8.048 0.911-8.048l-115.753-105.708z"></path>
    </g>
</svg>
