<!--
  - The MIT License (MIT)
  -
  - Copyright (c) 2015-2022 Elior "Mallowigi" Boukhobza
  -
  - Permission is hereby granted, free of charge, to any person obtaining a copy
  - of this software and associated documentation files (the "Software"), to deal
  - in the Software without restriction, including without limitation the rights
  - to use, copy, modify, merge, publish, distribute, sublicense, and/or sell
  - copies of the Software, and to permit persons to whom the Software is
  - furnished to do so, subject to the following conditions:
  -
  - The above copyright notice and this permission notice shall be included in all
  - copies or substantial portions of the Software.
  -
  - THE SOFTWARE IS PROVIDED "AS IS", WITHOUT WARRANTY OF ANY KIND, EXPRESS OR
  - IMPLIED, INCLUDING BUT NOT LIMITED TO THE WARRANTIES OF MERCHANTABILITY,
  - FITNESS FOR A PARTICULAR PURPOSE AND NONINFRINGEMENT. IN NO EVENT SHALL THE
  - AUTHORS OR COPYRIGHT HOLDERS BE LIABLE FOR ANY CLAIM, DAMAGES OR OTHER
  - LIABILITY, WHETHER IN AN ACTION OF CONTRACT, TORT OR OTHERWISE, ARISING FROM,
  - OUT OF OR IN CONNECTION WITH THE SOFTWARE OR THE USE OR OTHER DEALINGS IN THE
  - SOFTWARE.
  -
  -
  -->

<svg big="true" version="1.1" xmlns="http://www.w3.org/2000/svg" viewBox="0 0 512 512" width="16px" height="16px">
    <path fill="#32ebb1" iconColor="Moleculer"
          d="M177.2494049,263.4219971l-60.2089996,22.0276184c-21.8172226-34.9677277-73.4488678-40.6597595-101.8991547-7.3166809c-31.5608063,36.9886475-11.1207304,94.5075684,36.703949,103.2855225c45.1600037,8.2888794,83.0350037-32.7007141,73.4224396-75.828949l57.7795258-25.364563c19.9478302,41.1204224,74.5525055,55.9733276,112.6977386,26.6079407l48.4717102,46.1405334c-36.165802,52.3244934-8.3927612,127.5389404,56.3424683,141.5109558c68.9119568,14.8734741,128.4867554-50.7094727,106.9773865-117.7660522c-20.0609436-62.540863-96.7427673-83.0016174-145.436676-43.1401367l-51.5568237-41.7801819c24.9373779-33.7103577,16.4196777-82.42836-17.9443054-105.947876l25.6650696-61.6500244c36.8445435,7.7111359,71.9315796-24.2548828,65.387207-63.0148659c-7.0238342-41.599411-56.7806702-60.0842628-89.3474121-33.1929398c-30.6661682,25.3221111-24.6180725,73.1459274,9.2471313,90.9231415l-30.2838745,57.4536743C218.8892059,159.4778595,165.7509766,204.2189331,177.2494049,263.4219971z"/>
</svg>
