<!--
  - The MIT License (MIT)
  -
  - Copyright (c) 2015-2022 Elior "Mallowigi" Boukhobza
  -
  - Permission is hereby granted, free of charge, to any person obtaining a copy
  - of this software and associated documentation files (the "Software"), to deal
  - in the Software without restriction, including without limitation the rights
  - to use, copy, modify, merge, publish, distribute, sublicense, and/or sell
  - copies of the Software, and to permit persons to whom the Software is
  - furnished to do so, subject to the following conditions:
  -
  - The above copyright notice and this permission notice shall be included in all
  - copies or substantial portions of the Software.
  -
  - THE SOFTWARE IS PROVIDED "AS IS", WITHOUT WARRANTY OF ANY KIND, EXPRESS OR
  - IMPLIED, INCLUDING BUT NOT LIMITED TO THE WARRANTIES OF MERCHANTABILITY,
  - FITNESS FOR A PARTICULAR PURPOSE AND NONINFRINGEMENT. IN NO EVENT SHALL THE
  - AUTHORS OR COPYRIGHT HOLDERS BE LIABLE FOR ANY CLAIM, DAMAGES OR OTHER
  - LIABILITY, WHETHER IN AN ACTION OF CONTRACT, TORT OR OTHERWISE, ARISING FROM,
  - OUT OF OR IN CONNECTION WITH THE SOFTWARE OR THE USE OR OTHER DEALINGS IN THE
  - SOFTWARE.
  -
  -
  -->

<svg big="true" version="1.0" xmlns="http://www.w3.org/2000/svg" width="16px" height="16px" viewBox="180 -500 400 200"
     preserveAspectRatio="xMidYMid meet">

    <g transform="scale(0.200000,-0.200000)" fill="#cb0000" iconColor="MyBatis">
        <path d="M1575 2980 c-16 -11 -30 -24 -29 -30 1 -5 2 -16 3 -24 0 -8 12 -28 26 -44 22 -27 31 -30 112 -36 108 -9 133 -23 133 -74 -1 -31 -3 -34 -13 -21 -33 42 -68 54 -166 53 -80 0 -107 -5 -165 -27 -112 -44 -140 -35 -186 65 l-22 48 -29 -21 c-35 -25 -36 -36 -4 -99 44 -86 83 -98 181 -53 52 24 72 27 164 27 126 1 155 -12 165 -71 9 -54 35 -111 72 -160 18 -24 28 -43 23 -43 -16 0 -288 77 -354 100 -33 11 -63 17 -67 13 -10 -11 8 -126 26 -169 25 -60 24 -61 -67 -52 -46 5 -118 14 -160 21 l-78 13 0 -23 c0 -74 87 -221 197 -334 l74 -76 -36 -31 c-89 -79 -294 -197 -427 -247 -27 -10 -48 -21 -48 -25 0 -5 32 -38 72 -75 168 -155 398 -272 630 -319 118 -24 391 -22 494 4 155 40 294 124 397 243 140 161 238 358 282 571 19 94 20 96 48 97 12 0 31 4 42 8 18 7 16 10 -18 27 l-38 20 56 18 c31 10 54 20 50 24 -3 3 -29 13 -57 22 l-52 15 -17 72 c-24 96 -58 160 -123 230 -97 105 -210 149 -360 141 -137 -8 -229 -48 -337 -145 l-37 -33 -17 42 c-11 28 -16 69 -16 120 1 129 -11 142 -136 153 -109 10 -112 11 -133 60 -11 25 -21 45 -22 45 -2 0 -16 -9 -33 -20z m1038 -537 l32 -17 -44 -6 c-45 -7 -71 -29 -71 -61 0 -59 67 -109 124 -92 40 11 63 55 47 89 -6 13 -7 24 -2 24 16 0 22 -53 10 -82 -14 -33 -55 -58 -97 -58 -44 0 -112 41 -133 80 -26 48 -24 77 10 111 34 34 75 38 124 12z m66 -62 c8 -14 7 -22 -3 -30 -18 -15 -46 -3 -46 18 0 35 33 43 49 12z"/>
    </g>
</svg>
