<!--
  - The MIT License (MIT)
  -
  - Copyright (c) 2015-2022 Elior "Mallowigi" Boukhobza
  -
  - Permission is hereby granted, free of charge, to any person obtaining a copy
  - of this software and associated documentation files (the "Software"), to deal
  - in the Software without restriction, including without limitation the rights
  - to use, copy, modify, merge, publish, distribute, sublicense, and/or sell
  - copies of the Software, and to permit persons to whom the Software is
  - furnished to do so, subject to the following conditions:
  -
  - The above copyright notice and this permission notice shall be included in all
  - copies or substantial portions of the Software.
  -
  - THE SOFTWARE IS PROVIDED "AS IS", WITHOUT WARRANTY OF ANY KIND, EXPRESS OR
  - IMPLIED, INCLUDING BUT NOT LIMITED TO THE WARRANTIES OF MERCHANTABILITY,
  - FITNESS FOR A PARTICULAR PURPOSE AND NONINFRINGEMENT. IN NO EVENT SHALL THE
  - AUTHORS OR COPYRIGHT HOLDERS BE LIABLE FOR ANY CLAIM, DAMAGES OR OTHER
  - LIABILITY, WHETHER IN AN ACTION OF CONTRACT, TORT OR OTHERWISE, ARISING FROM,
  - OUT OF OR IN CONNECTION WITH THE SOFTWARE OR THE USE OR OTHER DEALINGS IN THE
  - SOFTWARE.
  -
  -
  -->

<svg big="true" version="1.1" xmlns="http://www.w3.org/2000/svg" viewBox="0 0 512 512" width="16px" height="16px">
    <path fill="#278b2e" iconColor="N64"
          d="M444.7156372,431.479248L335.3509216,286.0390625v192.3756104L265.9577637,512V220.9859314l73.9881592-29.0537567l112.16745,149.7265167V139.627655L512,117.5007401V404.269104L444.7156372,431.479248z M123.5102692,417.2346802l-39.2408829-73.2868958v92.3626709L123.5102692,417.2346802z M245.1392822,512V220.9859314l-72.171463-29.0537567v144.990921L68.1975632,136.2368469L0,109.5177917v297.4548035l67.9049072,29.3378601V274.1791992l104.7849274,206.8273621L245.1392822,512z M435.4846191,439.8357544l-87.1033325-114.8162231v47.8619385l32.7663879,44.8206177L435.4846191,439.8357544z M256.4924622,126.5887604l74.585022,28.9041748l17.0643616-28.9041748V38.3357162l-69.0577698,26.2471619l-22.5916138,41.2351608V126.5887604z M217.5288239,141.8869934l41.2068939-77.4577866l-63.025589-26.6393661l-30.2840118,56.0329056l27.749649,58.1336288L217.5288239,141.8869934z M256.4924622,202.8586731l74.1757812-28.7259979l-74.1757812-30.7659454l-74.1758118,32.8059998L256.4924622,202.8586731z M69.9897385,65.7072296L0,93.8227463l79.0240173,27.4652557l65.105545-27.4652557L69.9897385,65.7072296z M337.4726868,26.2897243L271.315918,0l-66.1528625,25.9679756l66.1567688,26.2897224L337.4726868,26.2897243z M375.3582153,100.431076l68.6703186,25.2617874L512,100.431076l-63.0273132-25.2627869L375.3582153,100.431076z M180.0517731,156.4954834l-23.868576-47.5385056l-66.9021378,26.4650345l68.7461777,132.1033173V166.6898804L180.0517731,156.4954834z M375.3582153,115.9198914l-32.0124817,50.5443573l93.5728455,133.134079V139.627655L375.3582153,115.9198914z"/>
</svg>
