<!--
  - The MIT License (MIT)
  -
  - Copyright (c) 2015-2022 Elior "Mallowigi" Boukhobza
  -
  - Permission is hereby granted, free of charge, to any person obtaining a copy
  - of this software and associated documentation files (the "Software"), to deal
  - in the Software without restriction, including without limitation the rights
  - to use, copy, modify, merge, publish, distribute, sublicense, and/or sell
  - copies of the Software, and to permit persons to whom the Software is
  - furnished to do so, subject to the following conditions:
  -
  - The above copyright notice and this permission notice shall be included in all
  - copies or substantial portions of the Software.
  -
  - THE SOFTWARE IS PROVIDED "AS IS", WITHOUT WARRANTY OF ANY KIND, EXPRESS OR
  - IMPLIED, INCLUDING BUT NOT LIMITED TO THE WARRANTIES OF MERCHANTABILITY,
  - FITNESS FOR A PARTICULAR PURPOSE AND NONINFRINGEMENT. IN NO EVENT SHALL THE
  - AUTHORS OR COPYRIGHT HOLDERS BE LIABLE FOR ANY CLAIM, DAMAGES OR OTHER
  - LIABILITY, WHETHER IN AN ACTION OF CONTRACT, TORT OR OTHERWISE, ARISING FROM,
  - OUT OF OR IN CONNECTION WITH THE SOFTWARE OR THE USE OR OTHER DEALINGS IN THE
  - SOFTWARE.
  -
  -
  -->

<svg big="true" viewBox="0 0 100 75" width="16px" height="16px" xmlns="http://www.w3.org/2000/svg">
    <g fill="#22C1C3" iconColor="Nest.land">
        <path d="M49.995 71.77c14.13 0 25.585-16.066 25.585-35.885S64.125 0 49.996 0C35.865 0 24.41 16.066 24.41 35.885S35.866 71.77 49.995 71.77z" />
        <path fill-rule="evenodd" clip-rule="evenodd"
              d="M0 53.754C0 65.314 17.296 74.7 38.6 74.7c21.305 0 38.601-9.386 38.601-20.946-9.006 3.468-23.202 6.284-38.6 6.284S9.007 57.222 0 53.754z" />
        <path fill-rule="evenodd" clip-rule="evenodd"
              d="M22.799 53.754c0 11.56 17.296 20.946 38.6 20.946C82.704 74.7 100 65.314 100 53.754c-9.007 3.468-23.202 6.284-38.6 6.284-15.399 0-29.595-2.816-38.601-6.284z" />
        <path fill-rule="evenodd" clip-rule="evenodd"
              d="M6.91 41.892C5.253 53.334 21.027 65.1 42.112 68.15c21.084 3.051 39.547-3.761 41.202-15.202-9.41 2.142-23.863 2.896-39.103.691-15.24-2.205-28.886-7.025-37.303-11.747z" />
        <path fill-rule="evenodd" clip-rule="evenodd"
              d="M93.106 41.892C94.762 53.334 78.987 65.1 57.903 68.15 36.818 71.201 18.356 64.39 16.7 52.948c9.41 2.142 23.863 2.896 39.103.691 15.24-2.205 28.886-7.025 37.303-11.747z" />
    </g>
</svg>
