<!--
  - The MIT License (MIT)
  -
  - Copyright (c) 2015-2022 Elior "Mallowigi" Boukhobza
  -
  - Permission is hereby granted, free of charge, to any person obtaining a copy
  - of this software and associated documentation files (the "Software"), to deal
  - in the Software without restriction, including without limitation the rights
  - to use, copy, modify, merge, publish, distribute, sublicense, and/or sell
  - copies of the Software, and to permit persons to whom the Software is
  - furnished to do so, subject to the following conditions:
  -
  - The above copyright notice and this permission notice shall be included in all
  - copies or substantial portions of the Software.
  -
  - THE SOFTWARE IS PROVIDED "AS IS", WITHOUT WARRANTY OF ANY KIND, EXPRESS OR
  - IMPLIED, INCLUDING BUT NOT LIMITED TO THE WARRANTIES OF MERCHANTABILITY,
  - FITNESS FOR A PARTICULAR PURPOSE AND NONINFRINGEMENT. IN NO EVENT SHALL THE
  - AUTHORS OR COPYRIGHT HOLDERS BE LIABLE FOR ANY CLAIM, DAMAGES OR OTHER
  - LIABILITY, WHETHER IN AN ACTION OF CONTRACT, TORT OR OTHERWISE, ARISING FROM,
  - OUT OF OR IN CONNECTION WITH THE SOFTWARE OR THE USE OR OTHER DEALINGS IN THE
  - SOFTWARE.
  -
  -
  -->

<svg big="true" xmlns="http://www.w3.org/2000/svg" width="16px" height="16px" viewBox="0 0 16 16">
    <path fill="#8069F3" iconColor="NSIS"
          d="M14.314 8.02l-2.994 2.873 2.994 2.87m-.302-6.033h-5.99l2.996 2.872m2.994-3.283l-2.994-2.87-2.994 2.87M10.5 4.365H4.512l2.994 2.87m6.808-5.946L11.32 4.16l2.994 2.87M10.5 3.955l-2.994-2.87-2.994 2.87M6.988 1H1l2.994 2.87M1.687 7.98L4.68 5.106l-2.993-2.87M4.984 5.4L1.99 8.27h5.988m-5.988.41l2.993 2.87L7.98 8.68m-6.293.29v5.74l2.993-2.87-.877-.84m7.685.635l-2.992-2.87-2.994 2.87m0 .41l2.993 2.87 2.993-2.87m.518.084L9.014 15H15"
    />
</svg>
