<!--
  - The MIT License (MIT)
  -
  - Copyright (c) 2015-2022 Elior "Mallowigi" Boukhobza
  -
  - Permission is hereby granted, free of charge, to any person obtaining a copy
  - of this software and associated documentation files (the "Software"), to deal
  - in the Software without restriction, including without limitation the rights
  - to use, copy, modify, merge, publish, distribute, sublicense, and/or sell
  - copies of the Software, and to permit persons to whom the Software is
  - furnished to do so, subject to the following conditions:
  -
  - The above copyright notice and this permission notice shall be included in all
  - copies or substantial portions of the Software.
  -
  - THE SOFTWARE IS PROVIDED "AS IS", WITHOUT WARRANTY OF ANY KIND, EXPRESS OR
  - IMPLIED, INCLUDING BUT NOT LIMITED TO THE WARRANTIES OF MERCHANTABILITY,
  - FITNESS FOR A PARTICULAR PURPOSE AND NONINFRINGEMENT. IN NO EVENT SHALL THE
  - AUTHORS OR COPYRIGHT HOLDERS BE LIABLE FOR ANY CLAIM, DAMAGES OR OTHER
  - LIABILITY, WHETHER IN AN ACTION OF CONTRACT, TORT OR OTHERWISE, ARISING FROM,
  - OUT OF OR IN CONNECTION WITH THE SOFTWARE OR THE USE OR OTHER DEALINGS IN THE
  - SOFTWARE.
  -
  -
  -->

<svg big="true" version="1.1" xmlns="http://www.w3.org/2000/svg" viewBox="0 0 343 512" width="16px" height="16px">
    <path fill="#FFB74D" iconColor="NXC"
          d="M342.3522644,55.7171783H0V459.319397h342.3522644V55.7171783z M57.6566429,95.0045319h223.6811829v147.946579H57.6566429V95.0045319z M103.8093262,367.5630798L42.2704735,330.958313l61.5388527-38.1210022V367.5630798z M203.445343,433.637207h-71.0394287v-42.7921143h71.0394287V433.637207z M203.445343,367.6874695h-71.0394287v-73.6429749h71.0394287V367.6874695z M235.1851196,367.5630798v-74.725769l61.5388489,38.1210022L235.1851196,367.5630798z M251.4496765,0h73.4283142l-0.0002441,33.590992h-73.4280701V0z M19.5100002,0h212.7445679v33.590992H19.5101738L19.5100002,0z M324.8777466,480.4455261L324.8779907,512H17.4740009l0.0002613-31.5544739H324.8777466z"/>
</svg>
