<!--
  - The MIT License (MIT)
  -
  - Copyright (c) 2015-2022 Elior "Mallowigi" Boukhobza
  -
  - Permission is hereby granted, free of charge, to any person obtaining a copy
  - of this software and associated documentation files (the "Software"), to deal
  - in the Software without restriction, including without limitation the rights
  - to use, copy, modify, merge, publish, distribute, sublicense, and/or sell
  - copies of the Software, and to permit persons to whom the Software is
  - furnished to do so, subject to the following conditions:
  -
  - The above copyright notice and this permission notice shall be included in all
  - copies or substantial portions of the Software.
  -
  - THE SOFTWARE IS PROVIDED "AS IS", WITHOUT WARRANTY OF ANY KIND, EXPRESS OR
  - IMPLIED, INCLUDING BUT NOT LIMITED TO THE WARRANTIES OF MERCHANTABILITY,
  - FITNESS FOR A PARTICULAR PURPOSE AND NONINFRINGEMENT. IN NO EVENT SHALL THE
  - AUTHORS OR COPYRIGHT HOLDERS BE LIABLE FOR ANY CLAIM, DAMAGES OR OTHER
  - LIABILITY, WHETHER IN AN ACTION OF CONTRACT, TORT OR OTHERWISE, ARISING FROM,
  - OUT OF OR IN CONNECTION WITH THE SOFTWARE OR THE USE OR OTHER DEALINGS IN THE
  - SOFTWARE.
  -
  -
  -->

<svg big="true" version="1.1" xmlns="http://www.w3.org/2000/svg" viewBox="0 0 512 512" width="16px" height="16px">
    <path fill="#F67F2B" iconColor="Octave"
          d="M46.2348022,162.8860779h-18.920105C12.229187,162.8860779,0,175.1153259,0,190.2007751v119.4887085c0,15.0854492,12.229187,27.3146973,27.3146973,27.3146973h55.711792C164.8228149,487.1805725,331,551.756958,436.6132812,478.0017395h58.8846436c9.1138306,0,16.5020752-7.3881836,16.5020752-16.5020752v-79.9991455c0-5.6826782-2.8734741-10.6929932-7.2454834-13.6612549c13.3258057-65.8863525-2.7388306-143.9569702-45.6320801-212.6606445c1.050354-1.7446289,1.6657104-3.7807617,1.6657104-5.9655762V87.1287537c0-6.4047852-5.1921387-11.5969238-11.5969238-11.5969238h-57.7842407C251.6246643-45.6603889,71.6370468-12.4751692,46.2348022,162.8860779z M165.4614258,329.6296692c5.324585-4.984375,8.6566772-12.0712891,8.6566772-19.9401855V190.2007751c0-15.0854492-12.229248-27.3146973-27.3146973-27.3146973h-18.1257324c23.5055389-109.3237457,134.568573-150.3012085,246.8323975-74.9590454v61.2860107c0,6.4047852,5.1920776,11.5968628,11.5968628,11.5968628h57.8034668c42.8418579,66.6293945,52.1233521,146.0526733,24.1421509,204.1885376h-53.553772c-9.1138916,0-16.5020752,7.3881836-16.5020752,16.5020752v49.5951538C322.2062073,458.4572754,229.607193,424.2865601,165.4614258,329.6296692z"/>
</svg>
