<!--
  - The MIT License (MIT)
  -
  - Copyright (c) 2015-2023 Elior "Mallowigi" Boukhobza
  -
  - Permission is hereby granted, free of charge, to any person obtaining a copy
  - of this software and associated documentation files (the "Software"), to deal
  - in the Software without restriction, including without limitation the rights
  - to use, copy, modify, merge, publish, distribute, sublicense, and/or sell
  - copies of the Software, and to permit persons to whom the Software is
  - furnished to do so, subject to the following conditions:
  -
  - The above copyright notice and this permission notice shall be included in all
  - copies or substantial portions of the Software.
  -
  - THE SOFTWARE IS PROVIDED "AS IS", WITHOUT WARRANTY OF ANY KIND, EXPRESS OR
  - IMPLIED, INCLUDING BUT NOT LIMITED TO THE WARRANTIES OF MERCHANTABILITY,
  - FITNESS FOR A PARTICULAR PURPOSE AND NONINFRINGEMENT. IN NO EVENT SHALL THE
  - AUTHORS OR COPYRIGHT HOLDERS BE LIABLE FOR ANY CLAIM, DAMAGES OR OTHER
  - LIABILITY, WHETHER IN AN ACTION OF CONTRACT, TORT OR OTHERWISE, ARISING FROM,
  - OUT OF OR IN CONNECTION WITH THE SOFTWARE OR THE USE OR OTHER DEALINGS IN THE
  - SOFTWARE.
  -
  -->

<svg big="true" version="1.1" id="Capa_1" xmlns="http://www.w3.org/2000/svg"
     width="16px" height="16px" x="0px" y="0px"
     viewBox="0 0 182.785 182.785" xml:space="preserve">
<path fill="#4fadf1" iconColor="Parquet"
      d="M30.835,0h59.198L59.548,28.713L30.835,0z M104.182,88.891L8.733,182.785h63.972l62.687-62.686L104.182,88.891z
	 M64.707,44.479c-0.149,0.149-0.307,0.286-0.465,0.42L27.694,79.323l32.146,32.146L173.155,0H111.91L64.815,44.359
	C64.778,44.398,64.746,44.44,64.707,44.479z M147.601,182.785l-26.841-26.841l-26.841,26.841H147.601z M151.302,125.403
	l-19.935,19.935l37.448,37.448h6.47c4.143,0,7.5-3.358,7.5-7.5V93.919L151.302,125.403z M11.258,74.198
	c0.109-0.124,0.215-0.251,0.334-0.369c0.231-0.231,0.477-0.438,0.729-0.632l36.303-34.193L9.621,0H7.5C3.357,0,0,3.358,0,7.5v77.302
	L11.258,74.198z M16.77,89.613L0,105.408v64.926l49.146-48.345L16.77,89.613z M182.785,72.705V11.568l-67.909,66.803l31.122,31.122
	L182.785,72.705z"/>
</svg>
