<!--
  - The MIT License (MIT)
  -
  - Copyright (c) 2015-2022 Elior "Mallowigi" Boukhobza
  -
  - Permission is hereby granted, free of charge, to any person obtaining a copy
  - of this software and associated documentation files (the "Software"), to deal
  - in the Software without restriction, including without limitation the rights
  - to use, copy, modify, merge, publish, distribute, sublicense, and/or sell
  - copies of the Software, and to permit persons to whom the Software is
  - furnished to do so, subject to the following conditions:
  -
  - The above copyright notice and this permission notice shall be included in all
  - copies or substantial portions of the Software.
  -
  - THE SOFTWARE IS PROVIDED "AS IS", WITHOUT WARRANTY OF ANY KIND, EXPRESS OR
  - IMPLIED, INCLUDING BUT NOT LIMITED TO THE WARRANTIES OF MERCHANTABILITY,
  - FITNESS FOR A PARTICULAR PURPOSE AND NONINFRINGEMENT. IN NO EVENT SHALL THE
  - AUTHORS OR COPYRIGHT HOLDERS BE LIABLE FOR ANY CLAIM, DAMAGES OR OTHER
  - LIABILITY, WHETHER IN AN ACTION OF CONTRACT, TORT OR OTHERWISE, ARISING FROM,
  - OUT OF OR IN CONNECTION WITH THE SOFTWARE OR THE USE OR OTHER DEALINGS IN THE
  - SOFTWARE.
  -
  -
  -->

<svg big="true" xmlns="http://www.w3.org/2000/svg" viewBox="0 0 32 32" width="16px" height="16px">
    <defs>
        <mask id="Mask">
            <rect x="0" y="0" width="32" height="32" fill="white"/>
            <path d="M20.322,11.523a1.5,1.5,0,1,1-.439-1.061A1.5,1.5,0,0,1,20.322,11.523Z" fill="black"/>
            <path d="M17.047,11.523a1.5,1.5,0,1,1-.439-1.061A1.5,1.5,0,0,1,17.047,11.523Z" fill="black"/>
        </mask>
    </defs>
    <g fill="#aa826a" mask="url('#Mask')" iconColor="PHP CS">
        <path d="M19.659,20.747c.01-.018,2.27-3.474,1.328-4.934.13.256-3.24,2.235-4.351,2.784.085-.042,4.946-2.9,4.512-3.68a18.68,18.68,0,0,0-4.134,2.014l-.02,0A11.822,11.822,0,0,1,20.769,14.9c1.424-1.283,2.817-5.766,2.172-6.965a5.9,5.9,0,0,1-2.6.993C21.227,8.572,23.1,8,22.766,6.834c0,0-1.519,1-2.263.871,2.588-1.147,2.28-1.3,2.256-1.842-.063-1.393-1.3-4.4-2.721-3.781C17.291,3.274,15.569,5.3,17.746,6.344c-1.331-.219-1.705-.749-1.616-.885-1.853,2.082-3.389,2.345-.475,3.853a2.971,2.971,0,0,1-1.946-.9s-5.815,4.957-.777,7.457a5.207,5.207,0,0,1-2.1-1.461,3.522,3.522,0,0,0-1.356,1.341c.38.43.391.795,1.143,1.367l-.02.008A2.939,2.939,0,0,1,9.4,15.98c-.12.56.158,1.222,1.2,2.022a1.93,1.93,0,0,1-1.3-.7A5.171,5.171,0,0,0,8.9,19.52a11.349,11.349,0,0,1,1.175,1.27.483.483,0,0,0,.227.261l-.019.008a.6.6,0,0,1-.291-.252c-.2-.288-.763-.6-1.068-.993a3.938,3.938,0,0,0,1.413,2.631.955.955,0,0,1-.719-.141,2.4,2.4,0,0,0,2.39,2.074l.126,0c-.168,1.3-.367,4.594.952,5.58.132.1.587.015.521-.1-.674-1.185-.857-2.01-.68-5.518.14-.01.171-.014.278-.028C17.57,23.247,19.24,21.521,19.659,20.747Zm-3.824,1.807-.017-.006c1.847-1.064,2.472-1.671,3.3-2.146l.02,0A14.181,14.181,0,0,1,15.835,22.554ZM20.667,17.8l.018.006A18.071,18.071,0,0,1,17.736,19.7l-.017-.006C19.121,18.868,19.7,18.241,20.667,17.8Zm-1.759,2.264.017.006A11.513,11.513,0,0,1,15.483,21.9l-.011-.009C17.28,21.242,17.619,20.587,18.908,20.064Zm-8.16-5.042.023,0c.473.415.573.957,1.847,1.452l-.017.01C11.393,16.121,10.755,15.515,10.747,15.022ZM9.421,20.736s0-.007.011-.008a.033.033,0,0,1,.017,0l.006,0a.145.145,0,0,1,.011.028,5.491,5.491,0,0,0,1.582,1.715l-.019.009A2.7,2.7,0,0,1,9.421,20.736Zm1.9,3.169s-.043-.011-.114-.033A1.753,1.753,0,0,1,9.975,22.63l.024,0c.32.607.637.715,1.274,1.215.043.034.065.055.065.055Z"/>
        <path d="M20.322,11.523a1.5,1.5,0,1,1-.439-1.061A1.5,1.5,0,0,1,20.322,11.523Z" style="fill:#fff"/>
        <path d="M17.047,11.523a1.5,1.5,0,1,1-.439-1.061A1.5,1.5,0,0,1,17.047,11.523Z" style="fill:#fff"/>
    </g>
</svg>
