<!--
  - The MIT License (MIT)
  -
  - Copyright (c) 2015-2022 Elior "Mallowigi" Boukhobza
  -
  - Permission is hereby granted, free of charge, to any person obtaining a copy
  - of this software and associated documentation files (the "Software"), to deal
  - in the Software without restriction, including without limitation the rights
  - to use, copy, modify, merge, publish, distribute, sublicense, and/or sell
  - copies of the Software, and to permit persons to whom the Software is
  - furnished to do so, subject to the following conditions:
  -
  - The above copyright notice and this permission notice shall be included in all
  - copies or substantial portions of the Software.
  -
  - THE SOFTWARE IS PROVIDED "AS IS", WITHOUT WARRANTY OF ANY KIND, EXPRESS OR
  - IMPLIED, INCLUDING BUT NOT LIMITED TO THE WARRANTIES OF MERCHANTABILITY,
  - FITNESS FOR A PARTICULAR PURPOSE AND NONINFRINGEMENT. IN NO EVENT SHALL THE
  - AUTHORS OR COPYRIGHT HOLDERS BE LIABLE FOR ANY CLAIM, DAMAGES OR OTHER
  - LIABILITY, WHETHER IN AN ACTION OF CONTRACT, TORT OR OTHERWISE, ARISING FROM,
  - OUT OF OR IN CONNECTION WITH THE SOFTWARE OR THE USE OR OTHER DEALINGS IN THE
  - SOFTWARE.
  -
  -
  -->

<svg big="true" xmlns="http://www.w3.org/2000/svg" width="16px" height="16px" viewBox="0 0 16 16">
    <path fill="#7963E6" iconColor="Adobe Premiere"
          d="M1,1V15H15V1H1ZM8.221,7.5a3.183,3.183,0,0,1-2.91,1.029v2.656H4.121V3.83l1.8-.031A2.288,2.288,0,0,1,8.578,6.12,2.48,2.48,0,0,1,8.221,7.5Zm3.9-.8a0.053,0.053,0,0,1-.061.061,3.957,3.957,0,0,0-1.282.122v4.3H9.585V6.852a4.763,4.763,0,0,0-.031-0.641A0.076,0.076,0,0,1,9.616,6.12a6.965,6.965,0,0,1,2.442-.458,0.054,0.054,0,0,1,.061.061V6.7ZM7.357,6.15a1.327,1.327,0,0,1-.2.818,1.7,1.7,0,0,1-1.3.495H5.311V4.868H5.952A1.2,1.2,0,0,1,7.357,6.15Z"/>
</svg>
