<!--
  - The MIT License (MIT)
  -
  - Copyright (c) 2015-2022 Elior "Mallowigi" Boukhobza
  -
  - Permission is hereby granted, free of charge, to any person obtaining a copy
  - of this software and associated documentation files (the "Software"), to deal
  - in the Software without restriction, including without limitation the rights
  - to use, copy, modify, merge, publish, distribute, sublicense, and/or sell
  - copies of the Software, and to permit persons to whom the Software is
  - furnished to do so, subject to the following conditions:
  -
  - The above copyright notice and this permission notice shall be included in all
  - copies or substantial portions of the Software.
  -
  - THE SOFTWARE IS PROVIDED "AS IS", WITHOUT WARRANTY OF ANY KIND, EXPRESS OR
  - IMPLIED, INCLUDING BUT NOT LIMITED TO THE WARRANTIES OF MERCHANTABILITY,
  - FITNESS FOR A PARTICULAR PURPOSE AND NONINFRINGEMENT. IN NO EVENT SHALL THE
  - AUTHORS OR COPYRIGHT HOLDERS BE LIABLE FOR ANY CLAIM, DAMAGES OR OTHER
  - LIABILITY, WHETHER IN AN ACTION OF CONTRACT, TORT OR OTHERWISE, ARISING FROM,
  - OUT OF OR IN CONNECTION WITH THE SOFTWARE OR THE USE OR OTHER DEALINGS IN THE
  - SOFTWARE.
  -
  -
  -->

<svg big="true" version="1.1" xmlns="http://www.w3.org/2000/svg" x="0px" y="0px" width="16px" height="16px"
     viewBox="0 0 512 512" preserveAspectRatio="xMidYMid meet">
    <path fill="#7963E6" iconColor="PureScript"
          d="M188.2068176,368.1990967l-39.9728546-37.3269043h175.53508l39.9728394,37.3269043H188.2068176z M188.2068176,237.3486023l-39.9728546,37.3269348h175.53508l39.9728394-37.3269348H188.2068176z M363.7295227,181.1401825l-39.9604797-37.3392944H148.2463226l39.960495,37.3392944H363.7295227z M129.7637787,218.0805511l-26.4066544-26.4067383l-97.9088135,97.896347c-3.5155382,3.515564-5.4600935,8.2149048-5.448256,13.2037048c0,4.9888,1.9327178,9.6763916,5.448256,13.1912842l97.9088135,97.9087524l26.4066544-26.394989l-84.7050476-84.7050476L129.7637787,218.0805511z M506.5275269,196.0465851L408.655304,98.1261063l-26.394989,26.4067383l84.6567993,84.7056656l-84.6567993,84.7050629l26.394989,26.3943787l97.8722229-97.8840027C510.0548401,218.9142914,512,214.2149506,512,209.2261505C511.9876404,204.2373505,510.0548401,199.5621338,506.5275269,196.0465851z"/>
</svg>
