<!--
  - The MIT License (MIT)
  -
  - Copyright (c) 2015-2022 Elior "Mallowigi" Boukhobza
  -
  - Permission is hereby granted, free of charge, to any person obtaining a copy
  - of this software and associated documentation files (the "Software"), to deal
  - in the Software without restriction, including without limitation the rights
  - to use, copy, modify, merge, publish, distribute, sublicense, and/or sell
  - copies of the Software, and to permit persons to whom the Software is
  - furnished to do so, subject to the following conditions:
  -
  - The above copyright notice and this permission notice shall be included in all
  - copies or substantial portions of the Software.
  -
  - THE SOFTWARE IS PROVIDED "AS IS", WITHOUT WARRANTY OF ANY KIND, EXPRESS OR
  - IMPLIED, INCLUDING BUT NOT LIMITED TO THE WARRANTIES OF MERCHANTABILITY,
  - FITNESS FOR A PARTICULAR PURPOSE AND NONINFRINGEMENT. IN NO EVENT SHALL THE
  - AUTHORS OR COPYRIGHT HOLDERS BE LIABLE FOR ANY CLAIM, DAMAGES OR OTHER
  - LIABILITY, WHETHER IN AN ACTION OF CONTRACT, TORT OR OTHERWISE, ARISING FROM,
  - OUT OF OR IN CONNECTION WITH THE SOFTWARE OR THE USE OR OTHER DEALINGS IN THE
  - SOFTWARE.
  -
  -
  -->

<svg big="true" height="16px" viewBox="0 0 128 128" width="16px" xmlns="http://www.w3.org/2000/svg">
    <g fill="#ff318c" iconColor="Qodana">
        <path d="m86 55.73-61.73 12.94a37.28 37.28 0 0 0 -4.77 1.06 24.23 24.23 0 0 0 -12.34 8.47c-18.43 23.94 1.34 55.23 29.6 49l67.72-9.81a28.28 28.28 0 0 0 17.43-12c17.46-26.07-5.15-58.68-35.91-49.66z"
        />
        <path d="m52.07 8.15c-7.61-7-18.79-10.25-31.34-6.58a25.79 25.79 0 0 0 -13.12 9c-12.61 16.43-8.39 36.05 4.26 46.18l67.37 56.25a32.32 32.32 0 0 0 25.24 4.35 28.28 28.28 0 0 0 17.43-12c10.4-15.47 6.59-33.35-4.7-43.35z"
        />
        <path d="m29.34.15a43.46 43.46 0 0 0 -8.61 1.42 25.79 25.79 0 0 0 -13.12 9c-19.61 25.43 1.39 58.73 31.47 52.1l80.73-30.45a9.28 9.28 0 0 0 5.72-3.92c5-7.54-.11-16.73-8.32-16.78l-84.52-11.52c-1.2 0-2.32.07-3.35.15z"
        />
        <path d="m24 24h80v80h-80z" fill="#000" />
        <g fill="#fff">
            <path d="m34 89h30v5h-30z" />
            <path d="m60 64.81-3.3-3a16.32 16.32 0 0 1 -8.89 2.56c-9.23.05-15.81-6.83-15.81-15.37 0-8.51 6.71-15.48 16-15.48s15.86 6.88 15.86 15.39v.09a15.41 15.41 0 0 1 -2.65 8.59l3.08 2.61zm-8.17-7.27-4.83-4.15 4.19-4.7 4.91 4.45a10.39 10.39 0 0 0 .78-4.14 9.1 9.1 0 0 0 -9.07-9.41c-5.3 0-9 4.19-9 9.32v.09a9.09 9.09 0 0 0 9.06 9.4 8.92 8.92 0 0 0 3.96-.86z" />
            <path d="m68.87 34h11.28c9.4 0 15.9 6.46 15.9 14.88v.12c0 8.42-6.5 15-15.9 15h-11.28zm6.58 6v18h4.7c5.38 0 9-3.64 9-8.94v-.06a8.6 8.6 0 0 0 -9-9z" />
        </g>
    </g>
</svg>
