<!--
  - The MIT License (MIT)
  -
  - Copyright (c) 2015-2022 Elior "Mallowigi" Boukhobza
  -
  - Permission is hereby granted, free of charge, to any person obtaining a copy
  - of this software and associated documentation files (the "Software"), to deal
  - in the Software without restriction, including without limitation the rights
  - to use, copy, modify, merge, publish, distribute, sublicense, and/or sell
  - copies of the Software, and to permit persons to whom the Software is
  - furnished to do so, subject to the following conditions:
  -
  - The above copyright notice and this permission notice shall be included in all
  - copies or substantial portions of the Software.
  -
  - THE SOFTWARE IS PROVIDED "AS IS", WITHOUT WARRANTY OF ANY KIND, EXPRESS OR
  - IMPLIED, INCLUDING BUT NOT LIMITED TO THE WARRANTIES OF MERCHANTABILITY,
  - FITNESS FOR A PARTICULAR PURPOSE AND NONINFRINGEMENT. IN NO EVENT SHALL THE
  - AUTHORS OR COPYRIGHT HOLDERS BE LIABLE FOR ANY CLAIM, DAMAGES OR OTHER
  - LIABILITY, WHETHER IN AN ACTION OF CONTRACT, TORT OR OTHERWISE, ARISING FROM,
  - OUT OF OR IN CONNECTION WITH THE SOFTWARE OR THE USE OR OTHER DEALINGS IN THE
  - SOFTWARE.
  -
  -
  -->

<svg big="true" version="1.1" xmlns="http://www.w3.org/2000/svg" viewBox="0 0 456 512" width="16px" height="16px">
    <path fill="#ec4d10" iconColor="Reason Studios"
          d="M430.5455017,109.3818283L253.6727448,6.9818182c-16.2909088-9.3090906-34.9090881-9.3090906-51.1999969,0L25.5999985,109.3818283C9.3090878,118.690918,0,134.981842,0,153.6000061v204.8000183c0,18.6181641,9.3090935,34.9090881,25.6000042,44.2181702l176.8727264,102.3999939c16.2908936,9.309082,34.9090881,9.309082,51.1999969,0l176.8727112-102.3999939C446.8363647,393.3091125,456,377.0181885,456,358.4000244V153.6000061C456,134.981842,446.8363647,118.690918,430.5455017,109.3818283z M228.0727386,256.0000305v169.8908997L81.4545441,339.7818298V169.8909302l146.6181946-83.7818298l146.6181793,83.7817993L228.0727386,256.0000305z"/>
</svg>
