<!--
  - The MIT License (MIT)
  -
  - Copyright (c) 2015-2022 Elior "Mallowigi" Boukhobza
  -
  - Permission is hereby granted, free of charge, to any person obtaining a copy
  - of this software and associated documentation files (the "Software"), to deal
  - in the Software without restriction, including without limitation the rights
  - to use, copy, modify, merge, publish, distribute, sublicense, and/or sell
  - copies of the Software, and to permit persons to whom the Software is
  - furnished to do so, subject to the following conditions:
  -
  - The above copyright notice and this permission notice shall be included in all
  - copies or substantial portions of the Software.
  -
  - THE SOFTWARE IS PROVIDED "AS IS", WITHOUT WARRANTY OF ANY KIND, EXPRESS OR
  - IMPLIED, INCLUDING BUT NOT LIMITED TO THE WARRANTIES OF MERCHANTABILITY,
  - FITNESS FOR A PARTICULAR PURPOSE AND NONINFRINGEMENT. IN NO EVENT SHALL THE
  - AUTHORS OR COPYRIGHT HOLDERS BE LIABLE FOR ANY CLAIM, DAMAGES OR OTHER
  - LIABILITY, WHETHER IN AN ACTION OF CONTRACT, TORT OR OTHERWISE, ARISING FROM,
  - OUT OF OR IN CONNECTION WITH THE SOFTWARE OR THE USE OR OTHER DEALINGS IN THE
  - SOFTWARE.
  -
  -
  -->

<svg big="true" version="1.1" xmlns="http://www.w3.org/2000/svg" viewBox="0 0 512 512" width="16px" height="16px">
    <path fill="#1b5d7b" iconColor="Rebol"
          d="M508.0012512,256c0,141.3848877-112.8247986,256-252.0012512,256S3.9987483,397.3848877,3.9987483,256S116.823555,0,256,0S508.0012512,114.6151047,508.0012512,256z M248.9745178,117.0918961c-75.7006989,0-137.0682373,60.5548935-137.0682373,135.2531433s61.3675385,135.2531586,137.0682373,135.2531586s137.0682373-60.5549011,137.0682373-135.2531586S324.6752319,117.0918961,248.9745178,117.0918961z M248.9745331,197.0477905c-30.9496918,0-56.0393677,24.7574158-56.0393677,55.2972565s25.0896759,55.2972565,56.0393677,55.2972565s56.0393524-24.7574158,56.0393524-55.2972565S279.9242249,197.0477905,248.9745331,197.0477905z"/>
</svg>
