<!--
  - The MIT License (MIT)
  -
  - Copyright (c) 2015-2022 Elior "Mallowigi" Boukhobza
  -
  - Permission is hereby granted, free of charge, to any person obtaining a copy
  - of this software and associated documentation files (the "Software"), to deal
  - in the Software without restriction, including without limitation the rights
  - to use, copy, modify, merge, publish, distribute, sublicense, and/or sell
  - copies of the Software, and to permit persons to whom the Software is
  - furnished to do so, subject to the following conditions:
  -
  - The above copyright notice and this permission notice shall be included in all
  - copies or substantial portions of the Software.
  -
  - THE SOFTWARE IS PROVIDED "AS IS", WITHOUT WARRANTY OF ANY KIND, EXPRESS OR
  - IMPLIED, INCLUDING BUT NOT LIMITED TO THE WARRANTIES OF MERCHANTABILITY,
  - FITNESS FOR A PARTICULAR PURPOSE AND NONINFRINGEMENT. IN NO EVENT SHALL THE
  - AUTHORS OR COPYRIGHT HOLDERS BE LIABLE FOR ANY CLAIM, DAMAGES OR OTHER
  - LIABILITY, WHETHER IN AN ACTION OF CONTRACT, TORT OR OTHERWISE, ARISING FROM,
  - OUT OF OR IN CONNECTION WITH THE SOFTWARE OR THE USE OR OTHER DEALINGS IN THE
  - SOFTWARE.
  -
  -
  -->

<svg big="true" version="1.1" xmlns="http://www.w3.org/2000/svg" viewBox="0 0 512 512" width="16px" height="16px">
    <path transform="scale(0.9) translate(30 30)" fill="#EF5350" iconColor="Red"
          d="M89.5877533,211.4285736l73.1979218-24.7243347v24.6597443l91.1453705,41.0799408l95.2832184-42.6489258v-23.0520477l72.1815796,24.6856842v95.6773834L255.532547,379.5562134L89.5877533,308.0354309V211.4285736z M429.5774536,288.5397644V312.34375l-174.024826,75.9320679L81.5326767,313.2995911v-25.8396301L6.214251,314.2857056v92.5714417L255.9999695,512l249.7857666-105.1427917v-92.5714111L429.5774536,288.5397644z M291.9285278,95.7777634v32.7276077c-24.1673279,9.8699036-48.8226013,11.6404877-74.2857056,0V96.6897354l-46.8571472,17.5959778v91.9088974l83.1567383,37.4794312l87.2718506-39.0630646v-90.3251953L291.9285278,95.7777634z M283.9285278,12c0-6.3118024-13.047699-12-29.1428528-12s-29.1428528,5.6881976-29.1428528,12v111.3325882c6.7935944,3.0569916,17.3180847,5.2388382,29.1428528,5.2388382s22.3492737-2.1818466,29.1428528-5.2388382V12z"/>
</svg>
