<!--
  - The MIT License (MIT)
  -
  - Copyright (c) 2015-2022 Elior "Mallowigi" Boukhobza
  -
  - Permission is hereby granted, free of charge, to any person obtaining a copy
  - of this software and associated documentation files (the "Software"), to deal
  - in the Software without restriction, including without limitation the rights
  - to use, copy, modify, merge, publish, distribute, sublicense, and/or sell
  - copies of the Software, and to permit persons to whom the Software is
  - furnished to do so, subject to the following conditions:
  -
  - The above copyright notice and this permission notice shall be included in all
  - copies or substantial portions of the Software.
  -
  - THE SOFTWARE IS PROVIDED "AS IS", WITHOUT WARRANTY OF ANY KIND, EXPRESS OR
  - IMPLIED, INCLUDING BUT NOT LIMITED TO THE WARRANTIES OF MERCHANTABILITY,
  - FITNESS FOR A PARTICULAR PURPOSE AND NONINFRINGEMENT. IN NO EVENT SHALL THE
  - AUTHORS OR COPYRIGHT HOLDERS BE LIABLE FOR ANY CLAIM, DAMAGES OR OTHER
  - LIABILITY, WHETHER IN AN ACTION OF CONTRACT, TORT OR OTHERWISE, ARISING FROM,
  - OUT OF OR IN CONNECTION WITH THE SOFTWARE OR THE USE OR OTHER DEALINGS IN THE
  - SOFTWARE.
  -
  -
  -->

<svg big="true" xmlns="http://www.w3.org/2000/svg" viewBox="4 4 24 24" width="16px" height="16px">
    <g fill="#d8a303" iconColor="Rehype">
        <path d="M13.046,15.584a2.107,2.107,0,0,0-1.231-.3,2.176,2.176,0,0,0-1.751.859,3.588,3.588,0,0,0-.7,2.337V23H7V13.543H9.361v1.949H9.4a3.265,3.265,0,0,1,1.064-1.556,2.542,2.542,0,0,1,1.6-.559,2.163,2.163,0,0,1,.977.176Z"/>
        <path d="M25,23H22.639V17.828q0-2.806-2.067-2.807a2.237,2.237,0,0,0-1.75.813,3.03,3.03,0,0,0-.713,2.078V23H15.737V9h2.372v6.113h.041a3.809,3.809,0,0,1,3.379-1.791Q25,13.322,25,17.173Z"/>
    </g>
</svg>
