<!--
  - The MIT License (MIT)
  -
  - Copyright (c) 2015-2022 Elior "Mallowigi" Boukhobza
  -
  - Permission is hereby granted, free of charge, to any person obtaining a copy
  - of this software and associated documentation files (the "Software"), to deal
  - in the Software without restriction, including without limitation the rights
  - to use, copy, modify, merge, publish, distribute, sublicense, and/or sell
  - copies of the Software, and to permit persons to whom the Software is
  - furnished to do so, subject to the following conditions:
  -
  - The above copyright notice and this permission notice shall be included in all
  - copies or substantial portions of the Software.
  -
  - THE SOFTWARE IS PROVIDED "AS IS", WITHOUT WARRANTY OF ANY KIND, EXPRESS OR
  - IMPLIED, INCLUDING BUT NOT LIMITED TO THE WARRANTIES OF MERCHANTABILITY,
  - FITNESS FOR A PARTICULAR PURPOSE AND NONINFRINGEMENT. IN NO EVENT SHALL THE
  - AUTHORS OR COPYRIGHT HOLDERS BE LIABLE FOR ANY CLAIM, DAMAGES OR OTHER
  - LIABILITY, WHETHER IN AN ACTION OF CONTRACT, TORT OR OTHERWISE, ARISING FROM,
  - OUT OF OR IN CONNECTION WITH THE SOFTWARE OR THE USE OR OTHER DEALINGS IN THE
  - SOFTWARE.
  -
  -
  -->

<svg big="true" xmlns="http://www.w3.org/2000/svg" viewBox="4 4 24 24" width="16px" height="16px">
    <g fill="#d80303" iconColor="Remark">
        <path d="M9.966,13.338a2,2,0,0,0-1.215-.315,2.113,2.113,0,0,0-1.728.887,3.826,3.826,0,0,0-.693,2.414V21H4V11.229H6.33v2.013h.04a3.387,3.387,0,0,1,1.05-1.607A2.44,2.44,0,0,1,9,11.057a2.048,2.048,0,0,1,.964.182Z"/>
        <path d="M28,21H25.67V15.676a4.142,4.142,0,0,0-.457-2.224,1.714,1.714,0,0,0-1.542-.687,1.878,1.878,0,0,0-1.552.869,3.416,3.416,0,0,0-.638,2.08V21h-2.34V15.494q0-2.728-2.029-2.729a1.855,1.855,0,0,0-1.552.821,3.485,3.485,0,0,0-.608,2.128V21h-2.33V11.229h2.33v1.546h.04A3.6,3.6,0,0,1,18.237,11a3.169,3.169,0,0,1,1.863.558,2.781,2.781,0,0,1,1.09,1.465A3.692,3.692,0,0,1,24.605,11Q28,11,28,14.979Z"/>
    </g>
</svg>
