<!--
  - The MIT License (MIT)
  -
  - Copyright (c) 2015-2022 Elior "Mallowigi" Boukhobza
  -
  - Permission is hereby granted, free of charge, to any person obtaining a copy
  - of this software and associated documentation files (the "Software"), to deal
  - in the Software without restriction, including without limitation the rights
  - to use, copy, modify, merge, publish, distribute, sublicense, and/or sell
  - copies of the Software, and to permit persons to whom the Software is
  - furnished to do so, subject to the following conditions:
  -
  - The above copyright notice and this permission notice shall be included in all
  - copies or substantial portions of the Software.
  -
  - THE SOFTWARE IS PROVIDED "AS IS", WITHOUT WARRANTY OF ANY KIND, EXPRESS OR
  - IMPLIED, INCLUDING BUT NOT LIMITED TO THE WARRANTIES OF MERCHANTABILITY,
  - FITNESS FOR A PARTICULAR PURPOSE AND NONINFRINGEMENT. IN NO EVENT SHALL THE
  - AUTHORS OR COPYRIGHT HOLDERS BE LIABLE FOR ANY CLAIM, DAMAGES OR OTHER
  - LIABILITY, WHETHER IN AN ACTION OF CONTRACT, TORT OR OTHERWISE, ARISING FROM,
  - OUT OF OR IN CONNECTION WITH THE SOFTWARE OR THE USE OR OTHER DEALINGS IN THE
  - SOFTWARE.
  -
  -
  -->

<svg big="true" version="1.1" xmlns="http://www.w3.org/2000/svg" viewBox="0 0 454 512" width="16px" height="16px">
    <path fill="#BA68C8" iconColor="Ring"
          d="M247.6564026,98.284256l71.4306946-55.2679253l31.6924744,16.2265358l-4.2225647,92.9401016L247.6564026,98.284256z M186.8190308,317.8479919l140.8862915-147.3863068l-99.2595825-54.246521L186.8190308,317.8479919z M424.0680237,96.7665634l-51.101593-26.1640244l-4.2548523,93.6541901l84.3141785,45.9494019L424.0680237,96.7665634z M359.0288086,184.8083344L219.2122803,319.3510742l126.4030762-60.7846375c23.0726929,60.4749451,10.0083618,133.7297974-46.1930237,180.9989319c-94.4352875,79.4263306-240.3518982,26.403595-262.0197754-95.2119446C22.0566006,258.220459,77.1192856,183.045166,151.7984619,161.48703l21.448288,130.4641113l29.8069916-190.3019409l-73.2277679-41.7514877l14.5926514,67.4688568C52.4993591,152.7538452-15.6753788,244.8065491,3.1362095,350.3908997c26.3533878,147.914856,203.8245087,212.4037781,318.6813049,115.8014832c68.3385315-57.4772949,84.2742615-146.5597534,56.2417908-220.1029968l54.7683105-21.0623016L359.0288086,184.8083344z M296.7834778,31.5968609L235.0708313,0l-92.4072571,41.0654526l83.2466125,45.36763L296.7834778,31.5968609z"/>
</svg>
