<!--
  - The MIT License (MIT)
  -
  - Copyright (c) 2015-2022 Elior "Mallowigi" Boukhobza
  -
  - Permission is hereby granted, free of charge, to any person obtaining a copy
  - of this software and associated documentation files (the "Software"), to deal
  - in the Software without restriction, including without limitation the rights
  - to use, copy, modify, merge, publish, distribute, sublicense, and/or sell
  - copies of the Software, and to permit persons to whom the Software is
  - furnished to do so, subject to the following conditions:
  -
  - The above copyright notice and this permission notice shall be included in all
  - copies or substantial portions of the Software.
  -
  - THE SOFTWARE IS PROVIDED "AS IS", WITHOUT WARRANTY OF ANY KIND, EXPRESS OR
  - IMPLIED, INCLUDING BUT NOT LIMITED TO THE WARRANTIES OF MERCHANTABILITY,
  - FITNESS FOR A PARTICULAR PURPOSE AND NONINFRINGEMENT. IN NO EVENT SHALL THE
  - AUTHORS OR COPYRIGHT HOLDERS BE LIABLE FOR ANY CLAIM, DAMAGES OR OTHER
  - LIABILITY, WHETHER IN AN ACTION OF CONTRACT, TORT OR OTHERWISE, ARISING FROM,
  - OUT OF OR IN CONNECTION WITH THE SOFTWARE OR THE USE OR OTHER DEALINGS IN THE
  - SOFTWARE.
  -
  -
  -->

<svg big="true" version="1.1" xmlns="http://www.w3.org/2000/svg" viewBox="0 0 512 512" width="16px" height="16px">
    <path fill="#42A5F5" iconColor="Robots"
          d="M512,310.8287048v-73.1532288c-3.616394-38.626358-31.153656-38.2904968-73.1428833-36.5765991v146.306427C506.2682495,354.4113464,509.694458,327.8996582,512,310.8287048z M73.1428757,347.405304V201.098877C31.1536541,199.3849792,3.6164083,199.049118,0,237.6754761l0,73.1532288C2.3055527,327.8996582,5.7317491,354.4113464,73.1428757,347.405304z M18.2857246,438.8468018h475.4285583V512H18.2857246V438.8468018z M328.3199768,73.0807724c-11.5260925-94.6545944-130.8769226-100.1881943-144.6399994,0H328.3199768z M21.4819965,32.8603935c9.8521748-18.5911636,36.2703476-19.6752434,47.4384613-1.9466228c9.627388,15.2826786,1.7521744,34.7952271-14.0687141,40.4296417l0.0054398,111.4671173h-18.285778V71.3942566C21.5582657,66.1819839,13.3209982,48.2602463,21.4819965,32.8603935z M347.4286804,228.531189c0,21.0393372-22.9294434,34.2603149-41.1740417,23.7406311c-18.2445984-10.5196686-18.2445984-36.9616699,0-47.4813385S347.4286804,207.4917755,347.4286804,228.531189z M178.2546539,252.2718201c18.2445221,10.5196838,41.174057-2.7012939,41.174057-23.7406311c0-21.0394135-22.9295349-34.260376-41.1741333-23.7407074C160.0100708,215.3101501,160.0100708,241.7521515,178.2546539,252.2718201z M420.5714111,164.5222473v256.0362549H91.4285812V164.5222473c0-40.3991013,32.7496872-73.1531754,73.1428757-73.1531754h182.8570709C387.8217468,91.369072,420.5714111,124.1231461,420.5714111,164.5222473z M169.0911407,268.0987549c30.4074707,17.5326843,68.6231995-4.5021667,68.6231995-39.5675659c0-35.0654907-38.2157288-57.1003418-68.6231995-39.567627S138.6837463,250.56604,169.0911407,268.0987549z M347.4285278,329.1169739H164.5714569v36.5766296h182.8570709V329.1169739z M365.714325,228.531189c0-35.0654907-38.2156677-57.1003418-68.6231384-39.567627s-30.4074707,61.602478,0,79.1351929C327.4986572,285.6314392,365.714325,263.5965881,365.714325,228.531189z"/>
</svg>
