<!--
  - The MIT License (MIT)
  -
  - Copyright (c) 2015-2022 Elior "Mallowigi" Boukhobza
  -
  - Permission is hereby granted, free of charge, to any person obtaining a copy
  - of this software and associated documentation files (the "Software"), to deal
  - in the Software without restriction, including without limitation the rights
  - to use, copy, modify, merge, publish, distribute, sublicense, and/or sell
  - copies of the Software, and to permit persons to whom the Software is
  - furnished to do so, subject to the following conditions:
  -
  - The above copyright notice and this permission notice shall be included in all
  - copies or substantial portions of the Software.
  -
  - THE SOFTWARE IS PROVIDED "AS IS", WITHOUT WARRANTY OF ANY KIND, EXPRESS OR
  - IMPLIED, INCLUDING BUT NOT LIMITED TO THE WARRANTIES OF MERCHANTABILITY,
  - FITNESS FOR A PARTICULAR PURPOSE AND NONINFRINGEMENT. IN NO EVENT SHALL THE
  - AUTHORS OR COPYRIGHT HOLDERS BE LIABLE FOR ANY CLAIM, DAMAGES OR OTHER
  - LIABILITY, WHETHER IN AN ACTION OF CONTRACT, TORT OR OTHERWISE, ARISING FROM,
  - OUT OF OR IN CONNECTION WITH THE SOFTWARE OR THE USE OR OTHER DEALINGS IN THE
  - SOFTWARE.
  -
  -
  -->

<svg big="true" version="1.1" xmlns="http://www.w3.org/2000/svg" x="0px" y="0px" viewBox="0 0 387 512" width="16px"
     height="16px">
    <path fill="#FF5370" iconColor="Rollup"
          d="M0,424.237915V0c0-0.0000221,214.4265747,0,214.4265747,0c59.985199,0.9047534,112.3703918,32.8415298,141.9558411,80.522049c-21.7140808-26.6902275-55.2804871-41.7091141-88.5754089-41.7091141c-63.3327332,0-79.2563629,22.5283279-200.8552551,246.0929565C39.1691704,335.5903015,15.8385849,382.8205566,0,424.237915z M386.2718201,512l-96.3962097-190.8722534c82.7416077-42.782074,118.753418-147.2455292,69.9448547-234.7247925c-38.0960083-38.6881065-117.3150024-47.1472778-138.0653687-0.1809616c-19.962326,46.5788422,31.1603241,98.2388611,56.3742065,97.6726685c23.5373535-1.0623322,16.0852661-35.0139008-3.0390015-76.2300034c20.5595093,38.781868,30.0801697,55.379921,27.0989075,68.6203842c-3.7574158,17.0569611-28.12146,28.4887543-76.0008392,74.330658C141.1414948,332.043457,55.8213921,503.1380615,39.9101524,512H386.2718201z"/>
</svg>
