<!--
  - The MIT License (MIT)
  -
  - Copyright (c) 2015-2022 Elior "Mallowigi" Boukhobza
  -
  - Permission is hereby granted, free of charge, to any person obtaining a copy
  - of this software and associated documentation files (the "Software"), to deal
  - in the Software without restriction, including without limitation the rights
  - to use, copy, modify, merge, publish, distribute, sublicense, and/or sell
  - copies of the Software, and to permit persons to whom the Software is
  - furnished to do so, subject to the following conditions:
  -
  - The above copyright notice and this permission notice shall be included in all
  - copies or substantial portions of the Software.
  -
  - THE SOFTWARE IS PROVIDED "AS IS", WITHOUT WARRANTY OF ANY KIND, EXPRESS OR
  - IMPLIED, INCLUDING BUT NOT LIMITED TO THE WARRANTIES OF MERCHANTABILITY,
  - FITNESS FOR A PARTICULAR PURPOSE AND NONINFRINGEMENT. IN NO EVENT SHALL THE
  - AUTHORS OR COPYRIGHT HOLDERS BE LIABLE FOR ANY CLAIM, DAMAGES OR OTHER
  - LIABILITY, WHETHER IN AN ACTION OF CONTRACT, TORT OR OTHERWISE, ARISING FROM,
  - OUT OF OR IN CONNECTION WITH THE SOFTWARE OR THE USE OR OTHER DEALINGS IN THE
  - SOFTWARE.
  -
  -
  -->

<svg big="true" enable-background="new 0 0 465 750" version="1.1" viewBox="0 0 300 300" xml:space="preserve"
     xmlns="http://www.w3.org/2000/svg" width="16px" height="16px">
    <g transform="matrix(1.0943 0 0 1.0943 -16.991 -8.4865)" fill="#295892" iconColor="San">
        <g>
            <g transform="matrix(.43318 0 0 .43318 52.078 -17.73)">
                <polygon points="481.54 410.67 -17.453 511.76 -17.453 636.48 481.54 535.39"/>
            </g>
            <g transform="matrix(.43318 0 0 .43318 52.078 -17.73)">
                <polygon points="481.54 212.46 -17.453 313.56 -17.453 438.27 481.54 337.18"/>
            </g>
            <g transform="matrix(.43318 0 0 .43318 52.078 -17.73)">
                <polygon points="481.54 336.56 -17.453 238.75 -17.453 114.03 481.54 211.84"/>
            </g>
            <g transform="matrix(.43318 0 0 .43318 52.078 -17.73)">
                <polygon points="481.54 534.77 -17.453 436.96 -17.453 312.24 481.54 410.05"/>
            </g>
        </g>
    </g>
</svg>
