<!--
  - The MIT License (MIT)
  -
  - Copyright (c) 2015-2022 Elior "Mallowigi" Boukhobza
  -
  - Permission is hereby granted, free of charge, to any person obtaining a copy
  - of this software and associated documentation files (the "Software"), to deal
  - in the Software without restriction, including without limitation the rights
  - to use, copy, modify, merge, publish, distribute, sublicense, and/or sell
  - copies of the Software, and to permit persons to whom the Software is
  - furnished to do so, subject to the following conditions:
  -
  - The above copyright notice and this permission notice shall be included in all
  - copies or substantial portions of the Software.
  -
  - THE SOFTWARE IS PROVIDED "AS IS", WITHOUT WARRANTY OF ANY KIND, EXPRESS OR
  - IMPLIED, INCLUDING BUT NOT LIMITED TO THE WARRANTIES OF MERCHANTABILITY,
  - FITNESS FOR A PARTICULAR PURPOSE AND NONINFRINGEMENT. IN NO EVENT SHALL THE
  - AUTHORS OR COPYRIGHT HOLDERS BE LIABLE FOR ANY CLAIM, DAMAGES OR OTHER
  - LIABILITY, WHETHER IN AN ACTION OF CONTRACT, TORT OR OTHERWISE, ARISING FROM,
  - OUT OF OR IN CONNECTION WITH THE SOFTWARE OR THE USE OR OTHER DEALINGS IN THE
  - SOFTWARE.
  -
  -
  -->

<svg big="true" version="1.1" xmlns="http://www.w3.org/2000/svg" viewBox="0 0 512 512" width="16px" height="16px">
    <path fill="#F32C25" iconColor="Sentry"
          d="M248.6375427,69.2247314l-49.3598785,85.2950439c111.914505,74.3064117,178.127182,203.0275574,169.8005829,329.478241H244.3116302c3.6713104-88.1547241-31.4998169-168.959259-107.1860962-222.2853088l-25.1357574,43.7489624c54.7283936,38.6097412,86.8880005,104.0910645,82.7233429,178.2589111l-150.1741028-0.0239563c-39.2757072-2.9309692-53.9391975-39.868103-38.5102654-69.2398376l30.2357635-52.5526428l32.426693,18.6577148l-29.9902954,52.1211243c-2.7519341,6.4180298-1.7496567,12.8179626,7.3468666,13.6262207h109.9758301c-7.2451324-54.4121704-36.0919952-97.2815857-94.6204758-127.8982849l62.3718872-108.5584259c102.2678299,53.0832672,153.6209717,151.8822479,157.3017578,236.7341461h50.0215149c-6.7372131-118.5892639-74.6342773-220.4911957-182.7680664-278.7214966l68.7819824-118.8560181c19.5361786-27.3959999,58.6092224-28.6984348,77.8031921,0.2408981l211.3020935,365.7342224c17.8000793,34.783905-8.0325317,68.605957-42.9063721,68.7363281h-46.6329346v-37.411377l47.6867065,0.0137024c8.1916504,0.1627808,12.8562317-5.4875488,8.7386169-13.9185181L263.2913208,69.2470016C259.565033,64.3345718,252.6962585,64.0818329,248.6375427,69.2247314z"/>
</svg>
