<!--
  - The MIT License (MIT)
  -
  - Copyright (c) 2015-2022 Elior "Mallowigi" Boukhobza
  -
  - Permission is hereby granted, free of charge, to any person obtaining a copy
  - of this software and associated documentation files (the "Software"), to deal
  - in the Software without restriction, including without limitation the rights
  - to use, copy, modify, merge, publish, distribute, sublicense, and/or sell
  - copies of the Software, and to permit persons to whom the Software is
  - furnished to do so, subject to the following conditions:
  -
  - The above copyright notice and this permission notice shall be included in all
  - copies or substantial portions of the Software.
  -
  - THE SOFTWARE IS PROVIDED "AS IS", WITHOUT WARRANTY OF ANY KIND, EXPRESS OR
  - IMPLIED, INCLUDING BUT NOT LIMITED TO THE WARRANTIES OF MERCHANTABILITY,
  - FITNESS FOR A PARTICULAR PURPOSE AND NONINFRINGEMENT. IN NO EVENT SHALL THE
  - AUTHORS OR COPYRIGHT HOLDERS BE LIABLE FOR ANY CLAIM, DAMAGES OR OTHER
  - LIABILITY, WHETHER IN AN ACTION OF CONTRACT, TORT OR OTHERWISE, ARISING FROM,
  - OUT OF OR IN CONNECTION WITH THE SOFTWARE OR THE USE OR OTHER DEALINGS IN THE
  - SOFTWARE.
  -
  -
  -->

<svg big="true" version="1.1" xmlns="http://www.w3.org/2000/svg" width="16px" height="16px" viewBox="0 0 443 512">
    <path fill="#0288d1" iconColor="Sequelize"
          d="M221.7328491,0L0,128v256l222.2363892,128l220.7240601-127.49646V127.49646L221.7328491,0z M49.077301,358.4714355V156.6301422L221.6456604,55.0871696l173.2460938,98.8398438v202.9203949L222.2955627,458.9616699L49.077301,358.4714355z M137.5888519,308.3948669v71.8737793l-62.6321945-34.2255859v-74.098999L137.5888519,308.3948669z M148.9033813,197.4828033l55.2918701-32.2536011l-62.6322021-36.9630127l-55.675293,32.9417114L148.9033813,197.4828033z M223.7045898,175.1542511l-56.0150757,33.1427002l57.0129395,32.819458l55.5505981-32.5879517L223.7045898,175.1542511z M213.2172699,260.2302551l-56.1191406-32.3048706v66.7792358l56.1191406,30.6665649V260.2302551z M295.6186523,199.5144196l61.4734497-36.0625l-56.7225342-33.4744263l-61.6060791,36.4508057L295.6186523,199.5144196z M280.8619995,120.0524445l-62.6339111-36.9647217l-61.6060791,36.4508057l62.6339111,36.4508057L280.8619995,120.0524445z M74.9566574,180.6408386v67.1740112l62.6321945,34.2255859v-65.34552L74.9566574,180.6408386z M304.6950684,310.983429v72.0933838l63.3087158-37.5476685v-73.3600464L304.6950684,310.983429z M304.6950684,220.0362854v64.7205505l63.3087158-37.4541931v-64.4052124L304.6950684,220.0362854z M235.2179108,260.7937317v64.8900146l56.1191254-33.2043457v-64.6068726L235.2179108,260.7937317z M235.2179108,350.6167908v73.295166l56.1191254-33.2042847v-71.3599243L235.2179108,350.6167908z M213.2172699,350.4064636l-56.1191406-31.5726318v74.098999l56.1191406,30.6665039V350.4064636z"/>
</svg>
