<!--
  - The MIT License (MIT)
  -
  - Copyright (c) 2015-2022 Elior "Mallowigi" Boukhobza
  -
  - Permission is hereby granted, free of charge, to any person obtaining a copy
  - of this software and associated documentation files (the "Software"), to deal
  - in the Software without restriction, including without limitation the rights
  - to use, copy, modify, merge, publish, distribute, sublicense, and/or sell
  - copies of the Software, and to permit persons to whom the Software is
  - furnished to do so, subject to the following conditions:
  -
  - The above copyright notice and this permission notice shall be included in all
  - copies or substantial portions of the Software.
  -
  - THE SOFTWARE IS PROVIDED "AS IS", WITHOUT WARRANTY OF ANY KIND, EXPRESS OR
  - IMPLIED, INCLUDING BUT NOT LIMITED TO THE WARRANTIES OF MERCHANTABILITY,
  - FITNESS FOR A PARTICULAR PURPOSE AND NONINFRINGEMENT. IN NO EVENT SHALL THE
  - AUTHORS OR COPYRIGHT HOLDERS BE LIABLE FOR ANY CLAIM, DAMAGES OR OTHER
  - LIABILITY, WHETHER IN AN ACTION OF CONTRACT, TORT OR OTHERWISE, ARISING FROM,
  - OUT OF OR IN CONNECTION WITH THE SOFTWARE OR THE USE OR OTHER DEALINGS IN THE
  - SOFTWARE.
  -
  -
  -->

<svg big="true" version="1.1" xmlns="http://www.w3.org/2000/svg" viewBox="0 0 512 512" width="16px" height="16px">
    <path fill="#F28500" iconColor="Service Fabric"
          d="M507.0675049,188.4994202c-18.3049622-50.0585175-78.103363-66.6076584-119.3353271-39.2069855l-55.2386475-45.8600845C347.4231262,54.955265,312.5450134,1.6298343,258.3182068,0.0567588c-55.8466797-1.6201214-94.3900146,52.7472725-78.8260956,103.3093262l-55.2774277,45.8923111C81.7233353,121.02108,20.4020119,139.7639313,3.8481076,191.6619263c-15.2922707,47.942749,16.9483318,94.9331055,62.1514359,103.0657959l21.3872986,76.7378845c-38.1899796,32.8809509-37.2632217,96.1264038,7.4682617,126.5142212c44.3140411,30.1041565,102.8724823,8.432312,120.0961304-38.2071228h81.9642639c17.8467712,48.8749084,80.0259094,69.3295288,123.8097534,35.5304565c42.1698914-32.5531616,40.0688171-94.4320068,1.7367249-125.4985352l22.079071-74.8259277C491.9364624,287.4258728,524.9519653,237.4078522,507.0675049,188.4994202z M293.596283,415.7837524h-75.2700653c-8.4078369-41.328125-48.9187469-69.3458252-90.4730225-62.973114l-17.4899979-62.7610779c42.4730453-17.0881348,61.1684799-67.0661011,42.521492-107.4136505l50.6781616-42.0716553c29.563385,25.7155151,74.975174,26.0334778,104.8178558,0.0342255l50.7218628,42.1107178c-18.5975037,40.2346649,0.0751648,89.3554993,41.183197,106.7971191l-18.5771179,62.9548035C340.5793152,347.3250122,301.8534241,375.6531982,293.596283,415.7837524z"/>
</svg>
