<!--
  - The MIT License (MIT)
  -
  - Copyright (c) 2015-2022 Elior "Mallowigi" Boukhobza
  -
  - Permission is hereby granted, free of charge, to any person obtaining a copy
  - of this software and associated documentation files (the "Software"), to deal
  - in the Software without restriction, including without limitation the rights
  - to use, copy, modify, merge, publish, distribute, sublicense, and/or sell
  - copies of the Software, and to permit persons to whom the Software is
  - furnished to do so, subject to the following conditions:
  -
  - The above copyright notice and this permission notice shall be included in all
  - copies or substantial portions of the Software.
  -
  - THE SOFTWARE IS PROVIDED "AS IS", WITHOUT WARRANTY OF ANY KIND, EXPRESS OR
  - IMPLIED, INCLUDING BUT NOT LIMITED TO THE WARRANTIES OF MERCHANTABILITY,
  - FITNESS FOR A PARTICULAR PURPOSE AND NONINFRINGEMENT. IN NO EVENT SHALL THE
  - AUTHORS OR COPYRIGHT HOLDERS BE LIABLE FOR ANY CLAIM, DAMAGES OR OTHER
  - LIABILITY, WHETHER IN AN ACTION OF CONTRACT, TORT OR OTHERWISE, ARISING FROM,
  - OUT OF OR IN CONNECTION WITH THE SOFTWARE OR THE USE OR OTHER DEALINGS IN THE
  - SOFTWARE.
  -
  -
  -->

<svg big="true" version="1.1" xmlns="http://www.w3.org/2000/svg" viewBox="0 0 512 512" width="16px" height="16px">
    <path fill="#BDBDBD" iconColor="Ninja"
          d="M328.8759766,132.5421448C371.3331909,201.1544342,478.1032104,73.603653,499.8647461,16.565836c61.182312,226.6875153-128.5315552,308.9147949-135.4263916,328.8926086c7.2550049,69.3253784,51.509552,118.1947937,131.3958435,156.3851624c-99.1514587,29.8260803-238.6083679-6.4488525-316.8009644-121.7224731C143.0673523,327.0992737,30.8019505,430.3282166,13.780839,496.2008667c-34.3766518-113.4429626,2.4183283-172.5073853,35.5939369-230.9724121c38.4000206-67.671936,102.2507477-75.3491211,97.4141083-117.2668152C140.0868835,89.8777008,73.1363449,30.5032635,14.5869474,13.3414001C131.6380463-32.9872322,278.9995422,51.9401283,328.8759766,132.5421448z M303.8504028,263.709137c0-40.709198-44.3727722-66.2905884-79.6792755-45.9359894s-35.3065033,71.5173798,0.0000153,91.8719635C259.4776611,329.9997253,303.8504028,304.418335,303.8504028,263.709137z"/>
</svg>
