<!--
  - The MIT License (MIT)
  -
  - Copyright (c) 2015-2022 Elior "Mallowigi" Boukhobza
  -
  - Permission is hereby granted, free of charge, to any person obtaining a copy
  - of this software and associated documentation files (the "Software"), to deal
  - in the Software without restriction, including without limitation the rights
  - to use, copy, modify, merge, publish, distribute, sublicense, and/or sell
  - copies of the Software, and to permit persons to whom the Software is
  - furnished to do so, subject to the following conditions:
  -
  - The above copyright notice and this permission notice shall be included in all
  - copies or substantial portions of the Software.
  -
  - THE SOFTWARE IS PROVIDED "AS IS", WITHOUT WARRANTY OF ANY KIND, EXPRESS OR
  - IMPLIED, INCLUDING BUT NOT LIMITED TO THE WARRANTIES OF MERCHANTABILITY,
  - FITNESS FOR A PARTICULAR PURPOSE AND NONINFRINGEMENT. IN NO EVENT SHALL THE
  - AUTHORS OR COPYRIGHT HOLDERS BE LIABLE FOR ANY CLAIM, DAMAGES OR OTHER
  - LIABILITY, WHETHER IN AN ACTION OF CONTRACT, TORT OR OTHERWISE, ARISING FROM,
  - OUT OF OR IN CONNECTION WITH THE SOFTWARE OR THE USE OR OTHER DEALINGS IN THE
  - SOFTWARE.
  -
  -
  -->

<svg big="true" id="Layer_1" xmlns="http://www.w3.org/2000/svg" width="16px" height="16px" viewBox="0 0 16 16">
    <path fill="#89ddff" iconColor="SilverStripe"
          d="M6.509 10.688a2.748 2.748 0 0 0 .715-3.821L4.955 8.419A1.375 1.375 0 1 1 3.402 6.15l.002-.001 2.069-1.416 1.331-.912A2.748 2.748 0 0 0 7.52 0L5.252 1.553 1.853 3.879l-.004.003a4.125 4.125 0 0 0 4.66 6.806zM9.492 5.313l-.002.001a.174.174 0 0 0-.014.012l.017-.012a2.748 2.748 0 0 0-.716 3.821l2.268-1.553-.001-.001a1.374 1.374 0 1 1 1.553 2.268l-2.07 1.418-1.332.912A2.748 2.748 0 0 0 8.48 16l2.269-1.552 3.402-2.33a4.123 4.123 0 1 0-4.659-6.805z"/>
</svg>
