<!--
  - The MIT License (MIT)
  -
  - Copyright (c) 2015-2022 Elior "Mallowigi" Boukhobza
  -
  - Permission is hereby granted, free of charge, to any person obtaining a copy
  - of this software and associated documentation files (the "Software"), to deal
  - in the Software without restriction, including without limitation the rights
  - to use, copy, modify, merge, publish, distribute, sublicense, and/or sell
  - copies of the Software, and to permit persons to whom the Software is
  - furnished to do so, subject to the following conditions:
  -
  - The above copyright notice and this permission notice shall be included in all
  - copies or substantial portions of the Software.
  -
  - THE SOFTWARE IS PROVIDED "AS IS", WITHOUT WARRANTY OF ANY KIND, EXPRESS OR
  - IMPLIED, INCLUDING BUT NOT LIMITED TO THE WARRANTIES OF MERCHANTABILITY,
  - FITNESS FOR A PARTICULAR PURPOSE AND NONINFRINGEMENT. IN NO EVENT SHALL THE
  - AUTHORS OR COPYRIGHT HOLDERS BE LIABLE FOR ANY CLAIM, DAMAGES OR OTHER
  - LIABILITY, WHETHER IN AN ACTION OF CONTRACT, TORT OR OTHERWISE, ARISING FROM,
  - OUT OF OR IN CONNECTION WITH THE SOFTWARE OR THE USE OR OTHER DEALINGS IN THE
  - SOFTWARE.
  -
  -
  -->

<svg big="true" xmlns="http://www.w3.org/2000/svg" viewBox="0 0 32 32" width="16px" height="16px">
    <defs>
        <mask id="Mask">
            <rect x="0" y="0" width="32" height="32" fill="white"/>
            <path d="M23.821,13.321a2.707,2.707,0,0,1-1.714.536,2.9,2.9,0,0,1-2.18-.9,4.143,4.143,0,0,1-.807-2.938,3.877,3.877,0,0,1,.89-2.794,3,3,0,0,1,2.237-.842,2.858,2.858,0,0,1,1.682.506,2.271,2.271,0,0,1,.9,1.342l2.483-.493a14.083,14.083,0,0,0-2.881-2.924,6.847,6.847,0,0,0-2.033-.3,5.862,5.862,0,0,0-4.2,1.453,5.5,5.5,0,0,0-1.643,4.188,5.237,5.237,0,0,0,1.534,4.052,5.687,5.687,0,0,0,4.024,1.52A5.8,5.8,0,0,0,25.4,14.9a4.739,4.739,0,0,0,1.881-2.617l-2.409-.7A3.125,3.125,0,0,1,23.821,13.321Z"
                  fill="black"/>
        </mask>
    </defs>
    <g fill="#447cd2" mask="url('#Mask')" iconColor="Slice">
        <circle cx="16" cy="16" r="14"/>
        <path d="M23.821,13.321a2.707,2.707,0,0,1-1.714.536,2.9,2.9,0,0,1-2.18-.9,4.143,4.143,0,0,1-.807-2.938,3.877,3.877,0,0,1,.89-2.794,3,3,0,0,1,2.237-.842,2.858,2.858,0,0,1,1.682.506,2.271,2.271,0,0,1,.9,1.342l2.483-.493a14.083,14.083,0,0,0-2.881-2.924,6.847,6.847,0,0,0-2.033-.3,5.862,5.862,0,0,0-4.2,1.453,5.5,5.5,0,0,0-1.643,4.188,5.237,5.237,0,0,0,1.534,4.052,5.687,5.687,0,0,0,4.024,1.52A5.8,5.8,0,0,0,25.4,14.9a4.739,4.739,0,0,0,1.881-2.617l-2.409-.7A3.125,3.125,0,0,1,23.821,13.321Z"
              fill="white"/>
    </g>
</svg>
