<!--
  - The MIT License (MIT)
  -
  - Copyright (c) 2015-2022 Elior "Mallowigi" Boukhobza
  -
  - Permission is hereby granted, free of charge, to any person obtaining a copy
  - of this software and associated documentation files (the "Software"), to deal
  - in the Software without restriction, including without limitation the rights
  - to use, copy, modify, merge, publish, distribute, sublicense, and/or sell
  - copies of the Software, and to permit persons to whom the Software is
  - furnished to do so, subject to the following conditions:
  -
  - The above copyright notice and this permission notice shall be included in all
  - copies or substantial portions of the Software.
  -
  - THE SOFTWARE IS PROVIDED "AS IS", WITHOUT WARRANTY OF ANY KIND, EXPRESS OR
  - IMPLIED, INCLUDING BUT NOT LIMITED TO THE WARRANTIES OF MERCHANTABILITY,
  - FITNESS FOR A PARTICULAR PURPOSE AND NONINFRINGEMENT. IN NO EVENT SHALL THE
  - AUTHORS OR COPYRIGHT HOLDERS BE LIABLE FOR ANY CLAIM, DAMAGES OR OTHER
  - LIABILITY, WHETHER IN AN ACTION OF CONTRACT, TORT OR OTHERWISE, ARISING FROM,
  - OUT OF OR IN CONNECTION WITH THE SOFTWARE OR THE USE OR OTHER DEALINGS IN THE
  - SOFTWARE.
  -
  -
  -->

<svg big="true" viewBox="0 0 640 512" version="1.1" width="16px" height="16px"
     xmlns="http://www.w3.org/2000/svg">
    <g transform="translate(-1.000000, 0.000000)" fill="#2e5e82" iconColor="Snowpack">
        <path d="M635.92,462.7 L347.92,14.7 C342.03,5.54 331.89,0 321,0 C310.11,0 299.97,5.54 294.08,14.7 L6.08,462.7 C-0.250773249,472.547007 -0.699487627,485.064987 4.91,495.34 C10.522069,505.612419 21.2945349,512 33,512 L609,512 C620.71,512 631.48,505.61 637.09,495.33 C642.699457,485.058495 642.250708,472.543372 635.92,462.7 Z M321,91.18 L406.39,224 L321,224 L257,288 L218.94,249.94 L321,91.18 Z"/>
    </g>
</svg>
