<!--
  - The MIT License (MIT)
  -
  - Copyright (c) 2015-2022 Elior "Mallowigi" Boukhobza
  -
  - Permission is hereby granted, free of charge, to any person obtaining a copy
  - of this software and associated documentation files (the "Software"), to deal
  - in the Software without restriction, including without limitation the rights
  - to use, copy, modify, merge, publish, distribute, sublicense, and/or sell
  - copies of the Software, and to permit persons to whom the Software is
  - furnished to do so, subject to the following conditions:
  -
  - The above copyright notice and this permission notice shall be included in all
  - copies or substantial portions of the Software.
  -
  - THE SOFTWARE IS PROVIDED "AS IS", WITHOUT WARRANTY OF ANY KIND, EXPRESS OR
  - IMPLIED, INCLUDING BUT NOT LIMITED TO THE WARRANTIES OF MERCHANTABILITY,
  - FITNESS FOR A PARTICULAR PURPOSE AND NONINFRINGEMENT. IN NO EVENT SHALL THE
  - AUTHORS OR COPYRIGHT HOLDERS BE LIABLE FOR ANY CLAIM, DAMAGES OR OTHER
  - LIABILITY, WHETHER IN AN ACTION OF CONTRACT, TORT OR OTHERWISE, ARISING FROM,
  - OUT OF OR IN CONNECTION WITH THE SOFTWARE OR THE USE OR OTHER DEALINGS IN THE
  - SOFTWARE.
  -
  -
  -->

<svg big="true" version="1.1" xmlns="http://www.w3.org/2000/svg" viewBox="0 0 512 512" width="16px" height="16px">
    <path fill="#725988" iconColor="Spacemacs"
          d="M489.9079285,152.2681122C439.2939453,36.5108223,303.567688-40.5867538,150.32901,22.7808151c86.1290588,51.3494644,152.9126282,120.7571335,213.9435425,206.5140991c8.9550476-51.9251709-7.9651794-113.6750412-36.3946838-165.2220459l0.1285095,0.0468903l0.04776-0.1411018c32.1624451,30.579052,45.7257385,47.9586449,54.1611023,78.2589722c25.5627136,82.7512512,43.5883484,160.9463959,56.8859253,242.0096283C365.3045349,317.5917664,221.7451172,269.3583069,78.7917786,197.031311l8.5330582,21.4659424c0,0,41.2938004,23.0823517,46.4607773,30.0901947c67.0636139,119.7116547,95.9351044,226.0072174,118.974884,254.8799896c-21.9248505-5.3701782-122.756012-55.5122375-122.756012-55.5122375c-15.2122498-112.4367981-45.8729248-219.1430664-85.0375748-325.0087891c79.7841873,84.5612869,232.8695984,116.5713577,301.4098206,111.2906113c-54.4081726-69.3368835-104.8285217-139.707962-235.4589844-189.2712708C-100.7707214,192.9354095,14.2784491,514.269043,256.4322205,511.987915C476.170105,502.8036194,552.008606,294.2958069,489.9079285,152.2681122z M394.9731445,150.0799255c-1.3220215-2.0692291-5.8598938-17.6583252-7.5501099-20.0110626c11.3486328,10.9092407,29.3968201,32.0830078,49.9150085,44.0268555c16.8594666,21.1546478,25.9838562,41.9511261,37.3511353,56.1747742C438.9830933,199.2889709,402.5805969,163.9362793,394.9731445,150.0799255z"/>
</svg>
