<!--
  - The MIT License (MIT)
  -
  - Copyright (c) 2015-2022 Elior "Mallowigi" Boukhobza
  -
  - Permission is hereby granted, free of charge, to any person obtaining a copy
  - of this software and associated documentation files (the "Software"), to deal
  - in the Software without restriction, including without limitation the rights
  - to use, copy, modify, merge, publish, distribute, sublicense, and/or sell
  - copies of the Software, and to permit persons to whom the Software is
  - furnished to do so, subject to the following conditions:
  -
  - The above copyright notice and this permission notice shall be included in all
  - copies or substantial portions of the Software.
  -
  - THE SOFTWARE IS PROVIDED "AS IS", WITHOUT WARRANTY OF ANY KIND, EXPRESS OR
  - IMPLIED, INCLUDING BUT NOT LIMITED TO THE WARRANTIES OF MERCHANTABILITY,
  - FITNESS FOR A PARTICULAR PURPOSE AND NONINFRINGEMENT. IN NO EVENT SHALL THE
  - AUTHORS OR COPYRIGHT HOLDERS BE LIABLE FOR ANY CLAIM, DAMAGES OR OTHER
  - LIABILITY, WHETHER IN AN ACTION OF CONTRACT, TORT OR OTHERWISE, ARISING FROM,
  - OUT OF OR IN CONNECTION WITH THE SOFTWARE OR THE USE OR OTHER DEALINGS IN THE
  - SOFTWARE.
  -
  -
  -->

<svg big="true" xmlns="http://www.w3.org/2000/svg" viewBox="0 0 32 32" width="16px" height="16px">
    <path fill="#0c479c" iconColor="SparQL"
          d="M26.284,20.361c-.165-.084-.359-.164-.523-.248H25.9s-1.158-.5-1.24-4.176c-.111-3.655,1.1-4.289,1.1-4.289a4.96,4.96,0,0,0,2.176-2.143,5.122,5.122,0,0,0-2.122-6.927,5.342,5.342,0,0,0-7.138,2.146,5.067,5.067,0,0,0-.523,3.214L18.1,7.855s.3,1.319-2.839,3.272c-3.115,1.95-4.549.962-4.549.962l.082.138a2.131,2.131,0,0,0-.273-.167,5.117,5.117,0,1,0,.825,8.52l-.025.055s1.129-.933,4.407.827c2.592,1.374,2.979,2.748,3.033,3.24a5.1,5.1,0,0,0,2.7,4.7,5.124,5.124,0,1,0,4.825-9.041Zm-5.79.685c-.412.138-1.6.3-4.077-1.017-2.7-1.454-3.115-2.664-3.169-3.021a5.406,5.406,0,0,0-.057-1.319l.029.026S13,14.534,16.084,12.639c2.757-1.705,4.026-1.374,4.245-1.293a2.83,2.83,0,0,0,.47.277,4.082,4.082,0,0,0,.964.383c.387.357,1.076,1.374,1.158,4.1s-.717,3.764-1.158,4.121A5.04,5.04,0,0,0,20.494,21.047Z"
    />
</svg>
