<!--
  - The MIT License (MIT)
  -
  - Copyright (c) 2015-2022 Elior "Mallowigi" Boukhobza
  -
  - Permission is hereby granted, free of charge, to any person obtaining a copy
  - of this software and associated documentation files (the "Software"), to deal
  - in the Software without restriction, including without limitation the rights
  - to use, copy, modify, merge, publish, distribute, sublicense, and/or sell
  - copies of the Software, and to permit persons to whom the Software is
  - furnished to do so, subject to the following conditions:
  -
  - The above copyright notice and this permission notice shall be included in all
  - copies or substantial portions of the Software.
  -
  - THE SOFTWARE IS PROVIDED "AS IS", WITHOUT WARRANTY OF ANY KIND, EXPRESS OR
  - IMPLIED, INCLUDING BUT NOT LIMITED TO THE WARRANTIES OF MERCHANTABILITY,
  - FITNESS FOR A PARTICULAR PURPOSE AND NONINFRINGEMENT. IN NO EVENT SHALL THE
  - AUTHORS OR COPYRIGHT HOLDERS BE LIABLE FOR ANY CLAIM, DAMAGES OR OTHER
  - LIABILITY, WHETHER IN AN ACTION OF CONTRACT, TORT OR OTHERWISE, ARISING FROM,
  - OUT OF OR IN CONNECTION WITH THE SOFTWARE OR THE USE OR OTHER DEALINGS IN THE
  - SOFTWARE.
  -
  -
  -->

<svg big="true" xmlns="http://www.w3.org/2000/svg" viewBox="0 0 32 32" width="16px" height="16px">
    <defs>
        <mask id="Mask">
            <rect x="0" y="0" width="32" height="32" fill="white"/>
            <path d="M8.88,12.14l2.63-1.59H23.35l-1,2.74-8.76.8-4.72-2h0Z" fill="black"/>
            <path d="M21.49,12.14l1.86-1.6v9L21.5,23.45l-1-8.57Z" fill="black"/>
            <path d="M8.89,12.12H21.52V23.45H8.89Z" fill="black"/>
        </mask>
    </defs>
    <g fill="#2dcc9f" mask="url(#Mask)" iconColor="SugarSS">
        <circle cx="16" cy="16" r="14"/>
        <path d="M8.88,12.14l2.63-1.59H23.35l-1,2.74-8.76.8-4.72-2h0Z" fill="#d0f5f5"/>
        <path d="M21.49,12.14l1.86-1.6v9L21.5,23.45l-1-8.57Z" fill="#c8eeee"/>
        <path d="M8.89,12.12H21.52V23.45H8.89Z" fill="azure"/>
    </g>
</svg>
