<!--
  - The MIT License (MIT)
  -
  - Copyright (c) 2015-2022 Elior "Mallowigi" Boukhobza
  -
  - Permission is hereby granted, free of charge, to any person obtaining a copy
  - of this software and associated documentation files (the "Software"), to deal
  - in the Software without restriction, including without limitation the rights
  - to use, copy, modify, merge, publish, distribute, sublicense, and/or sell
  - copies of the Software, and to permit persons to whom the Software is
  - furnished to do so, subject to the following conditions:
  -
  - The above copyright notice and this permission notice shall be included in all
  - copies or substantial portions of the Software.
  -
  - THE SOFTWARE IS PROVIDED "AS IS", WITHOUT WARRANTY OF ANY KIND, EXPRESS OR
  - IMPLIED, INCLUDING BUT NOT LIMITED TO THE WARRANTIES OF MERCHANTABILITY,
  - FITNESS FOR A PARTICULAR PURPOSE AND NONINFRINGEMENT. IN NO EVENT SHALL THE
  - AUTHORS OR COPYRIGHT HOLDERS BE LIABLE FOR ANY CLAIM, DAMAGES OR OTHER
  - LIABILITY, WHETHER IN AN ACTION OF CONTRACT, TORT OR OTHERWISE, ARISING FROM,
  - OUT OF OR IN CONNECTION WITH THE SOFTWARE OR THE USE OR OTHER DEALINGS IN THE
  - SOFTWARE.
  -
  -
  -->

<svg big="true" stroke-miterlimit="1.4142" version="1.1" width="16px" height="16px" viewBox="0 0 300 300"
     xml:space="preserve" xmlns="http://www.w3.org/2000/svg">
    <g transform="translate(11.5 2.2608)" fill="#ec407a" iconColor="Storybook">
        <g transform="translate(-.006806 .000978)">
            <path
                    transform="translate(-11.5 -2.2608)"
                    d="m257.53 22.271-18.676 1.377v36.545l-16.613-7.1191-16.613 7.1191v-34.096l-128.74 9.4922 11.061 234.02 169.59 8.1172zm-87.213 48.121v.002c31.663 0 49.853 17.289 48.955 52.32l-36.152.90039c.67367-18.863-7.4134-20.66-11.904-20.66-4.2666 0-11.451 1.3481-11.451 11.453 0 24.926 61.529 23.578 61.529 73.879 0 28.294-22.008 41.316-50.078 41.316-28.968 0-54.343-9.8807-51.424-53.221h37.951c-.44912 17.516 3.3698 23.807 13.025 23.807 7.4104 0 10.777-4.2674 10.777-11.453 0-25.6-60.629-26.501-60.629-73.434 0-26.947 17.738-44.91 49.4-44.91z"
            />
            <path d="m50.77 33.329h-19.795l8.2949 234.02h22.56z"/>
        </g>
    </g>
</svg>
