<!--
  - The MIT License (MIT)
  -
  - Copyright (c) 2015-2022 Elior "Mallowigi" Boukhobza
  -
  - Permission is hereby granted, free of charge, to any person obtaining a copy
  - of this software and associated documentation files (the "Software"), to deal
  - in the Software without restriction, including without limitation the rights
  - to use, copy, modify, merge, publish, distribute, sublicense, and/or sell
  - copies of the Software, and to permit persons to whom the Software is
  - furnished to do so, subject to the following conditions:
  -
  - The above copyright notice and this permission notice shall be included in all
  - copies or substantial portions of the Software.
  -
  - THE SOFTWARE IS PROVIDED "AS IS", WITHOUT WARRANTY OF ANY KIND, EXPRESS OR
  - IMPLIED, INCLUDING BUT NOT LIMITED TO THE WARRANTIES OF MERCHANTABILITY,
  - FITNESS FOR A PARTICULAR PURPOSE AND NONINFRINGEMENT. IN NO EVENT SHALL THE
  - AUTHORS OR COPYRIGHT HOLDERS BE LIABLE FOR ANY CLAIM, DAMAGES OR OTHER
  - LIABILITY, WHETHER IN AN ACTION OF CONTRACT, TORT OR OTHERWISE, ARISING FROM,
  - OUT OF OR IN CONNECTION WITH THE SOFTWARE OR THE USE OR OTHER DEALINGS IN THE
  - SOFTWARE.
  -
  -
  -->

<svg big="true" version="1.1" xmlns="http://www.w3.org/2000/svg" viewBox="0 0 455 512" width="16px" height="16px">
    <path fill="#F1303D" fill-rule="evenodd" iconColor="Stylable"
          d="m245.97627 416.18812c33.23942-24.57497 60.40737-54.07514 60.97452-96.33378-0.56715-42.26101-27.76953-70.32731-60.97452-95.02704-37.44083-40.31032-25.04127-97.18896 29.49984-97.89882 106.28381 12.38135 175.22609 129.03651 178.65029 192.92586-0.23663 71.14392-96.29818 165.1761-138.29567 183.11999-76.821 36.41094-121.73331-46.4538-69.85446-86.78621zm-107.0074-407.5665c-42.19793 17.95389-138.64307 110.38504-138.96887 183.22195 0.568186 75.2982 96.77094 165.27043 138.96887 183.22431 77.37899 45.93345 118.37308-63.54851 70.22406-94.28531-33.39806-24.58629-60.73188-46.65446-61.30174-88.939 0.56986-42.28217 27.90368-71.79452 61.30174-96.38318 67.04519-61.631-15.661-117.3861-70.22406-86.83877z"/>
</svg>
