<!--
  - The MIT License (MIT)
  -
  -  Copyright (c) 2015-2022 Elior "Mallowigi" Boukhobza
  -
  -  Permission is hereby granted, free of charge, to any person obtaining a copy
  -  of this software and associated documentation files (the "Software"), to deal
  -  in the Software without restriction, including without limitation the rights
  -  to use, copy, modify, merge, publish, distribute, sublicense, and/or sell
  -  copies of the Software, and to permit persons to whom the Software is
  -  furnished to do so, subject to the following conditions:
  -
  -  The above copyright notice and this permission notice shall be included in all
  -  copies or substantial portions of the Software.
  -
  -  THE SOFTWARE IS PROVIDED "AS IS", WITHOUT WARRANTY OF ANY KIND, EXPRESS OR
  -  IMPLIED, INCLUDING BUT NOT LIMITED TO THE WARRANTIES OF MERCHANTABILITY,
  -  FITNESS FOR A PARTICULAR PURPOSE AND NONINFRINGEMENT. IN NO EVENT SHALL THE
  -  AUTHORS OR COPYRIGHT HOLDERS BE LIABLE FOR ANY CLAIM, DAMAGES OR OTHER
  -  LIABILITY, WHETHER IN AN ACTION OF CONTRACT, TORT OR OTHERWISE, ARISING FROM,
  -  OUT OF OR IN CONNECTION WITH THE SOFTWARE OR THE USE OR OTHER DEALINGS IN THE
  -  SOFTWARE.
  -->

<svg big="true" xmlns="http://www.w3.org/2000/svg" version="1.1" viewBox="0 0 24 24" width="16px" height="16px">
    <path d="M 12 2 c -1.46 0 -9.25 8.16 -9.07 10.8 0.11 1.59 3.69 1.68 3.69 1.68 0 0 0.83 2.61 0.75 3.31 -0.04 0.32 -0.6 1.01 -0.6 1.84 0 0.83 0.93 1.8 1.31 1.89 C 8.6 21.38 9.44 18.39 9.5 18 c 0.1 1.31 0.64 3.93 1.2 4 0.74 -0.06 1.24 -2.92 1.3 -3.6 0.07 0.68 0.57 3.54 1.3 3.6 0.56 -0.07 1.1 -2.69 1.2 -4 0.06 0.39 0.9 3.38 1.42 3.5 0.38 -0.08 1.31 -1.06 1.31 -1.89 0 -0.83 -0.57 -1.51 -0.6 -1.84 -0.08 -0.7 0.75 -3.31 0.75 -3.31 0 0 3.59 -0.09 3.69 -1.68 C 21.25 10.16 13.46 2 12 2 Z"
          fill="#00acc1" iconColor="Styleguidist"/>
</svg>
