<!--
  - The MIT License (MIT)
  -
  - Copyright (c) 2015-2022 Elior "Mallowigi" Boukhobza
  -
  - Permission is hereby granted, free of charge, to any person obtaining a copy
  - of this software and associated documentation files (the "Software"), to deal
  - in the Software without restriction, including without limitation the rights
  - to use, copy, modify, merge, publish, distribute, sublicense, and/or sell
  - copies of the Software, and to permit persons to whom the Software is
  - furnished to do so, subject to the following conditions:
  -
  - The above copyright notice and this permission notice shall be included in all
  - copies or substantial portions of the Software.
  -
  - THE SOFTWARE IS PROVIDED "AS IS", WITHOUT WARRANTY OF ANY KIND, EXPRESS OR
  - IMPLIED, INCLUDING BUT NOT LIMITED TO THE WARRANTIES OF MERCHANTABILITY,
  - FITNESS FOR A PARTICULAR PURPOSE AND NONINFRINGEMENT. IN NO EVENT SHALL THE
  - AUTHORS OR COPYRIGHT HOLDERS BE LIABLE FOR ANY CLAIM, DAMAGES OR OTHER
  - LIABILITY, WHETHER IN AN ACTION OF CONTRACT, TORT OR OTHERWISE, ARISING FROM,
  - OUT OF OR IN CONNECTION WITH THE SOFTWARE OR THE USE OR OTHER DEALINGS IN THE
  - SOFTWARE.
  -
  -
  -->

<svg big="true" version="1.1" xmlns="http://www.w3.org/2000/svg" viewBox="0 0 512 512" width="16px" height="16px">
    <defs>
        <mask id="Mask">
            <rect x="0" y="0" width="512" height="512" fill="white"/>
            <rect x="200" y="240" width="320" height="300" fill="black"/>
        </mask>
    </defs>
    <g fill="#AB7967" iconColor="Test Coffee">
        <path mask="url(#Mask)"
              d="M501.3135071,441.2059937c0,23.4335938-19.1132812,38.9196777-42.546875,38.9196777h-212.733902c-23.434082,0-42.546875-15.486084-42.546875-38.9196777H501.3135071z M448.1298828,244.423996H256.6694336c-5.8168793,0-10.6367035,4.8193359-10.6367035,10.6367188v122.3222809c0,20.4423828,16.7856293,36.2279968,37.2280121,36.2279968h117.0039062c20.9401245,0,38.9959717-16.3762512,37.2285156-41.5463562C533.5662231,377.6021118,536.3162231,248.8520966,448.1298828,244.423996z M437.4931641,340.15448v-63.8203125C490.2568359,267.8689575,498.3963623,345.3977661,437.4931641,340.15448z M267.5789795,225.1707764h31.9750977l-23.8644409-37.418335V61.9749107h26.0755005c19.5045166,0,19.5045166-27.5949097,0-27.5949097H111.835083c-19.5045166,0-19.5045166,27.5949097-0.0004883,27.5949097h26.0749512v125.7775269L5.7651367,406.8970337c-12.4072876,21.1151123-4.6187134,34.3093262,21.729248,34.3093262h155.9700928v-27.5949097H33.9144897l131.9580688-218.8084717V61.9749107h81.8540649v132.828064L267.5789795,225.1707764z M218.9661713,385.906311H84.6912231l84.8234253-141.4821167h49.4515228V385.906311z"/>
        <path transform="scale(20) translate(10 10)"
              d="M6.554,2.492A0.21,0.21,0,0,1,6.4,2.71a1.636,1.636,0,0,0-.817-0.122C5.264,2.614,5,2.723,5.035,2.955s0.357,0.367.906,0.313c1.34-.122,1.328-1.089,3.294-1.279,1.532-.15,2.387.354,2.5,0.966,0.089,0.476-.281.939-1.392,1.034-0.983.1-1.557-.191-1.609-0.476-0.026-.15.051-0.367,0.523-0.422a0.759,0.759,0,0,0,.957.408c0.46-.041.843-0.218,0.792-0.49s-0.536-.449-1.3-0.381C8.15,2.778,7.767,3.69,6.439,3.812A1.552,1.552,0,0,1,4.626,3c-0.038-.2-0.038-0.68.957-0.776a0.918,0.918,0,0,1,.97.272h0ZM1.575,8.181a2.947,2.947,0,0,0-.587,1.933,2.292,2.292,0,0,0,.83,1.633,1.913,1.913,0,0,0,1.685.422,5.5,5.5,0,0,0,.753-0.259,2.048,2.048,0,0,1-1.379-.544,2.232,2.232,0,0,1-.868-1.511,2.133,2.133,0,0,1,.306-1.606,1.965,1.965,0,0,1,1.379-.8,2.3,2.3,0,0,1,1.609.5,3.608,3.608,0,0,0-.434-0.463,1.957,1.957,0,0,0-1.736-.367A2.6,2.6,0,0,0,1.575,8.181h0ZM8.418,5.037a19.246,19.246,0,0,1-4.175-.422c-1.136-.3-1.736-0.626-1.736-1.048a0.615,0.615,0,0,1,.306-0.5c-0.715.3-1.1,0.544-1.1,0.925,0.038,0.422.677,0.844,1.979,1.17a18.6,18.6,0,0,0,4.685.5,18.384,18.384,0,0,0,4.685-.5c1.3-.327,1.928-0.762,1.928-1.17a1.051,1.051,0,0,0-.791-0.8,0.466,0.466,0,0,1,.2.367c0,0.422-.587.762-1.775,1.048a18.534,18.534,0,0,1-4.213.436h0Zm4.7,1.17a19.947,19.947,0,0,1-4.685.5,20.81,20.81,0,0,1-4.724-.5,3.228,3.228,0,0,1-1.889-.966,12.952,12.952,0,0,0,1.3,4.083c0.472,0.762.945,1.429,1.417,2.15a5.509,5.509,0,0,1,.434,1.266,2.285,2.285,0,0,0,1.3.925,5.019,5.019,0,0,0,2.094.327H8.443a5.6,5.6,0,0,0,2.157-.327,2.444,2.444,0,0,0,1.264-.925H11.9a5.364,5.364,0,0,1,.4-1.266c0.472-.721.945-1.388,1.417-2.15a13.756,13.756,0,0,0,1.3-4.083,3.13,3.13,0,0,1-1.9.966h0Z"/>
    </g>
</svg>
