<!--
  - The MIT License (MIT)
  -
  - Copyright (c) 2015-2022 Elior "Mallowigi" Boukhobza
  -
  - Permission is hereby granted, free of charge, to any person obtaining a copy
  - of this software and associated documentation files (the "Software"), to deal
  - in the Software without restriction, including without limitation the rights
  - to use, copy, modify, merge, publish, distribute, sublicense, and/or sell
  - copies of the Software, and to permit persons to whom the Software is
  - furnished to do so, subject to the following conditions:
  -
  - The above copyright notice and this permission notice shall be included in all
  - copies or substantial portions of the Software.
  -
  - THE SOFTWARE IS PROVIDED "AS IS", WITHOUT WARRANTY OF ANY KIND, EXPRESS OR
  - IMPLIED, INCLUDING BUT NOT LIMITED TO THE WARRANTIES OF MERCHANTABILITY,
  - FITNESS FOR A PARTICULAR PURPOSE AND NONINFRINGEMENT. IN NO EVENT SHALL THE
  - AUTHORS OR COPYRIGHT HOLDERS BE LIABLE FOR ANY CLAIM, DAMAGES OR OTHER
  - LIABILITY, WHETHER IN AN ACTION OF CONTRACT, TORT OR OTHERWISE, ARISING FROM,
  - OUT OF OR IN CONNECTION WITH THE SOFTWARE OR THE USE OR OTHER DEALINGS IN THE
  - SOFTWARE.
  -
  -
  -->

<svg big="true" version="1.1" xmlns="http://www.w3.org/2000/svg" x="0px" y="0px" width="16px" height="16px"
     viewBox="0 0 512 512">
    <defs>
        <mask id="Mask">
            <rect x="0" y="0" width="512" height="512" fill="white"/>
            <rect x="200" y="240" width="320" height="300" fill="black"/>
        </mask>
    </defs>
    <g fill="#FF5370" iconColor="Test Scala">
        <path mask="url(#Mask)"
              d="M501.3135071,441.2059937c0,23.4335938-19.1132812,38.9196777-42.546875,38.9196777h-212.733902c-23.434082,0-42.546875-15.486084-42.546875-38.9196777H501.3135071z M448.1298828,244.423996H256.6694336c-5.8168793,0-10.6367035,4.8193359-10.6367035,10.6367188v122.3222809c0,20.4423828,16.7856293,36.2279968,37.2280121,36.2279968h117.0039062c20.9401245,0,38.9959717-16.3762512,37.2285156-41.5463562C533.5662231,377.6021118,536.3162231,248.8520966,448.1298828,244.423996z M437.4931641,340.15448v-63.8203125C490.2568359,267.8689575,498.3963623,345.3977661,437.4931641,340.15448z M267.5789795,225.1707764h31.9750977l-23.8644409-37.418335V61.9749107h26.0755005c19.5045166,0,19.5045166-27.5949097,0-27.5949097H111.835083c-19.5045166,0-19.5045166,27.5949097-0.0004883,27.5949097h26.0749512v125.7775269L5.7651367,406.8970337c-12.4072876,21.1151123-4.6187134,34.3093262,21.729248,34.3093262h155.9700928v-27.5949097H33.9144897l131.9580688-218.8084717V61.9749107h81.8540649v132.828064L267.5789795,225.1707764z M218.9661713,385.906311H84.6912231l84.8234253-141.4821167h49.4515228V385.906311z"/>
        <path transform="scale(20) translate(10 10)"
              d="M13,1c-0.737.877-7.155,1.55-9.99,1.867V6.16c2.726-.249,9.265-0.736,9.951-1.867ZM12.99,5.439C12.253,6.316,5.835,6.989,3,7.306V10.6c2.726-.249,9.266-0.736,9.951-1.867ZM13,9.84c-0.737.877-7.155,1.551-9.99,1.867V15c2.726-.249,9.266-0.736,9.952-1.867Z"/>
    </g>
</svg>
