<!--
  - The MIT License (MIT)
  -
  - Copyright (c) 2015-2023 Elior "Mallowigi" Boukhobza
  -
  - Permission is hereby granted, free of charge, to any person obtaining a copy
  - of this software and associated documentation files (the "Software"), to deal
  - in the Software without restriction, including without limitation the rights
  - to use, copy, modify, merge, publish, distribute, sublicense, and/or sell
  - copies of the Software, and to permit persons to whom the Software is
  - furnished to do so, subject to the following conditions:
  -
  - The above copyright notice and this permission notice shall be included in all
  - copies or substantial portions of the Software.
  -
  - THE SOFTWARE IS PROVIDED "AS IS", WITHOUT WARRANTY OF ANY KIND, EXPRESS OR
  - IMPLIED, INCLUDING BUT NOT LIMITED TO THE WARRANTIES OF MERCHANTABILITY,
  - FITNESS FOR A PARTICULAR PURPOSE AND NONINFRINGEMENT. IN NO EVENT SHALL THE
  - AUTHORS OR COPYRIGHT HOLDERS BE LIABLE FOR ANY CLAIM, DAMAGES OR OTHER
  - LIABILITY, WHETHER IN AN ACTION OF CONTRACT, TORT OR OTHERWISE, ARISING FROM,
  - OUT OF OR IN CONNECTION WITH THE SOFTWARE OR THE USE OR OTHER DEALINGS IN THE
  - SOFTWARE.
  -
  -->

<svg big="true" viewBox="0 0 864 725" width="16px" height="16px" version="1.1" xmlns="http://www.w3.org/2000/svg"
>
    <g fill="#e28435" iconColor="TidyParse">
        <path id="svg_2" d="m316.5,704l0.5,19l-107.5,0l-0.5,-0.5l0,-17.5l106.5,0l1,-1z"
        />
        <path id="svg_3" d="m606,705l105.5,0l0.5,0.5l0,18.5l-105.5,0l-0.5,-0.5l0,-18.5z"
        />
        <path id="svg_8"
              d="M 750.482 9.066 C 775.5 9.066 793.01 8.68 815.482 20.066 C 840.699 32.842 848.969 64.18 845.982 89.566 C 844.529 101.914 846.912 108.507 839.982 119.566 C 834.688 128.014 828.917 136.424 821.482 143.066 C 815.472 148.435 794.12 157.389 785.171 157.757 C 749.383 159.231 677.674 173.41 644.982 136.566 C 617.257 105.32 617.726 42.537 657.482 20.066 C 674.579 10.403 731.179 9.066 750.482 9.066 Z"
        />
        <path id="svg_9"
              d="M 70.051 11.189 C 121.227 9.393 185.267 -3.957 218.551 44.689 C 223.671 52.173 224.82 61.788 226.551 70.689 C 227.569 75.924 227.174 81.392 226.551 86.689 C 224.982 100.025 227.375 106.205 220.551 118.689 C 209.957 138.068 192.351 155.657 169.051 158.189 C 152.482 159.989 135.718 158.189 119.051 158.189 C 83.947 158.189 47.89 164.635 22.551 134.689 C 9.446 119.202 2.793 86.498 8.551 67.689 C 13.157 52.643 17.451 43.069 27.209 30.724 C 36.063 19.524 63.256 11.427 70.051 11.189 Z"
        />
        <path id="svg_10"
              d="M 508.5 12 C 527.607 13.911 545.758 19.595 558 36.5 C 577.792 63.832 578.407 113.093 553.5 138 C 544.291 147.209 525.136 157.19 511.5 158 C 458.198 161.166 367.79 177.824 353 103.5 C 350.658 91.731 351.119 79.352 353 67.5 C 356.807 43.518 370.688 26.254 392.5 17 C 397.938 14.693 403.7 13.115 409.5 12 C 412.79 11.367 485.54 9.704 508.5 12 Z"
        />
        <path id="svg_11"
              d="M 97.603 186.329 C 92.701 183.629 139.048 183.474 139.95 184.298 C 142.601 186.719 137.255 193.719 137.889 197.253 C 138.602 201.224 139.647 204.147 142.5 207 C 151.866 216.366 164.492 215.908 176.5 217 C 207.461 219.815 242.108 215.563 273.5 213 C 277.871 212.643 302.158 211.406 307.5 212 C 330.827 214.592 353.926 216.776 376.5 224 C 386.943 227.342 397.361 230.825 407.5 235 C 414.392 237.838 420.997 241.358 427.5 245 C 427.941 245.247 433.864 251.865 436.5 249 C 446.877 237.721 445.723 225.952 445 211.5 C 444.592 203.337 437.742 187.218 442.034 180.262 C 444.572 176.149 453.688 186.549 458.5 187 C 459.204 187.066 459.863 187.806 460 188.5 C 466.633 222.122 475.81 252.781 473 286.5 C 472.711 289.968 468.504 293.358 470 296.5 C 472.441 301.625 478.925 303.548 483 307.5 C 489.94 314.229 496.669 321.195 503 328.5 C 521.401 349.732 522.731 380.711 517 406.5 C 515.559 412.983 512.424 419.013 511 425.5 C 507.91 439.577 508 440.872 508 449.5 C 508 454.833 507.687 460.176 508 465.5 C 508.028 465.971 509.471 466.496 509 466.5 C 477.415 466.772 460.273 471.284 428.46 470.436 C 420.993 470.237 397.78 472.01 390.471 470.77 C 384.014 469.675 394.401 453.511 397 447.5 C 399.791 441.046 404.718 435.719 408 429.5 C 413.457 419.16 421.33 402.75 423 390.5 C 424.754 377.64 412.499 347.413 410 343.5 C 399.359 326.836 379.674 301.691 361.5 291 C 324.266 269.097 281.607 261.954 239.5 257 C 192.574 251.479 148.24 251.319 112 216.5 C 104.299 209.101 104.274 190.003 97.603 186.329 Z M 169 159 C 172.872 159.389 168.669 166.985 167 170.5 C 162.477 180.023 149.301 185.044 140.5 187 C 132.684 188.737 95.604 187.969 86.5 184 C 83.319 182.613 57.101 160.864 69.713 158.49 C 82.05 156.168 160.917 158.188 169 159 Z"
        />
        <path id="svg_48"
              d="M 416.61 159.018 C 451.22 157.336 479.043 159.153 510.5 159 C 512.341 158.991 511.655 162.78 511 164.5 C 508.902 170.007 506.667 175.833 502.5 180 C 499.436 183.064 494.592 183.573 490.5 185 C 487.408 186.079 481.683 184.297 481 187.5 C 475.232 214.565 498.684 238.879 507 260.5 C 511.037 270.995 511.168 282.618 514 293.5 C 514.361 294.887 515.089 297.253 516.5 297 C 522.532 295.917 527.753 292.128 533.5 290 C 545.759 285.46 557.812 280.148 570.5 277 C 601.174 269.389 684.7 265.95 711 226.5 C 718.872 214.692 725.37 198.329 720.5 185 C 717.025 175.491 699.906 180.825 692 174.5 C 687.833 171.167 682.664 159.037 688 159 C 722.62 158.762 754.066 157.977 786.5 159 C 788.34 159.058 787.877 162.881 787 164.5 C 783.364 171.213 779.582 178.386 773.5 183 C 769.28 186.201 759.959 181.579 758 186.5 C 752.051 201.446 759.291 219.694 753 234.5 C 742.352 259.56 728.519 284.544 708.5 303 C 692.923 317.361 670.057 320.851 650.5 329 C 646.02 330.867 593.315 352.709 589.382 355.552 C 554.554 380.731 559.953 377.51 535 412.5 C 525.799 425.402 541.111 443.788 547 458.5 C 552.308 471.76 548.267 472.868 534.565 476.898 C 514.861 482.693 531.366 477.693 513 468.5 C 511.262 467.63 508.381 467.406 508 465.5 C 504.098 445.992 512.788 418.981 513.991 399.123 C 515.141 380.146 521.532 367.354 515 349.5 C 508.391 331.434 491.951 318.664 479.5 304 C 476.889 300.924 471.405 300.282 470 296.5 C 468.788 293.238 472.711 289.968 473 286.5 C 473.72 277.863 473.957 269.114 473 260.5 C 471.614 248.025 468.212 235.856 466 223.5 C 464.066 212.698 465.534 200.815 460.565 191.03 C 456.444 182.916 437.621 185.101 430.541 181.716 C 425.675 179.39 420.3 177.208 416.89 173.03 C 413.758 169.193 411.663 159.258 416.61 159.018 Z"
        />
        <path id="svg_107"
              d="M 470.5 556 C 474.004 556.005 470.781 563.003 471 566.5 C 471.126 568.524 471.935 570.473 472 572.5 C 472.839 598.521 470.211 624.454 471 650.5 C 471.323 661.162 471 671.833 471 682.5 C 471 687.5 469.51 690.277 469.393 695.276 C 469.354 696.941 470.939 703.318 469.274 703.366 C 418.22 704.842 368.377 701.11 317.308 701.942 C 316.124 701.961 316.684 704.968 315.5 705 C 280.361 705.953 246.213 704.268 210 705 C 205.834 705.084 208.897 696.518 210 692.5 C 211.303 687.754 218.847 684.062 217 679.5 C 212.292 667.869 200.206 660.772 193 650.5 C 177.627 628.585 155.291 586.6 153.67 560.438 C 152.665 544.223 363.99 555.834 470.5 556 Z"
        />
        <path id="svg_146"
              d="M 470.974 555.292 C 571.647 555.224 672.282 545.401 772 556.5 C 783.013 557.726 766.874 578.119 763 588.5 C 758.515 600.519 753.018 612.171 747 623.5 C 741.662 633.548 735.776 643.36 729 652.5 C 721.399 662.753 709.59 670.026 704 681.5 C 702.297 684.995 709.866 687.215 711.119 690.895 C 712.585 695.201 716.548 704.91 712 705 C 677.129 705.687 641.661 704.465 606.5 705 C 605.557 705.014 605.443 703.026 604.5 703 C 559.958 701.759 514.192 705.477 470.582 703.405 C 467.898 703.277 469.575 700.404 468.993 669.518 C 468.48 642.275 469.458 631.576 469.458 625.243 C 469.458 588.806 465.464 555.296 470.974 555.292 Z"
        />
        <path id="svg_157"
              d="M 266.634 466.681 L 658.657 466.681 C 710.014 466.681 751.646 483.023 751.646 503.181 C 751.646 523.339 710.013 539.681 658.657 539.681 L 266.634 539.681 C 215.278 539.681 173.646 523.339 173.646 503.181 C 173.646 483.023 215.278 466.681 266.634 466.681 L 266.634 466.681 Z"
        />
        <path id="svg_1"
              d="M 682.5 492 C 716.005 491.943 749.649 489.847 783.012 492.937 C 789.691 493.556 799.837 496.251 800.48 502.928 C 804.733 547.076 799.789 556.949 771.5 557 C 564.5 557.374 357.478 560.013 150.5 557 C 118.804 556.539 123.37 544.896 122.889 519.268 C 122.744 511.548 121.302 501.915 127.74 497.653 C 136.083 492.13 148.495 494.054 158.5 494 C 333.165 493.054 507.832 492.297 682.5 492 Z"
        />
    </g>
</svg>
