<!--
  - The MIT License (MIT)
  -
  - Copyright (c) 2015-2022 Elior "Mallowigi" Boukhobza
  -
  - Permission is hereby granted, free of charge, to any person obtaining a copy
  - of this software and associated documentation files (the "Software"), to deal
  - in the Software without restriction, including without limitation the rights
  - to use, copy, modify, merge, publish, distribute, sublicense, and/or sell
  - copies of the Software, and to permit persons to whom the Software is
  - furnished to do so, subject to the following conditions:
  -
  - The above copyright notice and this permission notice shall be included in all
  - copies or substantial portions of the Software.
  -
  - THE SOFTWARE IS PROVIDED "AS IS", WITHOUT WARRANTY OF ANY KIND, EXPRESS OR
  - IMPLIED, INCLUDING BUT NOT LIMITED TO THE WARRANTIES OF MERCHANTABILITY,
  - FITNESS FOR A PARTICULAR PURPOSE AND NONINFRINGEMENT. IN NO EVENT SHALL THE
  - AUTHORS OR COPYRIGHT HOLDERS BE LIABLE FOR ANY CLAIM, DAMAGES OR OTHER
  - LIABILITY, WHETHER IN AN ACTION OF CONTRACT, TORT OR OTHERWISE, ARISING FROM,
  - OUT OF OR IN CONNECTION WITH THE SOFTWARE OR THE USE OR OTHER DEALINGS IN THE
  - SOFTWARE.
  -
  -
  -->

<svg big="true" version="1.1" xmlns="http://www.w3.org/2000/svg" viewBox="0 0 470 512" width="16px" height="16px">
    <path fill="#70d37b" iconColor="Tilt"
          d="M157.1739655,14.947897v127.9085617c0,8.0835724-6.5489197,14.6327362-14.6327209,14.6327362H14.6327238C6.5489097,157.4891968,0,150.940033,0,142.8564606V89.8256302c0-5.0910187,2.6604676-9.8233719,7.0093546-12.4841232L129.6736603,2.4640307C142.4738922-3.6804657,157.1739655,2.1054225,157.1739655,14.947897z M470,141.6285553V14.9479237c0-8.0582333-6.5489197-14.6071482-14.6327209-14.6071482H202.5946045c-8.0838013,0-14.6327209,6.5489154-14.6327209,14.6327286v482.3937683c0,8.0837708,6.5489197,14.6327209,14.6327209,14.6327209h141.2876587c8.0838318,0,14.6327209-6.5489502,14.6327209-14.6327209V170.8940125c0-8.0838318,6.5489502-14.6327362,14.6327515-14.6327362h82.2195435C463.4510803,156.2612762,470,149.7123566,470,141.6285553z"/>
</svg>
