<!--
  - The MIT License (MIT)
  -
  - Copyright (c) 2015-2022 Elior "Mallowigi" Boukhobza
  -
  - Permission is hereby granted, free of charge, to any person obtaining a copy
  - of this software and associated documentation files (the "Software"), to deal
  - in the Software without restriction, including without limitation the rights
  - to use, copy, modify, merge, publish, distribute, sublicense, and/or sell
  - copies of the Software, and to permit persons to whom the Software is
  - furnished to do so, subject to the following conditions:
  -
  - The above copyright notice and this permission notice shall be included in all
  - copies or substantial portions of the Software.
  -
  - THE SOFTWARE IS PROVIDED "AS IS", WITHOUT WARRANTY OF ANY KIND, EXPRESS OR
  - IMPLIED, INCLUDING BUT NOT LIMITED TO THE WARRANTIES OF MERCHANTABILITY,
  - FITNESS FOR A PARTICULAR PURPOSE AND NONINFRINGEMENT. IN NO EVENT SHALL THE
  - AUTHORS OR COPYRIGHT HOLDERS BE LIABLE FOR ANY CLAIM, DAMAGES OR OTHER
  - LIABILITY, WHETHER IN AN ACTION OF CONTRACT, TORT OR OTHERWISE, ARISING FROM,
  - OUT OF OR IN CONNECTION WITH THE SOFTWARE OR THE USE OR OTHER DEALINGS IN THE
  - SOFTWARE.
  -
  -
  -->

<svg big="true" version="1.1" xmlns="http://www.w3.org/2000/svg" width="16px" height="16px" viewBox="0 0 512 512">
    <path fill="#FFF176" iconColor="TLA+"
          d="M376.3166809,21.7105827l-82.8455811,81.3367004H0v387.242157l460.0776672-0.4493103V205.4110107L512,153.4892578L376.3166809,21.7105827z M37.6316795,129.7536316h230.6407471l-22.9994507,22.9992218l11.3163147,10.9906769H37.6316795V129.7536316z M423.6599121,464.7969971H37.6316795V197.7334442h253.9546509l89.3699036,86.7980804l42.7036743-42.703125V464.7969971z M393.3117676,164.9573822v69.1938171h-31.5620422v-69.1937408h-66.7658997V133.395401h66.7658997V69.057373h31.5620422v64.338028h66.7658997v31.5619812H393.3117676z M144.4570923,286.3499756v-52.1987762h173.5913086v52.1987762H291.342041v-24.2785034h-40.0595245v143.2431946h27.9202728v31.5620422h-88.6165314v-31.5620422h27.9202728V262.0710144h-48.984848v24.2789612H144.4570923z"/>
</svg>
