<!--
  - The MIT License (MIT)
  -
  - Copyright (c) 2015-2022 Elior "Mallowigi" Boukhobza
  -
  - Permission is hereby granted, free of charge, to any person obtaining a copy
  - of this software and associated documentation files (the "Software"), to deal
  - in the Software without restriction, including without limitation the rights
  - to use, copy, modify, merge, publish, distribute, sublicense, and/or sell
  - copies of the Software, and to permit persons to whom the Software is
  - furnished to do so, subject to the following conditions:
  -
  - The above copyright notice and this permission notice shall be included in all
  - copies or substantial portions of the Software.
  -
  - THE SOFTWARE IS PROVIDED "AS IS", WITHOUT WARRANTY OF ANY KIND, EXPRESS OR
  - IMPLIED, INCLUDING BUT NOT LIMITED TO THE WARRANTIES OF MERCHANTABILITY,
  - FITNESS FOR A PARTICULAR PURPOSE AND NONINFRINGEMENT. IN NO EVENT SHALL THE
  - AUTHORS OR COPYRIGHT HOLDERS BE LIABLE FOR ANY CLAIM, DAMAGES OR OTHER
  - LIABILITY, WHETHER IN AN ACTION OF CONTRACT, TORT OR OTHERWISE, ARISING FROM,
  - OUT OF OR IN CONNECTION WITH THE SOFTWARE OR THE USE OR OTHER DEALINGS IN THE
  - SOFTWARE.
  -
  -
  -->

<svg big="true" xmlns="http://www.w3.org/2000/svg" viewBox="0 0 32 32" width="16px" height="16px">
    <path d="M2,7.79A1,1,0,0,1,3,7L3.3,7,14,9.59a7.2,7.2,0,0,0,4,0L28.71,7A1.07,1.07,0,0,1,29,7a1,1,0,0,1,.25,2L18.48,11.58A1.86,1.86,0,0,0,17,13.39V14.7a3.28,3.28,0,0,0,.51,1.75l4.08,6.3a1.36,1.36,0,0,0,2.14.19l4.47-4.8a1,1,0,0,1,1.5,1.39l-4.47,4.8a3.41,3.41,0,0,1-5.36-.46l-3.71-5.74a.24.24,0,0,0-.31-.07.23.23,0,0,0-.07.07L12.1,23.87a3.41,3.41,0,0,1-5.36.46l-4.46-4.8a1,1,0,0,1,.05-1.44,1,1,0,0,1,1.45.05l4.46,4.8a1.37,1.37,0,0,0,1.93.07,1.33,1.33,0,0,0,.21-.26l4.08-6.3A3.2,3.2,0,0,0,15,14.7V13.4a1.87,1.87,0,0,0-1.45-1.82L2.79,9A1,1,0,0,1,2,7.79Z"
          fill="#fac864" iconColor="Toit"/>
</svg>
