<!--
  - The MIT License (MIT)
  -
  - Copyright (c) 2015-2023 Elior "Mallowigi" Boukhobza
  -
  - Permission is hereby granted, free of charge, to any person obtaining a copy
  - of this software and associated documentation files (the "Software"), to deal
  - in the Software without restriction, including without limitation the rights
  - to use, copy, modify, merge, publish, distribute, sublicense, and/or sell
  - copies of the Software, and to permit persons to whom the Software is
  - furnished to do so, subject to the following conditions:
  -
  - The above copyright notice and this permission notice shall be included in all
  - copies or substantial portions of the Software.
  -
  - THE SOFTWARE IS PROVIDED "AS IS", WITHOUT WARRANTY OF ANY KIND, EXPRESS OR
  - IMPLIED, INCLUDING BUT NOT LIMITED TO THE WARRANTIES OF MERCHANTABILITY,
  - FITNESS FOR A PARTICULAR PURPOSE AND NONINFRINGEMENT. IN NO EVENT SHALL THE
  - AUTHORS OR COPYRIGHT HOLDERS BE LIABLE FOR ANY CLAIM, DAMAGES OR OTHER
  - LIABILITY, WHETHER IN AN ACTION OF CONTRACT, TORT OR OTHERWISE, ARISING FROM,
  - OUT OF OR IN CONNECTION WITH THE SOFTWARE OR THE USE OR OTHER DEALINGS IN THE
  - SOFTWARE.
  -
  -->

<svg big="true" viewBox="0 0 16 16" xmlns="http://www.w3.org/2000/svg" width="16px" height="16px">
    <defs>
        <mask id="Mask">
            <rect y="2" width="16" height="12" fill="white"/>
            <g transform="matrix(0.109779, 0, 0, 0.098813, 1.166782, 4.663317)" fill="black">
                <g transform="matrix(1.337753, 0, 0, 1.511083, 17.912626, 11.895905)">
                    <path d="m -1.714732,34.67764 v 3.571875 h -1.537891 q -6.176367,0 -8.284765,-1.835547 -2.083594,-1.835547 -2.083594,-7.317382 v -5.928321 q 0,-3.745507 -1.339453,-5.184179 -1.339453,-1.438672 -4.861719,-1.438672 h -1.513086 v -3.547071 h 1.513086 q 3.54707,0 4.861719,-1.413868 1.339453,-1.438672 1.339453,-5.1345705 V 0.49677947 q 0,-5.48183567 2.083594,-7.29257817 2.108398,-1.8355461 8.284765,-1.8355461 h 1.537891 v 3.5470698 h -1.686719 q -3.497461,0 -4.564062,1.0914063 -1.066602,1.0914062 -1.066602,4.58886704 V 6.7475608 q 0,3.8943362 -1.141016,5.6554692 -1.116211,1.761134 -3.844726,2.381251 2.75332,0.669727 3.869531,2.430859 1.116211,1.761133 1.116211,5.630664 v 6.151563 q 0,3.497461 1.066602,4.588867 1.066601,1.091406 4.564062,1.091406 z"/>
                    <path d="m 11.999382,34.67764 h 1.736328 q 3.472657,0 4.514453,-1.066601 1.066602,-1.066602 1.066602,-4.613672 v -6.151563 q 0,-3.869531 1.116211,-5.630664 1.116211,-1.761132 3.869531,-2.430859 -2.75332,-0.620117 -3.869531,-2.381251 -1.116211,-1.761134 -1.116211,-5.6554697 V 0.59599784 q 0,-3.52226554 -1.066602,-4.58886704 -1.041796,-1.0914063 -4.514453,-1.0914063 h -1.736328 v -3.5470693 h 1.562696 q 6.176367,0 8.235156,1.8355461 2.083593,1.810742 2.083593,7.29257767 V 6.449904 q 0,3.695898 1.339454,5.134571 1.339453,1.413868 4.861718,1.413868 h 1.537891 v 3.547071 h -1.537891 q -3.522265,0 -4.861718,1.438672 -1.339454,1.438672 -1.339454,5.184179 v 5.928321 q 0,5.481835 -2.083593,7.317382 -2.058789,1.835547 -8.235156,1.835547 h -1.562696 z"/>
                </g>
                <g transform="matrix(1.347072, 0, 0, 1.462154, 8.251692, 16.519758)">
                    <rect width="37" height="4.3254261" x="41.591343" y="-12.774675"/>
                    <rect width="52.586029" height="4.3254266" x="41.591343" y="-3.9568648"/>
                    <rect width="21.981817" height="4.3254266" x="41.591343" y="4.8805099"/>
                    <rect width="16.920479" height="4.3254266" x="68.852844" y="4.8805099"/>
                    <rect width="37" height="4.3254266" x="41.591343" y="13.693441"/>
                    <rect width="9.3714828" height="4.3254266" x="41.591343" y="22.51861"/>
                    <rect width="37.93544" height="4.3254266" x="56.244682" y="22.51861"/>
                    <rect width="19.628399" height="4.3254266" x="41.591343" y="31.347874"/>
                    <rect width="9.4369316" height="4.3254266" x="66.497658" y="31.347874"/>
                    <rect width="12.94333" height="4.3254266" x="81.236794" y="31.349571"/>
                </g>
            </g>
        </mask>
    </defs>

    <g mask="url(#Mask)">
        <rect y="2" width="16" height="12" fill="#FFD54F" iconColor="Tokei"/>
        <g transform="matrix(0.109779, 0, 0, 0.098813, 1.166782, 4.663317)" fill="white">
            <g transform="matrix(1.337753, 0, 0, 1.511083, 17.912626, 11.895905)">
                <path d="m -1.714732,34.67764 v 3.571875 h -1.537891 q -6.176367,0 -8.284765,-1.835547 -2.083594,-1.835547 -2.083594,-7.317382 v -5.928321 q 0,-3.745507 -1.339453,-5.184179 -1.339453,-1.438672 -4.861719,-1.438672 h -1.513086 v -3.547071 h 1.513086 q 3.54707,0 4.861719,-1.413868 1.339453,-1.438672 1.339453,-5.1345705 V 0.49677947 q 0,-5.48183567 2.083594,-7.29257817 2.108398,-1.8355461 8.284765,-1.8355461 h 1.537891 v 3.5470698 h -1.686719 q -3.497461,0 -4.564062,1.0914063 -1.066602,1.0914062 -1.066602,4.58886704 V 6.7475608 q 0,3.8943362 -1.141016,5.6554692 -1.116211,1.761134 -3.844726,2.381251 2.75332,0.669727 3.869531,2.430859 1.116211,1.761133 1.116211,5.630664 v 6.151563 q 0,3.497461 1.066602,4.588867 1.066601,1.091406 4.564062,1.091406 z"/>
                <path d="m 11.999382,34.67764 h 1.736328 q 3.472657,0 4.514453,-1.066601 1.066602,-1.066602 1.066602,-4.613672 v -6.151563 q 0,-3.869531 1.116211,-5.630664 1.116211,-1.761132 3.869531,-2.430859 -2.75332,-0.620117 -3.869531,-2.381251 -1.116211,-1.761134 -1.116211,-5.6554697 V 0.59599784 q 0,-3.52226554 -1.066602,-4.58886704 -1.041796,-1.0914063 -4.514453,-1.0914063 h -1.736328 v -3.5470693 h 1.562696 q 6.176367,0 8.235156,1.8355461 2.083593,1.810742 2.083593,7.29257767 V 6.449904 q 0,3.695898 1.339454,5.134571 1.339453,1.413868 4.861718,1.413868 h 1.537891 v 3.547071 h -1.537891 q -3.522265,0 -4.861718,1.438672 -1.339454,1.438672 -1.339454,5.184179 v 5.928321 q 0,5.481835 -2.083593,7.317382 -2.058789,1.835547 -8.235156,1.835547 h -1.562696 z"/>
            </g>
            <g transform="matrix(1.347072, 0, 0, 1.462154, 8.251692, 16.519758)">
                <rect width="37" height="4.3254261" x="41.591343" y="-12.774675"/>
                <rect width="52.586029" height="4.3254266" x="41.591343" y="-3.9568648"/>
                <rect width="21.981817" height="4.3254266" x="41.591343" y="4.8805099"/>
                <rect width="16.920479" height="4.3254266" x="68.852844" y="4.8805099"/>
                <rect width="37" height="4.3254266" x="41.591343" y="13.693441"/>
                <rect width="9.3714828" height="4.3254266" x="41.591343" y="22.51861"/>
                <rect width="37.93544" height="4.3254266" x="56.244682" y="22.51861"/>
                <rect width="19.628399" height="4.3254266" x="41.591343" y="31.347874"/>
                <rect width="9.4369316" height="4.3254266" x="66.497658" y="31.347874"/>
                <rect width="12.94333" height="4.3254266" x="81.236794" y="31.349571"/>
            </g>
        </g>
    </g>
</svg>
