<!--
  - The MIT License (MIT)
  -
  - Copyright (c) 2015-2022 Elior "Mallowigi" Boukhobza
  -
  - Permission is hereby granted, free of charge, to any person obtaining a copy
  - of this software and associated documentation files (the "Software"), to deal
  - in the Software without restriction, including without limitation the rights
  - to use, copy, modify, merge, publish, distribute, sublicense, and/or sell
  - copies of the Software, and to permit persons to whom the Software is
  - furnished to do so, subject to the following conditions:
  -
  - The above copyright notice and this permission notice shall be included in all
  - copies or substantial portions of the Software.
  -
  - THE SOFTWARE IS PROVIDED "AS IS", WITHOUT WARRANTY OF ANY KIND, EXPRESS OR
  - IMPLIED, INCLUDING BUT NOT LIMITED TO THE WARRANTIES OF MERCHANTABILITY,
  - FITNESS FOR A PARTICULAR PURPOSE AND NONINFRINGEMENT. IN NO EVENT SHALL THE
  - AUTHORS OR COPYRIGHT HOLDERS BE LIABLE FOR ANY CLAIM, DAMAGES OR OTHER
  - LIABILITY, WHETHER IN AN ACTION OF CONTRACT, TORT OR OTHERWISE, ARISING FROM,
  - OUT OF OR IN CONNECTION WITH THE SOFTWARE OR THE USE OR OTHER DEALINGS IN THE
  - SOFTWARE.
  -
  -
  -->

<svg big="true" version="1.1" xmlns="http://www.w3.org/2000/svg" width="16px" height="16px" viewBox="0 0 32 32">
    <path fill="#F07178" iconColor="Travis"
          d="M11.392 9.374h4.096v13.12h-1.536v2.24h6.080v-2.496h-1.92v-13.056h4.352v1.92h1.984v-3.904h-15.296v3.904h2.24zM29.263 2.718h-24.848c-0.433 0-0.832 0.321-0.832 0.749v24.845c0 0.428 0.398 0.774 0.832 0.774h24.848c0.433 0 0.753-0.347 0.753-0.774v-24.845c0-0.428-0.319-0.749-0.753-0.749zM25.728 12.382h-4.544v-1.92h-1.792v10.496h1.92v5.056h-8.64v-4.8h1.536v-10.56h-1.536v1.728h-4.8v-6.464h17.856v6.464z"></path>
</svg>
