<!--
  - The MIT License (MIT)
  -
  - Copyright (c) 2015-2022 Elior "Mallowigi" Boukhobza
  -
  - Permission is hereby granted, free of charge, to any person obtaining a copy
  - of this software and associated documentation files (the "Software"), to deal
  - in the Software without restriction, including without limitation the rights
  - to use, copy, modify, merge, publish, distribute, sublicense, and/or sell
  - copies of the Software, and to permit persons to whom the Software is
  - furnished to do so, subject to the following conditions:
  -
  - The above copyright notice and this permission notice shall be included in all
  - copies or substantial portions of the Software.
  -
  - THE SOFTWARE IS PROVIDED "AS IS", WITHOUT WARRANTY OF ANY KIND, EXPRESS OR
  - IMPLIED, INCLUDING BUT NOT LIMITED TO THE WARRANTIES OF MERCHANTABILITY,
  - FITNESS FOR A PARTICULAR PURPOSE AND NONINFRINGEMENT. IN NO EVENT SHALL THE
  - AUTHORS OR COPYRIGHT HOLDERS BE LIABLE FOR ANY CLAIM, DAMAGES OR OTHER
  - LIABILITY, WHETHER IN AN ACTION OF CONTRACT, TORT OR OTHERWISE, ARISING FROM,
  - OUT OF OR IN CONNECTION WITH THE SOFTWARE OR THE USE OR OTHER DEALINGS IN THE
  - SOFTWARE.
  -
  -
  -->

<svg big="true" xmlns="http://www.w3.org/2000/svg" width="16px" height="16px" viewBox="0 0 16 16">
    <path fill="#1E9CEF" iconColor="TSLint"
          d="M10.771,11.992a2.282,2.282,0,0,1-1.632-.759v1.29c1.055,0.686,2.87.56,3.5-.264a1.9,1.9,0,0,0,.253-1.889c-0.656-1.321-2.214-1.4-2.668-2.238-0.5-1.351,1.564-1.6,2.557-.685V6.234a2.846,2.846,0,0,0-1.566-.277A1.919,1.919,0,0,0,9.148,7.824c-0.054,1.5,1.663,1.891,2.525,2.586C12.259,10.908,12.217,12.113,10.771,11.992Zm-4.913.862V7.016H3.977V6.051h4.8V7.016H6.9v5.838H5.857ZM14.125,1.875v12.25H1.875V1.875h12.25ZM15,1H1V15H15V1Z"
    />
</svg>
