<!--
  - The MIT License (MIT)
  -
  - Copyright (c) 2015-2022 Elior "Mallowigi" Boukhobza
  -
  - Permission is hereby granted, free of charge, to any person obtaining a copy
  - of this software and associated documentation files (the "Software"), to deal
  - in the Software without restriction, including without limitation the rights
  - to use, copy, modify, merge, publish, distribute, sublicense, and/or sell
  - copies of the Software, and to permit persons to whom the Software is
  - furnished to do so, subject to the following conditions:
  -
  - The above copyright notice and this permission notice shall be included in all
  - copies or substantial portions of the Software.
  -
  - THE SOFTWARE IS PROVIDED "AS IS", WITHOUT WARRANTY OF ANY KIND, EXPRESS OR
  - IMPLIED, INCLUDING BUT NOT LIMITED TO THE WARRANTIES OF MERCHANTABILITY,
  - FITNESS FOR A PARTICULAR PURPOSE AND NONINFRINGEMENT. IN NO EVENT SHALL THE
  - AUTHORS OR COPYRIGHT HOLDERS BE LIABLE FOR ANY CLAIM, DAMAGES OR OTHER
  - LIABILITY, WHETHER IN AN ACTION OF CONTRACT, TORT OR OTHERWISE, ARISING FROM,
  - OUT OF OR IN CONNECTION WITH THE SOFTWARE OR THE USE OR OTHER DEALINGS IN THE
  - SOFTWARE.
  -
  -
  -->

<svg big="true" xmlns="http://www.w3.org/2000/svg" viewBox="0 0 32 32" width="16px" height="16px">
    <g fill="#2eb9db" iconColor="TUC">
        <path d="M9.774,14.626a9.883,9.883,0,0,0,.447,2.942,5.613,5.613,0,0,0,.392,1.074,6,6,0,0,0,11.193-4.165A9.992,9.992,0,0,1,3.233,21.725a15.089,15.089,0,0,1-.615-1.66A13.989,13.989,0,0,1,28.79,10.321,10,10,0,0,0,9.774,14.626Z"/>
        <path d="M30,16.023a13.995,13.995,0,0,1-26.767,5.7,9.992,9.992,0,0,0,18.572-7.248,5.492,5.492,0,0,0-.4-1.065,6,6,0,0,0-11.192,4.164,9.992,9.992,0,0,1,18.572-7.241,15.087,15.087,0,0,1,.62,1.658A13.93,13.93,0,0,1,30,16.023Z"/>
    </g>
</svg>
