<svg big="true" xmlns="http://www.w3.org/2000/svg" viewBox="0 0 28 28" width="16px" height="16px">
  <g fill="#d81b60" iconColor="Turborepo">
    <path
        d="M13.94 6.42a7.53 7.53 0 1 0 .02 15.05 7.53 7.53 0 0 0-.02-15.05Zm0 11.41a3.89 3.89 0 1 1 0-7.78 3.89 3.89 0 0 1 0 7.78Z"/>
    <path fill-rule="evenodd"
          d="M14.57 5.19V2.38a11.58 11.58 0 0 1 0 23.12v-2.8a8.79 8.79 0 0 0 0-17.51ZM7.31 19.68a8.74 8.74 0 0 1-2.12-5.11H2.38c.15 2.72 1.23 5.2 2.94 7.1l1.99-1.99Zm6 5.82v-2.8a8.73 8.73 0 0 1-5.11-2.13l-2 1.99c1.9 1.7 4.38 2.8 7.1 2.94Z"/>
  </g>
</svg>
