<!--
  - The MIT License (MIT)
  -
  - Copyright (c) 2015-2022 Elior "Mallowigi" Boukhobza
  -
  - Permission is hereby granted, free of charge, to any person obtaining a copy
  - of this software and associated documentation files (the "Software"), to deal
  - in the Software without restriction, including without limitation the rights
  - to use, copy, modify, merge, publish, distribute, sublicense, and/or sell
  - copies of the Software, and to permit persons to whom the Software is
  - furnished to do so, subject to the following conditions:
  -
  - The above copyright notice and this permission notice shall be included in all
  - copies or substantial portions of the Software.
  -
  - THE SOFTWARE IS PROVIDED "AS IS", WITHOUT WARRANTY OF ANY KIND, EXPRESS OR
  - IMPLIED, INCLUDING BUT NOT LIMITED TO THE WARRANTIES OF MERCHANTABILITY,
  - FITNESS FOR A PARTICULAR PURPOSE AND NONINFRINGEMENT. IN NO EVENT SHALL THE
  - AUTHORS OR COPYRIGHT HOLDERS BE LIABLE FOR ANY CLAIM, DAMAGES OR OTHER
  - LIABILITY, WHETHER IN AN ACTION OF CONTRACT, TORT OR OTHERWISE, ARISING FROM,
  - OUT OF OR IN CONNECTION WITH THE SOFTWARE OR THE USE OR OTHER DEALINGS IN THE
  - SOFTWARE.
  -
  -
  -->

<svg big="true" version="1.1" xmlns="http://www.w3.org/2000/svg" x="0px" y="0px" viewBox="0 0 512 512" width="16px"
     height="16px">
    <path fill="#F78704" iconColor="TypoScript"
          d="M385.7034302,352.8562927c-7.5951538,2.2467651-13.6639099,3.0160828-21.6009827,3.0160828c-65.0104675,0-160.5235291-227.1946869-160.5235291-302.8285217c0-27.8651047,6.6182556-37.1453362,15.9229279-45.1068001C139.9116669,17.2172775,44.398571,46.4011459,13.8959341,83.5464859c-6.6182666,9.2802277-10.598999,23.8843689-10.598999,42.4448318C3.2969348,244.0700226,129.3126678,512,218.2075043,512C259.3335876,512,328.65448,444.3642273,385.7034302,352.8562927z M344.1987915,0C426.4509277,0,508.703064,13.2609529,508.703064,59.6865196c0,94.1943359-59.6865234,208.2678833-90.2135925,208.2678833c-54.3870239,0-122.0350037-151.2188873-122.0350037-226.8283539C296.4544678,6.6426864,309.7153931-0.0000116,344.1987915,0z"/>
</svg>
