<!--
  - The MIT License (MIT)
  -
  - Copyright (c) 2015-2022 Elior "Mallowigi" Boukhobza
  -
  - Permission is hereby granted, free of charge, to any person obtaining a copy
  - of this software and associated documentation files (the "Software"), to deal
  - in the Software without restriction, including without limitation the rights
  - to use, copy, modify, merge, publish, distribute, sublicense, and/or sell
  - copies of the Software, and to permit persons to whom the Software is
  - furnished to do so, subject to the following conditions:
  -
  - The above copyright notice and this permission notice shall be included in all
  - copies or substantial portions of the Software.
  -
  - THE SOFTWARE IS PROVIDED "AS IS", WITHOUT WARRANTY OF ANY KIND, EXPRESS OR
  - IMPLIED, INCLUDING BUT NOT LIMITED TO THE WARRANTIES OF MERCHANTABILITY,
  - FITNESS FOR A PARTICULAR PURPOSE AND NONINFRINGEMENT. IN NO EVENT SHALL THE
  - AUTHORS OR COPYRIGHT HOLDERS BE LIABLE FOR ANY CLAIM, DAMAGES OR OTHER
  - LIABILITY, WHETHER IN AN ACTION OF CONTRACT, TORT OR OTHERWISE, ARISING FROM,
  - OUT OF OR IN CONNECTION WITH THE SOFTWARE OR THE USE OR OTHER DEALINGS IN THE
  - SOFTWARE.
  -
  -
  -->

<svg big="true" version="1.1" xmlns="http://www.w3.org/2000/svg" viewBox="0 0 512 512" width="16px" height="16px">
    <path fill="#e60000" iconColor="UFO"
          d="M512,101.1338196v-9.9582672h-53.7655945V38.77145h-9.958252v52.4041023H56.5841751V38.77145h-9.958271v52.4041023H0v9.9582672h46.6259041v96.2632751H0v9.9582825h46.6259041v209.1236877H0v9.958252h46.6259041v46.7912292h9.958271v-46.7912292H193.740036c37.6626129,13.5913391,81.531723,13.5913391,119.1943512,0h135.3417664v46.7912292h9.958252v-46.7912292H512v-9.958252h-53.7655945V207.3553772H512v-9.9582825h-53.7655945v-96.2632751H512z M216.3797455,312.9705505V207.3553772h77.620285v105.6151733C294.0000305,371.021759,216.3797455,371.021759,216.3797455,312.9705505z M216.3797455,197.3970947v-96.2632751h77.620285v96.2632751H216.3797455z M56.5841751,101.1338196h49.0582428v96.2632751H56.5841751V101.1338196z M56.5841751,416.4790649V207.3553772h49.0582428v95.5025024c0,54.569519,27.6489334,92.4403076,66.0257034,113.6211853H56.5841751z M448.2761536,416.4790649H335.0062866c38.3768005-21.1808777,66.0257263-59.0516663,66.0257263-113.6211853v-95.5025024h47.2441406V416.4790649z M448.2761536,197.3970947h-47.2442627v-96.2632751h47.2442627V197.3970947z"/>
</svg>
