<!--
  - The MIT License (MIT)
  -
  - Copyright (c) 2015-2022 Elior "Mallowigi" Boukhobza
  -
  - Permission is hereby granted, free of charge, to any person obtaining a copy
  - of this software and associated documentation files (the "Software"), to deal
  - in the Software without restriction, including without limitation the rights
  - to use, copy, modify, merge, publish, distribute, sublicense, and/or sell
  - copies of the Software, and to permit persons to whom the Software is
  - furnished to do so, subject to the following conditions:
  -
  - The above copyright notice and this permission notice shall be included in all
  - copies or substantial portions of the Software.
  -
  - THE SOFTWARE IS PROVIDED "AS IS", WITHOUT WARRANTY OF ANY KIND, EXPRESS OR
  - IMPLIED, INCLUDING BUT NOT LIMITED TO THE WARRANTIES OF MERCHANTABILITY,
  - FITNESS FOR A PARTICULAR PURPOSE AND NONINFRINGEMENT. IN NO EVENT SHALL THE
  - AUTHORS OR COPYRIGHT HOLDERS BE LIABLE FOR ANY CLAIM, DAMAGES OR OTHER
  - LIABILITY, WHETHER IN AN ACTION OF CONTRACT, TORT OR OTHERWISE, ARISING FROM,
  - OUT OF OR IN CONNECTION WITH THE SOFTWARE OR THE USE OR OTHER DEALINGS IN THE
  - SOFTWARE.
  -
  -
  -->

<svg big="true" version="1.1" xmlns="http://www.w3.org/2000/svg" viewBox="0 0 512 512" width="16px" height="16px">
    <path fill="#dd1f2c" iconColor="Unicode"
          d="M456.7077637,133.7792358c-24.5004272-14.1247559-24.5004272-49.6284103,0-63.7531815S512,73.6531067,512,101.9026489S481.2081909,147.904007,456.7077637,133.7792358z M446.5042419,355.6297302l-0.000061-178.8508911h58.026123v265.0574951l-78.2944031,0.0159912L281.8922424,171.8039551v154.5942078c-4.7910461,66.4599609-47.9965363,122.4780884-145.7291565,120.4811707C49.4947357,446.4729004,7.6573582,399.8953247,0,327.2168579V87.2323761h64.6781235l-0.0000076,208.0743561c0,65.3507385,23.3429031,94.7866211,75.9737091,94.7866211c54.0651398,0,75.5810852-26.2045898,75.5810852-94.7866211V87.2323761h84.643158L446.5042419,355.6297302z"/>
</svg>
