<!--
  - The MIT License (MIT)
  -
  - Copyright (c) 2015-2022 Elior "Mallowigi" Boukhobza
  -
  - Permission is hereby granted, free of charge, to any person obtaining a copy
  - of this software and associated documentation files (the "Software"), to deal
  - in the Software without restriction, including without limitation the rights
  - to use, copy, modify, merge, publish, distribute, sublicense, and/or sell
  - copies of the Software, and to permit persons to whom the Software is
  - furnished to do so, subject to the following conditions:
  -
  - The above copyright notice and this permission notice shall be included in all
  - copies or substantial portions of the Software.
  -
  - THE SOFTWARE IS PROVIDED "AS IS", WITHOUT WARRANTY OF ANY KIND, EXPRESS OR
  - IMPLIED, INCLUDING BUT NOT LIMITED TO THE WARRANTIES OF MERCHANTABILITY,
  - FITNESS FOR A PARTICULAR PURPOSE AND NONINFRINGEMENT. IN NO EVENT SHALL THE
  - AUTHORS OR COPYRIGHT HOLDERS BE LIABLE FOR ANY CLAIM, DAMAGES OR OTHER
  - LIABILITY, WHETHER IN AN ACTION OF CONTRACT, TORT OR OTHERWISE, ARISING FROM,
  - OUT OF OR IN CONNECTION WITH THE SOFTWARE OR THE USE OR OTHER DEALINGS IN THE
  - SOFTWARE.
  -
  -
  -->

<svg big="true" xmlns="http://www.w3.org/2000/svg" viewBox="0 0 32 32" width="16px" height="16px">
    <g fill="#64B5F6" iconColor="V">
        <path d=" M 20.786 30.237 L 30.948 1.978 C 31.121 1.499 30.849 1.15 30.342 1.198 L 22.35 1.968 C 21.843 2.017 21.296 2.447 21.128 2.928 L 11.722 29.935 C 11.555 30.416 11.832 30.806 12.341 30.806 L 20.12 30.806 C 20.375 30.806 20.651 30.612 20.737 30.372 L 20.786 30.237 Z "/>
        <path d=" M 1.658 1.198 L 9.65 1.968 C 10.157 2.017 10.705 2.447 10.873 2.928 L 20.478 30.371 C 20.562 30.611 20.424 30.806 20.169 30.806 L 12.341 30.806 C 11.832 30.806 11.279 30.417 11.106 29.938 L 1.052 1.978 C 0.879 1.499 1.151 1.15 1.658 1.198 Z "/>
    </g>
</svg>
