<!--
  - The MIT License (MIT)
  -
  - Copyright (c) 2015-2022 Elior "Mallowigi" Boukhobza
  -
  - Permission is hereby granted, free of charge, to any person obtaining a copy
  - of this software and associated documentation files (the "Software"), to deal
  - in the Software without restriction, including without limitation the rights
  - to use, copy, modify, merge, publish, distribute, sublicense, and/or sell
  - copies of the Software, and to permit persons to whom the Software is
  - furnished to do so, subject to the following conditions:
  -
  - The above copyright notice and this permission notice shall be included in all
  - copies or substantial portions of the Software.
  -
  - THE SOFTWARE IS PROVIDED "AS IS", WITHOUT WARRANTY OF ANY KIND, EXPRESS OR
  - IMPLIED, INCLUDING BUT NOT LIMITED TO THE WARRANTIES OF MERCHANTABILITY,
  - FITNESS FOR A PARTICULAR PURPOSE AND NONINFRINGEMENT. IN NO EVENT SHALL THE
  - AUTHORS OR COPYRIGHT HOLDERS BE LIABLE FOR ANY CLAIM, DAMAGES OR OTHER
  - LIABILITY, WHETHER IN AN ACTION OF CONTRACT, TORT OR OTHERWISE, ARISING FROM,
  - OUT OF OR IN CONNECTION WITH THE SOFTWARE OR THE USE OR OTHER DEALINGS IN THE
  - SOFTWARE.
  -
  -
  -->

<svg big="true" xmlns="http://www.w3.org/2000/svg" version="1.1" viewBox="0 0 512 512" width="16px" height="16px">
    <path fill="#64B5F6" iconColor="WebVTT"
          d="M182.4631653,335.8658752C5.5341439,319.3119507,25.3970337,93.1966629,172.1099091,79.2983398h162.280899c159.6882629,12.3109589,166.6224976,236.5186157,4.7191467,256.5675354H182.4631653z M344.0854492,390.8931885c238.5980225-36.5525513,208.9348145-351.8686829-0.8344116-367.6573486H169.6761017c-219.358429,30.812912-221.6698456,311.0725098-32.1444855,361.9703369l100.2046967,103.5580444l-0.0005188-97.8710022H344.0854492z M128.4895782,149.2021637c-8.3313141-24.2833633-39.21875-12.1616211-30.4336853,11.3644714l38.2588043,104.2546234c8.3548126,24.0291443,37.4401703,19.598938,42.4482574,1.1075745l37.2957001-99.3187866h30.5781555v94.8885803c-0.1685333,25.1366882,29.8799133,26.5812988,32.0950317,5.0080566l0.7704773-99.896637h66.6459045v101.17276c0.3038025,17.571167,32.2674255,19.696167,32.7451172-3.4430542v-97.7297058l27.73703-0.0000153c20.3878479,0,21.2479553-28.9279938,0-28.3630371H213.6750183c-11.7637329-6.6059418-19.7817841-1.8804016-23.1623535,7.415802l-31.5894012,93.1068573L128.4895782,149.2021637z"/>
</svg>
