<!--
  - The MIT License (MIT)
  -
  - Copyright (c) 2015-2022 Elior "Mallowigi" Boukhobza
  -
  - Permission is hereby granted, free of charge, to any person obtaining a copy
  - of this software and associated documentation files (the "Software"), to deal
  - in the Software without restriction, including without limitation the rights
  - to use, copy, modify, merge, publish, distribute, sublicense, and/or sell
  - copies of the Software, and to permit persons to whom the Software is
  - furnished to do so, subject to the following conditions:
  -
  - The above copyright notice and this permission notice shall be included in all
  - copies or substantial portions of the Software.
  -
  - THE SOFTWARE IS PROVIDED "AS IS", WITHOUT WARRANTY OF ANY KIND, EXPRESS OR
  - IMPLIED, INCLUDING BUT NOT LIMITED TO THE WARRANTIES OF MERCHANTABILITY,
  - FITNESS FOR A PARTICULAR PURPOSE AND NONINFRINGEMENT. IN NO EVENT SHALL THE
  - AUTHORS OR COPYRIGHT HOLDERS BE LIABLE FOR ANY CLAIM, DAMAGES OR OTHER
  - LIABILITY, WHETHER IN AN ACTION OF CONTRACT, TORT OR OTHERWISE, ARISING FROM,
  - OUT OF OR IN CONNECTION WITH THE SOFTWARE OR THE USE OR OTHER DEALINGS IN THE
  - SOFTWARE.
  -
  -
  -->

<svg big="true" xmlns="http://www.w3.org/2000/svg" version="1.1" viewBox="0 0 300 512" width="16px" height="16px">
    <path fill="#ef5b3a" iconColor="Wenyan"
          d="M0,113V85c36.3502502,0,42-17.1597824,42-23c0-11.7970734-20.7081203-14.1384277-20-32c1.599905-40.3559227,58.1625748-39.6151428,68,0C101.493454,76.2839584,68.4420471,117.0046387,0,113z M125,106h175V65H125V106z M0,187h125v-41H0V187z M173,187h127v-41H173V187z M0,267h125v-41H0V267z M173,267h127v-41H173V267z M125,348v-41H20v205h105v-41H66V348H125z M173,307v41h59v123h-59v41h105V307H173z"/>
</svg>
