<!--
  - The MIT License (MIT)
  -
  - Copyright (c) 2015-2022 Elior "Mallowigi" Boukhobza
  -
  - Permission is hereby granted, free of charge, to any person obtaining a copy
  - of this software and associated documentation files (the "Software"), to deal
  - in the Software without restriction, including without limitation the rights
  - to use, copy, modify, merge, publish, distribute, sublicense, and/or sell
  - copies of the Software, and to permit persons to whom the Software is
  - furnished to do so, subject to the following conditions:
  -
  - The above copyright notice and this permission notice shall be included in all
  - copies or substantial portions of the Software.
  -
  - THE SOFTWARE IS PROVIDED "AS IS", WITHOUT WARRANTY OF ANY KIND, EXPRESS OR
  - IMPLIED, INCLUDING BUT NOT LIMITED TO THE WARRANTIES OF MERCHANTABILITY,
  - FITNESS FOR A PARTICULAR PURPOSE AND NONINFRINGEMENT. IN NO EVENT SHALL THE
  - AUTHORS OR COPYRIGHT HOLDERS BE LIABLE FOR ANY CLAIM, DAMAGES OR OTHER
  - LIABILITY, WHETHER IN AN ACTION OF CONTRACT, TORT OR OTHERWISE, ARISING FROM,
  - OUT OF OR IN CONNECTION WITH THE SOFTWARE OR THE USE OR OTHER DEALINGS IN THE
  - SOFTWARE.
  -
  -
  -->

<svg big="true" version="1.1" viewBox="0 0 108 108" xmlns="http://www.w3.org/2000/svg" width="16px" height="16px">
    <path fill="#4caf50" iconColor="WePy"
          d="m54 10.994a43.006 43.006 0 0 0 -43.006 43.006v36.951c0 3.3552 2.7004 6.0556 6.0556 6.0556h36.948a43.006 43.006 0 0 0 .0031 0 43.006 43.006 0 0 0 43.006 -43.006 43.006 43.006 0 0 0 -43.006 -43.006zm0 11.349a31.657 31.657 0 0 1 31.657 31.657 31.657 31.657 0 0 1 -31.657 31.657 31.657 31.657 0 0 1 -31.657 -31.657 31.657 31.657 0 0 1 31.657 -31.657z"
    />
</svg>
