<!--
  - The MIT License (MIT)
  -
  - Copyright (c) 2015-2022 Elior "Mallowigi" Boukhobza
  -
  - Permission is hereby granted, free of charge, to any person obtaining a copy
  - of this software and associated documentation files (the "Software"), to deal
  - in the Software without restriction, including without limitation the rights
  - to use, copy, modify, merge, publish, distribute, sublicense, and/or sell
  - copies of the Software, and to permit persons to whom the Software is
  - furnished to do so, subject to the following conditions:
  -
  - The above copyright notice and this permission notice shall be included in all
  - copies or substantial portions of the Software.
  -
  - THE SOFTWARE IS PROVIDED "AS IS", WITHOUT WARRANTY OF ANY KIND, EXPRESS OR
  - IMPLIED, INCLUDING BUT NOT LIMITED TO THE WARRANTIES OF MERCHANTABILITY,
  - FITNESS FOR A PARTICULAR PURPOSE AND NONINFRINGEMENT. IN NO EVENT SHALL THE
  - AUTHORS OR COPYRIGHT HOLDERS BE LIABLE FOR ANY CLAIM, DAMAGES OR OTHER
  - LIABILITY, WHETHER IN AN ACTION OF CONTRACT, TORT OR OTHERWISE, ARISING FROM,
  - OUT OF OR IN CONNECTION WITH THE SOFTWARE OR THE USE OR OTHER DEALINGS IN THE
  - SOFTWARE.
  -
  -
  -->

<svg big="true" xmlns="http://www.w3.org/2000/svg" viewBox="0 0 32 32" width="16px" height="16px">
    <g fill="#29a8de" iconColor="WeiXin Styles">
        <path d="M21.453,12.9a9.934,9.934,0,0,0-6.694,2.7,7.95,7.95,0,0,0-2.469,6.734c-1.016-.126-1.941-.264-2.872-.343a1.784,1.784,0,0,0-.975.165c-.9.51-1.77,1.086-2.8,1.727.188-.852.31-1.6.526-2.316a.88.88,0,0,0-.4-1.165c-3.12-2.2-4.435-5.5-3.451-8.894A8.8,8.8,0,0,1,8.506,5.48,10.37,10.37,0,0,1,19.837,8.8a7.761,7.761,0,0,1,1.617,4.1ZM9.491,11.845a1.2,1.2,0,0,0-1.153-1.2,1.164,1.164,0,0,0-1.211,1.125,1.15,1.15,0,0,0,1.139,1.194,1.183,1.183,0,0,0,1.225-1.12Zm6.241-1.2a1.2,1.2,0,0,0-1.172,1.181,1.17,1.17,0,0,0,1.2,1.143,1.162,1.162,0,1,0-.031-2.325Z"/>
        <path d="M27.293,29.107a8.826,8.826,0,0,0-2.382-1,13.322,13.322,0,0,0-2.48.464,8.288,8.288,0,0,1-6.723-2.193c-3.585-3.316-3.073-8.4,1.075-11.118A9.042,9.042,0,0,1,28.475,17a6.64,6.64,0,0,1-.767,9.262c-.8.711-1.09,1.3-.575,2.233a2.658,2.658,0,0,1,.161.611Zm-9.369-9.071a.968.968,0,1,0,.007-1.937.968.968,0,1,0-.007,1.937ZM23.964,18.1a.969.969,0,0,0-.961.926.955.955,0,1,0,.961-.926Z"/>
    </g>
</svg>
