<!--
  - The MIT License (MIT)
  -
  - Copyright (c) 2015-2022 Elior "Mallowigi" Boukhobza
  -
  - Permission is hereby granted, free of charge, to any person obtaining a copy
  - of this software and associated documentation files (the "Software"), to deal
  - in the Software without restriction, including without limitation the rights
  - to use, copy, modify, merge, publish, distribute, sublicense, and/or sell
  - copies of the Software, and to permit persons to whom the Software is
  - furnished to do so, subject to the following conditions:
  -
  - The above copyright notice and this permission notice shall be included in all
  - copies or substantial portions of the Software.
  -
  - THE SOFTWARE IS PROVIDED "AS IS", WITHOUT WARRANTY OF ANY KIND, EXPRESS OR
  - IMPLIED, INCLUDING BUT NOT LIMITED TO THE WARRANTIES OF MERCHANTABILITY,
  - FITNESS FOR A PARTICULAR PURPOSE AND NONINFRINGEMENT. IN NO EVENT SHALL THE
  - AUTHORS OR COPYRIGHT HOLDERS BE LIABLE FOR ANY CLAIM, DAMAGES OR OTHER
  - LIABILITY, WHETHER IN AN ACTION OF CONTRACT, TORT OR OTHERWISE, ARISING FROM,
  - OUT OF OR IN CONNECTION WITH THE SOFTWARE OR THE USE OR OTHER DEALINGS IN THE
  - SOFTWARE.
  -
  -
  -->

<svg big="true" xmlns="http://www.w3.org/2000/svg" viewBox="0 4 24 24" width="16px" height="16px">
    <g fill="#ef8343" iconColor="XLIFF">
        <path d="M3.548,12.535c.758-.013,1.517,0,2.274-.01.285.644.693,1.23.935,1.893.588-.606,1.126-1.258,1.689-1.887.888,0,1.778-.011,2.666.007-1.167,1.141-2.223,2.393-3.353,3.572.619,1.077,1.171,2.189,1.807,3.255l19.262-.013v.118l-21.477,0c-.326-.655-.637-1.318-.969-1.971-.593.637-1.141,1.314-1.725,1.96-.886,0-1.771,0-2.657,0,1.139-1.226,2.286-2.445,3.411-3.685C4.756,14.715,4.192,13.6,3.548,12.535Z"/>
        <path d="M11.47,12.538c.665.007,1.33,0,2,0-.338,1.6-.657,3.213-1.044,4.806,1.071.01,2.14,0,3.211,0-.157.507-.211,1.039-.363,1.548-1.719-.017-3.439,0-5.158-.007Q10.8,15.715,11.47,12.538Z"/>
        <path transform="translate(-2 0)"
              d="M19.721,12.543c1.675,0,3.247-.007,4.921,0L24.4,13.906l-2.982,0a6.333,6.333,0,0,0-.2,1.143c.932,0,1.866-.006,2.8,0a10.488,10.488,0,0,1-.265,1.27c-.949-.017-1.9.009-2.849-.012a25.194,25.194,0,0,0-.521,2.574c-.671.025-1.344,0-2.016.017C18.8,16.775,19.291,14.665,19.721,12.543Z"/>
    </g>
</svg>
