<!--
  - The MIT License (MIT)
  -
  - Copyright (c) 2015-2022 Elior "Mallowigi" Boukhobza
  -
  - Permission is hereby granted, free of charge, to any person obtaining a copy
  - of this software and associated documentation files (the "Software"), to deal
  - in the Software without restriction, including without limitation the rights
  - to use, copy, modify, merge, publish, distribute, sublicense, and/or sell
  - copies of the Software, and to permit persons to whom the Software is
  - furnished to do so, subject to the following conditions:
  -
  - The above copyright notice and this permission notice shall be included in all
  - copies or substantial portions of the Software.
  -
  - THE SOFTWARE IS PROVIDED "AS IS", WITHOUT WARRANTY OF ANY KIND, EXPRESS OR
  - IMPLIED, INCLUDING BUT NOT LIMITED TO THE WARRANTIES OF MERCHANTABILITY,
  - FITNESS FOR A PARTICULAR PURPOSE AND NONINFRINGEMENT. IN NO EVENT SHALL THE
  - AUTHORS OR COPYRIGHT HOLDERS BE LIABLE FOR ANY CLAIM, DAMAGES OR OTHER
  - LIABILITY, WHETHER IN AN ACTION OF CONTRACT, TORT OR OTHERWISE, ARISING FROM,
  - OUT OF OR IN CONNECTION WITH THE SOFTWARE OR THE USE OR OTHER DEALINGS IN THE
  - SOFTWARE.
  -
  -
  -->

<svg big="true" xmlns="http://www.w3.org/2000/svg" version="1.1" viewBox="0 0 512 512" width="16px" height="16px">
    <path fill="#81bc40" iconColor="Xojo"
          d="M155,324c-15.6611938,15.6611938-58.3787231,59.2243042-95.0112915,96.6501465C22.5597534,376.1386108,0,318.7080688,0,256c0-62.6437988,22.5131226-120.0212402,59.87323-164.5136108c30.2416992,30.7077637,73.3219604,74.3841553,95.8320312,96.8942261C192.6622925,225.3377075,184.5,294.5,155,324z M326,154l93.5061035-94.9786377C375.1572266,22.1677856,318.1695557,0,256,0C193.6433105,0,136.5022583,22.3044434,92.0962524,59.357605L180,148C229.5445557,194.6463013,288.0539551,186.4761963,326,154z M451.4286499,90.6607666c-30.2781982,30.7460938-73.9311523,75.0059814-96.6450806,97.7199097c-36.9570923,36.9570312-28.7947388,106.1193848,0.7052612,135.6193848c15.7772217,15.7772217,59.0106812,59.8687744,95.8220215,97.4784546C489.1584473,376.852356,512,319.0979614,512,256C512,192.9675903,489.2057495,135.2678833,451.4286499,90.6607666z M420.2900391,452.3157959L326,356.5408325c-37.9460449-32.4761963-96.4554443-40.6463623-146,6l-88.6907959,89.4360962C135.826416,489.4263916,193.2728271,512,256,512C318.5385742,512,375.8291626,489.5632935,420.2900391,452.3157959z"/>
</svg>
