<!--
  - The MIT License (MIT)
  -
  - Copyright (c) 2015-2022 Elior "Mallowigi" Boukhobza
  -
  - Permission is hereby granted, free of charge, to any person obtaining a copy
  - of this software and associated documentation files (the "Software"), to deal
  - in the Software without restriction, including without limitation the rights
  - to use, copy, modify, merge, publish, distribute, sublicense, and/or sell
  - copies of the Software, and to permit persons to whom the Software is
  - furnished to do so, subject to the following conditions:
  -
  - The above copyright notice and this permission notice shall be included in all
  - copies or substantial portions of the Software.
  -
  - THE SOFTWARE IS PROVIDED "AS IS", WITHOUT WARRANTY OF ANY KIND, EXPRESS OR
  - IMPLIED, INCLUDING BUT NOT LIMITED TO THE WARRANTIES OF MERCHANTABILITY,
  - FITNESS FOR A PARTICULAR PURPOSE AND NONINFRINGEMENT. IN NO EVENT SHALL THE
  - AUTHORS OR COPYRIGHT HOLDERS BE LIABLE FOR ANY CLAIM, DAMAGES OR OTHER
  - LIABILITY, WHETHER IN AN ACTION OF CONTRACT, TORT OR OTHERWISE, ARISING FROM,
  - OUT OF OR IN CONNECTION WITH THE SOFTWARE OR THE USE OR OTHER DEALINGS IN THE
  - SOFTWARE.
  -
  -
  -->

<svg big="true" version="1.1" xmlns="http://www.w3.org/2000/svg" viewBox="0 0 512 512" width="16px" height="16px">
    <path fill="#0042a5" fill-rule="evenodd" clip-rule="evenodd" iconColor="XUbuntu"
          d="M127.711113,477.5468445c-170.2814331-98.1691284-170.2814941-344.92453-0.000061-443.093689S512,59.6616783,512,256S297.9925537,575.7160034,127.711113,477.5468445z M179.0608826,204.9803314c2.3955994,8.2829895,13.3482513,7.6526184,11.5992126,1.6000061c-9.0241394-34.9913788-20.1869202-69.0378418,5.6000061-82.8000336c21.4042664-11.6227951,39.7401276,7.8152161,41.6000061,35.6007843c1.9808655,11.7851715,3.2983704,38.0555573,2.6555939,48.560791c71.1180573,13.2263947,103.9986115,18.7112274,140.5444794,40.2384796c67.7368774,50.7565308,17.504425,76.9890442-33.2000122,108.8000488c-51.6433411,28.0720215-103.3506317,50.0318909-155.2000732,58.4000244c-102.3918762,8.9862976-116.372467-76.2247009-73.7170105-189.5415039c-12.7313843-45.5736847-12.2845764-66.4342194,8.5177612-78.8586121C148.8673706,136.4255981,166.0284576,174.3229675,179.0608826,204.9803314z M345.6634521,143.9883575c4.5471802-43.8609314-3.0759277-63.1519318-10.4129028-41.2073669c-8.3457031,24.9615936-17.9277344,78.0112152-13.2042236,100.6670837S341.1162415,187.8493042,345.6634521,143.9883575z M353.1173401,207.1473389c3.2488403-22.9138489,30.2723694-69.5593872,46.5969543-90.2049484c14.3515015-18.1501999,24.6999512-12.8677521-3.5010376,43.5342636C366.7663574,219.3704529,349.8684998,230.0611877,353.1173401,207.1473389z"/>
</svg>
