<!--
  - The MIT License (MIT)
  -
  -  Copyright (c) 2015-2022 Elior "Mallowigi" Boukhobza
  -
  -  Permission is hereby granted, free of charge, to any person obtaining a copy
  -  of this software and associated documentation files (the "Software"), to deal
  -  in the Software without restriction, including without limitation the rights
  -  to use, copy, modify, merge, publish, distribute, sublicense, and/or sell
  -  copies of the Software, and to permit persons to whom the Software is
  -  furnished to do so, subject to the following conditions:
  -
  -  The above copyright notice and this permission notice shall be included in all
  -  copies or substantial portions of the Software.
  -
  -  THE SOFTWARE IS PROVIDED "AS IS", WITHOUT WARRANTY OF ANY KIND, EXPRESS OR
  -  IMPLIED, INCLUDING BUT NOT LIMITED TO THE WARRANTIES OF MERCHANTABILITY,
  -  FITNESS FOR A PARTICULAR PURPOSE AND NONINFRINGEMENT. IN NO EVENT SHALL THE
  -  AUTHORS OR COPYRIGHT HOLDERS BE LIABLE FOR ANY CLAIM, DAMAGES OR OTHER
  -  LIABILITY, WHETHER IN AN ACTION OF CONTRACT, TORT OR OTHERWISE, ARISING FROM,
  -  OUT OF OR IN CONNECTION WITH THE SOFTWARE OR THE USE OR OTHER DEALINGS IN THE
  -  SOFTWARE.
  -->

<svg big="true" width="16px" height="16px" xmlns="http://www.w3.org/2000/svg" viewBox="0 0 800 786.25">
    <g fill="#4ebabc" iconColor="Yggdrasil">
        <path d="M262.72,468.44a29.05,29.05,0,0,1-8.23-5c-24.7-27-49.39-53.91-72.93-81.57-11.36-13.25-24.69-23.62-36.46-36.63C99.5,294.68,53,245.46,6.57,196.08c-7.74-8.23-9.22-15-1.32-23.21C9.2,168.59,13,164.22,16.94,160c16.46-17.29,20.5-17.37,36.38,0q97.22,104.11,194.33,208.82c15.73,16.95,21.9,16,35.73-1.65a16.47,16.47,0,0,0,1.11-23.26,16.74,16.74,0,0,0-2.76-2.42c-50.87-51.61-97.45-107.75-149.39-158.12A748.25,748.25,0,0,1,83,125.78C68.22,108.34,68.71,102,85.67,84.63,99.83,70,104.44,70.31,120.82,87.92l143.3,154.66C283,262.83,301.9,283,320.33,303.74c6.34,7.16,12.6,12.76,19.51,2.71s25.6-15.63,12.18-33.66A257.71,257.71,0,0,0,333.5,253.2C271.61,186.2,209.46,119,147,52.45c-11.28-12.1-12.18-20.91-.41-32.93,20.74-21.64,25.51-23.62,39.1-9.63q67.57,69.39,132.51,141.49c23.13,25.68,48.32,49.39,70,76.63,8.23,10.7,15.88,9.39,24.69,0,56.3-63.38,116.14-121.9,171-186.1C594.75,29.24,608.58,19.69,617.8,5.2A9.93,9.93,0,0,1,622,1.33C644.14-6.16,647.1,20,660.93,27.92c9.14,5.18,2.22,15-3.78,21.48Q546.53,168.83,436.23,288.1,356.29,374.53,276.71,461A19.27,19.27,0,0,1,262.72,468.44Z"/>
        <path d="M469.56,663.76V567.62c0-5.1,1.15-11.93-4.61-13.91s-8.23,4.28-11.19,8.23a91.65,91.65,0,0,1-20,23.38,17.19,17.19,0,0,0-7.08,15.56c1.64,54.48,3.21,109,0,163.46-1.07,17.12-10,21.65-23.05,21.9S377,783.6,376.88,764.1v-86c0-6.91,3-16.46-4.86-19.75s-12.18,4.85-16.46,10c-15,16.46-27.16,34.73-22.71,60.17a109.65,109.65,0,0,1,0,17.94c0,34.74-11.94,44.2-43.79,35.64a15.72,15.72,0,0,1-11.86-17.61v-84a42.59,42.59,0,0,1,15.15-28.81c47.74-50.78,96-101.65,143.88-153C493,437.41,549.15,375.18,605.7,314q69.88-75.81,139.93-151.45c19.26-20.74,45.19-13.17,53.42,15.55a16.5,16.5,0,0,1-3.21,16.47q-36.55,39.5-73.18,78.77t-74.08,80.08c-29.63,31.86-59.09,63.79-89.14,95.24-20.24,21.23-35.72,42.22-34.48,77,2.79,75.23,1,150.71.82,226.1,0,10.46,2.55,23.79-9.06,28.07a51.53,51.53,0,0,1-39.83-.82c-7.33-3.3-6.51-12.19-6.51-19.51V663.51Z"/>
        <path d="M273.34,564.74a71.52,71.52,0,0,1,20.49-59.34Q454,333,613.85,160.44q34.74-37.54,69.47-74.9c6.09-6.67,13-15.31,22.22-9.06A60.41,60.41,0,0,1,731.39,107a11,11,0,0,1-4,10.62q-52.44,55.23-103.72,110.78-54.32,58.77-108.23,118Q410.38,461,304.53,574c-6.58,7.16-12.1,20.83-23,16.88C268.56,586.31,275.06,571.16,273.34,564.74Z"/>
    </g>
</svg>
