<!--
  - The MIT License (MIT)
  -
  - Copyright (c) 2015-2022 Elior "Mallowigi" Boukhobza
  -
  - Permission is hereby granted, free of charge, to any person obtaining a copy
  - of this software and associated documentation files (the "Software"), to deal
  - in the Software without restriction, including without limitation the rights
  - to use, copy, modify, merge, publish, distribute, sublicense, and/or sell
  - copies of the Software, and to permit persons to whom the Software is
  - furnished to do so, subject to the following conditions:
  -
  - The above copyright notice and this permission notice shall be included in all
  - copies or substantial portions of the Software.
  -
  - THE SOFTWARE IS PROVIDED "AS IS", WITHOUT WARRANTY OF ANY KIND, EXPRESS OR
  - IMPLIED, INCLUDING BUT NOT LIMITED TO THE WARRANTIES OF MERCHANTABILITY,
  - FITNESS FOR A PARTICULAR PURPOSE AND NONINFRINGEMENT. IN NO EVENT SHALL THE
  - AUTHORS OR COPYRIGHT HOLDERS BE LIABLE FOR ANY CLAIM, DAMAGES OR OTHER
  - LIABILITY, WHETHER IN AN ACTION OF CONTRACT, TORT OR OTHERWISE, ARISING FROM,
  - OUT OF OR IN CONNECTION WITH THE SOFTWARE OR THE USE OR OTHER DEALINGS IN THE
  - SOFTWARE.
  -
  -
  -->

<svg big="true" xmlns="http://www.w3.org/2000/svg" width="16px" height="16px" viewBox="0 0 400 400">
    <path d="M185.547 32.410 C 191.777 32.707,201.973 32.707,208.203 32.410 C 214.434 32.114,209.336 31.871,196.875 31.871 C 184.414 31.871,179.316 32.114,185.547 32.410 M192.969 34.445 C 167.343 35.472,163.488 36.012,149.589 40.522 C 141.199 43.245,133.665 45.058,132.846 44.552 C 130.678 43.212,118.700 49.708,119.150 51.980 C 119.364 53.064,118.027 53.856,116.093 53.791 C 114.202 53.727,112.958 54.164,113.327 54.762 C 113.697 55.360,109.982 58.576,105.071 61.909 C 92.808 70.233,90.596 71.347,96.094 66.432 L 100.781 62.242 95.685 65.615 C 92.882 67.471,90.913 69.514,91.309 70.156 C 91.706 70.798,86.307 76.896,79.312 83.708 C 72.317 90.520,67.594 94.688,68.817 92.969 C 71.017 89.876,71.004 89.875,67.551 92.820 C 63.977 95.870,62.828 97.822,65.625 96.094 C 66.484 95.563,67.165 95.697,67.138 96.392 C 67.063 98.294,63.585 102.134,60.254 103.992 C 58.628 104.899,56.183 107.330,54.821 109.395 C 53.339 111.640,53.128 112.667,54.297 111.951 C 57.190 110.177,56.779 111.458,50.898 122.543 C 47.955 128.091,43.987 136.907,42.082 142.134 C 40.176 147.361,38.335 151.356,37.991 151.012 C 37.647 150.668,38.735 146.784,40.408 142.381 C 43.891 133.213,43.253 131.443,39.609 140.165 C 38.278 143.350,36.974 149.854,36.710 154.618 C 36.447 159.383,35.462 167.069,34.522 171.698 C 30.578 191.118,33.319 231.896,39.781 249.930 C 41.153 253.759,41.912 257.839,41.468 258.996 C 41.024 260.153,41.212 260.759,41.887 260.342 C 42.561 259.926,45.319 264.284,48.017 270.027 C 55.355 285.648,67.032 302.162,80.728 316.284 C 87.460 323.226,90.474 326.621,87.426 323.828 C 84.377 321.035,81.364 318.750,80.731 318.750 C 78.886 318.750,90.910 328.853,92.811 328.901 C 94.407 328.940,118.511 344.366,120.295 346.489 C 120.734 347.012,118.457 345.930,115.234 344.085 C 108.168 340.039,107.343 340.997,114.267 345.208 C 116.957 346.844,120.050 347.841,121.140 347.422 C 122.229 347.004,126.548 348.398,130.736 350.521 C 154.403 362.514,199.867 367.696,228.304 361.642 C 235.510 360.108,242.921 358.794,244.773 358.723 C 246.624 358.652,247.813 358.066,247.415 357.422 C 247.016 356.777,247.963 356.249,249.517 356.249 C 251.072 356.248,256.861 354.111,262.382 351.499 C 267.903 348.887,273.260 347.072,274.287 347.466 C 276.059 348.146,285.938 343.072,285.938 341.482 C 285.938 341.069,283.477 342.182,280.469 343.957 C 271.100 349.485,274.487 346.073,284.509 339.887 C 292.496 334.958,294.561 334.290,297.400 335.717 C 300.547 337.299,300.495 337.357,296.655 336.551 C 294.385 336.074,292.153 336.292,291.693 337.035 C 291.234 337.778,293.443 338.176,296.601 337.919 C 310.297 336.804,325.801 339.848,329.572 344.393 C 330.826 345.904,329.518 345.655,325.540 343.627 C 322.302 341.976,318.218 340.672,316.466 340.730 C 314.715 340.787,316.292 341.774,319.971 342.923 C 323.651 344.072,327.583 345.777,328.709 346.711 C 329.835 347.646,331.154 348.013,331.639 347.527 C 334.786 344.380,348.438 357.784,348.438 364.020 C 348.438 365.786,349.283 368.583,350.316 370.237 C 351.695 372.445,351.746 374.205,350.510 376.857 C 349.584 378.843,348.033 382.442,347.063 384.854 C 346.093 387.265,344.634 388.828,343.822 388.326 C 342.247 387.353,338.736 392.723,337.977 397.266 C 337.588 399.593,338.796 400.000,346.104 400.000 C 352.692 400.000,354.688 399.455,354.688 397.656 C 354.688 396.367,355.278 395.313,356.000 395.313 C 356.722 395.313,358.213 392.324,359.315 388.672 C 360.416 385.020,361.582 381.328,361.906 380.469 C 362.988 377.600,361.396 388.234,360.269 391.406 C 359.548 393.438,359.998 393.164,361.555 390.625 C 366.265 382.949,364.949 359.687,359.326 351.197 C 354.684 344.190,344.288 334.879,342.784 336.383 C 342.365 336.801,344.448 338.642,347.412 340.474 C 353.193 344.047,359.108 351.563,356.140 351.563 C 355.180 351.563,354.046 350.230,353.621 348.601 C 353.195 346.972,349.042 343.020,344.392 339.817 C 336.618 334.463,333.199 331.214,337.891 333.637 C 338.965 334.192,338.101 333.230,335.970 331.499 C 332.030 328.299,324.414 325.912,325.921 328.351 C 326.375 329.086,328.070 329.688,329.688 329.688 C 331.305 329.688,333.035 330.345,333.532 331.150 C 334.598 332.876,327.047 330.927,322.549 328.316 C 317.913 325.625,310.330 322.891,308.638 323.301 C 307.802 323.503,308.443 322.206,310.061 320.417 C 311.680 318.629,313.772 317.343,314.712 317.558 C 315.651 317.774,319.576 314.439,323.433 310.147 C 327.291 305.855,328.870 303.683,326.942 305.320 C 325.015 306.957,323.438 307.594,323.438 306.734 C 323.437 304.893,328.222 300.316,330.469 300.009 C 331.328 299.891,331.846 298.880,331.620 297.762 C 331.394 296.644,332.448 294.757,333.964 293.568 C 336.520 291.562,336.552 291.631,334.402 294.531 C 332.108 297.625,332.120 297.627,335.574 294.680 C 339.148 291.630,340.297 289.678,337.500 291.406 C 336.641 291.937,335.953 291.803,335.973 291.108 C 336.020 289.420,346.795 272.318,346.840 273.859 C 346.859 274.521,345.108 277.861,342.949 281.281 C 340.790 284.701,339.375 287.500,339.805 287.500 C 341.374 287.500,348.525 274.843,347.705 273.516 C 347.240 272.764,348.973 266.873,351.555 260.424 C 354.137 253.975,356.250 247.543,356.250 246.132 C 356.250 244.720,356.945 243.995,357.795 244.520 C 358.644 245.045,358.996 244.559,358.577 243.441 C 358.158 242.322,358.874 236.836,360.167 231.250 C 362.410 221.561,362.440 227.806,360.204 239.063 C 359.777 241.211,360.417 240.156,361.625 236.719 C 364.733 227.878,364.733 170.560,361.625 161.719 C 360.417 158.281,359.777 157.227,360.204 159.375 C 361.222 164.498,362.338 176.712,361.418 172.656 C 357.655 156.066,353.686 142.813,349.876 134.113 C 344.828 122.588,344.482 121.177,347.100 122.795 C 350.444 124.862,342.987 113.704,339.453 111.354 C 335.901 108.992,334.344 105.081,337.807 107.221 C 338.836 107.857,338.056 106.100,336.074 103.317 C 334.093 100.534,332.086 98.644,331.614 99.115 C 330.531 100.198,326.563 96.987,326.563 95.029 C 326.563 94.224,327.441 94.056,328.516 94.656 C 330.791 95.926,312.311 76.405,305.600 70.450 C 293.864 60.036,296.017 63.244,310.253 77.381 C 320.511 87.569,321.589 88.872,313.365 81.143 C 298.054 66.754,292.225 62.430,275.503 53.056 C 268.375 49.060,263.060 45.219,263.693 44.520 C 264.326 43.821,263.948 43.765,262.853 44.396 C 261.758 45.028,255.429 43.746,248.790 41.549 C 235.870 37.273,231.605 36.300,224.219 35.944 C 220.153 35.748,219.946 35.540,222.656 34.375 C 224.435 33.611,224.771 33.094,223.438 33.175 C 222.148 33.254,208.438 33.825,192.969 34.445 M246.750 39.172 C 251.407 40.825,255.488 41.907,255.819 41.577 C 256.548 40.848,242.316 35.891,239.956 36.052 C 239.035 36.114,242.092 37.518,246.750 39.172 M142.969 39.899 C 139.062 41.781,138.931 41.998,142.188 41.202 C 146.615 40.120,151.591 37.583,149.219 37.618 C 148.359 37.631,145.547 38.657,142.969 39.899 M128.125 48.438 C 125.117 50.084,121.953 51.432,121.094 51.432 C 120.234 51.432,121.992 50.084,125.000 48.438 C 128.008 46.791,131.172 45.443,132.031 45.443 C 132.891 45.443,131.133 46.791,128.125 48.438 M265.755 45.811 C 268.239 47.715,278.125 52.875,278.125 52.268 C 278.125 51.223,268.290 45.325,266.536 45.318 C 265.749 45.315,265.397 45.537,265.755 45.811 M281.250 53.610 C 281.250 53.974,284.238 56.243,287.891 58.652 C 291.543 61.061,293.706 62.033,292.698 60.813 C 290.760 58.466,281.250 52.483,281.250 53.610 M105.469 58.731 L 100.781 62.758 105.859 59.398 C 108.652 57.549,110.938 55.734,110.938 55.362 C 110.938 54.193,110.276 54.600,105.469 58.731 M216.895 62.891 C 216.475 65.912,213.346 67.447,194.639 73.806 C 170.386 82.051,166.178 82.673,183.226 75.495 C 189.444 72.877,194.355 69.936,194.141 68.961 C 193.926 67.986,193.926 67.167,194.141 67.141 C 194.355 67.115,199.453 65.413,205.469 63.359 C 211.484 61.304,216.626 59.567,216.895 59.499 C 217.164 59.431,217.164 60.957,216.895 62.891 M227.790 63.672 C 225.097 66.763,225.737 70.313,228.987 70.313 C 230.269 70.313,230.785 71.268,230.253 72.656 C 229.021 75.867,231.770 75.595,239.276 71.766 C 242.763 69.987,245.970 68.887,246.403 69.320 C 246.837 69.753,242.953 72.248,237.772 74.863 C 232.591 77.478,227.908 80.336,227.365 81.215 C 226.002 83.421,228.168 83.124,232.813 80.469 C 239.811 76.468,239.706 78.008,232.657 82.760 C 227.123 86.491,225.678 86.926,225.254 84.989 C 224.964 83.666,223.783 82.945,222.631 83.387 C 221.478 83.830,217.848 84.573,214.564 85.040 C 209.096 85.816,209.251 85.667,216.406 83.267 C 225.903 80.082,226.232 79.852,223.602 78.227 C 222.320 77.434,213.895 79.509,201.773 83.601 C 190.915 87.267,181.414 89.898,180.659 89.448 C 178.790 88.334,181.390 87.136,196.875 81.980 C 204.180 79.547,210.935 76.632,211.887 75.502 C 212.839 74.373,215.842 73.003,218.560 72.460 C 224.217 71.328,226.107 69.232,223.668 66.793 C 222.464 65.589,222.748 64.528,224.664 63.073 C 228.567 60.108,230.562 60.490,227.790 63.672 M271.875 76.563 C 271.875 79.899,271.227 83.028,270.435 83.518 C 269.644 84.007,267.095 90.201,264.773 97.282 C 259.610 113.020,259.924 112.666,252.307 111.320 L 246.094 110.222 252.212 109.408 L 258.330 108.594 263.540 93.029 C 266.405 84.468,268.750 75.461,268.750 73.015 C 268.750 70.446,269.411 68.974,270.313 69.531 C 271.172 70.062,271.875 73.226,271.875 76.563 M83.594 75.000 C 82.038 76.719,81.553 78.125,82.515 78.125 C 83.478 78.125,85.018 76.719,85.938 75.000 C 86.857 73.281,87.343 71.875,87.016 71.875 C 86.689 71.875,85.149 73.281,83.594 75.000 M173.740 75.229 C 170.039 76.929,165.820 78.067,164.365 77.758 C 162.771 77.419,164.514 76.187,168.750 74.659 C 178.554 71.121,181.860 71.499,173.740 75.229 M198.438 78.125 C 198.438 78.984,197.559 79.697,196.484 79.709 C 195.410 79.721,192.773 80.080,190.625 80.507 C 187.177 81.193,187.268 81.016,191.406 78.994 C 197.048 76.237,198.438 76.066,198.438 78.125 M74.227 84.365 C 72.667 86.089,72.117 87.500,73.004 87.500 C 74.970 87.500,78.867 83.034,77.817 81.984 C 77.403 81.570,75.788 82.641,74.227 84.365 M164.063 85.938 C 164.063 86.797,162.656 87.500,160.938 87.500 C 159.219 87.500,157.813 86.797,157.813 85.938 C 157.813 85.078,159.219 84.375,160.938 84.375 C 162.656 84.375,164.063 85.078,164.063 85.938 M207.123 94.581 C 205.455 95.843,202.291 96.822,200.092 96.756 C 196.458 96.648,196.592 96.445,201.563 94.531 C 208.799 91.745,210.849 91.763,207.123 94.581 M268.611 107.660 C 267.556 111.182,266.101 114.063,265.378 114.063 C 263.404 114.063,263.775 111.646,266.686 105.541 C 270.079 98.426,271.056 99.501,268.611 107.660 M171.875 109.375 C 170.586 110.208,167.422 110.830,164.844 110.758 C 160.250 110.629,160.235 110.601,164.063 109.375 C 170.037 107.462,174.836 107.462,171.875 109.375 M345.278 120.703 C 345.354 123.261,343.707 121.622,341.352 116.797 L 338.874 111.719 342.059 115.625 C 343.810 117.773,345.259 120.059,345.278 120.703 M47.863 122.266 L 45.052 127.344 48.272 123.438 C 51.129 119.973,52.397 117.188,51.118 117.188 C 50.874 117.188,49.409 119.473,47.863 122.266 M350.131 130.469 C 350.131 131.328,351.478 134.492,353.125 137.500 C 354.772 140.508,356.119 142.266,356.119 141.406 C 356.119 140.547,354.772 137.383,353.125 134.375 C 351.478 131.367,350.131 129.609,350.131 130.469 M213.281 142.259 C 208.984 143.937,205.117 145.254,204.688 145.185 C 203.026 144.918,216.536 139.146,218.750 139.177 C 220.039 139.194,217.578 140.581,213.281 142.259 M350.975 145.830 C 351.084 145.975,351.691 147.771,352.322 149.820 L 353.469 153.547 347.828 149.244 C 344.726 146.878,342.188 144.597,342.188 144.176 C 342.188 143.526,350.400 145.071,350.975 145.830 M201.563 146.994 C 199.814 148.212,200.607 148.408,204.688 147.765 L 210.156 146.902 204.688 149.114 C 198.275 151.707,195.100 152.157,198.438 150.000 C 200.387 148.740,200.256 148.463,197.656 148.352 L 194.531 148.218 197.656 146.875 C 202.062 144.982,204.350 145.051,201.563 146.994 M31.995 166.729 C 30.191 170.927,29.247 217.031,30.817 224.219 C 31.724 228.373,31.972 222.349,31.555 206.250 C 31.210 192.930,31.641 178.164,32.513 173.438 C 34.182 164.390,34.002 162.058,31.995 166.729 M149.821 195.176 C 154.224 206.702,157.576 216.383,157.270 216.688 C 156.513 217.446,139.037 172.274,139.162 169.879 C 139.279 167.622,139.483 168.108,149.821 195.176 M127.044 176.953 C 128.329 180.605,131.220 188.389,133.468 194.250 C 135.716 200.111,136.921 204.514,136.146 204.035 C 134.870 203.247,123.438 173.850,123.438 171.358 C 123.438 168.623,124.922 170.927,127.044 176.953 M138.241 184.297 C 140.991 189.616,141.152 190.625,139.245 190.625 C 138.486 190.625,137.511 189.395,137.078 187.891 C 136.646 186.387,135.785 183.926,135.166 182.422 C 133.303 177.896,135.681 179.346,138.241 184.297 M366.203 198.438 C 366.203 207.461,366.461 211.152,366.777 206.641 C 367.093 202.129,367.093 194.746,366.777 190.234 C 366.461 185.723,366.203 189.414,366.203 198.438 M241.218 212.051 C 241.830 212.663,245.990 214.811,250.462 216.823 C 254.935 218.835,256.836 220.064,254.688 219.553 C 252.539 219.043,249.533 218.339,248.007 217.989 C 244.775 217.246,236.351 210.938,238.591 210.938 C 239.423 210.938,240.605 211.439,241.218 212.051 M272.228 226.557 C 275.762 228.711,276.474 229.678,274.532 229.682 C 271.644 229.688,262.500 225.505,262.500 224.179 C 262.500 222.446,267.484 223.664,272.228 226.557 M316.820 235.085 C 323.063 237.432,328.858 240.637,329.698 242.207 C 331.090 244.807,302.650 234.561,290.649 228.138 C 283.846 224.497,287.999 223.855,296.484 227.237 C 301.426 229.206,310.577 232.738,316.820 235.085 M36.833 250.000 C 37.408 252.148,38.530 254.961,39.326 256.250 C 40.333 257.879,40.456 257.402,39.729 254.688 C 39.155 252.539,38.033 249.727,37.236 248.438 C 36.230 246.809,36.107 247.285,36.833 250.000 M352.850 261.010 C 351.410 264.407,350.513 267.188,350.857 267.188 C 352.003 267.188,356.447 257.622,355.954 256.216 C 355.687 255.455,354.290 257.612,352.850 261.010 M125.873 260.107 C 129.757 263.044,126.988 263.079,121.875 260.156 C 119.371 258.725,118.843 257.903,120.404 257.868 C 121.744 257.837,124.205 258.845,125.873 260.107 M43.756 268.099 C 43.763 269.853,49.661 279.688,50.706 279.688 C 51.119 279.688,49.948 277.051,48.103 273.828 C 43.970 266.610,43.749 266.318,43.756 268.099 M312.278 280.859 C 307.483 285.801,303.190 290.923,302.739 292.241 C 301.986 294.443,279.489 309.375,276.925 309.375 C 276.311 309.375,281.698 305.432,288.896 300.613 C 297.084 295.131,301.292 291.424,300.137 290.710 C 298.943 289.972,302.046 286.454,308.911 280.764 C 322.401 269.581,323.200 269.604,312.278 280.859 M301.563 284.086 C 301.563 284.786,299.102 286.532,296.094 287.967 C 289.616 291.056,288.768 289.405,294.925 285.690 C 299.877 282.701,301.563 282.294,301.563 284.086 M319.551 290.597 C 315.003 297.159,312.021 299.469,315.983 293.359 C 317.238 291.426,319.133 288.201,320.196 286.194 C 321.259 284.187,322.527 282.944,323.015 283.432 C 323.503 283.919,321.944 287.144,319.551 290.597 M56.216 290.578 C 58.034 293.130,60.318 295.711,61.294 296.314 C 62.269 296.917,61.098 294.829,58.692 291.674 C 53.469 284.826,51.500 283.954,56.216 290.578 M194.370 289.323 C 193.928 290.039,194.235 290.625,195.053 290.625 C 195.871 290.625,196.984 291.780,197.526 293.192 C 199.217 297.600,197.359 297.255,193.999 292.538 C 191.581 289.142,191.328 288.021,192.979 288.021 C 194.187 288.021,194.813 288.607,194.370 289.323 M329.688 288.769 C 329.688 289.466,327.402 291.682,324.609 293.693 L 319.531 297.348 324.120 292.424 C 328.984 287.205,329.688 286.744,329.688 288.769 M308.930 293.550 C 309.060 295.273,307.577 297.193,305.323 298.219 L 301.496 299.963 304.948 295.294 C 309.034 289.767,308.658 289.932,308.930 293.550 M289.844 295.313 C 284.759 298.680,282.813 299.179,282.813 297.114 C 282.813 295.542,288.860 292.439,292.188 292.304 C 293.477 292.251,292.422 293.605,289.844 295.313 M317.785 298.828 C 310.085 311.914,291.134 329.155,287.950 325.971 C 287.416 325.437,287.703 325.000,288.587 325.000 C 290.962 325.000,301.617 316.200,300.543 315.126 C 299.219 313.802,309.249 301.563,311.659 301.563 C 312.770 301.563,314.555 300.508,315.625 299.219 C 317.984 296.377,319.376 296.125,317.785 298.828 M63.727 300.781 C 64.635 302.500,68.398 306.719,72.090 310.156 C 78.720 316.330,76.599 313.659,62.786 298.438 C 62.396 298.008,62.819 299.063,63.727 300.781 M275.000 303.866 C 275.000 304.274,272.891 305.698,270.313 307.031 C 267.734 308.364,265.625 308.793,265.625 307.983 C 265.625 306.818,269.092 304.991,274.609 303.248 C 274.824 303.181,275.000 303.459,275.000 303.866 M290.415 313.887 C 285.804 319.034,281.773 322.515,281.458 321.622 C 280.854 319.911,296.996 302.725,298.136 303.865 C 298.501 304.230,295.027 308.740,290.415 313.887 M320.041 312.294 C 318.042 314.759,316.111 316.514,315.749 316.194 C 315.088 315.609,321.876 307.813,323.047 307.813 C 323.393 307.813,322.040 309.829,320.041 312.294 M311.717 320.315 C 310.738 321.899,318.548 325.723,319.932 324.339 C 320.344 323.927,318.845 323.129,316.601 322.566 C 314.358 322.002,312.910 320.914,313.384 320.146 C 313.859 319.378,313.895 318.750,313.466 318.750 C 313.036 318.750,312.249 319.454,311.717 320.315 M221.875 330.535 C 221.875 331.160,220.469 329.884,218.750 327.699 C 217.031 325.514,215.625 323.215,215.625 322.590 C 215.625 321.965,217.031 323.241,218.750 325.426 C 220.469 327.611,221.875 329.910,221.875 330.535 M285.727 327.294 C 284.398 328.623,273.438 332.871,273.438 332.057 C 273.438 331.618,275.723 330.260,278.516 329.038 C 283.672 326.783,287.056 325.965,285.727 327.294 M96.076 332.669 C 99.038 336.060,104.688 339.900,104.688 338.522 C 104.688 338.164,102.051 335.900,98.828 333.491 C 94.029 329.903,93.531 329.754,96.076 332.669 M240.625 349.375 C 240.625 349.683,237.461 347.705,233.594 344.980 C 229.727 342.254,226.563 339.409,226.563 338.657 C 226.563 337.906,229.727 339.883,233.594 343.052 C 237.461 346.221,240.625 349.066,240.625 349.375 M170.313 350.177 C 170.313 351.778,166.989 351.988,163.409 350.614 C 159.230 349.010,160.671 347.377,165.625 348.104 C 168.203 348.483,170.313 349.416,170.313 350.177 M332.813 349.138 C 332.813 349.568,334.922 351.011,337.500 352.344 C 340.078 353.677,342.188 354.416,342.188 353.987 C 342.188 353.557,340.078 352.114,337.500 350.781 C 334.922 349.448,332.813 348.709,332.813 349.138 M129.688 353.125 C 132.695 354.772,135.859 356.119,136.719 356.119 C 137.578 356.119,135.820 354.772,132.813 353.125 C 129.805 351.478,126.641 350.131,125.781 350.131 C 124.922 350.131,126.680 351.478,129.688 353.125 M262.500 353.125 C 259.492 354.772,257.734 356.119,258.594 356.119 C 259.453 356.119,262.617 354.772,265.625 353.125 C 268.633 351.478,270.391 350.131,269.531 350.131 C 268.672 350.131,265.508 351.478,262.500 353.125 M362.383 360.938 C 362.380 362.227,361.351 360.915,360.095 358.024 C 358.840 355.132,357.837 352.320,357.868 351.774 C 357.981 349.741,362.389 358.686,362.383 360.938 M344.875 362.157 C 345.245 364.494,346.340 368.032,347.308 370.018 C 348.633 372.736,348.604 374.375,347.191 376.638 C 346.158 378.292,345.329 380.534,345.348 381.619 C 345.368 382.705,346.546 381.235,347.966 378.353 C 350.014 374.195,350.169 372.504,348.712 370.171 C 347.701 368.553,346.875 365.504,346.875 363.395 C 346.875 361.285,346.273 359.188,345.538 358.733 C 344.803 358.279,344.504 359.819,344.875 362.157 M150.359 360.255 C 151.702 361.597,167.553 365.601,171.094 365.491 C 172.813 365.438,168.945 364.070,162.500 362.451 C 148.996 359.058,149.198 359.094,150.359 360.255 M228.125 363.346 C 222.221 364.705,220.998 365.333,224.219 365.354 C 226.797 365.371,231.719 364.458,235.156 363.325 C 243.006 360.738,239.414 360.749,228.125 363.346 "
          stroke="none" fill="#FD1773" fill-rule="evenodd" iconColor="YVM"></path>
</svg>
