<svg viewBox="0 0 24 24" width="24px" height="24px" xmlns="http://www.w3.org/2000/svg">
    <g fill="#26C6DA">
        <path d="M 10 3 L 10 5 L 8 5 L 8 10 C 8 11.105 7.105 12 6 12 C 7.105 12 8 12.895 8 14 L 8 19 L 10 19 L 10 21 L 8 21 C 6.895 21 6 20.105 6 19 L 6 15 C 6 13.895 5.105 13 4 13 L 3 13 L 3 11 L 4 11 C 5.105 11 6 10.105 6 9 L 6 5 C 6 3.895 6.895 3 8 3 Z M 20 11 L 21 11 L 21 13 L 20 13 C 18.895 13 18 13.895 18 15 L 18 19 C 18 20.105 17.105 21 16 21 L 14 21 L 14 19 L 16 19 L 16 14 C 16 12.895 16.895 12 18 12 C 16.895 12 16 11.105 16 10 L 16 9.465 C 16.588 9.805 17.271 10 18 10 C 18.088 10 18.176 9.997 18.262 9.992 C 18.607 10.594 19.256 11 20 11 Z M 14 5 L 14 3 L 15.354 3 C 14.764 3.521 14.328 4.214 14.126 5 Z"></path>
        <circle cx="18" cy="6" r="3" />
    </g>
</svg>