<!--
  - The MIT License (MIT)
  -
  - Copyright (c) 2015-2023 Elior "Mallowigi" Boukhobza
  -
  - Permission is hereby granted, free of charge, to any person obtaining a copy
  - of this software and associated documentation files (the "Software"), to deal
  - in the Software without restriction, including without limitation the rights
  - to use, copy, modify, merge, publish, distribute, sublicense, and/or sell
  - copies of the Software, and to permit persons to whom the Software is
  - furnished to do so, subject to the following conditions:
  -
  - The above copyright notice and this permission notice shall be included in all
  - copies or substantial portions of the Software.
  -
  - THE SOFTWARE IS PROVIDED "AS IS", WITHOUT WARRANTY OF ANY KIND, EXPRESS OR
  - IMPLIED, INCLUDING BUT NOT LIMITED TO THE WARRANTIES OF MERCHANTABILITY,
  - FITNESS FOR A PARTICULAR PURPOSE AND NONINFRINGEMENT. IN NO EVENT SHALL THE
  - AUTHORS OR COPYRIGHT HOLDERS BE LIABLE FOR ANY CLAIM, DAMAGES OR OTHER
  - LIABILITY, WHETHER IN AN ACTION OF CONTRACT, TORT OR OTHERWISE, ARISING FROM,
  - OUT OF OR IN CONNECTION WITH THE SOFTWARE OR THE USE OR OTHER DEALINGS IN THE
  - SOFTWARE.
  -
  -->

<svg viewBox="0 0 24 24" width="24px" height="24px" xmlns="http://www.w3.org/2000/svg">
    <g transform="matrix(1, 0, 0, 1, -0.499987, 0.465003)">
        <path fill="#26C6DA"
              d="M 9.81 9.81 L 6 18 L 14.19 14.19 L 16.312 9.628 C 16.825 9.867 17.397 10 18 10 C 19.361 10 20.563 9.32 21.286 8.282 C 21.747 9.431 22 10.686 22 12 C 22 17.523 17.523 22 12 22 C 6.477 22 2 17.523 2 12 C 2 6.477 6.477 2 12 2 C 13.314 2 14.569 2.253 15.718 2.714 C 14.68 3.437 14 4.639 14 6 C 14 6.603 14.133 7.175 14.372 7.688 Z M 13.1 12 C 13.1 12.608 12.608 13.1 12 13.1 C 11.392 13.1 10.9 12.608 10.9 12 C 10.9 11.392 11.392 10.9 12 10.9 C 12.608 10.9 13.1 11.392 13.1 12 Z"></path>
        <circle cx="18" cy="6" r="3" fill="#26C6DA"/>
    </g>
</svg>