<svg viewBox="0 0 24 24" width="16px" height="16px" xmlns="http://www.w3.org/2000/svg">
    <g transform="matrix(1, 0, 0, 1, -0.949987, -0.950006)" fill="#80cbc4">
        <path d="M 3.05 6.95 L 1.03 6.95 C 1.52 3.56 4.42 0.95 7.95 0.95 C 9.88 0.95 11.63 1.73 12.9 3 L 14.95 0.95 L 14.95 5 L 10.9 5 L 11.49 4.41 C 10.58 3.51 9.33 2.95 7.95 2.95 C 5.53 2.95 3.51 4.67 3.05 6.95 Z M 3 12.9 L 0.95 14.95 L 0.95 8.95 L 5 8.95 L 5 10.9 L 4.41 11.49 C 4.593 11.671 4.791 11.839 5 11.991 L 5 14.3 C 4.253 13.953 3.577 13.477 3 12.9 Z"></path>
        <path d="M 14.45 9.45 C 15.83 9.45 17.08 10.01 17.99 10.91 L 15.45 13.45 L 21.45 13.45 L 21.45 7.45 L 19.4 9.5 C 18.13 8.23 16.38 7.45 14.45 7.45 C 10.92 7.45 8.02 10.06 7.53 13.45 L 9.55 13.45 C 10.01 11.17 12.03 9.45 14.45 9.45 M 20.09 18.59 C 20.75 17.69 21.21 16.62 21.37 15.45 L 19.35 15.45 C 18.89 17.73 16.87 19.45 14.45 19.45 C 13.07 19.45 11.82 18.89 10.91 17.99 L 13.45 15.45 L 7.45 15.45 L 7.45 21.45 L 9.5 19.4 C 10.77 20.67 12.52 21.45 14.45 21.45 C 16 21.45 17.45 20.95 18.59 20.09 L 23.45 24.95 L 24.95 23.45 L 20.09 18.59 Z"></path>
    </g>
</svg>