<svg viewBox="0 0 24 24" width="16px" height="16px" xmlns="http://www.w3.org/2000/svg">
    <g transform="matrix(1, 0, 0, 1, 0.3, 0.3)" fill="#C792EA">
        <path d="M 11.7 2.7 L 2.7 2.7 L 2.7 6.3 L 5 6.3 L 5 17.1 L 2.7 17.1 C 1.706 17.1 0.9 16.294 0.9 15.3 L 0.9 2.7 C 0.9 1.71 1.701 0.9 2.7 0.9 L 13.5 0.9 L 17.1 4.5 L 17.1 5 L 11.7 5 Z"></path>
        <path transform="scale(0.9) translate(4 4)"
              d="M15,9H5V5H15M12,19A3,3 0 0,1 9,16A3,3 0 0,1 12,13A3,3 0 0,1 15,16A3,3 0 0,1 12,19M17,3H5C3.89,3 3,3.9 3,5V19A2,2 0 0,0 5,21H19A2,2 0 0,0 21,19V7L17,3Z"></path>
    </g>
</svg>