<!--
  - The MIT License (MIT)
  -
  - Copyright (c) 2015-2022 Elior "Mallowigi" Boukhobza
  -
  - Permission is hereby granted, free of charge, to any person obtaining a copy
  - of this software and associated documentation files (the "Software"), to deal
  - in the Software without restriction, including without limitation the rights
  - to use, copy, modify, merge, publish, distribute, sublicense, and/or sell
  - copies of the Software, and to permit persons to whom the Software is
  - furnished to do so, subject to the following conditions:
  -
  - The above copyright notice and this permission notice shall be included in all
  - copies or substantial portions of the Software.
  -
  - THE SOFTWARE IS PROVIDED "AS IS", WITHOUT WARRANTY OF ANY KIND, EXPRESS OR
  - IMPLIED, INCLUDING BUT NOT LIMITED TO THE WARRANTIES OF MERCHANTABILITY,
  - FITNESS FOR A PARTICULAR PURPOSE AND NONINFRINGEMENT. IN NO EVENT SHALL THE
  - AUTHORS OR COPYRIGHT HOLDERS BE LIABLE FOR ANY CLAIM, DAMAGES OR OTHER
  - LIABILITY, WHETHER IN AN ACTION OF CONTRACT, TORT OR OTHERWISE, ARISING FROM,
  - OUT OF OR IN CONNECTION WITH THE SOFTWARE OR THE USE OR OTHER DEALINGS IN THE
  - SOFTWARE.
  -
  -
  -->

<svg big="true" clip-rule="evenodd" fill-rule="evenodd" stroke-linejoin="round" stroke-miterlimit="1.414" version="1.1"
     viewBox="0 0 24 24" xmlns="http://www.w3.org/2000/svg" width="16px" height="16px">
    <path d="M10 4H4c-1.11 0-2 .89-2 2v12c0 1.097.903 2 2 2h16c1.097 0 2-.903 2-2V8a2 2 0 0 0-2-2h-8l-2-2z"
          fill="#00BCD4" fill-rule="nonzero" folderColor="Cubit"/>
    <path fill="#b2ebf2" transform="scale(0.03) translate(300 300)" folderIconColor="Cubit"
          d="M212.8150787,340.9492188l-65.4441528-39.4627686v-78.3090515l65.4441528,37.8841248V340.9492188z M84.1689453,171.3764801l135.459259-81.6816559l135.234375,81.5463715l75.8917542-43.9321518L219.6282043,0L8.2771864,127.4443359L84.1689453,171.3764801z M286.2614136,210.9529724l-66.6332703-40.1798553l-66.8578339,40.3152771l66.6285858,38.56987L286.2614136,210.9529724z M362.4447632,182.066803l0.0010071,157.9501343l-136.4630585,82.2871704V512L440,383.3947144V137.6026001L362.4447632,182.066803z M212.8150787,422.0275574L76.8111801,340.0169373V182.331955L0,137.8677673v245.5269165l212.8150787,128.3287048V422.0275574z M291.8853455,222.9119873l-65.9026337,38.1495361v80.1642151l65.9026337-39.7392883V222.9119873z"/>
</svg>
