<!--
  - The MIT License (MIT)
  -
  - Copyright (c) 2015-2022 Elior "Mallowigi" Boukhobza
  -
  - Permission is hereby granted, free of charge, to any person obtaining a copy
  - of this software and associated documentation files (the "Software"), to deal
  - in the Software without restriction, including without limitation the rights
  - to use, copy, modify, merge, publish, distribute, sublicense, and/or sell
  - copies of the Software, and to permit persons to whom the Software is
  - furnished to do so, subject to the following conditions:
  -
  - The above copyright notice and this permission notice shall be included in all
  - copies or substantial portions of the Software.
  -
  - THE SOFTWARE IS PROVIDED "AS IS", WITHOUT WARRANTY OF ANY KIND, EXPRESS OR
  - IMPLIED, INCLUDING BUT NOT LIMITED TO THE WARRANTIES OF MERCHANTABILITY,
  - FITNESS FOR A PARTICULAR PURPOSE AND NONINFRINGEMENT. IN NO EVENT SHALL THE
  - AUTHORS OR COPYRIGHT HOLDERS BE LIABLE FOR ANY CLAIM, DAMAGES OR OTHER
  - LIABILITY, WHETHER IN AN ACTION OF CONTRACT, TORT OR OTHERWISE, ARISING FROM,
  - OUT OF OR IN CONNECTION WITH THE SOFTWARE OR THE USE OR OTHER DEALINGS IN THE
  - SOFTWARE.
  -
  -
  -->

<svg big="true" clip-rule="evenodd" fill-rule="evenodd" stroke-linejoin="round" stroke-miterlimit="1.4142" version="1.1"
     viewBox="0 0 24 24" width="16px" height="16px" xml:space="preserve" xmlns="http://www.w3.org/2000/svg">
    <path d="m10 4h-6c-1.11 0-2 .89-2 2v12c0 1.097.903 2 2 2h16c1.097 0 2-.903 2-2v-10c0-1.11-.9-2-2-2h-8l-2-2z"
          fill="#039BE5" fill-rule="nonzero" folderColor="Dependabot"/>
    <path fill="#B3E5FC" transform="scale(0.03) translate(300 300)" folderIconColor="Dependabot"
          d="M461.5321045,137.2161865L262.4337769,6.6959839c-13.6190186-8.9279785-31.2365112-8.9279785-44.8555298,0L18.4800415,137.2161865C6.9475098,144.7764282,0,157.6380615,0,171.4277344v169.1445312c0,13.7896729,6.9475098,26.6513062,18.4800415,34.2114868L217.5782471,505.303833c13.6190186,8.9282227,31.2365112,8.9282227,44.8555298,0l199.0983276-130.5200806C473.0646362,367.2235718,480,354.3619385,480,340.5722656V171.4277344C480,157.6380615,473.0646362,144.7764282,461.5321045,137.2161865z M398.0091858,328.0072021h-29.9999695v34.0015869c0,8.8370361-7.1633911,16.0003662-16.0004272,16.0003662H128.0031738c-8.8369751,0-16.0003662-7.1633301-16.0003662-16.0003662v-34.0015869H82.0027695v-80h30.0000381v-56.0024414c0-8.8369751,7.1633911-16.0003662,16.0003662-16.0003662h125.455307v-29.7264709h-39.4528503V87.0986404h59.179245v88.9057541h78.8239136c8.8370361,0,16.0004272,7.1633911,16.0004272,16.0003662v56.0024414h29.9999695V328.0072021z M217.8050842,238.1945648l-36.4736328,36.4736481l-18.1488647-18.1488953l-16.0881653,15.9126282l34.23703,33.7864075l52.8478851-52.3972321L217.8050842,238.1945648z M323.8050842,238.1945648l-36.4736328,36.4736481l-18.1488647-18.1488953l-16.0881653,15.9126282l34.23703,33.7864075l52.8479004-52.3972321L323.8050842,238.1945648z"/>

</svg>
