<!--
  - The MIT License (MIT)
  -
  - Copyright (c) 2015-2022 Elior "Mallowigi" Boukhobza
  -
  - Permission is hereby granted, free of charge, to any person obtaining a copy
  - of this software and associated documentation files (the "Software"), to deal
  - in the Software without restriction, including without limitation the rights
  - to use, copy, modify, merge, publish, distribute, sublicense, and/or sell
  - copies of the Software, and to permit persons to whom the Software is
  - furnished to do so, subject to the following conditions:
  -
  - The above copyright notice and this permission notice shall be included in all
  - copies or substantial portions of the Software.
  -
  - THE SOFTWARE IS PROVIDED "AS IS", WITHOUT WARRANTY OF ANY KIND, EXPRESS OR
  - IMPLIED, INCLUDING BUT NOT LIMITED TO THE WARRANTIES OF MERCHANTABILITY,
  - FITNESS FOR A PARTICULAR PURPOSE AND NONINFRINGEMENT. IN NO EVENT SHALL THE
  - AUTHORS OR COPYRIGHT HOLDERS BE LIABLE FOR ANY CLAIM, DAMAGES OR OTHER
  - LIABILITY, WHETHER IN AN ACTION OF CONTRACT, TORT OR OTHERWISE, ARISING FROM,
  - OUT OF OR IN CONNECTION WITH THE SOFTWARE OR THE USE OR OTHER DEALINGS IN THE
  - SOFTWARE.
  -
  -
  -->

<svg big="true" clip-rule="evenodd" fill-rule="evenodd" stroke-linejoin="round" stroke-miterlimit="1.4142" version="1.1"
     viewBox="0 0 24 24" xml:space="preserve" xmlns="http://www.w3.org/2000/svg" width="16px" height="16px">
    <path d="m10 4h-6c-1.11 0-2 .89-2 2v12c0 1.097.903 2 2 2h16c1.097 0 2-.903 2-2v-10c0-1.11-.9-2-2-2h-8l-2-2z"
          fill="#fbc02d" fill-rule="nonzero" folderColor="Firebase"/>
    <path d="m23.724 18.322-4.2044 2.3326c-.28797.14975-.57594.14975-.86392 0l-4.1468-2.3326 7.5161-7.5737.20158-.05759c.17278 0 .27069.07487.28797.23038l1.2095 7.4009m-6.1338-7.4585-2.6205 4.3484 1.0943-6.8825c.01728-.1555.11519-.23038.28797-.23038.11519 0 .19006.034556.23038.14399l1.2383 2.275-.23038.34557m2.5918.72569-5.5003 5.5233 4.1756-7.0841c.05759-.11519.14399-.16702.25918-.16702s.19006.051835.23038.16702z"
          fill="#fff9c4" folderIconColor="Firebase"/>
</svg>
