<!--
  - The MIT License (MIT)
  -
  - Copyright (c) 2015-2022 Elior "Mallowigi" Boukhobza
  -
  - Permission is hereby granted, free of charge, to any person obtaining a copy
  - of this software and associated documentation files (the "Software"), to deal
  - in the Software without restriction, including without limitation the rights
  - to use, copy, modify, merge, publish, distribute, sublicense, and/or sell
  - copies of the Software, and to permit persons to whom the Software is
  - furnished to do so, subject to the following conditions:
  -
  - The above copyright notice and this permission notice shall be included in all
  - copies or substantial portions of the Software.
  -
  - THE SOFTWARE IS PROVIDED "AS IS", WITHOUT WARRANTY OF ANY KIND, EXPRESS OR
  - IMPLIED, INCLUDING BUT NOT LIMITED TO THE WARRANTIES OF MERCHANTABILITY,
  - FITNESS FOR A PARTICULAR PURPOSE AND NONINFRINGEMENT. IN NO EVENT SHALL THE
  - AUTHORS OR COPYRIGHT HOLDERS BE LIABLE FOR ANY CLAIM, DAMAGES OR OTHER
  - LIABILITY, WHETHER IN AN ACTION OF CONTRACT, TORT OR OTHERWISE, ARISING FROM,
  - OUT OF OR IN CONNECTION WITH THE SOFTWARE OR THE USE OR OTHER DEALINGS IN THE
  - SOFTWARE.
  -
  -
  -->

<svg big="true" version="1.1" xmlns="http://www.w3.org/2000/svg" x="0px"
     y="0px" viewBox="0 0 24 24" width="16px" height="16px" xml:space="preserve">
    <path fill="#8D6E63" d="M10,4H4C2.9,4,2,4.9,2,6v12c0,1.1,0.9,2,2,2h16c1.1,0,2-0.9,2-2V8c0-1.1-0.9-2-2-2h-8L10,4z"
          folderColor="Home"/>
    <path fill="#BCAAA4" folderIconColor="Home" d="M17.3,21.7c-3.4,0-6.2-2.8-6.2-6.2c0-3.4,2.8-6.2,6.2-6.2c3.4,0,6.2,2.8,6.2,6.2C23.5,18.9,20.7,21.7,17.3,21.7
	z M18.3,15.5c0,0.1,0,0.2,0,0.2c0,0.7,0,1.4,0,2.1c0,0.2,0.1,0.3,0.3,0.3c0.5,0,1,0,1.5,0c0.2,0,0.3-0.1,0.3-0.3c0-1.3,0-2.5,0-3.8
	c0-0.1,0-0.2-0.2-0.3c-0.9-0.7-1.8-1.4-2.7-2.1c-0.2-0.1-0.3-0.1-0.4,0c-0.9,0.7-1.7,1.4-2.6,2.1c-0.1,0.1-0.2,0.2-0.2,0.3
	c0,1.3,0,2.5,0,3.8c0,0.2,0.1,0.3,0.3,0.3c0.5,0,1,0,1.4,0c0.3,0,0.3-0.1,0.3-0.3c0-0.7,0-1.4,0-2.1c0-0.1,0-0.1,0-0.2
	C17.1,15.5,17.7,15.5,18.3,15.5z"/>
</svg>
