<!--
  - The MIT License (MIT)
  -
  - Copyright (c) 2015-2022 Elior "Mallowigi" Boukhobza
  -
  - Permission is hereby granted, free of charge, to any person obtaining a copy
  - of this software and associated documentation files (the "Software"), to deal
  - in the Software without restriction, including without limitation the rights
  - to use, copy, modify, merge, publish, distribute, sublicense, and/or sell
  - copies of the Software, and to permit persons to whom the Software is
  - furnished to do so, subject to the following conditions:
  -
  - The above copyright notice and this permission notice shall be included in all
  - copies or substantial portions of the Software.
  -
  - THE SOFTWARE IS PROVIDED "AS IS", WITHOUT WARRANTY OF ANY KIND, EXPRESS OR
  - IMPLIED, INCLUDING BUT NOT LIMITED TO THE WARRANTIES OF MERCHANTABILITY,
  - FITNESS FOR A PARTICULAR PURPOSE AND NONINFRINGEMENT. IN NO EVENT SHALL THE
  - AUTHORS OR COPYRIGHT HOLDERS BE LIABLE FOR ANY CLAIM, DAMAGES OR OTHER
  - LIABILITY, WHETHER IN AN ACTION OF CONTRACT, TORT OR OTHERWISE, ARISING FROM,
  - OUT OF OR IN CONNECTION WITH THE SOFTWARE OR THE USE OR OTHER DEALINGS IN THE
  - SOFTWARE.
  -
  -
  -->

<svg big="true" clip-rule="evenodd" fill-rule="evenodd" stroke-linejoin="round" stroke-miterlimit="1.4142" version="1.1"
     viewBox="0 0 24 24" width="16px" height="16px" xml:space="preserve" xmlns="http://www.w3.org/2000/svg">
    <path d="m10 4h-6c-1.11 0-2 0.89-2 2v12c0 1.097 0.903 2 2 2h16c1.097 0 2-0.903 2-2v-10c0-1.11-0.9-2-2-2h-8l-2-2z"
          fill="#5c6bc0" fill-rule="nonzero" folderColor="i18n"/>
    <path d="m17.293 17.786-1.5303-1.5122 0.01807-0.01807c1.0483-1.1688 1.7953-2.5123 2.2351-3.9341h1.7652v-1.2049h-4.2173v-1.2049h-1.2049v1.2049h-4.2173v1.2049h6.7295c-0.40365 1.1567-1.0423 2.2592-1.9098 3.2232-0.56029-0.62054-1.0242-1.3013-1.3917-2.0183h-1.2049c0.4398 0.98202 1.0423 1.9098 1.7953 2.7472l-3.0665 3.0244 0.8555 0.8555 3.0123-3.0123 1.8737 1.8737 0.45787-1.229m3.3919-3.0545h-1.2049l-2.7111 7.2296h1.2049l0.67476-1.8074h2.8617l0.68079 1.8074h1.2049l-2.7111-7.2296m-1.5785 4.2173 0.97599-2.6087 0.97599 2.6087z"
          fill="#c5cae9" stroke-width=".60247" folderIconColor="i18n"/>
</svg>
