<!--
  - The MIT License (MIT)
  -
  -  Copyright (c) 2015-2022 Elior "Mallowigi" Boukhobza
  -
  -  Permission is hereby granted, free of charge, to any person obtaining a copy
  -  of this software and associated documentation files (the "Software"), to deal
  -  in the Software without restriction, including without limitation the rights
  -  to use, copy, modify, merge, publish, distribute, sublicense, and/or sell
  -  copies of the Software, and to permit persons to whom the Software is
  -  furnished to do so, subject to the following conditions:
  -
  -  The above copyright notice and this permission notice shall be included in all
  -  copies or substantial portions of the Software.
  -
  -  THE SOFTWARE IS PROVIDED "AS IS", WITHOUT WARRANTY OF ANY KIND, EXPRESS OR
  -  IMPLIED, INCLUDING BUT NOT LIMITED TO THE WARRANTIES OF MERCHANTABILITY,
  -  FITNESS FOR A PARTICULAR PURPOSE AND NONINFRINGEMENT. IN NO EVENT SHALL THE
  -  AUTHORS OR COPYRIGHT HOLDERS BE LIABLE FOR ANY CLAIM, DAMAGES OR OTHER
  -  LIABILITY, WHETHER IN AN ACTION OF CONTRACT, TORT OR OTHERWISE, ARISING FROM,
  -  OUT OF OR IN CONNECTION WITH THE SOFTWARE OR THE USE OR OTHER DEALINGS IN THE
  -  SOFTWARE.
  -->

<svg big="true" width="16px" height="16px" clip-rule="evenodd" fill-rule="evenodd" stroke-linejoin="round"
     stroke-miterlimit="1.414" viewBox="0 0 24 24"
     xmlns="http://www.w3.org/2000/svg">
    <path d="M10 4H4c-1.11 0-2 .89-2 2v12c0 1.097.903 2 2 2h16c1.097 0 2-.903 2-2V8a2 2 0 0 0-2-2h-8z"
          fill="#FF7043" folderColor="Injection"
          fill-rule="nonzero"/>
    <path fill="#FFECB3" transform="scale(0.7) translate(12 12)" folderIconColor="Injection"
          d="M11.15,15.18L9.73,13.77L11.15,12.35L12.56,13.77L13.97,12.35L12.56,10.94L13.97,9.53L15.39,10.94L16.8,9.53L13.97,6.7L6.9,13.77L9.73,16.6L11.15,15.18M3.08,19L6.2,15.89L4.08,13.77L13.97,3.87L16.1,6L17.5,4.58L16.1,3.16L17.5,1.75L21.75,6L20.34,7.4L18.92,6L17.5,7.4L19.63,9.53L9.73,19.42L7.61,17.3L3.08,21.84V19Z"/>
</svg>
