<!--
  - The MIT License (MIT)
  -
  - Copyright (c) 2015-2022 Elior "Mallowigi" Boukhobza
  -
  - Permission is hereby granted, free of charge, to any person obtaining a copy
  - of this software and associated documentation files (the "Software"), to deal
  - in the Software without restriction, including without limitation the rights
  - to use, copy, modify, merge, publish, distribute, sublicense, and/or sell
  - copies of the Software, and to permit persons to whom the Software is
  - furnished to do so, subject to the following conditions:
  -
  - The above copyright notice and this permission notice shall be included in all
  - copies or substantial portions of the Software.
  -
  - THE SOFTWARE IS PROVIDED "AS IS", WITHOUT WARRANTY OF ANY KIND, EXPRESS OR
  - IMPLIED, INCLUDING BUT NOT LIMITED TO THE WARRANTIES OF MERCHANTABILITY,
  - FITNESS FOR A PARTICULAR PURPOSE AND NONINFRINGEMENT. IN NO EVENT SHALL THE
  - AUTHORS OR COPYRIGHT HOLDERS BE LIABLE FOR ANY CLAIM, DAMAGES OR OTHER
  - LIABILITY, WHETHER IN AN ACTION OF CONTRACT, TORT OR OTHERWISE, ARISING FROM,
  - OUT OF OR IN CONNECTION WITH THE SOFTWARE OR THE USE OR OTHER DEALINGS IN THE
  - SOFTWARE.
  -
  -
  -->

<svg big="true" clip-rule="evenodd" fill-rule="evenodd" stroke-linejoin="round" width="16px" height="16px"
     stroke-miterlimit="1.4142" version="1.1" viewBox="0 0 24 24" xml:space="preserve"
     xmlns="http://www.w3.org/2000/svg">
    <path d="m10 4h-6c-1.11 0-2 0.89-2 2v12c0 1.097 0.903 2 2 2h16c1.097 0 2-0.903 2-2v-10c0-1.11-0.9-2-2-2h-8l-2-2z"
          fill="#607D8B" fill-rule="nonzero" folderColor="Jinja"/>
    <g fill="#CFD8DC" folderIconColor="Jinja">
        <path d="m9.875 11.625q3.828 0.472 6.563 0.469 2.69-3e-3 6.437-0.469v1.719q-3.747 0.466-6.437 0.469-2.735 2e-3 -6.563-0.469v-1.719z"/>
        <path d="m12.844 13.008l-0.875 8.508 1.906-8e-3 0.281-8-1.312-0.5z"/>
        <path d="m19.688 13l0.851 8.5h-1.883l-0.281-8 1.313-0.5z"/>
        <rect x="9.797" y="15.172" width="13" height="1"/>
        <rect x="15.797" y="13" width="1" height="2.375"/>
    </g>
</svg>
