<!--
  - The MIT License (MIT)
  -
  -  Copyright (c) 2015-2022 Elior "Mallowigi" Boukhobza
  -
  -  Permission is hereby granted, free of charge, to any person obtaining a copy
  -  of this software and associated documentation files (the "Software"), to deal
  -  in the Software without restriction, including without limitation the rights
  -  to use, copy, modify, merge, publish, distribute, sublicense, and/or sell
  -  copies of the Software, and to permit persons to whom the Software is
  -  furnished to do so, subject to the following conditions:
  -
  -  The above copyright notice and this permission notice shall be included in all
  -  copies or substantial portions of the Software.
  -
  -  THE SOFTWARE IS PROVIDED "AS IS", WITHOUT WARRANTY OF ANY KIND, EXPRESS OR
  -  IMPLIED, INCLUDING BUT NOT LIMITED TO THE WARRANTIES OF MERCHANTABILITY,
  -  FITNESS FOR A PARTICULAR PURPOSE AND NONINFRINGEMENT. IN NO EVENT SHALL THE
  -  AUTHORS OR COPYRIGHT HOLDERS BE LIABLE FOR ANY CLAIM, DAMAGES OR OTHER
  -  LIABILITY, WHETHER IN AN ACTION OF CONTRACT, TORT OR OTHERWISE, ARISING FROM,
  -  OUT OF OR IN CONNECTION WITH THE SOFTWARE OR THE USE OR OTHER DEALINGS IN THE
  -  SOFTWARE.
  -->

<svg big="true" width="16px" height="16px" viewBox="0 0 24 24" fill="none" xmlns="http://www.w3.org/2000/svg">
    <path
            d="M10.108 3.984H4.043c-1.122 0-2.021.886-2.021 1.992v11.951c0 1.093.912 1.992 2.021 1.992h16.173c1.109 0 2.022-.9 2.022-1.992v-9.96c0-.528-.213-1.034-.593-1.408a2.037 2.037 0 0 0-1.429-.583H12.13l-2.022-1.992Z"
            fill="#4CAF50" folderColor="Playwright"/>
    <path
            d="M15.358 19.46v-.896l-2.489.706s.184-1.068 1.482-1.437a2.16 2.16 0 0 1 1.007-.057v-3.674h1.246a7.466 7.466 0 0 0-.377-.966c-.183-.37-.37-.125-.794.23-.299.25-1.054.783-2.19 1.089-1.137.306-2.056.225-2.44.158-.544-.093-.828-.213-.801.201.023.364.11.93.308 1.676.431 1.618 1.854 4.734 4.543 4.01.702-.19 1.198-.563 1.541-1.04h-1.036Zm-4.015-2.947 1.91-.504s-.056.735-.772.924c-.716.189-1.139-.42-1.139-.42Z"
            fill="#A5D6A7" folderIconColor="Playwright"/>
    <path
            d="M22.55 14.145c-.498.087-1.69.195-3.162-.2-1.473-.394-2.45-1.084-2.838-1.408-.548-.46-.79-.78-1.027-.296-.21.426-.48 1.12-.74 2.091-.562 2.104-.984 6.541 2.5 7.475 3.482.933 5.336-3.121 5.9-5.224.26-.971.373-1.706.405-2.18.036-.538-.333-.382-1.039-.258Zm-6.999 1.74s.549-.854 1.48-.59c.931.265 1.003 1.295 1.003 1.295l-2.483-.705Zm2.272 3.831c-1.637-.48-1.89-1.786-1.89-1.786l4.4 1.23s-.888 1.03-2.51.556Zm1.556-2.684s.548-.853 1.479-.588c.93.265 1.004 1.295 1.004 1.295l-2.483-.707Z"
            fill="#A5D6A7" folderIconColor="Playwright"/>
</svg>
