<!--
  - The MIT License (MIT)
  -
  - Copyright (c) 2015-2022 Elior "Mallowigi" Boukhobza
  -
  - Permission is hereby granted, free of charge, to any person obtaining a copy
  - of this software and associated documentation files (the "Software"), to deal
  - in the Software without restriction, including without limitation the rights
  - to use, copy, modify, merge, publish, distribute, sublicense, and/or sell
  - copies of the Software, and to permit persons to whom the Software is
  - furnished to do so, subject to the following conditions:
  -
  - The above copyright notice and this permission notice shall be included in all
  - copies or substantial portions of the Software.
  -
  - THE SOFTWARE IS PROVIDED "AS IS", WITHOUT WARRANTY OF ANY KIND, EXPRESS OR
  - IMPLIED, INCLUDING BUT NOT LIMITED TO THE WARRANTIES OF MERCHANTABILITY,
  - FITNESS FOR A PARTICULAR PURPOSE AND NONINFRINGEMENT. IN NO EVENT SHALL THE
  - AUTHORS OR COPYRIGHT HOLDERS BE LIABLE FOR ANY CLAIM, DAMAGES OR OTHER
  - LIABILITY, WHETHER IN AN ACTION OF CONTRACT, TORT OR OTHERWISE, ARISING FROM,
  - OUT OF OR IN CONNECTION WITH THE SOFTWARE OR THE USE OR OTHER DEALINGS IN THE
  - SOFTWARE.
  -
  -
  -->

<svg big="true" clip-rule="evenodd" fill-rule="evenodd" stroke-linejoin="round" stroke-miterlimit="1.4142" version="1.1"
     viewBox="0 0 24 24" xml:space="preserve" xmlns="http://www.w3.org/2000/svg" width="16px" height="16px">
    <path d="m10 4h-6c-1.11 0-2 .89-2 2v12c0 1.097.903 2 2 2h16c1.097 0 2-.903 2-2v-10c0-1.11-.9-2-2-2h-8l-2-2z"
          fill="#2196f3" fill-rule="nonzero" folderColor="Reviews"/>
    <path d="m17.22 14.68a1.7651 1.7651 0 0 0 -1.7651 1.7651 1.7651 1.7651 0 0 0 1.7651 1.7651 1.7651 1.7651 0 0 0 1.7651 -1.7651 1.7651 1.7651 0 0 0 -1.7651 -1.7651m0 4.707a2.9419 2.9419 0 0 1 -2.9419 -2.9419 2.9419 2.9419 0 0 1 2.9419 -2.9419 2.9419 2.9419 0 0 1 2.9419 2.9419 2.9419 2.9419 0 0 1 -2.9419 2.9419m0-7.3547c-2.9419 0-5.4542 1.8298-6.4721 4.4128 1.0179 2.583 3.5302 4.4128 6.4721 4.4128 2.9419 0 5.4542-1.8298 6.4721-4.4128-1.0179-2.583-3.5302-4.4128-6.4721-4.4128z"
          fill="#bbdefb" folderIconColor="Reviews"/>
</svg>
