<!--
  - The MIT License (MIT)
  -
  - Copyright (c) 2015-2022 Elior "Mallowigi" Boukhobza
  -
  - Permission is hereby granted, free of charge, to any person obtaining a copy
  - of this software and associated documentation files (the "Software"), to deal
  - in the Software without restriction, including without limitation the rights
  - to use, copy, modify, merge, publish, distribute, sublicense, and/or sell
  - copies of the Software, and to permit persons to whom the Software is
  - furnished to do so, subject to the following conditions:
  -
  - The above copyright notice and this permission notice shall be included in all
  - copies or substantial portions of the Software.
  -
  - THE SOFTWARE IS PROVIDED "AS IS", WITHOUT WARRANTY OF ANY KIND, EXPRESS OR
  - IMPLIED, INCLUDING BUT NOT LIMITED TO THE WARRANTIES OF MERCHANTABILITY,
  - FITNESS FOR A PARTICULAR PURPOSE AND NONINFRINGEMENT. IN NO EVENT SHALL THE
  - AUTHORS OR COPYRIGHT HOLDERS BE LIABLE FOR ANY CLAIM, DAMAGES OR OTHER
  - LIABILITY, WHETHER IN AN ACTION OF CONTRACT, TORT OR OTHERWISE, ARISING FROM,
  - OUT OF OR IN CONNECTION WITH THE SOFTWARE OR THE USE OR OTHER DEALINGS IN THE
  - SOFTWARE.
  -
  -
  -->

<svg big="true" clip-rule="evenodd" fill-rule="evenodd" stroke-linejoin="round" stroke-miterlimit="1.4142" version="1.1"
     width="16px" height="16px" viewBox="0 0 24 24" xml:space="preserve" xmlns="http://www.w3.org/2000/svg">
    <path d="m10 4h-6c-1.11 0-2 .89-2 2v12c0 1.097.903 2 2 2h16c1.097 0 2-.903 2-2v-10c0-1.11-.9-2-2-2h-8l-2-2z"
          fill="#f9a825" fill-rule="nonzero" folderColor="Security"/>
    <path d="m19.017 17.774a1.1955 1.1955 0 0 0 1.1955 -1.1955c0-.66351-.53798-1.1955-1.1955-1.1955a1.1955 1.1955 0 0 0 -1.1955 1.1955 1.1955 1.1955 0 0 0 1.1955 1.1955m3.5865-5.3798a1.1955 1.1955 0 0 1 1.1955 1.1955v5.9776a1.1955 1.1955 0 0 1 -1.1955 1.1955h-7.1731a1.1955 1.1955 0 0 1 -1.1955 -1.1955v-5.9776c0-.66351.53798-1.1955 1.1955-1.1955h.59776v-1.1955a2.9888 2.9888 0 0 1 2.9888 -2.9888 2.9888 2.9888 0 0 1 2.9888 2.9888v1.1955h.59776m-3.5865-2.9888a1.7933 1.7933 0 0 0 -1.7933 1.7933v1.1955h3.5865v-1.1955a1.7933 1.7933 0 0 0 -1.7933 -1.7933z"
          fill="#fff9c4" folderIconColor="Security"/>
</svg>
