<!--
  - The MIT License (MIT)
  -
  - Copyright (c) 2015-2022 Elior "Mallowigi" Boukhobza
  -
  - Permission is hereby granted, free of charge, to any person obtaining a copy
  - of this software and associated documentation files (the "Software"), to deal
  - in the Software without restriction, including without limitation the rights
  - to use, copy, modify, merge, publish, distribute, sublicense, and/or sell
  - copies of the Software, and to permit persons to whom the Software is
  - furnished to do so, subject to the following conditions:
  -
  - The above copyright notice and this permission notice shall be included in all
  - copies or substantial portions of the Software.
  -
  - THE SOFTWARE IS PROVIDED "AS IS", WITHOUT WARRANTY OF ANY KIND, EXPRESS OR
  - IMPLIED, INCLUDING BUT NOT LIMITED TO THE WARRANTIES OF MERCHANTABILITY,
  - FITNESS FOR A PARTICULAR PURPOSE AND NONINFRINGEMENT. IN NO EVENT SHALL THE
  - AUTHORS OR COPYRIGHT HOLDERS BE LIABLE FOR ANY CLAIM, DAMAGES OR OTHER
  - LIABILITY, WHETHER IN AN ACTION OF CONTRACT, TORT OR OTHERWISE, ARISING FROM,
  - OUT OF OR IN CONNECTION WITH THE SOFTWARE OR THE USE OR OTHER DEALINGS IN THE
  - SOFTWARE.
  -
  -
  -->

<svg big="true" xmlns="http://www.w3.org/2000/svg" clip-rule="evenodd" fill-rule="evenodd" stroke-linejoin="round"
     stroke-miterlimit="1.414" viewBox="0 0 24 24" width="16px" height="16px">
    <path d="M10 4H4c-1.11 0-2 .89-2 2v12c0 1.097.903 2 2 2h16c1.097 0 2-.903 2-2V8a2 2 0 0 0-2-2h-8l-2-2z"
          fill="#5C6BC0" fill-rule="nonzero" folderColor="SVN"/>
    <path fill="#C5CAE9" transform="scale(0.03) translate(280 280)" folderIconColor="SVN"
          d="M512,200.0933685c-146.9875793,8.5526123-366.7861328,48.0585327-380.4385376,18.2526093C127.2781906,181.9617615,363.6549072,117.2095871,512,97.8423233V200.0933685z M0,299.653717v110.6071167c161.4634705-19.0578308,423.4024963-90.8175659,409.5231934-126.9024658C394.8293457,248.4908447,144.984024,294.1217651,0,299.653717z M493.867218,69.2428131H0v134.7196045C122.2290573,154.176178,329.9000244,100.0858307,493.867218,69.2428131z M26.0763874,442.7572021H512V309.1186523C372.0431213,365.0122681,153.2159271,422.120697,26.0763874,442.7572021z"/>
</svg>
