<!--
  - The MIT License (MIT)
  -
  - Copyright (c) 2015-2023 Elior "Mallowigi" Boukhobza
  -
  - Permission is hereby granted, free of charge, to any person obtaining a copy
  - of this software and associated documentation files (the "Software"), to deal
  - in the Software without restriction, including without limitation the rights
  - to use, copy, modify, merge, publish, distribute, sublicense, and/or sell
  - copies of the Software, and to permit persons to whom the Software is
  - furnished to do so, subject to the following conditions:
  -
  - The above copyright notice and this permission notice shall be included in all
  - copies or substantial portions of the Software.
  -
  - THE SOFTWARE IS PROVIDED "AS IS", WITHOUT WARRANTY OF ANY KIND, EXPRESS OR
  - IMPLIED, INCLUDING BUT NOT LIMITED TO THE WARRANTIES OF MERCHANTABILITY,
  - FITNESS FOR A PARTICULAR PURPOSE AND NONINFRINGEMENT. IN NO EVENT SHALL THE
  - AUTHORS OR COPYRIGHT HOLDERS BE LIABLE FOR ANY CLAIM, DAMAGES OR OTHER
  - LIABILITY, WHETHER IN AN ACTION OF CONTRACT, TORT OR OTHERWISE, ARISING FROM,
  - OUT OF OR IN CONNECTION WITH THE SOFTWARE OR THE USE OR OTHER DEALINGS IN THE
  - SOFTWARE.
  -
  -->

<svg big="true" width="16px" height="16px" xmlns="http://www.w3.org/2000/svg" viewBox="0 0 500 500">
    <path fill="#168e80" folderColor="Taskfile"
          d="M204.9,54.33H85.32c-22.12,0-39.86,17.74-39.86,39.86v239.15c0,21.86,18,39.86,39.86,39.86H404.19c21.86,0,39.86-18,39.86-39.86V134.04c0-22.01-17.85-39.86-39.86-39.86H244.75l-39.86-39.86Z"/>
    <g fill="#69d2c8" folderIconColor="Taskfile">
        <path d="M350.15,323.68v121.99l-104.39-63.27v-122l104.39,63.27Z"/>
        <path d="M350.15,323.68v121.99l104.39-63.27v-122l-104.39,63.27Z"/>
        <path d="M350.15,323.68l-104.39-63.27,104.39-63.27,104.39,63.27-104.39,63.27Z"/>
    </g>
</svg>
