<!--
  - The MIT License (MIT)
  -
  - Copyright (c) 2015-2022 Elior "Mallowigi" Boukhobza
  -
  - Permission is hereby granted, free of charge, to any person obtaining a copy
  - of this software and associated documentation files (the "Software"), to deal
  - in the Software without restriction, including without limitation the rights
  - to use, copy, modify, merge, publish, distribute, sublicense, and/or sell
  - copies of the Software, and to permit persons to whom the Software is
  - furnished to do so, subject to the following conditions:
  -
  - The above copyright notice and this permission notice shall be included in all
  - copies or substantial portions of the Software.
  -
  - THE SOFTWARE IS PROVIDED "AS IS", WITHOUT WARRANTY OF ANY KIND, EXPRESS OR
  - IMPLIED, INCLUDING BUT NOT LIMITED TO THE WARRANTIES OF MERCHANTABILITY,
  - FITNESS FOR A PARTICULAR PURPOSE AND NONINFRINGEMENT. IN NO EVENT SHALL THE
  - AUTHORS OR COPYRIGHT HOLDERS BE LIABLE FOR ANY CLAIM, DAMAGES OR OTHER
  - LIABILITY, WHETHER IN AN ACTION OF CONTRACT, TORT OR OTHERWISE, ARISING FROM,
  - OUT OF OR IN CONNECTION WITH THE SOFTWARE OR THE USE OR OTHER DEALINGS IN THE
  - SOFTWARE.
  -
  -
  -->

<svg big="true" clip-rule="evenodd" fill-rule="evenodd" stroke-linejoin="round" stroke-miterlimit="1.4142" version="1.1"
     viewBox="0 0 24 24" width="16px" height="16px" xml:space="preserve" xmlns="http://www.w3.org/2000/svg">
    <path d="m10 4h-6c-1.11 0-2 0.89-2 2v12c0 1.097 0.903 2 2 2h16c1.097 0 2-0.903 2-2v-10c0-1.11-0.9-2-2-2h-8l-2-2z"
          fill="#673AB7" fill-rule="nonzero" folderColor="Themes"/>
    <path d="m21.043 15.266a1.0706 1.0706 0 0 1 -1.0706 -1.0706 1.0706 1.0706 0 0 1 1.0706 -1.0706 1.0706 1.0706 0 0 1 1.0706 1.0706 1.0706 1.0706 0 0 1 -1.0706 1.0706m-2.1412-2.855a1.0706 1.0706 0 0 1 -1.0706 -1.0706 1.0706 1.0706 0 0 1 1.0706 -1.0706 1.0706 1.0706 0 0 1 1.0706 1.0706 1.0706 1.0706 0 0 1 -1.0706 1.0706m-3.5687 0a1.0706 1.0706 0 0 1 -1.0706 -1.0706 1.0706 1.0706 0 0 1 1.0706 -1.0706 1.0706 1.0706 0 0 1 1.0706 1.0706 1.0706 1.0706 0 0 1 -1.0706 1.0706m-2.1412 2.855a1.0706 1.0706 0 0 1 -1.0706 -1.0706 1.0706 1.0706 0 0 1 1.0706 -1.0706 1.0706 1.0706 0 0 1 1.0706 1.0706 1.0706 1.0706 0 0 1 -1.0706 1.0706m3.9256-6.4237a6.4237 6.4237 0 0 0 -6.4237 6.4237 6.4237 6.4237 0 0 0 6.4237 6.4237 1.0706 1.0706 0 0 0 1.0706 -1.0706c0-0.27836-0.10706-0.52817-0.27836-0.71374-0.16416-0.19271-0.27122-0.44252-0.27122-0.71374a1.0706 1.0706 0 0 1 1.0706 -1.0706h1.2633a3.5687 3.5687 0 0 0 3.5687 -3.5687c0-3.1548-2.8764-5.71-6.4237-5.71z"
          fill="#bbdefb" stroke-width=".71374" folderIconColor="Themes"/>
</svg>
