<!--
  - The MIT License (MIT)
  -
  -  Copyright (c) 2015-2022 Elior "Mallowigi" Boukhobza
  -
  -  Permission is hereby granted, free of charge, to any person obtaining a copy
  -  of this software and associated documentation files (the "Software"), to deal
  -  in the Software without restriction, including without limitation the rights
  -  to use, copy, modify, merge, publish, distribute, sublicense, and/or sell
  -  copies of the Software, and to permit persons to whom the Software is
  -  furnished to do so, subject to the following conditions:
  -
  -  The above copyright notice and this permission notice shall be included in all
  -  copies or substantial portions of the Software.
  -
  -  THE SOFTWARE IS PROVIDED "AS IS", WITHOUT WARRANTY OF ANY KIND, EXPRESS OR
  -  IMPLIED, INCLUDING BUT NOT LIMITED TO THE WARRANTIES OF MERCHANTABILITY,
  -  FITNESS FOR A PARTICULAR PURPOSE AND NONINFRINGEMENT. IN NO EVENT SHALL THE
  -  AUTHORS OR COPYRIGHT HOLDERS BE LIABLE FOR ANY CLAIM, DAMAGES OR OTHER
  -  LIABILITY, WHETHER IN AN ACTION OF CONTRACT, TORT OR OTHERWISE, ARISING FROM,
  -  OUT OF OR IN CONNECTION WITH THE SOFTWARE OR THE USE OR OTHER DEALINGS IN THE
  -  SOFTWARE.
  -->

<svg big="true" width="16px" height="16px" clip-rule="evenodd" fill-rule="evenodd" stroke-linejoin="round"
     stroke-miterlimit="1.414" viewBox="0 0 24 24"
     xmlns="http://www.w3.org/2000/svg">
    <defs>
        <mask id="Mask">
            <path d="M14.924 9.185a1.5 1.5 0 0 0-1.5 1.5v9a1.5 1.5 0 0 0 1.5 1.5h7a1.5 1.5 0 0 0 1.5-1.5v-9a1.5 1.5 0 0 0-1.5-1.5z"
                  fill="white" transform="translate(.31 -.414)"/>
            <path d="M16.4 10.4v5.2h1.6v4.3l3.8-5.7h-2.2l2.2-3.8H16.4z" fill="black"/>
        </mask>
    </defs>
    <path d="M10 4H4c-1.11 0-2 .89-2 2v12c0 1.097.903 2 2 2h16c1.097 0 2-.903 2-2V8a2 2 0 0 0-2-2h-8z"
          fill="#009688" folderColor="Vitepress"
          fill-rule="nonzero"/>
    <g mask="url(#Mask)">
        <path d="M14.924 9.185a1.5 1.5 0 0 0-1.5 1.5v9a1.5 1.5 0 0 0 1.5 1.5h7a1.5 1.5 0 0 0 1.5-1.5v-9a1.5 1.5 0 0 0-1.5-1.5z"
              fill="#C8E6C9" transform="translate(.31 -.414)" folderIconColor="Vitepress"/>
        <path d="M16.4 10.4v5.2h1.6v4.3l3.8-5.7h-2.2l2.2-3.8H16.4z" fill="#009688"/>
    </g>
</svg>
