<!--
  - The MIT License (MIT)
  -
  -  Copyright (c) 2015-2022 Elior "Mallowigi" Boukhobza
  -
  -  Permission is hereby granted, free of charge, to any person obtaining a copy
  -  of this software and associated documentation files (the "Software"), to deal
  -  in the Software without restriction, including without limitation the rights
  -  to use, copy, modify, merge, publish, distribute, sublicense, and/or sell
  -  copies of the Software, and to permit persons to whom the Software is
  -  furnished to do so, subject to the following conditions:
  -
  -  The above copyright notice and this permission notice shall be included in all
  -  copies or substantial portions of the Software.
  -
  -  THE SOFTWARE IS PROVIDED "AS IS", WITHOUT WARRANTY OF ANY KIND, EXPRESS OR
  -  IMPLIED, INCLUDING BUT NOT LIMITED TO THE WARRANTIES OF MERCHANTABILITY,
  -  FITNESS FOR A PARTICULAR PURPOSE AND NONINFRINGEMENT. IN NO EVENT SHALL THE
  -  AUTHORS OR COPYRIGHT HOLDERS BE LIABLE FOR ANY CLAIM, DAMAGES OR OTHER
  -  LIABILITY, WHETHER IN AN ACTION OF CONTRACT, TORT OR OTHERWISE, ARISING FROM,
  -  OUT OF OR IN CONNECTION WITH THE SOFTWARE OR THE USE OR OTHER DEALINGS IN THE
  -  SOFTWARE.
  -->

<svg big="true" width="16px" height="16px" viewBox="0 -4 20 24" version="1.1" xmlns="http://www.w3.org/2000/svg"
     xmlns:xlink="http://www.w3.org/1999/xlink">
    <path d="M8,0 L2,0 C0.89,0 0,0.89 0,2 L0,14 C0,15.097 0.903,16 2,16 L18,16 C19.097,16 20,15.097 20,14 L20,4 C20,2.8954305 19.1045695,2 18,2 L10,2 L8,0 Z"
          id="Path" fill="#009CB9" folderColor="XState"></path>
    <g id="X-state-logo" transform="translate(11.000000, 7.000000)" fill="#e1f5fe" folderIconColor="XState"
       fill-rule="nonzero">
        <path d="M7.25999961,0 L9.6835443,0 L7.23514274,5 C6.48943668,3.43567251 6.50186511,1.53508772 7.25999961,0 Z"
              id="Path"></path>
        <polygon id="Path"
                 points="9.6835443 11 3.40869958 0 0.683544304 0 3.81397909 5.50707851 0.683544304 11 3.40869958 11 5.1835443 7.8996139 6.94441387 11"></polygon>
    </g>
</svg>
